G04 #@! TF.GenerationSoftware,KiCad,Pcbnew,5.1.5+dfsg1-2build2*
G04 #@! TF.CreationDate,2020-08-17T22:58:45+02:00*
G04 #@! TF.ProjectId,PENIS,50454e49-532e-46b6-9963-61645f706362,rev?*
G04 #@! TF.SameCoordinates,Original*
G04 #@! TF.FileFunction,Soldermask,Top*
G04 #@! TF.FilePolarity,Negative*
%FSLAX46Y46*%
G04 Gerber Fmt 4.6, Leading zero omitted, Abs format (unit mm)*
G04 Created by KiCad (PCBNEW 5.1.5+dfsg1-2build2) date 2020-08-17 22:58:45*
%MOMM*%
%LPD*%
G04 APERTURE LIST*
%ADD10R,1.700000X1.700000*%
%ADD11O,1.700000X1.700000*%
%ADD12C,1.850000*%
%ADD13C,3.100000*%
%ADD14C,4.087800*%
%ADD15R,0.700000X1.550000*%
%ADD16R,0.400000X1.550000*%
%ADD17O,1.100000X2.200000*%
%ADD18C,0.750000*%
%ADD19O,1.100000X1.700000*%
%ADD20R,0.750000X1.160000*%
%ADD21C,0.100000*%
%ADD22O,1.800000X1.800000*%
%ADD23R,1.800000X1.800000*%
%ADD24C,3.148000*%
%ADD25R,1.000000X0.900000*%
%ADD26R,2.100000X2.100000*%
%ADD27C,2.100000*%
%ADD28R,3.300000X2.100000*%
%ADD29R,1.300000X0.900000*%
%ADD30R,1.000000X1.300000*%
G04 APERTURE END LIST*
D10*
X410290000Y-142340000D03*
D11*
X400130000Y-142340000D03*
D10*
X410290000Y-139790000D03*
D11*
X400130000Y-139790000D03*
D10*
X391940000Y-147440000D03*
D11*
X381780000Y-147440000D03*
D10*
X391940000Y-144940000D03*
D11*
X381780000Y-144940000D03*
D10*
X391940000Y-142440000D03*
D11*
X381780000Y-142440000D03*
D10*
X391940000Y-139890000D03*
D11*
X381780000Y-139890000D03*
D10*
X391940000Y-137390000D03*
D11*
X381780000Y-137390000D03*
D10*
X391940000Y-134840000D03*
D11*
X381780000Y-134840000D03*
D10*
X375387000Y-147520000D03*
D11*
X365227000Y-147520000D03*
D10*
X375387000Y-137385400D03*
D11*
X365227000Y-137385400D03*
D10*
X375387000Y-139925400D03*
D11*
X365227000Y-139925400D03*
D10*
X375387000Y-142440000D03*
D11*
X365227000Y-142440000D03*
D10*
X375387000Y-144980000D03*
D11*
X365227000Y-144980000D03*
D10*
X375390000Y-134840000D03*
D11*
X365230000Y-134840000D03*
D10*
X359150000Y-147550000D03*
D11*
X348990000Y-147550000D03*
D10*
X359150000Y-145000000D03*
D11*
X348990000Y-145000000D03*
D10*
X359150000Y-142450000D03*
D11*
X348990000Y-142450000D03*
D10*
X359140000Y-139890000D03*
D11*
X348980000Y-139890000D03*
D10*
X359140000Y-137350000D03*
D11*
X348980000Y-137350000D03*
D10*
X359140000Y-134840000D03*
D11*
X348980000Y-134840000D03*
D10*
X343050000Y-147550000D03*
D11*
X332890000Y-147550000D03*
D10*
X343040000Y-144990000D03*
D11*
X332880000Y-144990000D03*
D10*
X342990000Y-142440000D03*
D11*
X332830000Y-142440000D03*
D10*
X343040000Y-139890000D03*
D11*
X332880000Y-139890000D03*
D10*
X343090000Y-137340000D03*
D11*
X332930000Y-137340000D03*
D10*
X343090000Y-134840000D03*
D11*
X332930000Y-134840000D03*
D10*
X327240000Y-147440000D03*
D11*
X317080000Y-147440000D03*
D10*
X327240000Y-144890000D03*
D11*
X317080000Y-144890000D03*
D10*
X327240000Y-142340000D03*
D11*
X317080000Y-142340000D03*
D10*
X327240000Y-139840000D03*
D11*
X317080000Y-139840000D03*
D10*
X327240000Y-137290000D03*
D11*
X317080000Y-137290000D03*
D10*
X327240000Y-134740000D03*
D11*
X317080000Y-134740000D03*
D10*
X311340000Y-147690000D03*
D11*
X301180000Y-147690000D03*
D10*
X311390000Y-145140000D03*
D11*
X301230000Y-145140000D03*
D10*
X311390000Y-142590000D03*
D11*
X301230000Y-142590000D03*
D10*
X311340000Y-140040000D03*
D11*
X301180000Y-140040000D03*
D10*
X311390000Y-137490000D03*
D11*
X301230000Y-137490000D03*
D10*
X311340000Y-134840000D03*
D11*
X301180000Y-134840000D03*
D10*
X295340000Y-147490000D03*
D11*
X285180000Y-147490000D03*
D10*
X295290000Y-144940000D03*
D11*
X285130000Y-144940000D03*
D10*
X295290000Y-142440000D03*
D11*
X285130000Y-142440000D03*
D10*
X295290000Y-139890000D03*
D11*
X285130000Y-139890000D03*
D10*
X295290000Y-137340000D03*
D11*
X285130000Y-137340000D03*
D10*
X295290000Y-134790000D03*
D11*
X285130000Y-134790000D03*
D10*
X275040000Y-137340000D03*
D11*
X275040000Y-147500000D03*
D10*
X271890000Y-134640000D03*
D11*
X271890000Y-144800000D03*
D10*
X268990000Y-137340000D03*
D11*
X268990000Y-147500000D03*
D10*
X265940000Y-134640000D03*
D11*
X265940000Y-144800000D03*
D10*
X262890000Y-137440000D03*
D11*
X262890000Y-147600000D03*
D10*
X259890000Y-134680000D03*
D11*
X259890000Y-144840000D03*
D10*
X256990000Y-137340000D03*
D11*
X256990000Y-147500000D03*
D10*
X253940000Y-134590000D03*
D11*
X253940000Y-144750000D03*
D10*
X250690000Y-137340000D03*
D11*
X250690000Y-147500000D03*
D10*
X247490000Y-134590000D03*
D11*
X247490000Y-144750000D03*
D10*
X244240000Y-137290000D03*
D11*
X244240000Y-147450000D03*
D10*
X241040000Y-134640000D03*
D11*
X241040000Y-144800000D03*
D10*
X237890000Y-137340000D03*
D11*
X237890000Y-147500000D03*
D10*
X234690000Y-134640000D03*
D11*
X234690000Y-144800000D03*
D10*
X231590000Y-137290000D03*
D11*
X231590000Y-147450000D03*
D10*
X228590000Y-134740000D03*
D11*
X228590000Y-144900000D03*
D10*
X216440000Y-134690000D03*
D11*
X216440000Y-144850000D03*
D10*
X213590000Y-137240000D03*
D11*
X213590000Y-147400000D03*
D10*
X225340000Y-137240000D03*
D11*
X225340000Y-147400000D03*
D10*
X222490000Y-134590000D03*
D11*
X222490000Y-144750000D03*
D10*
X219540000Y-137290000D03*
D11*
X219540000Y-147450000D03*
D10*
X210390000Y-134640000D03*
D11*
X210390000Y-144800000D03*
D10*
X207340000Y-137290000D03*
D11*
X207340000Y-147450000D03*
D10*
X204340000Y-134590000D03*
D11*
X204340000Y-144750000D03*
D10*
X201340000Y-137390000D03*
D11*
X201340000Y-147550000D03*
D10*
X198240000Y-134680000D03*
D11*
X198240000Y-144840000D03*
D10*
X194590000Y-137340000D03*
D11*
X194590000Y-147500000D03*
D10*
X191690000Y-134590000D03*
D11*
X191690000Y-144750000D03*
D10*
X188640000Y-137340000D03*
D11*
X188640000Y-147500000D03*
D10*
X185640000Y-134690000D03*
D11*
X185640000Y-144850000D03*
D10*
X182640000Y-137290000D03*
D11*
X182640000Y-147450000D03*
D10*
X179690000Y-134590000D03*
D11*
X179690000Y-144750000D03*
D10*
X176640000Y-137340000D03*
D11*
X176640000Y-147500000D03*
D10*
X173690000Y-134590000D03*
D11*
X173690000Y-144750000D03*
D10*
X170840000Y-137290000D03*
D11*
X170840000Y-147450000D03*
D10*
X167890000Y-134590000D03*
D11*
X167890000Y-144750000D03*
D10*
X164840000Y-137290000D03*
D11*
X164840000Y-147450000D03*
D10*
X161890000Y-134540000D03*
D11*
X161890000Y-144700000D03*
D10*
X158940000Y-137290000D03*
D11*
X158940000Y-147450000D03*
D10*
X156090000Y-134640000D03*
D11*
X156090000Y-144800000D03*
D10*
X153190000Y-137340000D03*
D11*
X153190000Y-147500000D03*
D10*
X150390000Y-134640000D03*
D11*
X150390000Y-144800000D03*
D10*
X147290000Y-137340000D03*
D11*
X147290000Y-147500000D03*
D10*
X130390000Y-137240000D03*
D11*
X130390000Y-147400000D03*
D10*
X144390000Y-134640000D03*
D11*
X144390000Y-144800000D03*
D10*
X141640000Y-137340000D03*
D11*
X141640000Y-147500000D03*
D10*
X138890000Y-134590000D03*
D11*
X138890000Y-144750000D03*
D10*
X136090000Y-137290000D03*
D11*
X136090000Y-147450000D03*
D10*
X133290000Y-134640000D03*
D11*
X133290000Y-144800000D03*
D10*
X410286600Y-145005400D03*
D11*
X400126600Y-145005400D03*
D12*
X333620000Y-231140000D03*
X323460000Y-231140000D03*
D13*
X324730000Y-228600000D03*
D14*
X328540000Y-231140000D03*
D13*
X331080000Y-226060000D03*
D15*
X109628000Y-134985000D03*
X110428000Y-134985000D03*
X115328000Y-134985000D03*
X116128000Y-134985000D03*
X116128000Y-134985000D03*
X115328000Y-134985000D03*
X110428000Y-134985000D03*
X109628000Y-134985000D03*
D16*
X114628000Y-134985000D03*
X114128000Y-134985000D03*
X113628000Y-134985000D03*
X112628000Y-134985000D03*
X112128000Y-134985000D03*
X111628000Y-134985000D03*
X111128000Y-134985000D03*
X113128000Y-134985000D03*
D17*
X108558000Y-134070000D03*
X117198000Y-134070000D03*
D18*
X115768000Y-133540000D03*
D19*
X117198000Y-129890000D03*
D18*
X109988000Y-133540000D03*
D19*
X108558000Y-129890000D03*
D20*
X112370000Y-140492000D03*
X113320000Y-140492000D03*
X111420000Y-140492000D03*
X111420000Y-138292000D03*
X112370000Y-138292000D03*
X113320000Y-138292000D03*
D21*
G36*
X116433592Y-137664294D02*
G01*
X116459681Y-137668164D01*
X116485264Y-137674572D01*
X116510096Y-137683457D01*
X116533938Y-137694734D01*
X116556560Y-137708293D01*
X116577743Y-137724003D01*
X116597285Y-137741715D01*
X116614997Y-137761257D01*
X116630707Y-137782440D01*
X116644266Y-137805062D01*
X116655543Y-137828904D01*
X116664428Y-137853736D01*
X116670836Y-137879319D01*
X116674706Y-137905408D01*
X116676000Y-137931750D01*
X116676000Y-138469250D01*
X116674706Y-138495592D01*
X116670836Y-138521681D01*
X116664428Y-138547264D01*
X116655543Y-138572096D01*
X116644266Y-138595938D01*
X116630707Y-138618560D01*
X116614997Y-138639743D01*
X116597285Y-138659285D01*
X116577743Y-138676997D01*
X116556560Y-138692707D01*
X116533938Y-138706266D01*
X116510096Y-138717543D01*
X116485264Y-138726428D01*
X116459681Y-138732836D01*
X116433592Y-138736706D01*
X116407250Y-138738000D01*
X115444750Y-138738000D01*
X115418408Y-138736706D01*
X115392319Y-138732836D01*
X115366736Y-138726428D01*
X115341904Y-138717543D01*
X115318062Y-138706266D01*
X115295440Y-138692707D01*
X115274257Y-138676997D01*
X115254715Y-138659285D01*
X115237003Y-138639743D01*
X115221293Y-138618560D01*
X115207734Y-138595938D01*
X115196457Y-138572096D01*
X115187572Y-138547264D01*
X115181164Y-138521681D01*
X115177294Y-138495592D01*
X115176000Y-138469250D01*
X115176000Y-137931750D01*
X115177294Y-137905408D01*
X115181164Y-137879319D01*
X115187572Y-137853736D01*
X115196457Y-137828904D01*
X115207734Y-137805062D01*
X115221293Y-137782440D01*
X115237003Y-137761257D01*
X115254715Y-137741715D01*
X115274257Y-137724003D01*
X115295440Y-137708293D01*
X115318062Y-137694734D01*
X115341904Y-137683457D01*
X115366736Y-137674572D01*
X115392319Y-137668164D01*
X115418408Y-137664294D01*
X115444750Y-137663000D01*
X116407250Y-137663000D01*
X116433592Y-137664294D01*
G37*
G36*
X116433592Y-139539294D02*
G01*
X116459681Y-139543164D01*
X116485264Y-139549572D01*
X116510096Y-139558457D01*
X116533938Y-139569734D01*
X116556560Y-139583293D01*
X116577743Y-139599003D01*
X116597285Y-139616715D01*
X116614997Y-139636257D01*
X116630707Y-139657440D01*
X116644266Y-139680062D01*
X116655543Y-139703904D01*
X116664428Y-139728736D01*
X116670836Y-139754319D01*
X116674706Y-139780408D01*
X116676000Y-139806750D01*
X116676000Y-140344250D01*
X116674706Y-140370592D01*
X116670836Y-140396681D01*
X116664428Y-140422264D01*
X116655543Y-140447096D01*
X116644266Y-140470938D01*
X116630707Y-140493560D01*
X116614997Y-140514743D01*
X116597285Y-140534285D01*
X116577743Y-140551997D01*
X116556560Y-140567707D01*
X116533938Y-140581266D01*
X116510096Y-140592543D01*
X116485264Y-140601428D01*
X116459681Y-140607836D01*
X116433592Y-140611706D01*
X116407250Y-140613000D01*
X115444750Y-140613000D01*
X115418408Y-140611706D01*
X115392319Y-140607836D01*
X115366736Y-140601428D01*
X115341904Y-140592543D01*
X115318062Y-140581266D01*
X115295440Y-140567707D01*
X115274257Y-140551997D01*
X115254715Y-140534285D01*
X115237003Y-140514743D01*
X115221293Y-140493560D01*
X115207734Y-140470938D01*
X115196457Y-140447096D01*
X115187572Y-140422264D01*
X115181164Y-140396681D01*
X115177294Y-140370592D01*
X115176000Y-140344250D01*
X115176000Y-139806750D01*
X115177294Y-139780408D01*
X115181164Y-139754319D01*
X115187572Y-139728736D01*
X115196457Y-139703904D01*
X115207734Y-139680062D01*
X115221293Y-139657440D01*
X115237003Y-139636257D01*
X115254715Y-139616715D01*
X115274257Y-139599003D01*
X115295440Y-139583293D01*
X115318062Y-139569734D01*
X115341904Y-139558457D01*
X115366736Y-139549572D01*
X115392319Y-139543164D01*
X115418408Y-139539294D01*
X115444750Y-139538000D01*
X116407250Y-139538000D01*
X116433592Y-139539294D01*
G37*
D22*
X484226000Y-136090000D03*
X484226000Y-138630000D03*
X484226000Y-141170000D03*
D23*
X484226000Y-143710000D03*
D21*
G36*
X109241465Y-143668300D02*
G01*
X109267674Y-143672188D01*
X109293377Y-143678626D01*
X109318325Y-143687553D01*
X109342277Y-143698881D01*
X109365004Y-143712503D01*
X109386286Y-143728287D01*
X109405919Y-143746081D01*
X109423713Y-143765714D01*
X109439497Y-143786996D01*
X109453119Y-143809723D01*
X109464447Y-143833675D01*
X109473374Y-143858623D01*
X109479812Y-143884326D01*
X109483700Y-143910535D01*
X109485000Y-143937000D01*
X109485000Y-144747000D01*
X109483700Y-144773465D01*
X109479812Y-144799674D01*
X109473374Y-144825377D01*
X109464447Y-144850325D01*
X109453119Y-144874277D01*
X109439497Y-144897004D01*
X109423713Y-144918286D01*
X109405919Y-144937919D01*
X109386286Y-144955713D01*
X109365004Y-144971497D01*
X109342277Y-144985119D01*
X109318325Y-144996447D01*
X109293377Y-145005374D01*
X109267674Y-145011812D01*
X109241465Y-145015700D01*
X109215000Y-145017000D01*
X107905000Y-145017000D01*
X107878535Y-145015700D01*
X107852326Y-145011812D01*
X107826623Y-145005374D01*
X107801675Y-144996447D01*
X107777723Y-144985119D01*
X107754996Y-144971497D01*
X107733714Y-144955713D01*
X107714081Y-144937919D01*
X107696287Y-144918286D01*
X107680503Y-144897004D01*
X107666881Y-144874277D01*
X107655553Y-144850325D01*
X107646626Y-144825377D01*
X107640188Y-144799674D01*
X107636300Y-144773465D01*
X107635000Y-144747000D01*
X107635000Y-143937000D01*
X107636300Y-143910535D01*
X107640188Y-143884326D01*
X107646626Y-143858623D01*
X107655553Y-143833675D01*
X107666881Y-143809723D01*
X107680503Y-143786996D01*
X107696287Y-143765714D01*
X107714081Y-143746081D01*
X107733714Y-143728287D01*
X107754996Y-143712503D01*
X107777723Y-143698881D01*
X107801675Y-143687553D01*
X107826623Y-143678626D01*
X107852326Y-143672188D01*
X107878535Y-143668300D01*
X107905000Y-143667000D01*
X109215000Y-143667000D01*
X109241465Y-143668300D01*
G37*
G36*
X109241465Y-146468300D02*
G01*
X109267674Y-146472188D01*
X109293377Y-146478626D01*
X109318325Y-146487553D01*
X109342277Y-146498881D01*
X109365004Y-146512503D01*
X109386286Y-146528287D01*
X109405919Y-146546081D01*
X109423713Y-146565714D01*
X109439497Y-146586996D01*
X109453119Y-146609723D01*
X109464447Y-146633675D01*
X109473374Y-146658623D01*
X109479812Y-146684326D01*
X109483700Y-146710535D01*
X109485000Y-146737000D01*
X109485000Y-147547000D01*
X109483700Y-147573465D01*
X109479812Y-147599674D01*
X109473374Y-147625377D01*
X109464447Y-147650325D01*
X109453119Y-147674277D01*
X109439497Y-147697004D01*
X109423713Y-147718286D01*
X109405919Y-147737919D01*
X109386286Y-147755713D01*
X109365004Y-147771497D01*
X109342277Y-147785119D01*
X109318325Y-147796447D01*
X109293377Y-147805374D01*
X109267674Y-147811812D01*
X109241465Y-147815700D01*
X109215000Y-147817000D01*
X107905000Y-147817000D01*
X107878535Y-147815700D01*
X107852326Y-147811812D01*
X107826623Y-147805374D01*
X107801675Y-147796447D01*
X107777723Y-147785119D01*
X107754996Y-147771497D01*
X107733714Y-147755713D01*
X107714081Y-147737919D01*
X107696287Y-147718286D01*
X107680503Y-147697004D01*
X107666881Y-147674277D01*
X107655553Y-147650325D01*
X107646626Y-147625377D01*
X107640188Y-147599674D01*
X107636300Y-147573465D01*
X107635000Y-147547000D01*
X107635000Y-146737000D01*
X107636300Y-146710535D01*
X107640188Y-146684326D01*
X107646626Y-146658623D01*
X107655553Y-146633675D01*
X107666881Y-146609723D01*
X107680503Y-146586996D01*
X107696287Y-146565714D01*
X107714081Y-146546081D01*
X107733714Y-146528287D01*
X107754996Y-146512503D01*
X107777723Y-146498881D01*
X107801675Y-146487553D01*
X107826623Y-146478626D01*
X107852326Y-146472188D01*
X107878535Y-146468300D01*
X107905000Y-146467000D01*
X109215000Y-146467000D01*
X109241465Y-146468300D01*
G37*
D12*
X185770000Y-193040000D03*
X175610000Y-193040000D03*
D13*
X176880000Y-190500000D03*
D14*
X180690000Y-193040000D03*
D13*
X183230000Y-187960000D03*
D12*
X206720000Y-163840000D03*
X196560000Y-163840000D03*
D13*
X197830000Y-161300000D03*
D14*
X201640000Y-163840000D03*
D13*
X204180000Y-158760000D03*
D12*
X481870000Y-269240000D03*
X471710000Y-269240000D03*
D13*
X472980000Y-266700000D03*
D14*
X476790000Y-269240000D03*
D13*
X479330000Y-264160000D03*
D12*
X481870000Y-212040000D03*
X471710000Y-212040000D03*
D13*
X472980000Y-209500000D03*
D14*
X476790000Y-212040000D03*
D13*
X479330000Y-206960000D03*
D12*
X481870000Y-192990000D03*
X471710000Y-192990000D03*
D13*
X472980000Y-190450000D03*
D14*
X476790000Y-192990000D03*
D13*
X479330000Y-187910000D03*
D12*
X462820000Y-269240000D03*
X452660000Y-269240000D03*
D13*
X453930000Y-266700000D03*
D14*
X457740000Y-269240000D03*
D13*
X460280000Y-264160000D03*
D12*
X462820000Y-250140000D03*
X452660000Y-250140000D03*
D13*
X453930000Y-247600000D03*
D14*
X457740000Y-250140000D03*
D13*
X460280000Y-245060000D03*
D12*
X462770000Y-212040000D03*
X452610000Y-212040000D03*
D13*
X453880000Y-209500000D03*
D14*
X457690000Y-212040000D03*
D13*
X460230000Y-206960000D03*
D12*
X462820000Y-192990000D03*
X452660000Y-192990000D03*
D13*
X453930000Y-190450000D03*
D14*
X457740000Y-192990000D03*
D13*
X460280000Y-187910000D03*
D12*
X443770000Y-269240000D03*
X433610000Y-269240000D03*
D13*
X434880000Y-266700000D03*
D14*
X438690000Y-269240000D03*
D13*
X441230000Y-264160000D03*
D12*
X443720000Y-212040000D03*
X433560000Y-212040000D03*
D13*
X434830000Y-209500000D03*
D14*
X438640000Y-212040000D03*
D13*
X441180000Y-206960000D03*
D12*
X443720000Y-192990000D03*
X433560000Y-192990000D03*
D13*
X434830000Y-190450000D03*
D14*
X438640000Y-192990000D03*
D13*
X441180000Y-187910000D03*
D12*
X409920000Y-212090000D03*
X399760000Y-212090000D03*
D13*
X401030000Y-209550000D03*
D14*
X404840000Y-212090000D03*
D13*
X407380000Y-207010000D03*
D14*
X388152000Y-201245000D03*
X412028000Y-201245000D03*
D24*
X388152000Y-186005000D03*
X412028000Y-186005000D03*
D12*
X405170000Y-192990000D03*
X395010000Y-192990000D03*
D13*
X396280000Y-190450000D03*
D14*
X400090000Y-192990000D03*
D13*
X402630000Y-187910000D03*
D14*
X380952000Y-258445000D03*
X404828000Y-258445000D03*
D24*
X380952000Y-243205000D03*
X404828000Y-243205000D03*
D12*
X397970000Y-250190000D03*
X387810000Y-250190000D03*
D13*
X389080000Y-247650000D03*
D14*
X392890000Y-250190000D03*
D13*
X395430000Y-245110000D03*
D14*
X385752000Y-239395000D03*
X409628000Y-239395000D03*
D24*
X385752000Y-224155000D03*
X409628000Y-224155000D03*
D12*
X402770000Y-231140000D03*
X392610000Y-231140000D03*
D13*
X393880000Y-228600000D03*
D14*
X397690000Y-231140000D03*
D13*
X400230000Y-226060000D03*
D12*
X386070000Y-212090000D03*
X375910000Y-212090000D03*
D13*
X377180000Y-209550000D03*
D14*
X380990000Y-212090000D03*
D13*
X383530000Y-207010000D03*
D12*
X376620000Y-192990000D03*
X366460000Y-192990000D03*
D13*
X367730000Y-190450000D03*
D14*
X371540000Y-192990000D03*
D13*
X374080000Y-187910000D03*
D12*
X412270000Y-269240000D03*
X402110000Y-269240000D03*
D13*
X403380000Y-266700000D03*
D14*
X407190000Y-269240000D03*
D13*
X409730000Y-264160000D03*
D12*
X362170000Y-250190000D03*
X352010000Y-250190000D03*
D13*
X353280000Y-247650000D03*
D14*
X357090000Y-250190000D03*
D13*
X359630000Y-245110000D03*
D12*
X371720000Y-231140000D03*
X361560000Y-231140000D03*
D13*
X362830000Y-228600000D03*
D14*
X366640000Y-231140000D03*
D13*
X369180000Y-226060000D03*
D12*
X366970000Y-212090000D03*
X356810000Y-212090000D03*
D13*
X358080000Y-209550000D03*
D14*
X361890000Y-212090000D03*
D13*
X364430000Y-207010000D03*
D12*
X357570000Y-193040000D03*
X347410000Y-193040000D03*
D13*
X348680000Y-190500000D03*
D14*
X352490000Y-193040000D03*
D13*
X355030000Y-187960000D03*
D12*
X388320000Y-269240000D03*
X378160000Y-269240000D03*
D13*
X379430000Y-266700000D03*
D14*
X383240000Y-269240000D03*
D13*
X385780000Y-264160000D03*
D12*
X343070000Y-250190000D03*
X332910000Y-250190000D03*
D13*
X334180000Y-247650000D03*
D14*
X337990000Y-250190000D03*
D13*
X340530000Y-245110000D03*
D12*
X352670000Y-231140000D03*
X342510000Y-231140000D03*
D13*
X343780000Y-228600000D03*
D14*
X347590000Y-231140000D03*
D13*
X350130000Y-226060000D03*
D12*
X347920000Y-212090000D03*
X337760000Y-212090000D03*
D13*
X339030000Y-209550000D03*
D14*
X342840000Y-212090000D03*
D13*
X345380000Y-207010000D03*
D12*
X338470000Y-193040000D03*
X328310000Y-193040000D03*
D13*
X329580000Y-190500000D03*
D14*
X333390000Y-193040000D03*
D13*
X335930000Y-187960000D03*
D12*
X364370000Y-269240000D03*
X354210000Y-269240000D03*
D13*
X355480000Y-266700000D03*
D14*
X359290000Y-269240000D03*
D13*
X361830000Y-264160000D03*
D12*
X323870000Y-250190000D03*
X313710000Y-250190000D03*
D13*
X314980000Y-247650000D03*
D14*
X318790000Y-250190000D03*
D13*
X321330000Y-245110000D03*
D12*
X328870000Y-212090000D03*
X318710000Y-212090000D03*
D13*
X319980000Y-209550000D03*
D14*
X323790000Y-212090000D03*
D13*
X326330000Y-207010000D03*
D12*
X319370000Y-193040000D03*
X309210000Y-193040000D03*
D13*
X310480000Y-190500000D03*
D14*
X314290000Y-193040000D03*
D13*
X316830000Y-187960000D03*
D12*
X340520000Y-269240000D03*
X330360000Y-269240000D03*
D13*
X331630000Y-266700000D03*
D14*
X335440000Y-269240000D03*
D13*
X337980000Y-264160000D03*
D12*
X304770000Y-250190000D03*
X294610000Y-250190000D03*
D13*
X295880000Y-247650000D03*
D14*
X299690000Y-250190000D03*
D13*
X302230000Y-245110000D03*
D12*
X314570000Y-231140000D03*
X304410000Y-231140000D03*
D13*
X305680000Y-228600000D03*
D14*
X309490000Y-231140000D03*
D13*
X312030000Y-226060000D03*
D12*
X309770000Y-212090000D03*
X299610000Y-212090000D03*
D13*
X300880000Y-209550000D03*
D14*
X304690000Y-212090000D03*
D13*
X307230000Y-207010000D03*
D12*
X300320000Y-193040000D03*
X290160000Y-193040000D03*
D13*
X291430000Y-190500000D03*
D14*
X295240000Y-193040000D03*
D13*
X297780000Y-187960000D03*
D12*
X285720000Y-250190000D03*
X275560000Y-250190000D03*
D13*
X276830000Y-247650000D03*
D14*
X280640000Y-250190000D03*
D13*
X283180000Y-245110000D03*
D12*
X295470000Y-231140000D03*
X285310000Y-231140000D03*
D13*
X286580000Y-228600000D03*
D14*
X290390000Y-231140000D03*
D13*
X292930000Y-226060000D03*
D12*
X290720000Y-212090000D03*
X280560000Y-212090000D03*
D13*
X281830000Y-209550000D03*
D14*
X285640000Y-212090000D03*
D13*
X288180000Y-207010000D03*
D12*
X281270000Y-193040000D03*
X271110000Y-193040000D03*
D13*
X272380000Y-190500000D03*
D14*
X276190000Y-193040000D03*
D13*
X278730000Y-187960000D03*
D12*
X266670000Y-250190000D03*
X256510000Y-250190000D03*
D13*
X257780000Y-247650000D03*
D14*
X261590000Y-250190000D03*
D13*
X264130000Y-245110000D03*
D12*
X276420000Y-231140000D03*
X266260000Y-231140000D03*
D13*
X267530000Y-228600000D03*
D14*
X271340000Y-231140000D03*
D13*
X273880000Y-226060000D03*
D12*
X271670000Y-212090000D03*
X261510000Y-212090000D03*
D13*
X262780000Y-209550000D03*
D14*
X266590000Y-212090000D03*
D13*
X269130000Y-207010000D03*
D12*
X262170000Y-193040000D03*
X252010000Y-193040000D03*
D13*
X253280000Y-190500000D03*
D14*
X257090000Y-193040000D03*
D13*
X259630000Y-187960000D03*
D14*
X214040100Y-277495000D03*
X314039900Y-277495000D03*
D24*
X214040100Y-262255000D03*
X314039900Y-262255000D03*
D12*
X269120000Y-269240000D03*
X258960000Y-269240000D03*
D13*
X260230000Y-266700000D03*
D14*
X264040000Y-269240000D03*
D13*
X266580000Y-264160000D03*
D12*
X247620000Y-250190000D03*
X237460000Y-250190000D03*
D13*
X238730000Y-247650000D03*
D14*
X242540000Y-250190000D03*
D13*
X245080000Y-245110000D03*
D12*
X257320000Y-231140000D03*
X247160000Y-231140000D03*
D13*
X248430000Y-228600000D03*
D14*
X252240000Y-231140000D03*
D13*
X254780000Y-226060000D03*
D12*
X252620000Y-212090000D03*
X242460000Y-212090000D03*
D13*
X243730000Y-209550000D03*
D14*
X247540000Y-212090000D03*
D13*
X250080000Y-207010000D03*
D12*
X243120000Y-193040000D03*
X232960000Y-193040000D03*
D13*
X234230000Y-190500000D03*
D14*
X238040000Y-193040000D03*
D13*
X240580000Y-187960000D03*
D12*
X228570000Y-250190000D03*
X218410000Y-250190000D03*
D13*
X219680000Y-247650000D03*
D14*
X223490000Y-250190000D03*
D13*
X226030000Y-245110000D03*
D12*
X238270000Y-231140000D03*
X228110000Y-231140000D03*
D13*
X229380000Y-228600000D03*
D14*
X233190000Y-231140000D03*
D13*
X235730000Y-226060000D03*
D12*
X233570000Y-212090000D03*
X223410000Y-212090000D03*
D13*
X224680000Y-209550000D03*
D14*
X228490000Y-212090000D03*
D13*
X231030000Y-207010000D03*
D12*
X224020000Y-193040000D03*
X213860000Y-193040000D03*
D13*
X215130000Y-190500000D03*
D14*
X218940000Y-193040000D03*
D13*
X221480000Y-187960000D03*
D12*
X209520000Y-250190000D03*
X199360000Y-250190000D03*
D13*
X200630000Y-247650000D03*
D14*
X204440000Y-250190000D03*
D13*
X206980000Y-245110000D03*
D12*
X219170000Y-231140000D03*
X209010000Y-231140000D03*
D13*
X210280000Y-228600000D03*
D14*
X214090000Y-231140000D03*
D13*
X216630000Y-226060000D03*
D12*
X214470000Y-212090000D03*
X204310000Y-212090000D03*
D13*
X205580000Y-209550000D03*
D14*
X209390000Y-212090000D03*
D13*
X211930000Y-207010000D03*
D12*
X204870000Y-193040000D03*
X194710000Y-193040000D03*
D13*
X195980000Y-190500000D03*
D14*
X199790000Y-193040000D03*
D13*
X202330000Y-187960000D03*
D12*
X197720000Y-269240000D03*
X187560000Y-269240000D03*
D13*
X188830000Y-266700000D03*
D14*
X192640000Y-269240000D03*
D13*
X195180000Y-264160000D03*
D12*
X190520000Y-250190000D03*
X180360000Y-250190000D03*
D13*
X181630000Y-247650000D03*
D14*
X185440000Y-250190000D03*
D13*
X187980000Y-245110000D03*
D12*
X200070000Y-231140000D03*
X189910000Y-231140000D03*
D13*
X191180000Y-228600000D03*
D14*
X194990000Y-231140000D03*
D13*
X197530000Y-226060000D03*
D12*
X195370000Y-212090000D03*
X185210000Y-212090000D03*
D13*
X186480000Y-209550000D03*
D14*
X190290000Y-212090000D03*
D13*
X192830000Y-207010000D03*
D12*
X173870000Y-269240000D03*
X163710000Y-269240000D03*
D13*
X164980000Y-266700000D03*
D14*
X168790000Y-269240000D03*
D13*
X171330000Y-264160000D03*
D12*
X180970000Y-231140000D03*
X170810000Y-231140000D03*
D13*
X172080000Y-228600000D03*
D14*
X175890000Y-231140000D03*
D13*
X178430000Y-226060000D03*
D12*
X176270000Y-212090000D03*
X166110000Y-212090000D03*
D13*
X167380000Y-209550000D03*
D14*
X171190000Y-212090000D03*
D13*
X173730000Y-207010000D03*
D12*
X166670000Y-193040000D03*
X156510000Y-193040000D03*
D13*
X157780000Y-190500000D03*
D14*
X161590000Y-193040000D03*
D13*
X164130000Y-187960000D03*
D12*
X150020000Y-269240000D03*
X139860000Y-269240000D03*
D13*
X141130000Y-266700000D03*
D14*
X144940000Y-269240000D03*
D13*
X147480000Y-264160000D03*
D14*
X142552000Y-258445000D03*
X166428000Y-258445000D03*
D24*
X142552000Y-243205000D03*
X166428000Y-243205000D03*
D12*
X159570000Y-250190000D03*
X149410000Y-250190000D03*
D13*
X150680000Y-247650000D03*
D14*
X154490000Y-250190000D03*
D13*
X157030000Y-245110000D03*
D12*
X154790000Y-231150000D03*
X144630000Y-231150000D03*
D13*
X145900000Y-228610000D03*
D14*
X149710000Y-231150000D03*
D13*
X152250000Y-226070000D03*
D12*
X152420000Y-212090000D03*
X142260000Y-212090000D03*
D13*
X143530000Y-209550000D03*
D14*
X147340000Y-212090000D03*
D13*
X149880000Y-207010000D03*
D12*
X147650000Y-193030000D03*
X137490000Y-193030000D03*
D13*
X138760000Y-190490000D03*
D14*
X142570000Y-193030000D03*
D13*
X145110000Y-187950000D03*
D12*
X118670000Y-269240000D03*
X108510000Y-269240000D03*
D13*
X109780000Y-266700000D03*
D14*
X113590000Y-269240000D03*
D13*
X116130000Y-264160000D03*
D12*
X118670000Y-250190000D03*
X108510000Y-250190000D03*
D13*
X109780000Y-247650000D03*
D14*
X113590000Y-250190000D03*
D13*
X116130000Y-245110000D03*
D12*
X118670000Y-231140000D03*
X108510000Y-231140000D03*
D13*
X109780000Y-228600000D03*
D14*
X113590000Y-231140000D03*
D13*
X116130000Y-226060000D03*
D12*
X118670000Y-212090000D03*
X108510000Y-212090000D03*
D13*
X109780000Y-209550000D03*
D14*
X113590000Y-212090000D03*
D13*
X116130000Y-207010000D03*
D12*
X481770000Y-163840000D03*
X471610000Y-163840000D03*
D13*
X472880000Y-161300000D03*
D14*
X476690000Y-163840000D03*
D13*
X479230000Y-158760000D03*
D12*
X462770000Y-163840000D03*
X452610000Y-163840000D03*
D13*
X453880000Y-161300000D03*
D14*
X457690000Y-163840000D03*
D13*
X460230000Y-158760000D03*
D12*
X443770000Y-163840000D03*
X433610000Y-163840000D03*
D13*
X434880000Y-161300000D03*
D14*
X438690000Y-163840000D03*
D13*
X441230000Y-158760000D03*
D12*
X414720000Y-163890000D03*
X404560000Y-163890000D03*
D13*
X405830000Y-161350000D03*
D14*
X409640000Y-163890000D03*
D13*
X412180000Y-158810000D03*
D12*
X395670000Y-163890000D03*
X385510000Y-163890000D03*
D13*
X386780000Y-161350000D03*
D14*
X390590000Y-163890000D03*
D13*
X393130000Y-158810000D03*
D12*
X376620000Y-163890000D03*
X366460000Y-163890000D03*
D13*
X367730000Y-161350000D03*
D14*
X371540000Y-163890000D03*
D13*
X374080000Y-158810000D03*
D12*
X357570000Y-163890000D03*
X347410000Y-163890000D03*
D13*
X348680000Y-161350000D03*
D14*
X352490000Y-163890000D03*
D13*
X355030000Y-158810000D03*
D12*
X329620000Y-163860000D03*
X319460000Y-163860000D03*
D13*
X320730000Y-161320000D03*
D14*
X324540000Y-163860000D03*
D13*
X327080000Y-158780000D03*
D12*
X310570000Y-163870000D03*
X300410000Y-163870000D03*
D13*
X301680000Y-161330000D03*
D14*
X305490000Y-163870000D03*
D13*
X308030000Y-158790000D03*
D12*
X291520000Y-163840000D03*
X281360000Y-163840000D03*
D13*
X282630000Y-161300000D03*
D14*
X286440000Y-163840000D03*
D13*
X288980000Y-158760000D03*
D12*
X272520000Y-163840000D03*
X262360000Y-163840000D03*
D13*
X263630000Y-161300000D03*
D14*
X267440000Y-163840000D03*
D13*
X269980000Y-158760000D03*
D12*
X244720000Y-163840000D03*
X234560000Y-163840000D03*
D13*
X235830000Y-161300000D03*
D14*
X239640000Y-163840000D03*
D13*
X242180000Y-158760000D03*
D12*
X225720000Y-163840000D03*
X215560000Y-163840000D03*
D13*
X216830000Y-161300000D03*
D14*
X220640000Y-163840000D03*
D13*
X223180000Y-158760000D03*
D12*
X187720000Y-163840000D03*
X177560000Y-163840000D03*
D13*
X178830000Y-161300000D03*
D14*
X182640000Y-163840000D03*
D13*
X185180000Y-158760000D03*
D12*
X147670000Y-163840000D03*
X137510000Y-163840000D03*
D13*
X138780000Y-161300000D03*
D14*
X142590000Y-163840000D03*
D13*
X145130000Y-158760000D03*
D12*
X118670000Y-193040000D03*
X108510000Y-193040000D03*
D13*
X109780000Y-190500000D03*
D14*
X113590000Y-193040000D03*
D13*
X116130000Y-187960000D03*
D25*
X119405000Y-147962000D03*
X119405000Y-146062000D03*
X117405000Y-147012000D03*
D21*
G36*
X429769802Y-134188482D02*
G01*
X429779509Y-134189921D01*
X429789028Y-134192306D01*
X429798268Y-134195612D01*
X429807140Y-134199808D01*
X429815557Y-134204853D01*
X429823439Y-134210699D01*
X429830711Y-134217289D01*
X429837301Y-134224561D01*
X429843147Y-134232443D01*
X429848192Y-134240860D01*
X429852388Y-134249732D01*
X429855694Y-134258972D01*
X429858079Y-134268491D01*
X429859518Y-134278198D01*
X429860000Y-134288000D01*
X429860000Y-135663000D01*
X429859518Y-135672802D01*
X429858079Y-135682509D01*
X429855694Y-135692028D01*
X429852388Y-135701268D01*
X429848192Y-135710140D01*
X429843147Y-135718557D01*
X429837301Y-135726439D01*
X429830711Y-135733711D01*
X429823439Y-135740301D01*
X429815557Y-135746147D01*
X429807140Y-135751192D01*
X429798268Y-135755388D01*
X429789028Y-135758694D01*
X429779509Y-135761079D01*
X429769802Y-135762518D01*
X429760000Y-135763000D01*
X429560000Y-135763000D01*
X429550198Y-135762518D01*
X429540491Y-135761079D01*
X429530972Y-135758694D01*
X429521732Y-135755388D01*
X429512860Y-135751192D01*
X429504443Y-135746147D01*
X429496561Y-135740301D01*
X429489289Y-135733711D01*
X429482699Y-135726439D01*
X429476853Y-135718557D01*
X429471808Y-135710140D01*
X429467612Y-135701268D01*
X429464306Y-135692028D01*
X429461921Y-135682509D01*
X429460482Y-135672802D01*
X429460000Y-135663000D01*
X429460000Y-134288000D01*
X429460482Y-134278198D01*
X429461921Y-134268491D01*
X429464306Y-134258972D01*
X429467612Y-134249732D01*
X429471808Y-134240860D01*
X429476853Y-134232443D01*
X429482699Y-134224561D01*
X429489289Y-134217289D01*
X429496561Y-134210699D01*
X429504443Y-134204853D01*
X429512860Y-134199808D01*
X429521732Y-134195612D01*
X429530972Y-134192306D01*
X429540491Y-134189921D01*
X429550198Y-134188482D01*
X429560000Y-134188000D01*
X429760000Y-134188000D01*
X429769802Y-134188482D01*
G37*
G36*
X430269802Y-134188482D02*
G01*
X430279509Y-134189921D01*
X430289028Y-134192306D01*
X430298268Y-134195612D01*
X430307140Y-134199808D01*
X430315557Y-134204853D01*
X430323439Y-134210699D01*
X430330711Y-134217289D01*
X430337301Y-134224561D01*
X430343147Y-134232443D01*
X430348192Y-134240860D01*
X430352388Y-134249732D01*
X430355694Y-134258972D01*
X430358079Y-134268491D01*
X430359518Y-134278198D01*
X430360000Y-134288000D01*
X430360000Y-135663000D01*
X430359518Y-135672802D01*
X430358079Y-135682509D01*
X430355694Y-135692028D01*
X430352388Y-135701268D01*
X430348192Y-135710140D01*
X430343147Y-135718557D01*
X430337301Y-135726439D01*
X430330711Y-135733711D01*
X430323439Y-135740301D01*
X430315557Y-135746147D01*
X430307140Y-135751192D01*
X430298268Y-135755388D01*
X430289028Y-135758694D01*
X430279509Y-135761079D01*
X430269802Y-135762518D01*
X430260000Y-135763000D01*
X430060000Y-135763000D01*
X430050198Y-135762518D01*
X430040491Y-135761079D01*
X430030972Y-135758694D01*
X430021732Y-135755388D01*
X430012860Y-135751192D01*
X430004443Y-135746147D01*
X429996561Y-135740301D01*
X429989289Y-135733711D01*
X429982699Y-135726439D01*
X429976853Y-135718557D01*
X429971808Y-135710140D01*
X429967612Y-135701268D01*
X429964306Y-135692028D01*
X429961921Y-135682509D01*
X429960482Y-135672802D01*
X429960000Y-135663000D01*
X429960000Y-134288000D01*
X429960482Y-134278198D01*
X429961921Y-134268491D01*
X429964306Y-134258972D01*
X429967612Y-134249732D01*
X429971808Y-134240860D01*
X429976853Y-134232443D01*
X429982699Y-134224561D01*
X429989289Y-134217289D01*
X429996561Y-134210699D01*
X430004443Y-134204853D01*
X430012860Y-134199808D01*
X430021732Y-134195612D01*
X430030972Y-134192306D01*
X430040491Y-134189921D01*
X430050198Y-134188482D01*
X430060000Y-134188000D01*
X430260000Y-134188000D01*
X430269802Y-134188482D01*
G37*
G36*
X430769802Y-134188482D02*
G01*
X430779509Y-134189921D01*
X430789028Y-134192306D01*
X430798268Y-134195612D01*
X430807140Y-134199808D01*
X430815557Y-134204853D01*
X430823439Y-134210699D01*
X430830711Y-134217289D01*
X430837301Y-134224561D01*
X430843147Y-134232443D01*
X430848192Y-134240860D01*
X430852388Y-134249732D01*
X430855694Y-134258972D01*
X430858079Y-134268491D01*
X430859518Y-134278198D01*
X430860000Y-134288000D01*
X430860000Y-135663000D01*
X430859518Y-135672802D01*
X430858079Y-135682509D01*
X430855694Y-135692028D01*
X430852388Y-135701268D01*
X430848192Y-135710140D01*
X430843147Y-135718557D01*
X430837301Y-135726439D01*
X430830711Y-135733711D01*
X430823439Y-135740301D01*
X430815557Y-135746147D01*
X430807140Y-135751192D01*
X430798268Y-135755388D01*
X430789028Y-135758694D01*
X430779509Y-135761079D01*
X430769802Y-135762518D01*
X430760000Y-135763000D01*
X430560000Y-135763000D01*
X430550198Y-135762518D01*
X430540491Y-135761079D01*
X430530972Y-135758694D01*
X430521732Y-135755388D01*
X430512860Y-135751192D01*
X430504443Y-135746147D01*
X430496561Y-135740301D01*
X430489289Y-135733711D01*
X430482699Y-135726439D01*
X430476853Y-135718557D01*
X430471808Y-135710140D01*
X430467612Y-135701268D01*
X430464306Y-135692028D01*
X430461921Y-135682509D01*
X430460482Y-135672802D01*
X430460000Y-135663000D01*
X430460000Y-134288000D01*
X430460482Y-134278198D01*
X430461921Y-134268491D01*
X430464306Y-134258972D01*
X430467612Y-134249732D01*
X430471808Y-134240860D01*
X430476853Y-134232443D01*
X430482699Y-134224561D01*
X430489289Y-134217289D01*
X430496561Y-134210699D01*
X430504443Y-134204853D01*
X430512860Y-134199808D01*
X430521732Y-134195612D01*
X430530972Y-134192306D01*
X430540491Y-134189921D01*
X430550198Y-134188482D01*
X430560000Y-134188000D01*
X430760000Y-134188000D01*
X430769802Y-134188482D01*
G37*
G36*
X431269802Y-134188482D02*
G01*
X431279509Y-134189921D01*
X431289028Y-134192306D01*
X431298268Y-134195612D01*
X431307140Y-134199808D01*
X431315557Y-134204853D01*
X431323439Y-134210699D01*
X431330711Y-134217289D01*
X431337301Y-134224561D01*
X431343147Y-134232443D01*
X431348192Y-134240860D01*
X431352388Y-134249732D01*
X431355694Y-134258972D01*
X431358079Y-134268491D01*
X431359518Y-134278198D01*
X431360000Y-134288000D01*
X431360000Y-135663000D01*
X431359518Y-135672802D01*
X431358079Y-135682509D01*
X431355694Y-135692028D01*
X431352388Y-135701268D01*
X431348192Y-135710140D01*
X431343147Y-135718557D01*
X431337301Y-135726439D01*
X431330711Y-135733711D01*
X431323439Y-135740301D01*
X431315557Y-135746147D01*
X431307140Y-135751192D01*
X431298268Y-135755388D01*
X431289028Y-135758694D01*
X431279509Y-135761079D01*
X431269802Y-135762518D01*
X431260000Y-135763000D01*
X431060000Y-135763000D01*
X431050198Y-135762518D01*
X431040491Y-135761079D01*
X431030972Y-135758694D01*
X431021732Y-135755388D01*
X431012860Y-135751192D01*
X431004443Y-135746147D01*
X430996561Y-135740301D01*
X430989289Y-135733711D01*
X430982699Y-135726439D01*
X430976853Y-135718557D01*
X430971808Y-135710140D01*
X430967612Y-135701268D01*
X430964306Y-135692028D01*
X430961921Y-135682509D01*
X430960482Y-135672802D01*
X430960000Y-135663000D01*
X430960000Y-134288000D01*
X430960482Y-134278198D01*
X430961921Y-134268491D01*
X430964306Y-134258972D01*
X430967612Y-134249732D01*
X430971808Y-134240860D01*
X430976853Y-134232443D01*
X430982699Y-134224561D01*
X430989289Y-134217289D01*
X430996561Y-134210699D01*
X431004443Y-134204853D01*
X431012860Y-134199808D01*
X431021732Y-134195612D01*
X431030972Y-134192306D01*
X431040491Y-134189921D01*
X431050198Y-134188482D01*
X431060000Y-134188000D01*
X431260000Y-134188000D01*
X431269802Y-134188482D01*
G37*
G36*
X431769802Y-134188482D02*
G01*
X431779509Y-134189921D01*
X431789028Y-134192306D01*
X431798268Y-134195612D01*
X431807140Y-134199808D01*
X431815557Y-134204853D01*
X431823439Y-134210699D01*
X431830711Y-134217289D01*
X431837301Y-134224561D01*
X431843147Y-134232443D01*
X431848192Y-134240860D01*
X431852388Y-134249732D01*
X431855694Y-134258972D01*
X431858079Y-134268491D01*
X431859518Y-134278198D01*
X431860000Y-134288000D01*
X431860000Y-135663000D01*
X431859518Y-135672802D01*
X431858079Y-135682509D01*
X431855694Y-135692028D01*
X431852388Y-135701268D01*
X431848192Y-135710140D01*
X431843147Y-135718557D01*
X431837301Y-135726439D01*
X431830711Y-135733711D01*
X431823439Y-135740301D01*
X431815557Y-135746147D01*
X431807140Y-135751192D01*
X431798268Y-135755388D01*
X431789028Y-135758694D01*
X431779509Y-135761079D01*
X431769802Y-135762518D01*
X431760000Y-135763000D01*
X431560000Y-135763000D01*
X431550198Y-135762518D01*
X431540491Y-135761079D01*
X431530972Y-135758694D01*
X431521732Y-135755388D01*
X431512860Y-135751192D01*
X431504443Y-135746147D01*
X431496561Y-135740301D01*
X431489289Y-135733711D01*
X431482699Y-135726439D01*
X431476853Y-135718557D01*
X431471808Y-135710140D01*
X431467612Y-135701268D01*
X431464306Y-135692028D01*
X431461921Y-135682509D01*
X431460482Y-135672802D01*
X431460000Y-135663000D01*
X431460000Y-134288000D01*
X431460482Y-134278198D01*
X431461921Y-134268491D01*
X431464306Y-134258972D01*
X431467612Y-134249732D01*
X431471808Y-134240860D01*
X431476853Y-134232443D01*
X431482699Y-134224561D01*
X431489289Y-134217289D01*
X431496561Y-134210699D01*
X431504443Y-134204853D01*
X431512860Y-134199808D01*
X431521732Y-134195612D01*
X431530972Y-134192306D01*
X431540491Y-134189921D01*
X431550198Y-134188482D01*
X431560000Y-134188000D01*
X431760000Y-134188000D01*
X431769802Y-134188482D01*
G37*
G36*
X432269802Y-134188482D02*
G01*
X432279509Y-134189921D01*
X432289028Y-134192306D01*
X432298268Y-134195612D01*
X432307140Y-134199808D01*
X432315557Y-134204853D01*
X432323439Y-134210699D01*
X432330711Y-134217289D01*
X432337301Y-134224561D01*
X432343147Y-134232443D01*
X432348192Y-134240860D01*
X432352388Y-134249732D01*
X432355694Y-134258972D01*
X432358079Y-134268491D01*
X432359518Y-134278198D01*
X432360000Y-134288000D01*
X432360000Y-135663000D01*
X432359518Y-135672802D01*
X432358079Y-135682509D01*
X432355694Y-135692028D01*
X432352388Y-135701268D01*
X432348192Y-135710140D01*
X432343147Y-135718557D01*
X432337301Y-135726439D01*
X432330711Y-135733711D01*
X432323439Y-135740301D01*
X432315557Y-135746147D01*
X432307140Y-135751192D01*
X432298268Y-135755388D01*
X432289028Y-135758694D01*
X432279509Y-135761079D01*
X432269802Y-135762518D01*
X432260000Y-135763000D01*
X432060000Y-135763000D01*
X432050198Y-135762518D01*
X432040491Y-135761079D01*
X432030972Y-135758694D01*
X432021732Y-135755388D01*
X432012860Y-135751192D01*
X432004443Y-135746147D01*
X431996561Y-135740301D01*
X431989289Y-135733711D01*
X431982699Y-135726439D01*
X431976853Y-135718557D01*
X431971808Y-135710140D01*
X431967612Y-135701268D01*
X431964306Y-135692028D01*
X431961921Y-135682509D01*
X431960482Y-135672802D01*
X431960000Y-135663000D01*
X431960000Y-134288000D01*
X431960482Y-134278198D01*
X431961921Y-134268491D01*
X431964306Y-134258972D01*
X431967612Y-134249732D01*
X431971808Y-134240860D01*
X431976853Y-134232443D01*
X431982699Y-134224561D01*
X431989289Y-134217289D01*
X431996561Y-134210699D01*
X432004443Y-134204853D01*
X432012860Y-134199808D01*
X432021732Y-134195612D01*
X432030972Y-134192306D01*
X432040491Y-134189921D01*
X432050198Y-134188482D01*
X432060000Y-134188000D01*
X432260000Y-134188000D01*
X432269802Y-134188482D01*
G37*
G36*
X432769802Y-134188482D02*
G01*
X432779509Y-134189921D01*
X432789028Y-134192306D01*
X432798268Y-134195612D01*
X432807140Y-134199808D01*
X432815557Y-134204853D01*
X432823439Y-134210699D01*
X432830711Y-134217289D01*
X432837301Y-134224561D01*
X432843147Y-134232443D01*
X432848192Y-134240860D01*
X432852388Y-134249732D01*
X432855694Y-134258972D01*
X432858079Y-134268491D01*
X432859518Y-134278198D01*
X432860000Y-134288000D01*
X432860000Y-135663000D01*
X432859518Y-135672802D01*
X432858079Y-135682509D01*
X432855694Y-135692028D01*
X432852388Y-135701268D01*
X432848192Y-135710140D01*
X432843147Y-135718557D01*
X432837301Y-135726439D01*
X432830711Y-135733711D01*
X432823439Y-135740301D01*
X432815557Y-135746147D01*
X432807140Y-135751192D01*
X432798268Y-135755388D01*
X432789028Y-135758694D01*
X432779509Y-135761079D01*
X432769802Y-135762518D01*
X432760000Y-135763000D01*
X432560000Y-135763000D01*
X432550198Y-135762518D01*
X432540491Y-135761079D01*
X432530972Y-135758694D01*
X432521732Y-135755388D01*
X432512860Y-135751192D01*
X432504443Y-135746147D01*
X432496561Y-135740301D01*
X432489289Y-135733711D01*
X432482699Y-135726439D01*
X432476853Y-135718557D01*
X432471808Y-135710140D01*
X432467612Y-135701268D01*
X432464306Y-135692028D01*
X432461921Y-135682509D01*
X432460482Y-135672802D01*
X432460000Y-135663000D01*
X432460000Y-134288000D01*
X432460482Y-134278198D01*
X432461921Y-134268491D01*
X432464306Y-134258972D01*
X432467612Y-134249732D01*
X432471808Y-134240860D01*
X432476853Y-134232443D01*
X432482699Y-134224561D01*
X432489289Y-134217289D01*
X432496561Y-134210699D01*
X432504443Y-134204853D01*
X432512860Y-134199808D01*
X432521732Y-134195612D01*
X432530972Y-134192306D01*
X432540491Y-134189921D01*
X432550198Y-134188482D01*
X432560000Y-134188000D01*
X432760000Y-134188000D01*
X432769802Y-134188482D01*
G37*
G36*
X433269802Y-134188482D02*
G01*
X433279509Y-134189921D01*
X433289028Y-134192306D01*
X433298268Y-134195612D01*
X433307140Y-134199808D01*
X433315557Y-134204853D01*
X433323439Y-134210699D01*
X433330711Y-134217289D01*
X433337301Y-134224561D01*
X433343147Y-134232443D01*
X433348192Y-134240860D01*
X433352388Y-134249732D01*
X433355694Y-134258972D01*
X433358079Y-134268491D01*
X433359518Y-134278198D01*
X433360000Y-134288000D01*
X433360000Y-135663000D01*
X433359518Y-135672802D01*
X433358079Y-135682509D01*
X433355694Y-135692028D01*
X433352388Y-135701268D01*
X433348192Y-135710140D01*
X433343147Y-135718557D01*
X433337301Y-135726439D01*
X433330711Y-135733711D01*
X433323439Y-135740301D01*
X433315557Y-135746147D01*
X433307140Y-135751192D01*
X433298268Y-135755388D01*
X433289028Y-135758694D01*
X433279509Y-135761079D01*
X433269802Y-135762518D01*
X433260000Y-135763000D01*
X433060000Y-135763000D01*
X433050198Y-135762518D01*
X433040491Y-135761079D01*
X433030972Y-135758694D01*
X433021732Y-135755388D01*
X433012860Y-135751192D01*
X433004443Y-135746147D01*
X432996561Y-135740301D01*
X432989289Y-135733711D01*
X432982699Y-135726439D01*
X432976853Y-135718557D01*
X432971808Y-135710140D01*
X432967612Y-135701268D01*
X432964306Y-135692028D01*
X432961921Y-135682509D01*
X432960482Y-135672802D01*
X432960000Y-135663000D01*
X432960000Y-134288000D01*
X432960482Y-134278198D01*
X432961921Y-134268491D01*
X432964306Y-134258972D01*
X432967612Y-134249732D01*
X432971808Y-134240860D01*
X432976853Y-134232443D01*
X432982699Y-134224561D01*
X432989289Y-134217289D01*
X432996561Y-134210699D01*
X433004443Y-134204853D01*
X433012860Y-134199808D01*
X433021732Y-134195612D01*
X433030972Y-134192306D01*
X433040491Y-134189921D01*
X433050198Y-134188482D01*
X433060000Y-134188000D01*
X433260000Y-134188000D01*
X433269802Y-134188482D01*
G37*
G36*
X433769802Y-134188482D02*
G01*
X433779509Y-134189921D01*
X433789028Y-134192306D01*
X433798268Y-134195612D01*
X433807140Y-134199808D01*
X433815557Y-134204853D01*
X433823439Y-134210699D01*
X433830711Y-134217289D01*
X433837301Y-134224561D01*
X433843147Y-134232443D01*
X433848192Y-134240860D01*
X433852388Y-134249732D01*
X433855694Y-134258972D01*
X433858079Y-134268491D01*
X433859518Y-134278198D01*
X433860000Y-134288000D01*
X433860000Y-135663000D01*
X433859518Y-135672802D01*
X433858079Y-135682509D01*
X433855694Y-135692028D01*
X433852388Y-135701268D01*
X433848192Y-135710140D01*
X433843147Y-135718557D01*
X433837301Y-135726439D01*
X433830711Y-135733711D01*
X433823439Y-135740301D01*
X433815557Y-135746147D01*
X433807140Y-135751192D01*
X433798268Y-135755388D01*
X433789028Y-135758694D01*
X433779509Y-135761079D01*
X433769802Y-135762518D01*
X433760000Y-135763000D01*
X433560000Y-135763000D01*
X433550198Y-135762518D01*
X433540491Y-135761079D01*
X433530972Y-135758694D01*
X433521732Y-135755388D01*
X433512860Y-135751192D01*
X433504443Y-135746147D01*
X433496561Y-135740301D01*
X433489289Y-135733711D01*
X433482699Y-135726439D01*
X433476853Y-135718557D01*
X433471808Y-135710140D01*
X433467612Y-135701268D01*
X433464306Y-135692028D01*
X433461921Y-135682509D01*
X433460482Y-135672802D01*
X433460000Y-135663000D01*
X433460000Y-134288000D01*
X433460482Y-134278198D01*
X433461921Y-134268491D01*
X433464306Y-134258972D01*
X433467612Y-134249732D01*
X433471808Y-134240860D01*
X433476853Y-134232443D01*
X433482699Y-134224561D01*
X433489289Y-134217289D01*
X433496561Y-134210699D01*
X433504443Y-134204853D01*
X433512860Y-134199808D01*
X433521732Y-134195612D01*
X433530972Y-134192306D01*
X433540491Y-134189921D01*
X433550198Y-134188482D01*
X433560000Y-134188000D01*
X433760000Y-134188000D01*
X433769802Y-134188482D01*
G37*
G36*
X434269802Y-134188482D02*
G01*
X434279509Y-134189921D01*
X434289028Y-134192306D01*
X434298268Y-134195612D01*
X434307140Y-134199808D01*
X434315557Y-134204853D01*
X434323439Y-134210699D01*
X434330711Y-134217289D01*
X434337301Y-134224561D01*
X434343147Y-134232443D01*
X434348192Y-134240860D01*
X434352388Y-134249732D01*
X434355694Y-134258972D01*
X434358079Y-134268491D01*
X434359518Y-134278198D01*
X434360000Y-134288000D01*
X434360000Y-135663000D01*
X434359518Y-135672802D01*
X434358079Y-135682509D01*
X434355694Y-135692028D01*
X434352388Y-135701268D01*
X434348192Y-135710140D01*
X434343147Y-135718557D01*
X434337301Y-135726439D01*
X434330711Y-135733711D01*
X434323439Y-135740301D01*
X434315557Y-135746147D01*
X434307140Y-135751192D01*
X434298268Y-135755388D01*
X434289028Y-135758694D01*
X434279509Y-135761079D01*
X434269802Y-135762518D01*
X434260000Y-135763000D01*
X434060000Y-135763000D01*
X434050198Y-135762518D01*
X434040491Y-135761079D01*
X434030972Y-135758694D01*
X434021732Y-135755388D01*
X434012860Y-135751192D01*
X434004443Y-135746147D01*
X433996561Y-135740301D01*
X433989289Y-135733711D01*
X433982699Y-135726439D01*
X433976853Y-135718557D01*
X433971808Y-135710140D01*
X433967612Y-135701268D01*
X433964306Y-135692028D01*
X433961921Y-135682509D01*
X433960482Y-135672802D01*
X433960000Y-135663000D01*
X433960000Y-134288000D01*
X433960482Y-134278198D01*
X433961921Y-134268491D01*
X433964306Y-134258972D01*
X433967612Y-134249732D01*
X433971808Y-134240860D01*
X433976853Y-134232443D01*
X433982699Y-134224561D01*
X433989289Y-134217289D01*
X433996561Y-134210699D01*
X434004443Y-134204853D01*
X434012860Y-134199808D01*
X434021732Y-134195612D01*
X434030972Y-134192306D01*
X434040491Y-134189921D01*
X434050198Y-134188482D01*
X434060000Y-134188000D01*
X434260000Y-134188000D01*
X434269802Y-134188482D01*
G37*
G36*
X434769802Y-134188482D02*
G01*
X434779509Y-134189921D01*
X434789028Y-134192306D01*
X434798268Y-134195612D01*
X434807140Y-134199808D01*
X434815557Y-134204853D01*
X434823439Y-134210699D01*
X434830711Y-134217289D01*
X434837301Y-134224561D01*
X434843147Y-134232443D01*
X434848192Y-134240860D01*
X434852388Y-134249732D01*
X434855694Y-134258972D01*
X434858079Y-134268491D01*
X434859518Y-134278198D01*
X434860000Y-134288000D01*
X434860000Y-135663000D01*
X434859518Y-135672802D01*
X434858079Y-135682509D01*
X434855694Y-135692028D01*
X434852388Y-135701268D01*
X434848192Y-135710140D01*
X434843147Y-135718557D01*
X434837301Y-135726439D01*
X434830711Y-135733711D01*
X434823439Y-135740301D01*
X434815557Y-135746147D01*
X434807140Y-135751192D01*
X434798268Y-135755388D01*
X434789028Y-135758694D01*
X434779509Y-135761079D01*
X434769802Y-135762518D01*
X434760000Y-135763000D01*
X434560000Y-135763000D01*
X434550198Y-135762518D01*
X434540491Y-135761079D01*
X434530972Y-135758694D01*
X434521732Y-135755388D01*
X434512860Y-135751192D01*
X434504443Y-135746147D01*
X434496561Y-135740301D01*
X434489289Y-135733711D01*
X434482699Y-135726439D01*
X434476853Y-135718557D01*
X434471808Y-135710140D01*
X434467612Y-135701268D01*
X434464306Y-135692028D01*
X434461921Y-135682509D01*
X434460482Y-135672802D01*
X434460000Y-135663000D01*
X434460000Y-134288000D01*
X434460482Y-134278198D01*
X434461921Y-134268491D01*
X434464306Y-134258972D01*
X434467612Y-134249732D01*
X434471808Y-134240860D01*
X434476853Y-134232443D01*
X434482699Y-134224561D01*
X434489289Y-134217289D01*
X434496561Y-134210699D01*
X434504443Y-134204853D01*
X434512860Y-134199808D01*
X434521732Y-134195612D01*
X434530972Y-134192306D01*
X434540491Y-134189921D01*
X434550198Y-134188482D01*
X434560000Y-134188000D01*
X434760000Y-134188000D01*
X434769802Y-134188482D01*
G37*
G36*
X435269802Y-134188482D02*
G01*
X435279509Y-134189921D01*
X435289028Y-134192306D01*
X435298268Y-134195612D01*
X435307140Y-134199808D01*
X435315557Y-134204853D01*
X435323439Y-134210699D01*
X435330711Y-134217289D01*
X435337301Y-134224561D01*
X435343147Y-134232443D01*
X435348192Y-134240860D01*
X435352388Y-134249732D01*
X435355694Y-134258972D01*
X435358079Y-134268491D01*
X435359518Y-134278198D01*
X435360000Y-134288000D01*
X435360000Y-135663000D01*
X435359518Y-135672802D01*
X435358079Y-135682509D01*
X435355694Y-135692028D01*
X435352388Y-135701268D01*
X435348192Y-135710140D01*
X435343147Y-135718557D01*
X435337301Y-135726439D01*
X435330711Y-135733711D01*
X435323439Y-135740301D01*
X435315557Y-135746147D01*
X435307140Y-135751192D01*
X435298268Y-135755388D01*
X435289028Y-135758694D01*
X435279509Y-135761079D01*
X435269802Y-135762518D01*
X435260000Y-135763000D01*
X435060000Y-135763000D01*
X435050198Y-135762518D01*
X435040491Y-135761079D01*
X435030972Y-135758694D01*
X435021732Y-135755388D01*
X435012860Y-135751192D01*
X435004443Y-135746147D01*
X434996561Y-135740301D01*
X434989289Y-135733711D01*
X434982699Y-135726439D01*
X434976853Y-135718557D01*
X434971808Y-135710140D01*
X434967612Y-135701268D01*
X434964306Y-135692028D01*
X434961921Y-135682509D01*
X434960482Y-135672802D01*
X434960000Y-135663000D01*
X434960000Y-134288000D01*
X434960482Y-134278198D01*
X434961921Y-134268491D01*
X434964306Y-134258972D01*
X434967612Y-134249732D01*
X434971808Y-134240860D01*
X434976853Y-134232443D01*
X434982699Y-134224561D01*
X434989289Y-134217289D01*
X434996561Y-134210699D01*
X435004443Y-134204853D01*
X435012860Y-134199808D01*
X435021732Y-134195612D01*
X435030972Y-134192306D01*
X435040491Y-134189921D01*
X435050198Y-134188482D01*
X435060000Y-134188000D01*
X435260000Y-134188000D01*
X435269802Y-134188482D01*
G37*
G36*
X437269802Y-136188482D02*
G01*
X437279509Y-136189921D01*
X437289028Y-136192306D01*
X437298268Y-136195612D01*
X437307140Y-136199808D01*
X437315557Y-136204853D01*
X437323439Y-136210699D01*
X437330711Y-136217289D01*
X437337301Y-136224561D01*
X437343147Y-136232443D01*
X437348192Y-136240860D01*
X437352388Y-136249732D01*
X437355694Y-136258972D01*
X437358079Y-136268491D01*
X437359518Y-136278198D01*
X437360000Y-136288000D01*
X437360000Y-136488000D01*
X437359518Y-136497802D01*
X437358079Y-136507509D01*
X437355694Y-136517028D01*
X437352388Y-136526268D01*
X437348192Y-136535140D01*
X437343147Y-136543557D01*
X437337301Y-136551439D01*
X437330711Y-136558711D01*
X437323439Y-136565301D01*
X437315557Y-136571147D01*
X437307140Y-136576192D01*
X437298268Y-136580388D01*
X437289028Y-136583694D01*
X437279509Y-136586079D01*
X437269802Y-136587518D01*
X437260000Y-136588000D01*
X435885000Y-136588000D01*
X435875198Y-136587518D01*
X435865491Y-136586079D01*
X435855972Y-136583694D01*
X435846732Y-136580388D01*
X435837860Y-136576192D01*
X435829443Y-136571147D01*
X435821561Y-136565301D01*
X435814289Y-136558711D01*
X435807699Y-136551439D01*
X435801853Y-136543557D01*
X435796808Y-136535140D01*
X435792612Y-136526268D01*
X435789306Y-136517028D01*
X435786921Y-136507509D01*
X435785482Y-136497802D01*
X435785000Y-136488000D01*
X435785000Y-136288000D01*
X435785482Y-136278198D01*
X435786921Y-136268491D01*
X435789306Y-136258972D01*
X435792612Y-136249732D01*
X435796808Y-136240860D01*
X435801853Y-136232443D01*
X435807699Y-136224561D01*
X435814289Y-136217289D01*
X435821561Y-136210699D01*
X435829443Y-136204853D01*
X435837860Y-136199808D01*
X435846732Y-136195612D01*
X435855972Y-136192306D01*
X435865491Y-136189921D01*
X435875198Y-136188482D01*
X435885000Y-136188000D01*
X437260000Y-136188000D01*
X437269802Y-136188482D01*
G37*
G36*
X437269802Y-136688482D02*
G01*
X437279509Y-136689921D01*
X437289028Y-136692306D01*
X437298268Y-136695612D01*
X437307140Y-136699808D01*
X437315557Y-136704853D01*
X437323439Y-136710699D01*
X437330711Y-136717289D01*
X437337301Y-136724561D01*
X437343147Y-136732443D01*
X437348192Y-136740860D01*
X437352388Y-136749732D01*
X437355694Y-136758972D01*
X437358079Y-136768491D01*
X437359518Y-136778198D01*
X437360000Y-136788000D01*
X437360000Y-136988000D01*
X437359518Y-136997802D01*
X437358079Y-137007509D01*
X437355694Y-137017028D01*
X437352388Y-137026268D01*
X437348192Y-137035140D01*
X437343147Y-137043557D01*
X437337301Y-137051439D01*
X437330711Y-137058711D01*
X437323439Y-137065301D01*
X437315557Y-137071147D01*
X437307140Y-137076192D01*
X437298268Y-137080388D01*
X437289028Y-137083694D01*
X437279509Y-137086079D01*
X437269802Y-137087518D01*
X437260000Y-137088000D01*
X435885000Y-137088000D01*
X435875198Y-137087518D01*
X435865491Y-137086079D01*
X435855972Y-137083694D01*
X435846732Y-137080388D01*
X435837860Y-137076192D01*
X435829443Y-137071147D01*
X435821561Y-137065301D01*
X435814289Y-137058711D01*
X435807699Y-137051439D01*
X435801853Y-137043557D01*
X435796808Y-137035140D01*
X435792612Y-137026268D01*
X435789306Y-137017028D01*
X435786921Y-137007509D01*
X435785482Y-136997802D01*
X435785000Y-136988000D01*
X435785000Y-136788000D01*
X435785482Y-136778198D01*
X435786921Y-136768491D01*
X435789306Y-136758972D01*
X435792612Y-136749732D01*
X435796808Y-136740860D01*
X435801853Y-136732443D01*
X435807699Y-136724561D01*
X435814289Y-136717289D01*
X435821561Y-136710699D01*
X435829443Y-136704853D01*
X435837860Y-136699808D01*
X435846732Y-136695612D01*
X435855972Y-136692306D01*
X435865491Y-136689921D01*
X435875198Y-136688482D01*
X435885000Y-136688000D01*
X437260000Y-136688000D01*
X437269802Y-136688482D01*
G37*
G36*
X437269802Y-137188482D02*
G01*
X437279509Y-137189921D01*
X437289028Y-137192306D01*
X437298268Y-137195612D01*
X437307140Y-137199808D01*
X437315557Y-137204853D01*
X437323439Y-137210699D01*
X437330711Y-137217289D01*
X437337301Y-137224561D01*
X437343147Y-137232443D01*
X437348192Y-137240860D01*
X437352388Y-137249732D01*
X437355694Y-137258972D01*
X437358079Y-137268491D01*
X437359518Y-137278198D01*
X437360000Y-137288000D01*
X437360000Y-137488000D01*
X437359518Y-137497802D01*
X437358079Y-137507509D01*
X437355694Y-137517028D01*
X437352388Y-137526268D01*
X437348192Y-137535140D01*
X437343147Y-137543557D01*
X437337301Y-137551439D01*
X437330711Y-137558711D01*
X437323439Y-137565301D01*
X437315557Y-137571147D01*
X437307140Y-137576192D01*
X437298268Y-137580388D01*
X437289028Y-137583694D01*
X437279509Y-137586079D01*
X437269802Y-137587518D01*
X437260000Y-137588000D01*
X435885000Y-137588000D01*
X435875198Y-137587518D01*
X435865491Y-137586079D01*
X435855972Y-137583694D01*
X435846732Y-137580388D01*
X435837860Y-137576192D01*
X435829443Y-137571147D01*
X435821561Y-137565301D01*
X435814289Y-137558711D01*
X435807699Y-137551439D01*
X435801853Y-137543557D01*
X435796808Y-137535140D01*
X435792612Y-137526268D01*
X435789306Y-137517028D01*
X435786921Y-137507509D01*
X435785482Y-137497802D01*
X435785000Y-137488000D01*
X435785000Y-137288000D01*
X435785482Y-137278198D01*
X435786921Y-137268491D01*
X435789306Y-137258972D01*
X435792612Y-137249732D01*
X435796808Y-137240860D01*
X435801853Y-137232443D01*
X435807699Y-137224561D01*
X435814289Y-137217289D01*
X435821561Y-137210699D01*
X435829443Y-137204853D01*
X435837860Y-137199808D01*
X435846732Y-137195612D01*
X435855972Y-137192306D01*
X435865491Y-137189921D01*
X435875198Y-137188482D01*
X435885000Y-137188000D01*
X437260000Y-137188000D01*
X437269802Y-137188482D01*
G37*
G36*
X437269802Y-137688482D02*
G01*
X437279509Y-137689921D01*
X437289028Y-137692306D01*
X437298268Y-137695612D01*
X437307140Y-137699808D01*
X437315557Y-137704853D01*
X437323439Y-137710699D01*
X437330711Y-137717289D01*
X437337301Y-137724561D01*
X437343147Y-137732443D01*
X437348192Y-137740860D01*
X437352388Y-137749732D01*
X437355694Y-137758972D01*
X437358079Y-137768491D01*
X437359518Y-137778198D01*
X437360000Y-137788000D01*
X437360000Y-137988000D01*
X437359518Y-137997802D01*
X437358079Y-138007509D01*
X437355694Y-138017028D01*
X437352388Y-138026268D01*
X437348192Y-138035140D01*
X437343147Y-138043557D01*
X437337301Y-138051439D01*
X437330711Y-138058711D01*
X437323439Y-138065301D01*
X437315557Y-138071147D01*
X437307140Y-138076192D01*
X437298268Y-138080388D01*
X437289028Y-138083694D01*
X437279509Y-138086079D01*
X437269802Y-138087518D01*
X437260000Y-138088000D01*
X435885000Y-138088000D01*
X435875198Y-138087518D01*
X435865491Y-138086079D01*
X435855972Y-138083694D01*
X435846732Y-138080388D01*
X435837860Y-138076192D01*
X435829443Y-138071147D01*
X435821561Y-138065301D01*
X435814289Y-138058711D01*
X435807699Y-138051439D01*
X435801853Y-138043557D01*
X435796808Y-138035140D01*
X435792612Y-138026268D01*
X435789306Y-138017028D01*
X435786921Y-138007509D01*
X435785482Y-137997802D01*
X435785000Y-137988000D01*
X435785000Y-137788000D01*
X435785482Y-137778198D01*
X435786921Y-137768491D01*
X435789306Y-137758972D01*
X435792612Y-137749732D01*
X435796808Y-137740860D01*
X435801853Y-137732443D01*
X435807699Y-137724561D01*
X435814289Y-137717289D01*
X435821561Y-137710699D01*
X435829443Y-137704853D01*
X435837860Y-137699808D01*
X435846732Y-137695612D01*
X435855972Y-137692306D01*
X435865491Y-137689921D01*
X435875198Y-137688482D01*
X435885000Y-137688000D01*
X437260000Y-137688000D01*
X437269802Y-137688482D01*
G37*
G36*
X437269802Y-138188482D02*
G01*
X437279509Y-138189921D01*
X437289028Y-138192306D01*
X437298268Y-138195612D01*
X437307140Y-138199808D01*
X437315557Y-138204853D01*
X437323439Y-138210699D01*
X437330711Y-138217289D01*
X437337301Y-138224561D01*
X437343147Y-138232443D01*
X437348192Y-138240860D01*
X437352388Y-138249732D01*
X437355694Y-138258972D01*
X437358079Y-138268491D01*
X437359518Y-138278198D01*
X437360000Y-138288000D01*
X437360000Y-138488000D01*
X437359518Y-138497802D01*
X437358079Y-138507509D01*
X437355694Y-138517028D01*
X437352388Y-138526268D01*
X437348192Y-138535140D01*
X437343147Y-138543557D01*
X437337301Y-138551439D01*
X437330711Y-138558711D01*
X437323439Y-138565301D01*
X437315557Y-138571147D01*
X437307140Y-138576192D01*
X437298268Y-138580388D01*
X437289028Y-138583694D01*
X437279509Y-138586079D01*
X437269802Y-138587518D01*
X437260000Y-138588000D01*
X435885000Y-138588000D01*
X435875198Y-138587518D01*
X435865491Y-138586079D01*
X435855972Y-138583694D01*
X435846732Y-138580388D01*
X435837860Y-138576192D01*
X435829443Y-138571147D01*
X435821561Y-138565301D01*
X435814289Y-138558711D01*
X435807699Y-138551439D01*
X435801853Y-138543557D01*
X435796808Y-138535140D01*
X435792612Y-138526268D01*
X435789306Y-138517028D01*
X435786921Y-138507509D01*
X435785482Y-138497802D01*
X435785000Y-138488000D01*
X435785000Y-138288000D01*
X435785482Y-138278198D01*
X435786921Y-138268491D01*
X435789306Y-138258972D01*
X435792612Y-138249732D01*
X435796808Y-138240860D01*
X435801853Y-138232443D01*
X435807699Y-138224561D01*
X435814289Y-138217289D01*
X435821561Y-138210699D01*
X435829443Y-138204853D01*
X435837860Y-138199808D01*
X435846732Y-138195612D01*
X435855972Y-138192306D01*
X435865491Y-138189921D01*
X435875198Y-138188482D01*
X435885000Y-138188000D01*
X437260000Y-138188000D01*
X437269802Y-138188482D01*
G37*
G36*
X437269802Y-138688482D02*
G01*
X437279509Y-138689921D01*
X437289028Y-138692306D01*
X437298268Y-138695612D01*
X437307140Y-138699808D01*
X437315557Y-138704853D01*
X437323439Y-138710699D01*
X437330711Y-138717289D01*
X437337301Y-138724561D01*
X437343147Y-138732443D01*
X437348192Y-138740860D01*
X437352388Y-138749732D01*
X437355694Y-138758972D01*
X437358079Y-138768491D01*
X437359518Y-138778198D01*
X437360000Y-138788000D01*
X437360000Y-138988000D01*
X437359518Y-138997802D01*
X437358079Y-139007509D01*
X437355694Y-139017028D01*
X437352388Y-139026268D01*
X437348192Y-139035140D01*
X437343147Y-139043557D01*
X437337301Y-139051439D01*
X437330711Y-139058711D01*
X437323439Y-139065301D01*
X437315557Y-139071147D01*
X437307140Y-139076192D01*
X437298268Y-139080388D01*
X437289028Y-139083694D01*
X437279509Y-139086079D01*
X437269802Y-139087518D01*
X437260000Y-139088000D01*
X435885000Y-139088000D01*
X435875198Y-139087518D01*
X435865491Y-139086079D01*
X435855972Y-139083694D01*
X435846732Y-139080388D01*
X435837860Y-139076192D01*
X435829443Y-139071147D01*
X435821561Y-139065301D01*
X435814289Y-139058711D01*
X435807699Y-139051439D01*
X435801853Y-139043557D01*
X435796808Y-139035140D01*
X435792612Y-139026268D01*
X435789306Y-139017028D01*
X435786921Y-139007509D01*
X435785482Y-138997802D01*
X435785000Y-138988000D01*
X435785000Y-138788000D01*
X435785482Y-138778198D01*
X435786921Y-138768491D01*
X435789306Y-138758972D01*
X435792612Y-138749732D01*
X435796808Y-138740860D01*
X435801853Y-138732443D01*
X435807699Y-138724561D01*
X435814289Y-138717289D01*
X435821561Y-138710699D01*
X435829443Y-138704853D01*
X435837860Y-138699808D01*
X435846732Y-138695612D01*
X435855972Y-138692306D01*
X435865491Y-138689921D01*
X435875198Y-138688482D01*
X435885000Y-138688000D01*
X437260000Y-138688000D01*
X437269802Y-138688482D01*
G37*
G36*
X437269802Y-139188482D02*
G01*
X437279509Y-139189921D01*
X437289028Y-139192306D01*
X437298268Y-139195612D01*
X437307140Y-139199808D01*
X437315557Y-139204853D01*
X437323439Y-139210699D01*
X437330711Y-139217289D01*
X437337301Y-139224561D01*
X437343147Y-139232443D01*
X437348192Y-139240860D01*
X437352388Y-139249732D01*
X437355694Y-139258972D01*
X437358079Y-139268491D01*
X437359518Y-139278198D01*
X437360000Y-139288000D01*
X437360000Y-139488000D01*
X437359518Y-139497802D01*
X437358079Y-139507509D01*
X437355694Y-139517028D01*
X437352388Y-139526268D01*
X437348192Y-139535140D01*
X437343147Y-139543557D01*
X437337301Y-139551439D01*
X437330711Y-139558711D01*
X437323439Y-139565301D01*
X437315557Y-139571147D01*
X437307140Y-139576192D01*
X437298268Y-139580388D01*
X437289028Y-139583694D01*
X437279509Y-139586079D01*
X437269802Y-139587518D01*
X437260000Y-139588000D01*
X435885000Y-139588000D01*
X435875198Y-139587518D01*
X435865491Y-139586079D01*
X435855972Y-139583694D01*
X435846732Y-139580388D01*
X435837860Y-139576192D01*
X435829443Y-139571147D01*
X435821561Y-139565301D01*
X435814289Y-139558711D01*
X435807699Y-139551439D01*
X435801853Y-139543557D01*
X435796808Y-139535140D01*
X435792612Y-139526268D01*
X435789306Y-139517028D01*
X435786921Y-139507509D01*
X435785482Y-139497802D01*
X435785000Y-139488000D01*
X435785000Y-139288000D01*
X435785482Y-139278198D01*
X435786921Y-139268491D01*
X435789306Y-139258972D01*
X435792612Y-139249732D01*
X435796808Y-139240860D01*
X435801853Y-139232443D01*
X435807699Y-139224561D01*
X435814289Y-139217289D01*
X435821561Y-139210699D01*
X435829443Y-139204853D01*
X435837860Y-139199808D01*
X435846732Y-139195612D01*
X435855972Y-139192306D01*
X435865491Y-139189921D01*
X435875198Y-139188482D01*
X435885000Y-139188000D01*
X437260000Y-139188000D01*
X437269802Y-139188482D01*
G37*
G36*
X437269802Y-139688482D02*
G01*
X437279509Y-139689921D01*
X437289028Y-139692306D01*
X437298268Y-139695612D01*
X437307140Y-139699808D01*
X437315557Y-139704853D01*
X437323439Y-139710699D01*
X437330711Y-139717289D01*
X437337301Y-139724561D01*
X437343147Y-139732443D01*
X437348192Y-139740860D01*
X437352388Y-139749732D01*
X437355694Y-139758972D01*
X437358079Y-139768491D01*
X437359518Y-139778198D01*
X437360000Y-139788000D01*
X437360000Y-139988000D01*
X437359518Y-139997802D01*
X437358079Y-140007509D01*
X437355694Y-140017028D01*
X437352388Y-140026268D01*
X437348192Y-140035140D01*
X437343147Y-140043557D01*
X437337301Y-140051439D01*
X437330711Y-140058711D01*
X437323439Y-140065301D01*
X437315557Y-140071147D01*
X437307140Y-140076192D01*
X437298268Y-140080388D01*
X437289028Y-140083694D01*
X437279509Y-140086079D01*
X437269802Y-140087518D01*
X437260000Y-140088000D01*
X435885000Y-140088000D01*
X435875198Y-140087518D01*
X435865491Y-140086079D01*
X435855972Y-140083694D01*
X435846732Y-140080388D01*
X435837860Y-140076192D01*
X435829443Y-140071147D01*
X435821561Y-140065301D01*
X435814289Y-140058711D01*
X435807699Y-140051439D01*
X435801853Y-140043557D01*
X435796808Y-140035140D01*
X435792612Y-140026268D01*
X435789306Y-140017028D01*
X435786921Y-140007509D01*
X435785482Y-139997802D01*
X435785000Y-139988000D01*
X435785000Y-139788000D01*
X435785482Y-139778198D01*
X435786921Y-139768491D01*
X435789306Y-139758972D01*
X435792612Y-139749732D01*
X435796808Y-139740860D01*
X435801853Y-139732443D01*
X435807699Y-139724561D01*
X435814289Y-139717289D01*
X435821561Y-139710699D01*
X435829443Y-139704853D01*
X435837860Y-139699808D01*
X435846732Y-139695612D01*
X435855972Y-139692306D01*
X435865491Y-139689921D01*
X435875198Y-139688482D01*
X435885000Y-139688000D01*
X437260000Y-139688000D01*
X437269802Y-139688482D01*
G37*
G36*
X437269802Y-140188482D02*
G01*
X437279509Y-140189921D01*
X437289028Y-140192306D01*
X437298268Y-140195612D01*
X437307140Y-140199808D01*
X437315557Y-140204853D01*
X437323439Y-140210699D01*
X437330711Y-140217289D01*
X437337301Y-140224561D01*
X437343147Y-140232443D01*
X437348192Y-140240860D01*
X437352388Y-140249732D01*
X437355694Y-140258972D01*
X437358079Y-140268491D01*
X437359518Y-140278198D01*
X437360000Y-140288000D01*
X437360000Y-140488000D01*
X437359518Y-140497802D01*
X437358079Y-140507509D01*
X437355694Y-140517028D01*
X437352388Y-140526268D01*
X437348192Y-140535140D01*
X437343147Y-140543557D01*
X437337301Y-140551439D01*
X437330711Y-140558711D01*
X437323439Y-140565301D01*
X437315557Y-140571147D01*
X437307140Y-140576192D01*
X437298268Y-140580388D01*
X437289028Y-140583694D01*
X437279509Y-140586079D01*
X437269802Y-140587518D01*
X437260000Y-140588000D01*
X435885000Y-140588000D01*
X435875198Y-140587518D01*
X435865491Y-140586079D01*
X435855972Y-140583694D01*
X435846732Y-140580388D01*
X435837860Y-140576192D01*
X435829443Y-140571147D01*
X435821561Y-140565301D01*
X435814289Y-140558711D01*
X435807699Y-140551439D01*
X435801853Y-140543557D01*
X435796808Y-140535140D01*
X435792612Y-140526268D01*
X435789306Y-140517028D01*
X435786921Y-140507509D01*
X435785482Y-140497802D01*
X435785000Y-140488000D01*
X435785000Y-140288000D01*
X435785482Y-140278198D01*
X435786921Y-140268491D01*
X435789306Y-140258972D01*
X435792612Y-140249732D01*
X435796808Y-140240860D01*
X435801853Y-140232443D01*
X435807699Y-140224561D01*
X435814289Y-140217289D01*
X435821561Y-140210699D01*
X435829443Y-140204853D01*
X435837860Y-140199808D01*
X435846732Y-140195612D01*
X435855972Y-140192306D01*
X435865491Y-140189921D01*
X435875198Y-140188482D01*
X435885000Y-140188000D01*
X437260000Y-140188000D01*
X437269802Y-140188482D01*
G37*
G36*
X437269802Y-140688482D02*
G01*
X437279509Y-140689921D01*
X437289028Y-140692306D01*
X437298268Y-140695612D01*
X437307140Y-140699808D01*
X437315557Y-140704853D01*
X437323439Y-140710699D01*
X437330711Y-140717289D01*
X437337301Y-140724561D01*
X437343147Y-140732443D01*
X437348192Y-140740860D01*
X437352388Y-140749732D01*
X437355694Y-140758972D01*
X437358079Y-140768491D01*
X437359518Y-140778198D01*
X437360000Y-140788000D01*
X437360000Y-140988000D01*
X437359518Y-140997802D01*
X437358079Y-141007509D01*
X437355694Y-141017028D01*
X437352388Y-141026268D01*
X437348192Y-141035140D01*
X437343147Y-141043557D01*
X437337301Y-141051439D01*
X437330711Y-141058711D01*
X437323439Y-141065301D01*
X437315557Y-141071147D01*
X437307140Y-141076192D01*
X437298268Y-141080388D01*
X437289028Y-141083694D01*
X437279509Y-141086079D01*
X437269802Y-141087518D01*
X437260000Y-141088000D01*
X435885000Y-141088000D01*
X435875198Y-141087518D01*
X435865491Y-141086079D01*
X435855972Y-141083694D01*
X435846732Y-141080388D01*
X435837860Y-141076192D01*
X435829443Y-141071147D01*
X435821561Y-141065301D01*
X435814289Y-141058711D01*
X435807699Y-141051439D01*
X435801853Y-141043557D01*
X435796808Y-141035140D01*
X435792612Y-141026268D01*
X435789306Y-141017028D01*
X435786921Y-141007509D01*
X435785482Y-140997802D01*
X435785000Y-140988000D01*
X435785000Y-140788000D01*
X435785482Y-140778198D01*
X435786921Y-140768491D01*
X435789306Y-140758972D01*
X435792612Y-140749732D01*
X435796808Y-140740860D01*
X435801853Y-140732443D01*
X435807699Y-140724561D01*
X435814289Y-140717289D01*
X435821561Y-140710699D01*
X435829443Y-140704853D01*
X435837860Y-140699808D01*
X435846732Y-140695612D01*
X435855972Y-140692306D01*
X435865491Y-140689921D01*
X435875198Y-140688482D01*
X435885000Y-140688000D01*
X437260000Y-140688000D01*
X437269802Y-140688482D01*
G37*
G36*
X437269802Y-141188482D02*
G01*
X437279509Y-141189921D01*
X437289028Y-141192306D01*
X437298268Y-141195612D01*
X437307140Y-141199808D01*
X437315557Y-141204853D01*
X437323439Y-141210699D01*
X437330711Y-141217289D01*
X437337301Y-141224561D01*
X437343147Y-141232443D01*
X437348192Y-141240860D01*
X437352388Y-141249732D01*
X437355694Y-141258972D01*
X437358079Y-141268491D01*
X437359518Y-141278198D01*
X437360000Y-141288000D01*
X437360000Y-141488000D01*
X437359518Y-141497802D01*
X437358079Y-141507509D01*
X437355694Y-141517028D01*
X437352388Y-141526268D01*
X437348192Y-141535140D01*
X437343147Y-141543557D01*
X437337301Y-141551439D01*
X437330711Y-141558711D01*
X437323439Y-141565301D01*
X437315557Y-141571147D01*
X437307140Y-141576192D01*
X437298268Y-141580388D01*
X437289028Y-141583694D01*
X437279509Y-141586079D01*
X437269802Y-141587518D01*
X437260000Y-141588000D01*
X435885000Y-141588000D01*
X435875198Y-141587518D01*
X435865491Y-141586079D01*
X435855972Y-141583694D01*
X435846732Y-141580388D01*
X435837860Y-141576192D01*
X435829443Y-141571147D01*
X435821561Y-141565301D01*
X435814289Y-141558711D01*
X435807699Y-141551439D01*
X435801853Y-141543557D01*
X435796808Y-141535140D01*
X435792612Y-141526268D01*
X435789306Y-141517028D01*
X435786921Y-141507509D01*
X435785482Y-141497802D01*
X435785000Y-141488000D01*
X435785000Y-141288000D01*
X435785482Y-141278198D01*
X435786921Y-141268491D01*
X435789306Y-141258972D01*
X435792612Y-141249732D01*
X435796808Y-141240860D01*
X435801853Y-141232443D01*
X435807699Y-141224561D01*
X435814289Y-141217289D01*
X435821561Y-141210699D01*
X435829443Y-141204853D01*
X435837860Y-141199808D01*
X435846732Y-141195612D01*
X435855972Y-141192306D01*
X435865491Y-141189921D01*
X435875198Y-141188482D01*
X435885000Y-141188000D01*
X437260000Y-141188000D01*
X437269802Y-141188482D01*
G37*
G36*
X437269802Y-141688482D02*
G01*
X437279509Y-141689921D01*
X437289028Y-141692306D01*
X437298268Y-141695612D01*
X437307140Y-141699808D01*
X437315557Y-141704853D01*
X437323439Y-141710699D01*
X437330711Y-141717289D01*
X437337301Y-141724561D01*
X437343147Y-141732443D01*
X437348192Y-141740860D01*
X437352388Y-141749732D01*
X437355694Y-141758972D01*
X437358079Y-141768491D01*
X437359518Y-141778198D01*
X437360000Y-141788000D01*
X437360000Y-141988000D01*
X437359518Y-141997802D01*
X437358079Y-142007509D01*
X437355694Y-142017028D01*
X437352388Y-142026268D01*
X437348192Y-142035140D01*
X437343147Y-142043557D01*
X437337301Y-142051439D01*
X437330711Y-142058711D01*
X437323439Y-142065301D01*
X437315557Y-142071147D01*
X437307140Y-142076192D01*
X437298268Y-142080388D01*
X437289028Y-142083694D01*
X437279509Y-142086079D01*
X437269802Y-142087518D01*
X437260000Y-142088000D01*
X435885000Y-142088000D01*
X435875198Y-142087518D01*
X435865491Y-142086079D01*
X435855972Y-142083694D01*
X435846732Y-142080388D01*
X435837860Y-142076192D01*
X435829443Y-142071147D01*
X435821561Y-142065301D01*
X435814289Y-142058711D01*
X435807699Y-142051439D01*
X435801853Y-142043557D01*
X435796808Y-142035140D01*
X435792612Y-142026268D01*
X435789306Y-142017028D01*
X435786921Y-142007509D01*
X435785482Y-141997802D01*
X435785000Y-141988000D01*
X435785000Y-141788000D01*
X435785482Y-141778198D01*
X435786921Y-141768491D01*
X435789306Y-141758972D01*
X435792612Y-141749732D01*
X435796808Y-141740860D01*
X435801853Y-141732443D01*
X435807699Y-141724561D01*
X435814289Y-141717289D01*
X435821561Y-141710699D01*
X435829443Y-141704853D01*
X435837860Y-141699808D01*
X435846732Y-141695612D01*
X435855972Y-141692306D01*
X435865491Y-141689921D01*
X435875198Y-141688482D01*
X435885000Y-141688000D01*
X437260000Y-141688000D01*
X437269802Y-141688482D01*
G37*
G36*
X435269802Y-142513482D02*
G01*
X435279509Y-142514921D01*
X435289028Y-142517306D01*
X435298268Y-142520612D01*
X435307140Y-142524808D01*
X435315557Y-142529853D01*
X435323439Y-142535699D01*
X435330711Y-142542289D01*
X435337301Y-142549561D01*
X435343147Y-142557443D01*
X435348192Y-142565860D01*
X435352388Y-142574732D01*
X435355694Y-142583972D01*
X435358079Y-142593491D01*
X435359518Y-142603198D01*
X435360000Y-142613000D01*
X435360000Y-143988000D01*
X435359518Y-143997802D01*
X435358079Y-144007509D01*
X435355694Y-144017028D01*
X435352388Y-144026268D01*
X435348192Y-144035140D01*
X435343147Y-144043557D01*
X435337301Y-144051439D01*
X435330711Y-144058711D01*
X435323439Y-144065301D01*
X435315557Y-144071147D01*
X435307140Y-144076192D01*
X435298268Y-144080388D01*
X435289028Y-144083694D01*
X435279509Y-144086079D01*
X435269802Y-144087518D01*
X435260000Y-144088000D01*
X435060000Y-144088000D01*
X435050198Y-144087518D01*
X435040491Y-144086079D01*
X435030972Y-144083694D01*
X435021732Y-144080388D01*
X435012860Y-144076192D01*
X435004443Y-144071147D01*
X434996561Y-144065301D01*
X434989289Y-144058711D01*
X434982699Y-144051439D01*
X434976853Y-144043557D01*
X434971808Y-144035140D01*
X434967612Y-144026268D01*
X434964306Y-144017028D01*
X434961921Y-144007509D01*
X434960482Y-143997802D01*
X434960000Y-143988000D01*
X434960000Y-142613000D01*
X434960482Y-142603198D01*
X434961921Y-142593491D01*
X434964306Y-142583972D01*
X434967612Y-142574732D01*
X434971808Y-142565860D01*
X434976853Y-142557443D01*
X434982699Y-142549561D01*
X434989289Y-142542289D01*
X434996561Y-142535699D01*
X435004443Y-142529853D01*
X435012860Y-142524808D01*
X435021732Y-142520612D01*
X435030972Y-142517306D01*
X435040491Y-142514921D01*
X435050198Y-142513482D01*
X435060000Y-142513000D01*
X435260000Y-142513000D01*
X435269802Y-142513482D01*
G37*
G36*
X434769802Y-142513482D02*
G01*
X434779509Y-142514921D01*
X434789028Y-142517306D01*
X434798268Y-142520612D01*
X434807140Y-142524808D01*
X434815557Y-142529853D01*
X434823439Y-142535699D01*
X434830711Y-142542289D01*
X434837301Y-142549561D01*
X434843147Y-142557443D01*
X434848192Y-142565860D01*
X434852388Y-142574732D01*
X434855694Y-142583972D01*
X434858079Y-142593491D01*
X434859518Y-142603198D01*
X434860000Y-142613000D01*
X434860000Y-143988000D01*
X434859518Y-143997802D01*
X434858079Y-144007509D01*
X434855694Y-144017028D01*
X434852388Y-144026268D01*
X434848192Y-144035140D01*
X434843147Y-144043557D01*
X434837301Y-144051439D01*
X434830711Y-144058711D01*
X434823439Y-144065301D01*
X434815557Y-144071147D01*
X434807140Y-144076192D01*
X434798268Y-144080388D01*
X434789028Y-144083694D01*
X434779509Y-144086079D01*
X434769802Y-144087518D01*
X434760000Y-144088000D01*
X434560000Y-144088000D01*
X434550198Y-144087518D01*
X434540491Y-144086079D01*
X434530972Y-144083694D01*
X434521732Y-144080388D01*
X434512860Y-144076192D01*
X434504443Y-144071147D01*
X434496561Y-144065301D01*
X434489289Y-144058711D01*
X434482699Y-144051439D01*
X434476853Y-144043557D01*
X434471808Y-144035140D01*
X434467612Y-144026268D01*
X434464306Y-144017028D01*
X434461921Y-144007509D01*
X434460482Y-143997802D01*
X434460000Y-143988000D01*
X434460000Y-142613000D01*
X434460482Y-142603198D01*
X434461921Y-142593491D01*
X434464306Y-142583972D01*
X434467612Y-142574732D01*
X434471808Y-142565860D01*
X434476853Y-142557443D01*
X434482699Y-142549561D01*
X434489289Y-142542289D01*
X434496561Y-142535699D01*
X434504443Y-142529853D01*
X434512860Y-142524808D01*
X434521732Y-142520612D01*
X434530972Y-142517306D01*
X434540491Y-142514921D01*
X434550198Y-142513482D01*
X434560000Y-142513000D01*
X434760000Y-142513000D01*
X434769802Y-142513482D01*
G37*
G36*
X434269802Y-142513482D02*
G01*
X434279509Y-142514921D01*
X434289028Y-142517306D01*
X434298268Y-142520612D01*
X434307140Y-142524808D01*
X434315557Y-142529853D01*
X434323439Y-142535699D01*
X434330711Y-142542289D01*
X434337301Y-142549561D01*
X434343147Y-142557443D01*
X434348192Y-142565860D01*
X434352388Y-142574732D01*
X434355694Y-142583972D01*
X434358079Y-142593491D01*
X434359518Y-142603198D01*
X434360000Y-142613000D01*
X434360000Y-143988000D01*
X434359518Y-143997802D01*
X434358079Y-144007509D01*
X434355694Y-144017028D01*
X434352388Y-144026268D01*
X434348192Y-144035140D01*
X434343147Y-144043557D01*
X434337301Y-144051439D01*
X434330711Y-144058711D01*
X434323439Y-144065301D01*
X434315557Y-144071147D01*
X434307140Y-144076192D01*
X434298268Y-144080388D01*
X434289028Y-144083694D01*
X434279509Y-144086079D01*
X434269802Y-144087518D01*
X434260000Y-144088000D01*
X434060000Y-144088000D01*
X434050198Y-144087518D01*
X434040491Y-144086079D01*
X434030972Y-144083694D01*
X434021732Y-144080388D01*
X434012860Y-144076192D01*
X434004443Y-144071147D01*
X433996561Y-144065301D01*
X433989289Y-144058711D01*
X433982699Y-144051439D01*
X433976853Y-144043557D01*
X433971808Y-144035140D01*
X433967612Y-144026268D01*
X433964306Y-144017028D01*
X433961921Y-144007509D01*
X433960482Y-143997802D01*
X433960000Y-143988000D01*
X433960000Y-142613000D01*
X433960482Y-142603198D01*
X433961921Y-142593491D01*
X433964306Y-142583972D01*
X433967612Y-142574732D01*
X433971808Y-142565860D01*
X433976853Y-142557443D01*
X433982699Y-142549561D01*
X433989289Y-142542289D01*
X433996561Y-142535699D01*
X434004443Y-142529853D01*
X434012860Y-142524808D01*
X434021732Y-142520612D01*
X434030972Y-142517306D01*
X434040491Y-142514921D01*
X434050198Y-142513482D01*
X434060000Y-142513000D01*
X434260000Y-142513000D01*
X434269802Y-142513482D01*
G37*
G36*
X433769802Y-142513482D02*
G01*
X433779509Y-142514921D01*
X433789028Y-142517306D01*
X433798268Y-142520612D01*
X433807140Y-142524808D01*
X433815557Y-142529853D01*
X433823439Y-142535699D01*
X433830711Y-142542289D01*
X433837301Y-142549561D01*
X433843147Y-142557443D01*
X433848192Y-142565860D01*
X433852388Y-142574732D01*
X433855694Y-142583972D01*
X433858079Y-142593491D01*
X433859518Y-142603198D01*
X433860000Y-142613000D01*
X433860000Y-143988000D01*
X433859518Y-143997802D01*
X433858079Y-144007509D01*
X433855694Y-144017028D01*
X433852388Y-144026268D01*
X433848192Y-144035140D01*
X433843147Y-144043557D01*
X433837301Y-144051439D01*
X433830711Y-144058711D01*
X433823439Y-144065301D01*
X433815557Y-144071147D01*
X433807140Y-144076192D01*
X433798268Y-144080388D01*
X433789028Y-144083694D01*
X433779509Y-144086079D01*
X433769802Y-144087518D01*
X433760000Y-144088000D01*
X433560000Y-144088000D01*
X433550198Y-144087518D01*
X433540491Y-144086079D01*
X433530972Y-144083694D01*
X433521732Y-144080388D01*
X433512860Y-144076192D01*
X433504443Y-144071147D01*
X433496561Y-144065301D01*
X433489289Y-144058711D01*
X433482699Y-144051439D01*
X433476853Y-144043557D01*
X433471808Y-144035140D01*
X433467612Y-144026268D01*
X433464306Y-144017028D01*
X433461921Y-144007509D01*
X433460482Y-143997802D01*
X433460000Y-143988000D01*
X433460000Y-142613000D01*
X433460482Y-142603198D01*
X433461921Y-142593491D01*
X433464306Y-142583972D01*
X433467612Y-142574732D01*
X433471808Y-142565860D01*
X433476853Y-142557443D01*
X433482699Y-142549561D01*
X433489289Y-142542289D01*
X433496561Y-142535699D01*
X433504443Y-142529853D01*
X433512860Y-142524808D01*
X433521732Y-142520612D01*
X433530972Y-142517306D01*
X433540491Y-142514921D01*
X433550198Y-142513482D01*
X433560000Y-142513000D01*
X433760000Y-142513000D01*
X433769802Y-142513482D01*
G37*
G36*
X433269802Y-142513482D02*
G01*
X433279509Y-142514921D01*
X433289028Y-142517306D01*
X433298268Y-142520612D01*
X433307140Y-142524808D01*
X433315557Y-142529853D01*
X433323439Y-142535699D01*
X433330711Y-142542289D01*
X433337301Y-142549561D01*
X433343147Y-142557443D01*
X433348192Y-142565860D01*
X433352388Y-142574732D01*
X433355694Y-142583972D01*
X433358079Y-142593491D01*
X433359518Y-142603198D01*
X433360000Y-142613000D01*
X433360000Y-143988000D01*
X433359518Y-143997802D01*
X433358079Y-144007509D01*
X433355694Y-144017028D01*
X433352388Y-144026268D01*
X433348192Y-144035140D01*
X433343147Y-144043557D01*
X433337301Y-144051439D01*
X433330711Y-144058711D01*
X433323439Y-144065301D01*
X433315557Y-144071147D01*
X433307140Y-144076192D01*
X433298268Y-144080388D01*
X433289028Y-144083694D01*
X433279509Y-144086079D01*
X433269802Y-144087518D01*
X433260000Y-144088000D01*
X433060000Y-144088000D01*
X433050198Y-144087518D01*
X433040491Y-144086079D01*
X433030972Y-144083694D01*
X433021732Y-144080388D01*
X433012860Y-144076192D01*
X433004443Y-144071147D01*
X432996561Y-144065301D01*
X432989289Y-144058711D01*
X432982699Y-144051439D01*
X432976853Y-144043557D01*
X432971808Y-144035140D01*
X432967612Y-144026268D01*
X432964306Y-144017028D01*
X432961921Y-144007509D01*
X432960482Y-143997802D01*
X432960000Y-143988000D01*
X432960000Y-142613000D01*
X432960482Y-142603198D01*
X432961921Y-142593491D01*
X432964306Y-142583972D01*
X432967612Y-142574732D01*
X432971808Y-142565860D01*
X432976853Y-142557443D01*
X432982699Y-142549561D01*
X432989289Y-142542289D01*
X432996561Y-142535699D01*
X433004443Y-142529853D01*
X433012860Y-142524808D01*
X433021732Y-142520612D01*
X433030972Y-142517306D01*
X433040491Y-142514921D01*
X433050198Y-142513482D01*
X433060000Y-142513000D01*
X433260000Y-142513000D01*
X433269802Y-142513482D01*
G37*
G36*
X432769802Y-142513482D02*
G01*
X432779509Y-142514921D01*
X432789028Y-142517306D01*
X432798268Y-142520612D01*
X432807140Y-142524808D01*
X432815557Y-142529853D01*
X432823439Y-142535699D01*
X432830711Y-142542289D01*
X432837301Y-142549561D01*
X432843147Y-142557443D01*
X432848192Y-142565860D01*
X432852388Y-142574732D01*
X432855694Y-142583972D01*
X432858079Y-142593491D01*
X432859518Y-142603198D01*
X432860000Y-142613000D01*
X432860000Y-143988000D01*
X432859518Y-143997802D01*
X432858079Y-144007509D01*
X432855694Y-144017028D01*
X432852388Y-144026268D01*
X432848192Y-144035140D01*
X432843147Y-144043557D01*
X432837301Y-144051439D01*
X432830711Y-144058711D01*
X432823439Y-144065301D01*
X432815557Y-144071147D01*
X432807140Y-144076192D01*
X432798268Y-144080388D01*
X432789028Y-144083694D01*
X432779509Y-144086079D01*
X432769802Y-144087518D01*
X432760000Y-144088000D01*
X432560000Y-144088000D01*
X432550198Y-144087518D01*
X432540491Y-144086079D01*
X432530972Y-144083694D01*
X432521732Y-144080388D01*
X432512860Y-144076192D01*
X432504443Y-144071147D01*
X432496561Y-144065301D01*
X432489289Y-144058711D01*
X432482699Y-144051439D01*
X432476853Y-144043557D01*
X432471808Y-144035140D01*
X432467612Y-144026268D01*
X432464306Y-144017028D01*
X432461921Y-144007509D01*
X432460482Y-143997802D01*
X432460000Y-143988000D01*
X432460000Y-142613000D01*
X432460482Y-142603198D01*
X432461921Y-142593491D01*
X432464306Y-142583972D01*
X432467612Y-142574732D01*
X432471808Y-142565860D01*
X432476853Y-142557443D01*
X432482699Y-142549561D01*
X432489289Y-142542289D01*
X432496561Y-142535699D01*
X432504443Y-142529853D01*
X432512860Y-142524808D01*
X432521732Y-142520612D01*
X432530972Y-142517306D01*
X432540491Y-142514921D01*
X432550198Y-142513482D01*
X432560000Y-142513000D01*
X432760000Y-142513000D01*
X432769802Y-142513482D01*
G37*
G36*
X432269802Y-142513482D02*
G01*
X432279509Y-142514921D01*
X432289028Y-142517306D01*
X432298268Y-142520612D01*
X432307140Y-142524808D01*
X432315557Y-142529853D01*
X432323439Y-142535699D01*
X432330711Y-142542289D01*
X432337301Y-142549561D01*
X432343147Y-142557443D01*
X432348192Y-142565860D01*
X432352388Y-142574732D01*
X432355694Y-142583972D01*
X432358079Y-142593491D01*
X432359518Y-142603198D01*
X432360000Y-142613000D01*
X432360000Y-143988000D01*
X432359518Y-143997802D01*
X432358079Y-144007509D01*
X432355694Y-144017028D01*
X432352388Y-144026268D01*
X432348192Y-144035140D01*
X432343147Y-144043557D01*
X432337301Y-144051439D01*
X432330711Y-144058711D01*
X432323439Y-144065301D01*
X432315557Y-144071147D01*
X432307140Y-144076192D01*
X432298268Y-144080388D01*
X432289028Y-144083694D01*
X432279509Y-144086079D01*
X432269802Y-144087518D01*
X432260000Y-144088000D01*
X432060000Y-144088000D01*
X432050198Y-144087518D01*
X432040491Y-144086079D01*
X432030972Y-144083694D01*
X432021732Y-144080388D01*
X432012860Y-144076192D01*
X432004443Y-144071147D01*
X431996561Y-144065301D01*
X431989289Y-144058711D01*
X431982699Y-144051439D01*
X431976853Y-144043557D01*
X431971808Y-144035140D01*
X431967612Y-144026268D01*
X431964306Y-144017028D01*
X431961921Y-144007509D01*
X431960482Y-143997802D01*
X431960000Y-143988000D01*
X431960000Y-142613000D01*
X431960482Y-142603198D01*
X431961921Y-142593491D01*
X431964306Y-142583972D01*
X431967612Y-142574732D01*
X431971808Y-142565860D01*
X431976853Y-142557443D01*
X431982699Y-142549561D01*
X431989289Y-142542289D01*
X431996561Y-142535699D01*
X432004443Y-142529853D01*
X432012860Y-142524808D01*
X432021732Y-142520612D01*
X432030972Y-142517306D01*
X432040491Y-142514921D01*
X432050198Y-142513482D01*
X432060000Y-142513000D01*
X432260000Y-142513000D01*
X432269802Y-142513482D01*
G37*
G36*
X431769802Y-142513482D02*
G01*
X431779509Y-142514921D01*
X431789028Y-142517306D01*
X431798268Y-142520612D01*
X431807140Y-142524808D01*
X431815557Y-142529853D01*
X431823439Y-142535699D01*
X431830711Y-142542289D01*
X431837301Y-142549561D01*
X431843147Y-142557443D01*
X431848192Y-142565860D01*
X431852388Y-142574732D01*
X431855694Y-142583972D01*
X431858079Y-142593491D01*
X431859518Y-142603198D01*
X431860000Y-142613000D01*
X431860000Y-143988000D01*
X431859518Y-143997802D01*
X431858079Y-144007509D01*
X431855694Y-144017028D01*
X431852388Y-144026268D01*
X431848192Y-144035140D01*
X431843147Y-144043557D01*
X431837301Y-144051439D01*
X431830711Y-144058711D01*
X431823439Y-144065301D01*
X431815557Y-144071147D01*
X431807140Y-144076192D01*
X431798268Y-144080388D01*
X431789028Y-144083694D01*
X431779509Y-144086079D01*
X431769802Y-144087518D01*
X431760000Y-144088000D01*
X431560000Y-144088000D01*
X431550198Y-144087518D01*
X431540491Y-144086079D01*
X431530972Y-144083694D01*
X431521732Y-144080388D01*
X431512860Y-144076192D01*
X431504443Y-144071147D01*
X431496561Y-144065301D01*
X431489289Y-144058711D01*
X431482699Y-144051439D01*
X431476853Y-144043557D01*
X431471808Y-144035140D01*
X431467612Y-144026268D01*
X431464306Y-144017028D01*
X431461921Y-144007509D01*
X431460482Y-143997802D01*
X431460000Y-143988000D01*
X431460000Y-142613000D01*
X431460482Y-142603198D01*
X431461921Y-142593491D01*
X431464306Y-142583972D01*
X431467612Y-142574732D01*
X431471808Y-142565860D01*
X431476853Y-142557443D01*
X431482699Y-142549561D01*
X431489289Y-142542289D01*
X431496561Y-142535699D01*
X431504443Y-142529853D01*
X431512860Y-142524808D01*
X431521732Y-142520612D01*
X431530972Y-142517306D01*
X431540491Y-142514921D01*
X431550198Y-142513482D01*
X431560000Y-142513000D01*
X431760000Y-142513000D01*
X431769802Y-142513482D01*
G37*
G36*
X431269802Y-142513482D02*
G01*
X431279509Y-142514921D01*
X431289028Y-142517306D01*
X431298268Y-142520612D01*
X431307140Y-142524808D01*
X431315557Y-142529853D01*
X431323439Y-142535699D01*
X431330711Y-142542289D01*
X431337301Y-142549561D01*
X431343147Y-142557443D01*
X431348192Y-142565860D01*
X431352388Y-142574732D01*
X431355694Y-142583972D01*
X431358079Y-142593491D01*
X431359518Y-142603198D01*
X431360000Y-142613000D01*
X431360000Y-143988000D01*
X431359518Y-143997802D01*
X431358079Y-144007509D01*
X431355694Y-144017028D01*
X431352388Y-144026268D01*
X431348192Y-144035140D01*
X431343147Y-144043557D01*
X431337301Y-144051439D01*
X431330711Y-144058711D01*
X431323439Y-144065301D01*
X431315557Y-144071147D01*
X431307140Y-144076192D01*
X431298268Y-144080388D01*
X431289028Y-144083694D01*
X431279509Y-144086079D01*
X431269802Y-144087518D01*
X431260000Y-144088000D01*
X431060000Y-144088000D01*
X431050198Y-144087518D01*
X431040491Y-144086079D01*
X431030972Y-144083694D01*
X431021732Y-144080388D01*
X431012860Y-144076192D01*
X431004443Y-144071147D01*
X430996561Y-144065301D01*
X430989289Y-144058711D01*
X430982699Y-144051439D01*
X430976853Y-144043557D01*
X430971808Y-144035140D01*
X430967612Y-144026268D01*
X430964306Y-144017028D01*
X430961921Y-144007509D01*
X430960482Y-143997802D01*
X430960000Y-143988000D01*
X430960000Y-142613000D01*
X430960482Y-142603198D01*
X430961921Y-142593491D01*
X430964306Y-142583972D01*
X430967612Y-142574732D01*
X430971808Y-142565860D01*
X430976853Y-142557443D01*
X430982699Y-142549561D01*
X430989289Y-142542289D01*
X430996561Y-142535699D01*
X431004443Y-142529853D01*
X431012860Y-142524808D01*
X431021732Y-142520612D01*
X431030972Y-142517306D01*
X431040491Y-142514921D01*
X431050198Y-142513482D01*
X431060000Y-142513000D01*
X431260000Y-142513000D01*
X431269802Y-142513482D01*
G37*
G36*
X430769802Y-142513482D02*
G01*
X430779509Y-142514921D01*
X430789028Y-142517306D01*
X430798268Y-142520612D01*
X430807140Y-142524808D01*
X430815557Y-142529853D01*
X430823439Y-142535699D01*
X430830711Y-142542289D01*
X430837301Y-142549561D01*
X430843147Y-142557443D01*
X430848192Y-142565860D01*
X430852388Y-142574732D01*
X430855694Y-142583972D01*
X430858079Y-142593491D01*
X430859518Y-142603198D01*
X430860000Y-142613000D01*
X430860000Y-143988000D01*
X430859518Y-143997802D01*
X430858079Y-144007509D01*
X430855694Y-144017028D01*
X430852388Y-144026268D01*
X430848192Y-144035140D01*
X430843147Y-144043557D01*
X430837301Y-144051439D01*
X430830711Y-144058711D01*
X430823439Y-144065301D01*
X430815557Y-144071147D01*
X430807140Y-144076192D01*
X430798268Y-144080388D01*
X430789028Y-144083694D01*
X430779509Y-144086079D01*
X430769802Y-144087518D01*
X430760000Y-144088000D01*
X430560000Y-144088000D01*
X430550198Y-144087518D01*
X430540491Y-144086079D01*
X430530972Y-144083694D01*
X430521732Y-144080388D01*
X430512860Y-144076192D01*
X430504443Y-144071147D01*
X430496561Y-144065301D01*
X430489289Y-144058711D01*
X430482699Y-144051439D01*
X430476853Y-144043557D01*
X430471808Y-144035140D01*
X430467612Y-144026268D01*
X430464306Y-144017028D01*
X430461921Y-144007509D01*
X430460482Y-143997802D01*
X430460000Y-143988000D01*
X430460000Y-142613000D01*
X430460482Y-142603198D01*
X430461921Y-142593491D01*
X430464306Y-142583972D01*
X430467612Y-142574732D01*
X430471808Y-142565860D01*
X430476853Y-142557443D01*
X430482699Y-142549561D01*
X430489289Y-142542289D01*
X430496561Y-142535699D01*
X430504443Y-142529853D01*
X430512860Y-142524808D01*
X430521732Y-142520612D01*
X430530972Y-142517306D01*
X430540491Y-142514921D01*
X430550198Y-142513482D01*
X430560000Y-142513000D01*
X430760000Y-142513000D01*
X430769802Y-142513482D01*
G37*
G36*
X430269802Y-142513482D02*
G01*
X430279509Y-142514921D01*
X430289028Y-142517306D01*
X430298268Y-142520612D01*
X430307140Y-142524808D01*
X430315557Y-142529853D01*
X430323439Y-142535699D01*
X430330711Y-142542289D01*
X430337301Y-142549561D01*
X430343147Y-142557443D01*
X430348192Y-142565860D01*
X430352388Y-142574732D01*
X430355694Y-142583972D01*
X430358079Y-142593491D01*
X430359518Y-142603198D01*
X430360000Y-142613000D01*
X430360000Y-143988000D01*
X430359518Y-143997802D01*
X430358079Y-144007509D01*
X430355694Y-144017028D01*
X430352388Y-144026268D01*
X430348192Y-144035140D01*
X430343147Y-144043557D01*
X430337301Y-144051439D01*
X430330711Y-144058711D01*
X430323439Y-144065301D01*
X430315557Y-144071147D01*
X430307140Y-144076192D01*
X430298268Y-144080388D01*
X430289028Y-144083694D01*
X430279509Y-144086079D01*
X430269802Y-144087518D01*
X430260000Y-144088000D01*
X430060000Y-144088000D01*
X430050198Y-144087518D01*
X430040491Y-144086079D01*
X430030972Y-144083694D01*
X430021732Y-144080388D01*
X430012860Y-144076192D01*
X430004443Y-144071147D01*
X429996561Y-144065301D01*
X429989289Y-144058711D01*
X429982699Y-144051439D01*
X429976853Y-144043557D01*
X429971808Y-144035140D01*
X429967612Y-144026268D01*
X429964306Y-144017028D01*
X429961921Y-144007509D01*
X429960482Y-143997802D01*
X429960000Y-143988000D01*
X429960000Y-142613000D01*
X429960482Y-142603198D01*
X429961921Y-142593491D01*
X429964306Y-142583972D01*
X429967612Y-142574732D01*
X429971808Y-142565860D01*
X429976853Y-142557443D01*
X429982699Y-142549561D01*
X429989289Y-142542289D01*
X429996561Y-142535699D01*
X430004443Y-142529853D01*
X430012860Y-142524808D01*
X430021732Y-142520612D01*
X430030972Y-142517306D01*
X430040491Y-142514921D01*
X430050198Y-142513482D01*
X430060000Y-142513000D01*
X430260000Y-142513000D01*
X430269802Y-142513482D01*
G37*
G36*
X429769802Y-142513482D02*
G01*
X429779509Y-142514921D01*
X429789028Y-142517306D01*
X429798268Y-142520612D01*
X429807140Y-142524808D01*
X429815557Y-142529853D01*
X429823439Y-142535699D01*
X429830711Y-142542289D01*
X429837301Y-142549561D01*
X429843147Y-142557443D01*
X429848192Y-142565860D01*
X429852388Y-142574732D01*
X429855694Y-142583972D01*
X429858079Y-142593491D01*
X429859518Y-142603198D01*
X429860000Y-142613000D01*
X429860000Y-143988000D01*
X429859518Y-143997802D01*
X429858079Y-144007509D01*
X429855694Y-144017028D01*
X429852388Y-144026268D01*
X429848192Y-144035140D01*
X429843147Y-144043557D01*
X429837301Y-144051439D01*
X429830711Y-144058711D01*
X429823439Y-144065301D01*
X429815557Y-144071147D01*
X429807140Y-144076192D01*
X429798268Y-144080388D01*
X429789028Y-144083694D01*
X429779509Y-144086079D01*
X429769802Y-144087518D01*
X429760000Y-144088000D01*
X429560000Y-144088000D01*
X429550198Y-144087518D01*
X429540491Y-144086079D01*
X429530972Y-144083694D01*
X429521732Y-144080388D01*
X429512860Y-144076192D01*
X429504443Y-144071147D01*
X429496561Y-144065301D01*
X429489289Y-144058711D01*
X429482699Y-144051439D01*
X429476853Y-144043557D01*
X429471808Y-144035140D01*
X429467612Y-144026268D01*
X429464306Y-144017028D01*
X429461921Y-144007509D01*
X429460482Y-143997802D01*
X429460000Y-143988000D01*
X429460000Y-142613000D01*
X429460482Y-142603198D01*
X429461921Y-142593491D01*
X429464306Y-142583972D01*
X429467612Y-142574732D01*
X429471808Y-142565860D01*
X429476853Y-142557443D01*
X429482699Y-142549561D01*
X429489289Y-142542289D01*
X429496561Y-142535699D01*
X429504443Y-142529853D01*
X429512860Y-142524808D01*
X429521732Y-142520612D01*
X429530972Y-142517306D01*
X429540491Y-142514921D01*
X429550198Y-142513482D01*
X429560000Y-142513000D01*
X429760000Y-142513000D01*
X429769802Y-142513482D01*
G37*
G36*
X428944802Y-141688482D02*
G01*
X428954509Y-141689921D01*
X428964028Y-141692306D01*
X428973268Y-141695612D01*
X428982140Y-141699808D01*
X428990557Y-141704853D01*
X428998439Y-141710699D01*
X429005711Y-141717289D01*
X429012301Y-141724561D01*
X429018147Y-141732443D01*
X429023192Y-141740860D01*
X429027388Y-141749732D01*
X429030694Y-141758972D01*
X429033079Y-141768491D01*
X429034518Y-141778198D01*
X429035000Y-141788000D01*
X429035000Y-141988000D01*
X429034518Y-141997802D01*
X429033079Y-142007509D01*
X429030694Y-142017028D01*
X429027388Y-142026268D01*
X429023192Y-142035140D01*
X429018147Y-142043557D01*
X429012301Y-142051439D01*
X429005711Y-142058711D01*
X428998439Y-142065301D01*
X428990557Y-142071147D01*
X428982140Y-142076192D01*
X428973268Y-142080388D01*
X428964028Y-142083694D01*
X428954509Y-142086079D01*
X428944802Y-142087518D01*
X428935000Y-142088000D01*
X427560000Y-142088000D01*
X427550198Y-142087518D01*
X427540491Y-142086079D01*
X427530972Y-142083694D01*
X427521732Y-142080388D01*
X427512860Y-142076192D01*
X427504443Y-142071147D01*
X427496561Y-142065301D01*
X427489289Y-142058711D01*
X427482699Y-142051439D01*
X427476853Y-142043557D01*
X427471808Y-142035140D01*
X427467612Y-142026268D01*
X427464306Y-142017028D01*
X427461921Y-142007509D01*
X427460482Y-141997802D01*
X427460000Y-141988000D01*
X427460000Y-141788000D01*
X427460482Y-141778198D01*
X427461921Y-141768491D01*
X427464306Y-141758972D01*
X427467612Y-141749732D01*
X427471808Y-141740860D01*
X427476853Y-141732443D01*
X427482699Y-141724561D01*
X427489289Y-141717289D01*
X427496561Y-141710699D01*
X427504443Y-141704853D01*
X427512860Y-141699808D01*
X427521732Y-141695612D01*
X427530972Y-141692306D01*
X427540491Y-141689921D01*
X427550198Y-141688482D01*
X427560000Y-141688000D01*
X428935000Y-141688000D01*
X428944802Y-141688482D01*
G37*
G36*
X428944802Y-141188482D02*
G01*
X428954509Y-141189921D01*
X428964028Y-141192306D01*
X428973268Y-141195612D01*
X428982140Y-141199808D01*
X428990557Y-141204853D01*
X428998439Y-141210699D01*
X429005711Y-141217289D01*
X429012301Y-141224561D01*
X429018147Y-141232443D01*
X429023192Y-141240860D01*
X429027388Y-141249732D01*
X429030694Y-141258972D01*
X429033079Y-141268491D01*
X429034518Y-141278198D01*
X429035000Y-141288000D01*
X429035000Y-141488000D01*
X429034518Y-141497802D01*
X429033079Y-141507509D01*
X429030694Y-141517028D01*
X429027388Y-141526268D01*
X429023192Y-141535140D01*
X429018147Y-141543557D01*
X429012301Y-141551439D01*
X429005711Y-141558711D01*
X428998439Y-141565301D01*
X428990557Y-141571147D01*
X428982140Y-141576192D01*
X428973268Y-141580388D01*
X428964028Y-141583694D01*
X428954509Y-141586079D01*
X428944802Y-141587518D01*
X428935000Y-141588000D01*
X427560000Y-141588000D01*
X427550198Y-141587518D01*
X427540491Y-141586079D01*
X427530972Y-141583694D01*
X427521732Y-141580388D01*
X427512860Y-141576192D01*
X427504443Y-141571147D01*
X427496561Y-141565301D01*
X427489289Y-141558711D01*
X427482699Y-141551439D01*
X427476853Y-141543557D01*
X427471808Y-141535140D01*
X427467612Y-141526268D01*
X427464306Y-141517028D01*
X427461921Y-141507509D01*
X427460482Y-141497802D01*
X427460000Y-141488000D01*
X427460000Y-141288000D01*
X427460482Y-141278198D01*
X427461921Y-141268491D01*
X427464306Y-141258972D01*
X427467612Y-141249732D01*
X427471808Y-141240860D01*
X427476853Y-141232443D01*
X427482699Y-141224561D01*
X427489289Y-141217289D01*
X427496561Y-141210699D01*
X427504443Y-141204853D01*
X427512860Y-141199808D01*
X427521732Y-141195612D01*
X427530972Y-141192306D01*
X427540491Y-141189921D01*
X427550198Y-141188482D01*
X427560000Y-141188000D01*
X428935000Y-141188000D01*
X428944802Y-141188482D01*
G37*
G36*
X428944802Y-140688482D02*
G01*
X428954509Y-140689921D01*
X428964028Y-140692306D01*
X428973268Y-140695612D01*
X428982140Y-140699808D01*
X428990557Y-140704853D01*
X428998439Y-140710699D01*
X429005711Y-140717289D01*
X429012301Y-140724561D01*
X429018147Y-140732443D01*
X429023192Y-140740860D01*
X429027388Y-140749732D01*
X429030694Y-140758972D01*
X429033079Y-140768491D01*
X429034518Y-140778198D01*
X429035000Y-140788000D01*
X429035000Y-140988000D01*
X429034518Y-140997802D01*
X429033079Y-141007509D01*
X429030694Y-141017028D01*
X429027388Y-141026268D01*
X429023192Y-141035140D01*
X429018147Y-141043557D01*
X429012301Y-141051439D01*
X429005711Y-141058711D01*
X428998439Y-141065301D01*
X428990557Y-141071147D01*
X428982140Y-141076192D01*
X428973268Y-141080388D01*
X428964028Y-141083694D01*
X428954509Y-141086079D01*
X428944802Y-141087518D01*
X428935000Y-141088000D01*
X427560000Y-141088000D01*
X427550198Y-141087518D01*
X427540491Y-141086079D01*
X427530972Y-141083694D01*
X427521732Y-141080388D01*
X427512860Y-141076192D01*
X427504443Y-141071147D01*
X427496561Y-141065301D01*
X427489289Y-141058711D01*
X427482699Y-141051439D01*
X427476853Y-141043557D01*
X427471808Y-141035140D01*
X427467612Y-141026268D01*
X427464306Y-141017028D01*
X427461921Y-141007509D01*
X427460482Y-140997802D01*
X427460000Y-140988000D01*
X427460000Y-140788000D01*
X427460482Y-140778198D01*
X427461921Y-140768491D01*
X427464306Y-140758972D01*
X427467612Y-140749732D01*
X427471808Y-140740860D01*
X427476853Y-140732443D01*
X427482699Y-140724561D01*
X427489289Y-140717289D01*
X427496561Y-140710699D01*
X427504443Y-140704853D01*
X427512860Y-140699808D01*
X427521732Y-140695612D01*
X427530972Y-140692306D01*
X427540491Y-140689921D01*
X427550198Y-140688482D01*
X427560000Y-140688000D01*
X428935000Y-140688000D01*
X428944802Y-140688482D01*
G37*
G36*
X428944802Y-140188482D02*
G01*
X428954509Y-140189921D01*
X428964028Y-140192306D01*
X428973268Y-140195612D01*
X428982140Y-140199808D01*
X428990557Y-140204853D01*
X428998439Y-140210699D01*
X429005711Y-140217289D01*
X429012301Y-140224561D01*
X429018147Y-140232443D01*
X429023192Y-140240860D01*
X429027388Y-140249732D01*
X429030694Y-140258972D01*
X429033079Y-140268491D01*
X429034518Y-140278198D01*
X429035000Y-140288000D01*
X429035000Y-140488000D01*
X429034518Y-140497802D01*
X429033079Y-140507509D01*
X429030694Y-140517028D01*
X429027388Y-140526268D01*
X429023192Y-140535140D01*
X429018147Y-140543557D01*
X429012301Y-140551439D01*
X429005711Y-140558711D01*
X428998439Y-140565301D01*
X428990557Y-140571147D01*
X428982140Y-140576192D01*
X428973268Y-140580388D01*
X428964028Y-140583694D01*
X428954509Y-140586079D01*
X428944802Y-140587518D01*
X428935000Y-140588000D01*
X427560000Y-140588000D01*
X427550198Y-140587518D01*
X427540491Y-140586079D01*
X427530972Y-140583694D01*
X427521732Y-140580388D01*
X427512860Y-140576192D01*
X427504443Y-140571147D01*
X427496561Y-140565301D01*
X427489289Y-140558711D01*
X427482699Y-140551439D01*
X427476853Y-140543557D01*
X427471808Y-140535140D01*
X427467612Y-140526268D01*
X427464306Y-140517028D01*
X427461921Y-140507509D01*
X427460482Y-140497802D01*
X427460000Y-140488000D01*
X427460000Y-140288000D01*
X427460482Y-140278198D01*
X427461921Y-140268491D01*
X427464306Y-140258972D01*
X427467612Y-140249732D01*
X427471808Y-140240860D01*
X427476853Y-140232443D01*
X427482699Y-140224561D01*
X427489289Y-140217289D01*
X427496561Y-140210699D01*
X427504443Y-140204853D01*
X427512860Y-140199808D01*
X427521732Y-140195612D01*
X427530972Y-140192306D01*
X427540491Y-140189921D01*
X427550198Y-140188482D01*
X427560000Y-140188000D01*
X428935000Y-140188000D01*
X428944802Y-140188482D01*
G37*
G36*
X428944802Y-139688482D02*
G01*
X428954509Y-139689921D01*
X428964028Y-139692306D01*
X428973268Y-139695612D01*
X428982140Y-139699808D01*
X428990557Y-139704853D01*
X428998439Y-139710699D01*
X429005711Y-139717289D01*
X429012301Y-139724561D01*
X429018147Y-139732443D01*
X429023192Y-139740860D01*
X429027388Y-139749732D01*
X429030694Y-139758972D01*
X429033079Y-139768491D01*
X429034518Y-139778198D01*
X429035000Y-139788000D01*
X429035000Y-139988000D01*
X429034518Y-139997802D01*
X429033079Y-140007509D01*
X429030694Y-140017028D01*
X429027388Y-140026268D01*
X429023192Y-140035140D01*
X429018147Y-140043557D01*
X429012301Y-140051439D01*
X429005711Y-140058711D01*
X428998439Y-140065301D01*
X428990557Y-140071147D01*
X428982140Y-140076192D01*
X428973268Y-140080388D01*
X428964028Y-140083694D01*
X428954509Y-140086079D01*
X428944802Y-140087518D01*
X428935000Y-140088000D01*
X427560000Y-140088000D01*
X427550198Y-140087518D01*
X427540491Y-140086079D01*
X427530972Y-140083694D01*
X427521732Y-140080388D01*
X427512860Y-140076192D01*
X427504443Y-140071147D01*
X427496561Y-140065301D01*
X427489289Y-140058711D01*
X427482699Y-140051439D01*
X427476853Y-140043557D01*
X427471808Y-140035140D01*
X427467612Y-140026268D01*
X427464306Y-140017028D01*
X427461921Y-140007509D01*
X427460482Y-139997802D01*
X427460000Y-139988000D01*
X427460000Y-139788000D01*
X427460482Y-139778198D01*
X427461921Y-139768491D01*
X427464306Y-139758972D01*
X427467612Y-139749732D01*
X427471808Y-139740860D01*
X427476853Y-139732443D01*
X427482699Y-139724561D01*
X427489289Y-139717289D01*
X427496561Y-139710699D01*
X427504443Y-139704853D01*
X427512860Y-139699808D01*
X427521732Y-139695612D01*
X427530972Y-139692306D01*
X427540491Y-139689921D01*
X427550198Y-139688482D01*
X427560000Y-139688000D01*
X428935000Y-139688000D01*
X428944802Y-139688482D01*
G37*
G36*
X428944802Y-139188482D02*
G01*
X428954509Y-139189921D01*
X428964028Y-139192306D01*
X428973268Y-139195612D01*
X428982140Y-139199808D01*
X428990557Y-139204853D01*
X428998439Y-139210699D01*
X429005711Y-139217289D01*
X429012301Y-139224561D01*
X429018147Y-139232443D01*
X429023192Y-139240860D01*
X429027388Y-139249732D01*
X429030694Y-139258972D01*
X429033079Y-139268491D01*
X429034518Y-139278198D01*
X429035000Y-139288000D01*
X429035000Y-139488000D01*
X429034518Y-139497802D01*
X429033079Y-139507509D01*
X429030694Y-139517028D01*
X429027388Y-139526268D01*
X429023192Y-139535140D01*
X429018147Y-139543557D01*
X429012301Y-139551439D01*
X429005711Y-139558711D01*
X428998439Y-139565301D01*
X428990557Y-139571147D01*
X428982140Y-139576192D01*
X428973268Y-139580388D01*
X428964028Y-139583694D01*
X428954509Y-139586079D01*
X428944802Y-139587518D01*
X428935000Y-139588000D01*
X427560000Y-139588000D01*
X427550198Y-139587518D01*
X427540491Y-139586079D01*
X427530972Y-139583694D01*
X427521732Y-139580388D01*
X427512860Y-139576192D01*
X427504443Y-139571147D01*
X427496561Y-139565301D01*
X427489289Y-139558711D01*
X427482699Y-139551439D01*
X427476853Y-139543557D01*
X427471808Y-139535140D01*
X427467612Y-139526268D01*
X427464306Y-139517028D01*
X427461921Y-139507509D01*
X427460482Y-139497802D01*
X427460000Y-139488000D01*
X427460000Y-139288000D01*
X427460482Y-139278198D01*
X427461921Y-139268491D01*
X427464306Y-139258972D01*
X427467612Y-139249732D01*
X427471808Y-139240860D01*
X427476853Y-139232443D01*
X427482699Y-139224561D01*
X427489289Y-139217289D01*
X427496561Y-139210699D01*
X427504443Y-139204853D01*
X427512860Y-139199808D01*
X427521732Y-139195612D01*
X427530972Y-139192306D01*
X427540491Y-139189921D01*
X427550198Y-139188482D01*
X427560000Y-139188000D01*
X428935000Y-139188000D01*
X428944802Y-139188482D01*
G37*
G36*
X428944802Y-138688482D02*
G01*
X428954509Y-138689921D01*
X428964028Y-138692306D01*
X428973268Y-138695612D01*
X428982140Y-138699808D01*
X428990557Y-138704853D01*
X428998439Y-138710699D01*
X429005711Y-138717289D01*
X429012301Y-138724561D01*
X429018147Y-138732443D01*
X429023192Y-138740860D01*
X429027388Y-138749732D01*
X429030694Y-138758972D01*
X429033079Y-138768491D01*
X429034518Y-138778198D01*
X429035000Y-138788000D01*
X429035000Y-138988000D01*
X429034518Y-138997802D01*
X429033079Y-139007509D01*
X429030694Y-139017028D01*
X429027388Y-139026268D01*
X429023192Y-139035140D01*
X429018147Y-139043557D01*
X429012301Y-139051439D01*
X429005711Y-139058711D01*
X428998439Y-139065301D01*
X428990557Y-139071147D01*
X428982140Y-139076192D01*
X428973268Y-139080388D01*
X428964028Y-139083694D01*
X428954509Y-139086079D01*
X428944802Y-139087518D01*
X428935000Y-139088000D01*
X427560000Y-139088000D01*
X427550198Y-139087518D01*
X427540491Y-139086079D01*
X427530972Y-139083694D01*
X427521732Y-139080388D01*
X427512860Y-139076192D01*
X427504443Y-139071147D01*
X427496561Y-139065301D01*
X427489289Y-139058711D01*
X427482699Y-139051439D01*
X427476853Y-139043557D01*
X427471808Y-139035140D01*
X427467612Y-139026268D01*
X427464306Y-139017028D01*
X427461921Y-139007509D01*
X427460482Y-138997802D01*
X427460000Y-138988000D01*
X427460000Y-138788000D01*
X427460482Y-138778198D01*
X427461921Y-138768491D01*
X427464306Y-138758972D01*
X427467612Y-138749732D01*
X427471808Y-138740860D01*
X427476853Y-138732443D01*
X427482699Y-138724561D01*
X427489289Y-138717289D01*
X427496561Y-138710699D01*
X427504443Y-138704853D01*
X427512860Y-138699808D01*
X427521732Y-138695612D01*
X427530972Y-138692306D01*
X427540491Y-138689921D01*
X427550198Y-138688482D01*
X427560000Y-138688000D01*
X428935000Y-138688000D01*
X428944802Y-138688482D01*
G37*
G36*
X428944802Y-138188482D02*
G01*
X428954509Y-138189921D01*
X428964028Y-138192306D01*
X428973268Y-138195612D01*
X428982140Y-138199808D01*
X428990557Y-138204853D01*
X428998439Y-138210699D01*
X429005711Y-138217289D01*
X429012301Y-138224561D01*
X429018147Y-138232443D01*
X429023192Y-138240860D01*
X429027388Y-138249732D01*
X429030694Y-138258972D01*
X429033079Y-138268491D01*
X429034518Y-138278198D01*
X429035000Y-138288000D01*
X429035000Y-138488000D01*
X429034518Y-138497802D01*
X429033079Y-138507509D01*
X429030694Y-138517028D01*
X429027388Y-138526268D01*
X429023192Y-138535140D01*
X429018147Y-138543557D01*
X429012301Y-138551439D01*
X429005711Y-138558711D01*
X428998439Y-138565301D01*
X428990557Y-138571147D01*
X428982140Y-138576192D01*
X428973268Y-138580388D01*
X428964028Y-138583694D01*
X428954509Y-138586079D01*
X428944802Y-138587518D01*
X428935000Y-138588000D01*
X427560000Y-138588000D01*
X427550198Y-138587518D01*
X427540491Y-138586079D01*
X427530972Y-138583694D01*
X427521732Y-138580388D01*
X427512860Y-138576192D01*
X427504443Y-138571147D01*
X427496561Y-138565301D01*
X427489289Y-138558711D01*
X427482699Y-138551439D01*
X427476853Y-138543557D01*
X427471808Y-138535140D01*
X427467612Y-138526268D01*
X427464306Y-138517028D01*
X427461921Y-138507509D01*
X427460482Y-138497802D01*
X427460000Y-138488000D01*
X427460000Y-138288000D01*
X427460482Y-138278198D01*
X427461921Y-138268491D01*
X427464306Y-138258972D01*
X427467612Y-138249732D01*
X427471808Y-138240860D01*
X427476853Y-138232443D01*
X427482699Y-138224561D01*
X427489289Y-138217289D01*
X427496561Y-138210699D01*
X427504443Y-138204853D01*
X427512860Y-138199808D01*
X427521732Y-138195612D01*
X427530972Y-138192306D01*
X427540491Y-138189921D01*
X427550198Y-138188482D01*
X427560000Y-138188000D01*
X428935000Y-138188000D01*
X428944802Y-138188482D01*
G37*
G36*
X428944802Y-137688482D02*
G01*
X428954509Y-137689921D01*
X428964028Y-137692306D01*
X428973268Y-137695612D01*
X428982140Y-137699808D01*
X428990557Y-137704853D01*
X428998439Y-137710699D01*
X429005711Y-137717289D01*
X429012301Y-137724561D01*
X429018147Y-137732443D01*
X429023192Y-137740860D01*
X429027388Y-137749732D01*
X429030694Y-137758972D01*
X429033079Y-137768491D01*
X429034518Y-137778198D01*
X429035000Y-137788000D01*
X429035000Y-137988000D01*
X429034518Y-137997802D01*
X429033079Y-138007509D01*
X429030694Y-138017028D01*
X429027388Y-138026268D01*
X429023192Y-138035140D01*
X429018147Y-138043557D01*
X429012301Y-138051439D01*
X429005711Y-138058711D01*
X428998439Y-138065301D01*
X428990557Y-138071147D01*
X428982140Y-138076192D01*
X428973268Y-138080388D01*
X428964028Y-138083694D01*
X428954509Y-138086079D01*
X428944802Y-138087518D01*
X428935000Y-138088000D01*
X427560000Y-138088000D01*
X427550198Y-138087518D01*
X427540491Y-138086079D01*
X427530972Y-138083694D01*
X427521732Y-138080388D01*
X427512860Y-138076192D01*
X427504443Y-138071147D01*
X427496561Y-138065301D01*
X427489289Y-138058711D01*
X427482699Y-138051439D01*
X427476853Y-138043557D01*
X427471808Y-138035140D01*
X427467612Y-138026268D01*
X427464306Y-138017028D01*
X427461921Y-138007509D01*
X427460482Y-137997802D01*
X427460000Y-137988000D01*
X427460000Y-137788000D01*
X427460482Y-137778198D01*
X427461921Y-137768491D01*
X427464306Y-137758972D01*
X427467612Y-137749732D01*
X427471808Y-137740860D01*
X427476853Y-137732443D01*
X427482699Y-137724561D01*
X427489289Y-137717289D01*
X427496561Y-137710699D01*
X427504443Y-137704853D01*
X427512860Y-137699808D01*
X427521732Y-137695612D01*
X427530972Y-137692306D01*
X427540491Y-137689921D01*
X427550198Y-137688482D01*
X427560000Y-137688000D01*
X428935000Y-137688000D01*
X428944802Y-137688482D01*
G37*
G36*
X428944802Y-137188482D02*
G01*
X428954509Y-137189921D01*
X428964028Y-137192306D01*
X428973268Y-137195612D01*
X428982140Y-137199808D01*
X428990557Y-137204853D01*
X428998439Y-137210699D01*
X429005711Y-137217289D01*
X429012301Y-137224561D01*
X429018147Y-137232443D01*
X429023192Y-137240860D01*
X429027388Y-137249732D01*
X429030694Y-137258972D01*
X429033079Y-137268491D01*
X429034518Y-137278198D01*
X429035000Y-137288000D01*
X429035000Y-137488000D01*
X429034518Y-137497802D01*
X429033079Y-137507509D01*
X429030694Y-137517028D01*
X429027388Y-137526268D01*
X429023192Y-137535140D01*
X429018147Y-137543557D01*
X429012301Y-137551439D01*
X429005711Y-137558711D01*
X428998439Y-137565301D01*
X428990557Y-137571147D01*
X428982140Y-137576192D01*
X428973268Y-137580388D01*
X428964028Y-137583694D01*
X428954509Y-137586079D01*
X428944802Y-137587518D01*
X428935000Y-137588000D01*
X427560000Y-137588000D01*
X427550198Y-137587518D01*
X427540491Y-137586079D01*
X427530972Y-137583694D01*
X427521732Y-137580388D01*
X427512860Y-137576192D01*
X427504443Y-137571147D01*
X427496561Y-137565301D01*
X427489289Y-137558711D01*
X427482699Y-137551439D01*
X427476853Y-137543557D01*
X427471808Y-137535140D01*
X427467612Y-137526268D01*
X427464306Y-137517028D01*
X427461921Y-137507509D01*
X427460482Y-137497802D01*
X427460000Y-137488000D01*
X427460000Y-137288000D01*
X427460482Y-137278198D01*
X427461921Y-137268491D01*
X427464306Y-137258972D01*
X427467612Y-137249732D01*
X427471808Y-137240860D01*
X427476853Y-137232443D01*
X427482699Y-137224561D01*
X427489289Y-137217289D01*
X427496561Y-137210699D01*
X427504443Y-137204853D01*
X427512860Y-137199808D01*
X427521732Y-137195612D01*
X427530972Y-137192306D01*
X427540491Y-137189921D01*
X427550198Y-137188482D01*
X427560000Y-137188000D01*
X428935000Y-137188000D01*
X428944802Y-137188482D01*
G37*
G36*
X428944802Y-136688482D02*
G01*
X428954509Y-136689921D01*
X428964028Y-136692306D01*
X428973268Y-136695612D01*
X428982140Y-136699808D01*
X428990557Y-136704853D01*
X428998439Y-136710699D01*
X429005711Y-136717289D01*
X429012301Y-136724561D01*
X429018147Y-136732443D01*
X429023192Y-136740860D01*
X429027388Y-136749732D01*
X429030694Y-136758972D01*
X429033079Y-136768491D01*
X429034518Y-136778198D01*
X429035000Y-136788000D01*
X429035000Y-136988000D01*
X429034518Y-136997802D01*
X429033079Y-137007509D01*
X429030694Y-137017028D01*
X429027388Y-137026268D01*
X429023192Y-137035140D01*
X429018147Y-137043557D01*
X429012301Y-137051439D01*
X429005711Y-137058711D01*
X428998439Y-137065301D01*
X428990557Y-137071147D01*
X428982140Y-137076192D01*
X428973268Y-137080388D01*
X428964028Y-137083694D01*
X428954509Y-137086079D01*
X428944802Y-137087518D01*
X428935000Y-137088000D01*
X427560000Y-137088000D01*
X427550198Y-137087518D01*
X427540491Y-137086079D01*
X427530972Y-137083694D01*
X427521732Y-137080388D01*
X427512860Y-137076192D01*
X427504443Y-137071147D01*
X427496561Y-137065301D01*
X427489289Y-137058711D01*
X427482699Y-137051439D01*
X427476853Y-137043557D01*
X427471808Y-137035140D01*
X427467612Y-137026268D01*
X427464306Y-137017028D01*
X427461921Y-137007509D01*
X427460482Y-136997802D01*
X427460000Y-136988000D01*
X427460000Y-136788000D01*
X427460482Y-136778198D01*
X427461921Y-136768491D01*
X427464306Y-136758972D01*
X427467612Y-136749732D01*
X427471808Y-136740860D01*
X427476853Y-136732443D01*
X427482699Y-136724561D01*
X427489289Y-136717289D01*
X427496561Y-136710699D01*
X427504443Y-136704853D01*
X427512860Y-136699808D01*
X427521732Y-136695612D01*
X427530972Y-136692306D01*
X427540491Y-136689921D01*
X427550198Y-136688482D01*
X427560000Y-136688000D01*
X428935000Y-136688000D01*
X428944802Y-136688482D01*
G37*
G36*
X428944802Y-136188482D02*
G01*
X428954509Y-136189921D01*
X428964028Y-136192306D01*
X428973268Y-136195612D01*
X428982140Y-136199808D01*
X428990557Y-136204853D01*
X428998439Y-136210699D01*
X429005711Y-136217289D01*
X429012301Y-136224561D01*
X429018147Y-136232443D01*
X429023192Y-136240860D01*
X429027388Y-136249732D01*
X429030694Y-136258972D01*
X429033079Y-136268491D01*
X429034518Y-136278198D01*
X429035000Y-136288000D01*
X429035000Y-136488000D01*
X429034518Y-136497802D01*
X429033079Y-136507509D01*
X429030694Y-136517028D01*
X429027388Y-136526268D01*
X429023192Y-136535140D01*
X429018147Y-136543557D01*
X429012301Y-136551439D01*
X429005711Y-136558711D01*
X428998439Y-136565301D01*
X428990557Y-136571147D01*
X428982140Y-136576192D01*
X428973268Y-136580388D01*
X428964028Y-136583694D01*
X428954509Y-136586079D01*
X428944802Y-136587518D01*
X428935000Y-136588000D01*
X427560000Y-136588000D01*
X427550198Y-136587518D01*
X427540491Y-136586079D01*
X427530972Y-136583694D01*
X427521732Y-136580388D01*
X427512860Y-136576192D01*
X427504443Y-136571147D01*
X427496561Y-136565301D01*
X427489289Y-136558711D01*
X427482699Y-136551439D01*
X427476853Y-136543557D01*
X427471808Y-136535140D01*
X427467612Y-136526268D01*
X427464306Y-136517028D01*
X427461921Y-136507509D01*
X427460482Y-136497802D01*
X427460000Y-136488000D01*
X427460000Y-136288000D01*
X427460482Y-136278198D01*
X427461921Y-136268491D01*
X427464306Y-136258972D01*
X427467612Y-136249732D01*
X427471808Y-136240860D01*
X427476853Y-136232443D01*
X427482699Y-136224561D01*
X427489289Y-136217289D01*
X427496561Y-136210699D01*
X427504443Y-136204853D01*
X427512860Y-136199808D01*
X427521732Y-136195612D01*
X427530972Y-136192306D01*
X427540491Y-136189921D01*
X427550198Y-136188482D01*
X427560000Y-136188000D01*
X428935000Y-136188000D01*
X428944802Y-136188482D01*
G37*
D26*
X106500000Y-160740000D03*
D27*
X106500000Y-163240000D03*
X106500000Y-165740000D03*
D28*
X114000000Y-157640000D03*
X114000000Y-168840000D03*
D27*
X121000000Y-160740000D03*
X121000000Y-165740000D03*
X408404600Y-132483200D03*
X408404600Y-136983200D03*
X401904600Y-132483200D03*
X401904600Y-136983200D03*
D21*
G36*
X125770592Y-147667294D02*
G01*
X125796681Y-147671164D01*
X125822264Y-147677572D01*
X125847096Y-147686457D01*
X125870938Y-147697734D01*
X125893560Y-147711293D01*
X125914743Y-147727003D01*
X125934285Y-147744715D01*
X125951997Y-147764257D01*
X125967707Y-147785440D01*
X125981266Y-147808062D01*
X125992543Y-147831904D01*
X126001428Y-147856736D01*
X126007836Y-147882319D01*
X126011706Y-147908408D01*
X126013000Y-147934750D01*
X126013000Y-148472250D01*
X126011706Y-148498592D01*
X126007836Y-148524681D01*
X126001428Y-148550264D01*
X125992543Y-148575096D01*
X125981266Y-148598938D01*
X125967707Y-148621560D01*
X125951997Y-148642743D01*
X125934285Y-148662285D01*
X125914743Y-148679997D01*
X125893560Y-148695707D01*
X125870938Y-148709266D01*
X125847096Y-148720543D01*
X125822264Y-148729428D01*
X125796681Y-148735836D01*
X125770592Y-148739706D01*
X125744250Y-148741000D01*
X124781750Y-148741000D01*
X124755408Y-148739706D01*
X124729319Y-148735836D01*
X124703736Y-148729428D01*
X124678904Y-148720543D01*
X124655062Y-148709266D01*
X124632440Y-148695707D01*
X124611257Y-148679997D01*
X124591715Y-148662285D01*
X124574003Y-148642743D01*
X124558293Y-148621560D01*
X124544734Y-148598938D01*
X124533457Y-148575096D01*
X124524572Y-148550264D01*
X124518164Y-148524681D01*
X124514294Y-148498592D01*
X124513000Y-148472250D01*
X124513000Y-147934750D01*
X124514294Y-147908408D01*
X124518164Y-147882319D01*
X124524572Y-147856736D01*
X124533457Y-147831904D01*
X124544734Y-147808062D01*
X124558293Y-147785440D01*
X124574003Y-147764257D01*
X124591715Y-147744715D01*
X124611257Y-147727003D01*
X124632440Y-147711293D01*
X124655062Y-147697734D01*
X124678904Y-147686457D01*
X124703736Y-147677572D01*
X124729319Y-147671164D01*
X124755408Y-147667294D01*
X124781750Y-147666000D01*
X125744250Y-147666000D01*
X125770592Y-147667294D01*
G37*
G36*
X125770592Y-145792294D02*
G01*
X125796681Y-145796164D01*
X125822264Y-145802572D01*
X125847096Y-145811457D01*
X125870938Y-145822734D01*
X125893560Y-145836293D01*
X125914743Y-145852003D01*
X125934285Y-145869715D01*
X125951997Y-145889257D01*
X125967707Y-145910440D01*
X125981266Y-145933062D01*
X125992543Y-145956904D01*
X126001428Y-145981736D01*
X126007836Y-146007319D01*
X126011706Y-146033408D01*
X126013000Y-146059750D01*
X126013000Y-146597250D01*
X126011706Y-146623592D01*
X126007836Y-146649681D01*
X126001428Y-146675264D01*
X125992543Y-146700096D01*
X125981266Y-146723938D01*
X125967707Y-146746560D01*
X125951997Y-146767743D01*
X125934285Y-146787285D01*
X125914743Y-146804997D01*
X125893560Y-146820707D01*
X125870938Y-146834266D01*
X125847096Y-146845543D01*
X125822264Y-146854428D01*
X125796681Y-146860836D01*
X125770592Y-146864706D01*
X125744250Y-146866000D01*
X124781750Y-146866000D01*
X124755408Y-146864706D01*
X124729319Y-146860836D01*
X124703736Y-146854428D01*
X124678904Y-146845543D01*
X124655062Y-146834266D01*
X124632440Y-146820707D01*
X124611257Y-146804997D01*
X124591715Y-146787285D01*
X124574003Y-146767743D01*
X124558293Y-146746560D01*
X124544734Y-146723938D01*
X124533457Y-146700096D01*
X124524572Y-146675264D01*
X124518164Y-146649681D01*
X124514294Y-146623592D01*
X124513000Y-146597250D01*
X124513000Y-146059750D01*
X124514294Y-146033408D01*
X124518164Y-146007319D01*
X124524572Y-145981736D01*
X124533457Y-145956904D01*
X124544734Y-145933062D01*
X124558293Y-145910440D01*
X124574003Y-145889257D01*
X124591715Y-145869715D01*
X124611257Y-145852003D01*
X124632440Y-145836293D01*
X124655062Y-145822734D01*
X124678904Y-145811457D01*
X124703736Y-145802572D01*
X124729319Y-145796164D01*
X124755408Y-145792294D01*
X124781750Y-145791000D01*
X125744250Y-145791000D01*
X125770592Y-145792294D01*
G37*
G36*
X413159792Y-146342694D02*
G01*
X413185881Y-146346564D01*
X413211464Y-146352972D01*
X413236296Y-146361857D01*
X413260138Y-146373134D01*
X413282760Y-146386693D01*
X413303943Y-146402403D01*
X413323485Y-146420115D01*
X413341197Y-146439657D01*
X413356907Y-146460840D01*
X413370466Y-146483462D01*
X413381743Y-146507304D01*
X413390628Y-146532136D01*
X413397036Y-146557719D01*
X413400906Y-146583808D01*
X413402200Y-146610150D01*
X413402200Y-147147650D01*
X413400906Y-147173992D01*
X413397036Y-147200081D01*
X413390628Y-147225664D01*
X413381743Y-147250496D01*
X413370466Y-147274338D01*
X413356907Y-147296960D01*
X413341197Y-147318143D01*
X413323485Y-147337685D01*
X413303943Y-147355397D01*
X413282760Y-147371107D01*
X413260138Y-147384666D01*
X413236296Y-147395943D01*
X413211464Y-147404828D01*
X413185881Y-147411236D01*
X413159792Y-147415106D01*
X413133450Y-147416400D01*
X412170950Y-147416400D01*
X412144608Y-147415106D01*
X412118519Y-147411236D01*
X412092936Y-147404828D01*
X412068104Y-147395943D01*
X412044262Y-147384666D01*
X412021640Y-147371107D01*
X412000457Y-147355397D01*
X411980915Y-147337685D01*
X411963203Y-147318143D01*
X411947493Y-147296960D01*
X411933934Y-147274338D01*
X411922657Y-147250496D01*
X411913772Y-147225664D01*
X411907364Y-147200081D01*
X411903494Y-147173992D01*
X411902200Y-147147650D01*
X411902200Y-146610150D01*
X411903494Y-146583808D01*
X411907364Y-146557719D01*
X411913772Y-146532136D01*
X411922657Y-146507304D01*
X411933934Y-146483462D01*
X411947493Y-146460840D01*
X411963203Y-146439657D01*
X411980915Y-146420115D01*
X412000457Y-146402403D01*
X412021640Y-146386693D01*
X412044262Y-146373134D01*
X412068104Y-146361857D01*
X412092936Y-146352972D01*
X412118519Y-146346564D01*
X412144608Y-146342694D01*
X412170950Y-146341400D01*
X413133450Y-146341400D01*
X413159792Y-146342694D01*
G37*
G36*
X413159792Y-144467694D02*
G01*
X413185881Y-144471564D01*
X413211464Y-144477972D01*
X413236296Y-144486857D01*
X413260138Y-144498134D01*
X413282760Y-144511693D01*
X413303943Y-144527403D01*
X413323485Y-144545115D01*
X413341197Y-144564657D01*
X413356907Y-144585840D01*
X413370466Y-144608462D01*
X413381743Y-144632304D01*
X413390628Y-144657136D01*
X413397036Y-144682719D01*
X413400906Y-144708808D01*
X413402200Y-144735150D01*
X413402200Y-145272650D01*
X413400906Y-145298992D01*
X413397036Y-145325081D01*
X413390628Y-145350664D01*
X413381743Y-145375496D01*
X413370466Y-145399338D01*
X413356907Y-145421960D01*
X413341197Y-145443143D01*
X413323485Y-145462685D01*
X413303943Y-145480397D01*
X413282760Y-145496107D01*
X413260138Y-145509666D01*
X413236296Y-145520943D01*
X413211464Y-145529828D01*
X413185881Y-145536236D01*
X413159792Y-145540106D01*
X413133450Y-145541400D01*
X412170950Y-145541400D01*
X412144608Y-145540106D01*
X412118519Y-145536236D01*
X412092936Y-145529828D01*
X412068104Y-145520943D01*
X412044262Y-145509666D01*
X412021640Y-145496107D01*
X412000457Y-145480397D01*
X411980915Y-145462685D01*
X411963203Y-145443143D01*
X411947493Y-145421960D01*
X411933934Y-145399338D01*
X411922657Y-145375496D01*
X411913772Y-145350664D01*
X411907364Y-145325081D01*
X411903494Y-145298992D01*
X411902200Y-145272650D01*
X411902200Y-144735150D01*
X411903494Y-144708808D01*
X411907364Y-144682719D01*
X411913772Y-144657136D01*
X411922657Y-144632304D01*
X411933934Y-144608462D01*
X411947493Y-144585840D01*
X411963203Y-144564657D01*
X411980915Y-144545115D01*
X412000457Y-144527403D01*
X412021640Y-144511693D01*
X412044262Y-144498134D01*
X412068104Y-144486857D01*
X412092936Y-144477972D01*
X412118519Y-144471564D01*
X412144608Y-144467694D01*
X412170950Y-144466400D01*
X413133450Y-144466400D01*
X413159792Y-144467694D01*
G37*
G36*
X112562592Y-146808294D02*
G01*
X112588681Y-146812164D01*
X112614264Y-146818572D01*
X112639096Y-146827457D01*
X112662938Y-146838734D01*
X112685560Y-146852293D01*
X112706743Y-146868003D01*
X112726285Y-146885715D01*
X112743997Y-146905257D01*
X112759707Y-146926440D01*
X112773266Y-146949062D01*
X112784543Y-146972904D01*
X112793428Y-146997736D01*
X112799836Y-147023319D01*
X112803706Y-147049408D01*
X112805000Y-147075750D01*
X112805000Y-147613250D01*
X112803706Y-147639592D01*
X112799836Y-147665681D01*
X112793428Y-147691264D01*
X112784543Y-147716096D01*
X112773266Y-147739938D01*
X112759707Y-147762560D01*
X112743997Y-147783743D01*
X112726285Y-147803285D01*
X112706743Y-147820997D01*
X112685560Y-147836707D01*
X112662938Y-147850266D01*
X112639096Y-147861543D01*
X112614264Y-147870428D01*
X112588681Y-147876836D01*
X112562592Y-147880706D01*
X112536250Y-147882000D01*
X111573750Y-147882000D01*
X111547408Y-147880706D01*
X111521319Y-147876836D01*
X111495736Y-147870428D01*
X111470904Y-147861543D01*
X111447062Y-147850266D01*
X111424440Y-147836707D01*
X111403257Y-147820997D01*
X111383715Y-147803285D01*
X111366003Y-147783743D01*
X111350293Y-147762560D01*
X111336734Y-147739938D01*
X111325457Y-147716096D01*
X111316572Y-147691264D01*
X111310164Y-147665681D01*
X111306294Y-147639592D01*
X111305000Y-147613250D01*
X111305000Y-147075750D01*
X111306294Y-147049408D01*
X111310164Y-147023319D01*
X111316572Y-146997736D01*
X111325457Y-146972904D01*
X111336734Y-146949062D01*
X111350293Y-146926440D01*
X111366003Y-146905257D01*
X111383715Y-146885715D01*
X111403257Y-146868003D01*
X111424440Y-146852293D01*
X111447062Y-146838734D01*
X111470904Y-146827457D01*
X111495736Y-146818572D01*
X111521319Y-146812164D01*
X111547408Y-146808294D01*
X111573750Y-146807000D01*
X112536250Y-146807000D01*
X112562592Y-146808294D01*
G37*
G36*
X112562592Y-148683294D02*
G01*
X112588681Y-148687164D01*
X112614264Y-148693572D01*
X112639096Y-148702457D01*
X112662938Y-148713734D01*
X112685560Y-148727293D01*
X112706743Y-148743003D01*
X112726285Y-148760715D01*
X112743997Y-148780257D01*
X112759707Y-148801440D01*
X112773266Y-148824062D01*
X112784543Y-148847904D01*
X112793428Y-148872736D01*
X112799836Y-148898319D01*
X112803706Y-148924408D01*
X112805000Y-148950750D01*
X112805000Y-149488250D01*
X112803706Y-149514592D01*
X112799836Y-149540681D01*
X112793428Y-149566264D01*
X112784543Y-149591096D01*
X112773266Y-149614938D01*
X112759707Y-149637560D01*
X112743997Y-149658743D01*
X112726285Y-149678285D01*
X112706743Y-149695997D01*
X112685560Y-149711707D01*
X112662938Y-149725266D01*
X112639096Y-149736543D01*
X112614264Y-149745428D01*
X112588681Y-149751836D01*
X112562592Y-149755706D01*
X112536250Y-149757000D01*
X111573750Y-149757000D01*
X111547408Y-149755706D01*
X111521319Y-149751836D01*
X111495736Y-149745428D01*
X111470904Y-149736543D01*
X111447062Y-149725266D01*
X111424440Y-149711707D01*
X111403257Y-149695997D01*
X111383715Y-149678285D01*
X111366003Y-149658743D01*
X111350293Y-149637560D01*
X111336734Y-149614938D01*
X111325457Y-149591096D01*
X111316572Y-149566264D01*
X111310164Y-149540681D01*
X111306294Y-149514592D01*
X111305000Y-149488250D01*
X111305000Y-148950750D01*
X111306294Y-148924408D01*
X111310164Y-148898319D01*
X111316572Y-148872736D01*
X111325457Y-148847904D01*
X111336734Y-148824062D01*
X111350293Y-148801440D01*
X111366003Y-148780257D01*
X111383715Y-148760715D01*
X111403257Y-148743003D01*
X111424440Y-148727293D01*
X111447062Y-148713734D01*
X111470904Y-148702457D01*
X111495736Y-148693572D01*
X111521319Y-148687164D01*
X111547408Y-148683294D01*
X111573750Y-148682000D01*
X112536250Y-148682000D01*
X112562592Y-148683294D01*
G37*
D29*
X413788200Y-139036600D03*
X416388200Y-138086600D03*
X413788200Y-137136600D03*
D30*
X120055000Y-143456000D03*
X116755000Y-143456000D03*
D21*
G36*
X123230592Y-147667294D02*
G01*
X123256681Y-147671164D01*
X123282264Y-147677572D01*
X123307096Y-147686457D01*
X123330938Y-147697734D01*
X123353560Y-147711293D01*
X123374743Y-147727003D01*
X123394285Y-147744715D01*
X123411997Y-147764257D01*
X123427707Y-147785440D01*
X123441266Y-147808062D01*
X123452543Y-147831904D01*
X123461428Y-147856736D01*
X123467836Y-147882319D01*
X123471706Y-147908408D01*
X123473000Y-147934750D01*
X123473000Y-148472250D01*
X123471706Y-148498592D01*
X123467836Y-148524681D01*
X123461428Y-148550264D01*
X123452543Y-148575096D01*
X123441266Y-148598938D01*
X123427707Y-148621560D01*
X123411997Y-148642743D01*
X123394285Y-148662285D01*
X123374743Y-148679997D01*
X123353560Y-148695707D01*
X123330938Y-148709266D01*
X123307096Y-148720543D01*
X123282264Y-148729428D01*
X123256681Y-148735836D01*
X123230592Y-148739706D01*
X123204250Y-148741000D01*
X122241750Y-148741000D01*
X122215408Y-148739706D01*
X122189319Y-148735836D01*
X122163736Y-148729428D01*
X122138904Y-148720543D01*
X122115062Y-148709266D01*
X122092440Y-148695707D01*
X122071257Y-148679997D01*
X122051715Y-148662285D01*
X122034003Y-148642743D01*
X122018293Y-148621560D01*
X122004734Y-148598938D01*
X121993457Y-148575096D01*
X121984572Y-148550264D01*
X121978164Y-148524681D01*
X121974294Y-148498592D01*
X121973000Y-148472250D01*
X121973000Y-147934750D01*
X121974294Y-147908408D01*
X121978164Y-147882319D01*
X121984572Y-147856736D01*
X121993457Y-147831904D01*
X122004734Y-147808062D01*
X122018293Y-147785440D01*
X122034003Y-147764257D01*
X122051715Y-147744715D01*
X122071257Y-147727003D01*
X122092440Y-147711293D01*
X122115062Y-147697734D01*
X122138904Y-147686457D01*
X122163736Y-147677572D01*
X122189319Y-147671164D01*
X122215408Y-147667294D01*
X122241750Y-147666000D01*
X123204250Y-147666000D01*
X123230592Y-147667294D01*
G37*
G36*
X123230592Y-145792294D02*
G01*
X123256681Y-145796164D01*
X123282264Y-145802572D01*
X123307096Y-145811457D01*
X123330938Y-145822734D01*
X123353560Y-145836293D01*
X123374743Y-145852003D01*
X123394285Y-145869715D01*
X123411997Y-145889257D01*
X123427707Y-145910440D01*
X123441266Y-145933062D01*
X123452543Y-145956904D01*
X123461428Y-145981736D01*
X123467836Y-146007319D01*
X123471706Y-146033408D01*
X123473000Y-146059750D01*
X123473000Y-146597250D01*
X123471706Y-146623592D01*
X123467836Y-146649681D01*
X123461428Y-146675264D01*
X123452543Y-146700096D01*
X123441266Y-146723938D01*
X123427707Y-146746560D01*
X123411997Y-146767743D01*
X123394285Y-146787285D01*
X123374743Y-146804997D01*
X123353560Y-146820707D01*
X123330938Y-146834266D01*
X123307096Y-146845543D01*
X123282264Y-146854428D01*
X123256681Y-146860836D01*
X123230592Y-146864706D01*
X123204250Y-146866000D01*
X122241750Y-146866000D01*
X122215408Y-146864706D01*
X122189319Y-146860836D01*
X122163736Y-146854428D01*
X122138904Y-146845543D01*
X122115062Y-146834266D01*
X122092440Y-146820707D01*
X122071257Y-146804997D01*
X122051715Y-146787285D01*
X122034003Y-146767743D01*
X122018293Y-146746560D01*
X122004734Y-146723938D01*
X121993457Y-146700096D01*
X121984572Y-146675264D01*
X121978164Y-146649681D01*
X121974294Y-146623592D01*
X121973000Y-146597250D01*
X121973000Y-146059750D01*
X121974294Y-146033408D01*
X121978164Y-146007319D01*
X121984572Y-145981736D01*
X121993457Y-145956904D01*
X122004734Y-145933062D01*
X122018293Y-145910440D01*
X122034003Y-145889257D01*
X122051715Y-145869715D01*
X122071257Y-145852003D01*
X122092440Y-145836293D01*
X122115062Y-145822734D01*
X122138904Y-145811457D01*
X122163736Y-145802572D01*
X122189319Y-145796164D01*
X122215408Y-145792294D01*
X122241750Y-145791000D01*
X123204250Y-145791000D01*
X123230592Y-145792294D01*
G37*
G36*
X419220792Y-135437894D02*
G01*
X419246881Y-135441764D01*
X419272464Y-135448172D01*
X419297296Y-135457057D01*
X419321138Y-135468334D01*
X419343760Y-135481893D01*
X419364943Y-135497603D01*
X419384485Y-135515315D01*
X419402197Y-135534857D01*
X419417907Y-135556040D01*
X419431466Y-135578662D01*
X419442743Y-135602504D01*
X419451628Y-135627336D01*
X419458036Y-135652919D01*
X419461906Y-135679008D01*
X419463200Y-135705350D01*
X419463200Y-136242850D01*
X419461906Y-136269192D01*
X419458036Y-136295281D01*
X419451628Y-136320864D01*
X419442743Y-136345696D01*
X419431466Y-136369538D01*
X419417907Y-136392160D01*
X419402197Y-136413343D01*
X419384485Y-136432885D01*
X419364943Y-136450597D01*
X419343760Y-136466307D01*
X419321138Y-136479866D01*
X419297296Y-136491143D01*
X419272464Y-136500028D01*
X419246881Y-136506436D01*
X419220792Y-136510306D01*
X419194450Y-136511600D01*
X418231950Y-136511600D01*
X418205608Y-136510306D01*
X418179519Y-136506436D01*
X418153936Y-136500028D01*
X418129104Y-136491143D01*
X418105262Y-136479866D01*
X418082640Y-136466307D01*
X418061457Y-136450597D01*
X418041915Y-136432885D01*
X418024203Y-136413343D01*
X418008493Y-136392160D01*
X417994934Y-136369538D01*
X417983657Y-136345696D01*
X417974772Y-136320864D01*
X417968364Y-136295281D01*
X417964494Y-136269192D01*
X417963200Y-136242850D01*
X417963200Y-135705350D01*
X417964494Y-135679008D01*
X417968364Y-135652919D01*
X417974772Y-135627336D01*
X417983657Y-135602504D01*
X417994934Y-135578662D01*
X418008493Y-135556040D01*
X418024203Y-135534857D01*
X418041915Y-135515315D01*
X418061457Y-135497603D01*
X418082640Y-135481893D01*
X418105262Y-135468334D01*
X418129104Y-135457057D01*
X418153936Y-135448172D01*
X418179519Y-135441764D01*
X418205608Y-135437894D01*
X418231950Y-135436600D01*
X419194450Y-135436600D01*
X419220792Y-135437894D01*
G37*
G36*
X419220792Y-137312894D02*
G01*
X419246881Y-137316764D01*
X419272464Y-137323172D01*
X419297296Y-137332057D01*
X419321138Y-137343334D01*
X419343760Y-137356893D01*
X419364943Y-137372603D01*
X419384485Y-137390315D01*
X419402197Y-137409857D01*
X419417907Y-137431040D01*
X419431466Y-137453662D01*
X419442743Y-137477504D01*
X419451628Y-137502336D01*
X419458036Y-137527919D01*
X419461906Y-137554008D01*
X419463200Y-137580350D01*
X419463200Y-138117850D01*
X419461906Y-138144192D01*
X419458036Y-138170281D01*
X419451628Y-138195864D01*
X419442743Y-138220696D01*
X419431466Y-138244538D01*
X419417907Y-138267160D01*
X419402197Y-138288343D01*
X419384485Y-138307885D01*
X419364943Y-138325597D01*
X419343760Y-138341307D01*
X419321138Y-138354866D01*
X419297296Y-138366143D01*
X419272464Y-138375028D01*
X419246881Y-138381436D01*
X419220792Y-138385306D01*
X419194450Y-138386600D01*
X418231950Y-138386600D01*
X418205608Y-138385306D01*
X418179519Y-138381436D01*
X418153936Y-138375028D01*
X418129104Y-138366143D01*
X418105262Y-138354866D01*
X418082640Y-138341307D01*
X418061457Y-138325597D01*
X418041915Y-138307885D01*
X418024203Y-138288343D01*
X418008493Y-138267160D01*
X417994934Y-138244538D01*
X417983657Y-138220696D01*
X417974772Y-138195864D01*
X417968364Y-138170281D01*
X417964494Y-138144192D01*
X417963200Y-138117850D01*
X417963200Y-137580350D01*
X417964494Y-137554008D01*
X417968364Y-137527919D01*
X417974772Y-137502336D01*
X417983657Y-137477504D01*
X417994934Y-137453662D01*
X418008493Y-137431040D01*
X418024203Y-137409857D01*
X418041915Y-137390315D01*
X418061457Y-137372603D01*
X418082640Y-137356893D01*
X418105262Y-137343334D01*
X418129104Y-137332057D01*
X418153936Y-137323172D01*
X418179519Y-137316764D01*
X418205608Y-137312894D01*
X418231950Y-137311600D01*
X419194450Y-137311600D01*
X419220792Y-137312894D01*
G37*
G36*
X415467792Y-146344194D02*
G01*
X415493881Y-146348064D01*
X415519464Y-146354472D01*
X415544296Y-146363357D01*
X415568138Y-146374634D01*
X415590760Y-146388193D01*
X415611943Y-146403903D01*
X415631485Y-146421615D01*
X415649197Y-146441157D01*
X415664907Y-146462340D01*
X415678466Y-146484962D01*
X415689743Y-146508804D01*
X415698628Y-146533636D01*
X415705036Y-146559219D01*
X415708906Y-146585308D01*
X415710200Y-146611650D01*
X415710200Y-147149150D01*
X415708906Y-147175492D01*
X415705036Y-147201581D01*
X415698628Y-147227164D01*
X415689743Y-147251996D01*
X415678466Y-147275838D01*
X415664907Y-147298460D01*
X415649197Y-147319643D01*
X415631485Y-147339185D01*
X415611943Y-147356897D01*
X415590760Y-147372607D01*
X415568138Y-147386166D01*
X415544296Y-147397443D01*
X415519464Y-147406328D01*
X415493881Y-147412736D01*
X415467792Y-147416606D01*
X415441450Y-147417900D01*
X414478950Y-147417900D01*
X414452608Y-147416606D01*
X414426519Y-147412736D01*
X414400936Y-147406328D01*
X414376104Y-147397443D01*
X414352262Y-147386166D01*
X414329640Y-147372607D01*
X414308457Y-147356897D01*
X414288915Y-147339185D01*
X414271203Y-147319643D01*
X414255493Y-147298460D01*
X414241934Y-147275838D01*
X414230657Y-147251996D01*
X414221772Y-147227164D01*
X414215364Y-147201581D01*
X414211494Y-147175492D01*
X414210200Y-147149150D01*
X414210200Y-146611650D01*
X414211494Y-146585308D01*
X414215364Y-146559219D01*
X414221772Y-146533636D01*
X414230657Y-146508804D01*
X414241934Y-146484962D01*
X414255493Y-146462340D01*
X414271203Y-146441157D01*
X414288915Y-146421615D01*
X414308457Y-146403903D01*
X414329640Y-146388193D01*
X414352262Y-146374634D01*
X414376104Y-146363357D01*
X414400936Y-146354472D01*
X414426519Y-146348064D01*
X414452608Y-146344194D01*
X414478950Y-146342900D01*
X415441450Y-146342900D01*
X415467792Y-146344194D01*
G37*
G36*
X415467792Y-144469194D02*
G01*
X415493881Y-144473064D01*
X415519464Y-144479472D01*
X415544296Y-144488357D01*
X415568138Y-144499634D01*
X415590760Y-144513193D01*
X415611943Y-144528903D01*
X415631485Y-144546615D01*
X415649197Y-144566157D01*
X415664907Y-144587340D01*
X415678466Y-144609962D01*
X415689743Y-144633804D01*
X415698628Y-144658636D01*
X415705036Y-144684219D01*
X415708906Y-144710308D01*
X415710200Y-144736650D01*
X415710200Y-145274150D01*
X415708906Y-145300492D01*
X415705036Y-145326581D01*
X415698628Y-145352164D01*
X415689743Y-145376996D01*
X415678466Y-145400838D01*
X415664907Y-145423460D01*
X415649197Y-145444643D01*
X415631485Y-145464185D01*
X415611943Y-145481897D01*
X415590760Y-145497607D01*
X415568138Y-145511166D01*
X415544296Y-145522443D01*
X415519464Y-145531328D01*
X415493881Y-145537736D01*
X415467792Y-145541606D01*
X415441450Y-145542900D01*
X414478950Y-145542900D01*
X414452608Y-145541606D01*
X414426519Y-145537736D01*
X414400936Y-145531328D01*
X414376104Y-145522443D01*
X414352262Y-145511166D01*
X414329640Y-145497607D01*
X414308457Y-145481897D01*
X414288915Y-145464185D01*
X414271203Y-145444643D01*
X414255493Y-145423460D01*
X414241934Y-145400838D01*
X414230657Y-145376996D01*
X414221772Y-145352164D01*
X414215364Y-145326581D01*
X414211494Y-145300492D01*
X414210200Y-145274150D01*
X414210200Y-144736650D01*
X414211494Y-144710308D01*
X414215364Y-144684219D01*
X414221772Y-144658636D01*
X414230657Y-144633804D01*
X414241934Y-144609962D01*
X414255493Y-144587340D01*
X414271203Y-144566157D01*
X414288915Y-144546615D01*
X414308457Y-144528903D01*
X414329640Y-144513193D01*
X414352262Y-144499634D01*
X414376104Y-144488357D01*
X414400936Y-144479472D01*
X414426519Y-144473064D01*
X414452608Y-144469194D01*
X414478950Y-144467900D01*
X415441450Y-144467900D01*
X415467792Y-144469194D01*
G37*
G36*
X115102592Y-146808294D02*
G01*
X115128681Y-146812164D01*
X115154264Y-146818572D01*
X115179096Y-146827457D01*
X115202938Y-146838734D01*
X115225560Y-146852293D01*
X115246743Y-146868003D01*
X115266285Y-146885715D01*
X115283997Y-146905257D01*
X115299707Y-146926440D01*
X115313266Y-146949062D01*
X115324543Y-146972904D01*
X115333428Y-146997736D01*
X115339836Y-147023319D01*
X115343706Y-147049408D01*
X115345000Y-147075750D01*
X115345000Y-147613250D01*
X115343706Y-147639592D01*
X115339836Y-147665681D01*
X115333428Y-147691264D01*
X115324543Y-147716096D01*
X115313266Y-147739938D01*
X115299707Y-147762560D01*
X115283997Y-147783743D01*
X115266285Y-147803285D01*
X115246743Y-147820997D01*
X115225560Y-147836707D01*
X115202938Y-147850266D01*
X115179096Y-147861543D01*
X115154264Y-147870428D01*
X115128681Y-147876836D01*
X115102592Y-147880706D01*
X115076250Y-147882000D01*
X114113750Y-147882000D01*
X114087408Y-147880706D01*
X114061319Y-147876836D01*
X114035736Y-147870428D01*
X114010904Y-147861543D01*
X113987062Y-147850266D01*
X113964440Y-147836707D01*
X113943257Y-147820997D01*
X113923715Y-147803285D01*
X113906003Y-147783743D01*
X113890293Y-147762560D01*
X113876734Y-147739938D01*
X113865457Y-147716096D01*
X113856572Y-147691264D01*
X113850164Y-147665681D01*
X113846294Y-147639592D01*
X113845000Y-147613250D01*
X113845000Y-147075750D01*
X113846294Y-147049408D01*
X113850164Y-147023319D01*
X113856572Y-146997736D01*
X113865457Y-146972904D01*
X113876734Y-146949062D01*
X113890293Y-146926440D01*
X113906003Y-146905257D01*
X113923715Y-146885715D01*
X113943257Y-146868003D01*
X113964440Y-146852293D01*
X113987062Y-146838734D01*
X114010904Y-146827457D01*
X114035736Y-146818572D01*
X114061319Y-146812164D01*
X114087408Y-146808294D01*
X114113750Y-146807000D01*
X115076250Y-146807000D01*
X115102592Y-146808294D01*
G37*
G36*
X115102592Y-148683294D02*
G01*
X115128681Y-148687164D01*
X115154264Y-148693572D01*
X115179096Y-148702457D01*
X115202938Y-148713734D01*
X115225560Y-148727293D01*
X115246743Y-148743003D01*
X115266285Y-148760715D01*
X115283997Y-148780257D01*
X115299707Y-148801440D01*
X115313266Y-148824062D01*
X115324543Y-148847904D01*
X115333428Y-148872736D01*
X115339836Y-148898319D01*
X115343706Y-148924408D01*
X115345000Y-148950750D01*
X115345000Y-149488250D01*
X115343706Y-149514592D01*
X115339836Y-149540681D01*
X115333428Y-149566264D01*
X115324543Y-149591096D01*
X115313266Y-149614938D01*
X115299707Y-149637560D01*
X115283997Y-149658743D01*
X115266285Y-149678285D01*
X115246743Y-149695997D01*
X115225560Y-149711707D01*
X115202938Y-149725266D01*
X115179096Y-149736543D01*
X115154264Y-149745428D01*
X115128681Y-149751836D01*
X115102592Y-149755706D01*
X115076250Y-149757000D01*
X114113750Y-149757000D01*
X114087408Y-149755706D01*
X114061319Y-149751836D01*
X114035736Y-149745428D01*
X114010904Y-149736543D01*
X113987062Y-149725266D01*
X113964440Y-149711707D01*
X113943257Y-149695997D01*
X113923715Y-149678285D01*
X113906003Y-149658743D01*
X113890293Y-149637560D01*
X113876734Y-149614938D01*
X113865457Y-149591096D01*
X113856572Y-149566264D01*
X113850164Y-149540681D01*
X113846294Y-149514592D01*
X113845000Y-149488250D01*
X113845000Y-148950750D01*
X113846294Y-148924408D01*
X113850164Y-148898319D01*
X113856572Y-148872736D01*
X113865457Y-148847904D01*
X113876734Y-148824062D01*
X113890293Y-148801440D01*
X113906003Y-148780257D01*
X113923715Y-148760715D01*
X113943257Y-148743003D01*
X113964440Y-148727293D01*
X113987062Y-148713734D01*
X114010904Y-148702457D01*
X114035736Y-148693572D01*
X114061319Y-148687164D01*
X114087408Y-148683294D01*
X114113750Y-148682000D01*
X115076250Y-148682000D01*
X115102592Y-148683294D01*
G37*
G36*
X423519592Y-138426294D02*
G01*
X423545681Y-138430164D01*
X423571264Y-138436572D01*
X423596096Y-138445457D01*
X423619938Y-138456734D01*
X423642560Y-138470293D01*
X423663743Y-138486003D01*
X423683285Y-138503715D01*
X423700997Y-138523257D01*
X423716707Y-138544440D01*
X423730266Y-138567062D01*
X423741543Y-138590904D01*
X423750428Y-138615736D01*
X423756836Y-138641319D01*
X423760706Y-138667408D01*
X423762000Y-138693750D01*
X423762000Y-139231250D01*
X423760706Y-139257592D01*
X423756836Y-139283681D01*
X423750428Y-139309264D01*
X423741543Y-139334096D01*
X423730266Y-139357938D01*
X423716707Y-139380560D01*
X423700997Y-139401743D01*
X423683285Y-139421285D01*
X423663743Y-139438997D01*
X423642560Y-139454707D01*
X423619938Y-139468266D01*
X423596096Y-139479543D01*
X423571264Y-139488428D01*
X423545681Y-139494836D01*
X423519592Y-139498706D01*
X423493250Y-139500000D01*
X422530750Y-139500000D01*
X422504408Y-139498706D01*
X422478319Y-139494836D01*
X422452736Y-139488428D01*
X422427904Y-139479543D01*
X422404062Y-139468266D01*
X422381440Y-139454707D01*
X422360257Y-139438997D01*
X422340715Y-139421285D01*
X422323003Y-139401743D01*
X422307293Y-139380560D01*
X422293734Y-139357938D01*
X422282457Y-139334096D01*
X422273572Y-139309264D01*
X422267164Y-139283681D01*
X422263294Y-139257592D01*
X422262000Y-139231250D01*
X422262000Y-138693750D01*
X422263294Y-138667408D01*
X422267164Y-138641319D01*
X422273572Y-138615736D01*
X422282457Y-138590904D01*
X422293734Y-138567062D01*
X422307293Y-138544440D01*
X422323003Y-138523257D01*
X422340715Y-138503715D01*
X422360257Y-138486003D01*
X422381440Y-138470293D01*
X422404062Y-138456734D01*
X422427904Y-138445457D01*
X422452736Y-138436572D01*
X422478319Y-138430164D01*
X422504408Y-138426294D01*
X422530750Y-138425000D01*
X423493250Y-138425000D01*
X423519592Y-138426294D01*
G37*
G36*
X423519592Y-140301294D02*
G01*
X423545681Y-140305164D01*
X423571264Y-140311572D01*
X423596096Y-140320457D01*
X423619938Y-140331734D01*
X423642560Y-140345293D01*
X423663743Y-140361003D01*
X423683285Y-140378715D01*
X423700997Y-140398257D01*
X423716707Y-140419440D01*
X423730266Y-140442062D01*
X423741543Y-140465904D01*
X423750428Y-140490736D01*
X423756836Y-140516319D01*
X423760706Y-140542408D01*
X423762000Y-140568750D01*
X423762000Y-141106250D01*
X423760706Y-141132592D01*
X423756836Y-141158681D01*
X423750428Y-141184264D01*
X423741543Y-141209096D01*
X423730266Y-141232938D01*
X423716707Y-141255560D01*
X423700997Y-141276743D01*
X423683285Y-141296285D01*
X423663743Y-141313997D01*
X423642560Y-141329707D01*
X423619938Y-141343266D01*
X423596096Y-141354543D01*
X423571264Y-141363428D01*
X423545681Y-141369836D01*
X423519592Y-141373706D01*
X423493250Y-141375000D01*
X422530750Y-141375000D01*
X422504408Y-141373706D01*
X422478319Y-141369836D01*
X422452736Y-141363428D01*
X422427904Y-141354543D01*
X422404062Y-141343266D01*
X422381440Y-141329707D01*
X422360257Y-141313997D01*
X422340715Y-141296285D01*
X422323003Y-141276743D01*
X422307293Y-141255560D01*
X422293734Y-141232938D01*
X422282457Y-141209096D01*
X422273572Y-141184264D01*
X422267164Y-141158681D01*
X422263294Y-141132592D01*
X422262000Y-141106250D01*
X422262000Y-140568750D01*
X422263294Y-140542408D01*
X422267164Y-140516319D01*
X422273572Y-140490736D01*
X422282457Y-140465904D01*
X422293734Y-140442062D01*
X422307293Y-140419440D01*
X422323003Y-140398257D01*
X422340715Y-140378715D01*
X422360257Y-140361003D01*
X422381440Y-140345293D01*
X422404062Y-140331734D01*
X422427904Y-140320457D01*
X422452736Y-140311572D01*
X422478319Y-140305164D01*
X422504408Y-140301294D01*
X422530750Y-140300000D01*
X423493250Y-140300000D01*
X423519592Y-140301294D01*
G37*
G36*
X435323592Y-147787294D02*
G01*
X435349681Y-147791164D01*
X435375264Y-147797572D01*
X435400096Y-147806457D01*
X435423938Y-147817734D01*
X435446560Y-147831293D01*
X435467743Y-147847003D01*
X435487285Y-147864715D01*
X435504997Y-147884257D01*
X435520707Y-147905440D01*
X435534266Y-147928062D01*
X435545543Y-147951904D01*
X435554428Y-147976736D01*
X435560836Y-148002319D01*
X435564706Y-148028408D01*
X435566000Y-148054750D01*
X435566000Y-149017250D01*
X435564706Y-149043592D01*
X435560836Y-149069681D01*
X435554428Y-149095264D01*
X435545543Y-149120096D01*
X435534266Y-149143938D01*
X435520707Y-149166560D01*
X435504997Y-149187743D01*
X435487285Y-149207285D01*
X435467743Y-149224997D01*
X435446560Y-149240707D01*
X435423938Y-149254266D01*
X435400096Y-149265543D01*
X435375264Y-149274428D01*
X435349681Y-149280836D01*
X435323592Y-149284706D01*
X435297250Y-149286000D01*
X434759750Y-149286000D01*
X434733408Y-149284706D01*
X434707319Y-149280836D01*
X434681736Y-149274428D01*
X434656904Y-149265543D01*
X434633062Y-149254266D01*
X434610440Y-149240707D01*
X434589257Y-149224997D01*
X434569715Y-149207285D01*
X434552003Y-149187743D01*
X434536293Y-149166560D01*
X434522734Y-149143938D01*
X434511457Y-149120096D01*
X434502572Y-149095264D01*
X434496164Y-149069681D01*
X434492294Y-149043592D01*
X434491000Y-149017250D01*
X434491000Y-148054750D01*
X434492294Y-148028408D01*
X434496164Y-148002319D01*
X434502572Y-147976736D01*
X434511457Y-147951904D01*
X434522734Y-147928062D01*
X434536293Y-147905440D01*
X434552003Y-147884257D01*
X434569715Y-147864715D01*
X434589257Y-147847003D01*
X434610440Y-147831293D01*
X434633062Y-147817734D01*
X434656904Y-147806457D01*
X434681736Y-147797572D01*
X434707319Y-147791164D01*
X434733408Y-147787294D01*
X434759750Y-147786000D01*
X435297250Y-147786000D01*
X435323592Y-147787294D01*
G37*
G36*
X437198592Y-147787294D02*
G01*
X437224681Y-147791164D01*
X437250264Y-147797572D01*
X437275096Y-147806457D01*
X437298938Y-147817734D01*
X437321560Y-147831293D01*
X437342743Y-147847003D01*
X437362285Y-147864715D01*
X437379997Y-147884257D01*
X437395707Y-147905440D01*
X437409266Y-147928062D01*
X437420543Y-147951904D01*
X437429428Y-147976736D01*
X437435836Y-148002319D01*
X437439706Y-148028408D01*
X437441000Y-148054750D01*
X437441000Y-149017250D01*
X437439706Y-149043592D01*
X437435836Y-149069681D01*
X437429428Y-149095264D01*
X437420543Y-149120096D01*
X437409266Y-149143938D01*
X437395707Y-149166560D01*
X437379997Y-149187743D01*
X437362285Y-149207285D01*
X437342743Y-149224997D01*
X437321560Y-149240707D01*
X437298938Y-149254266D01*
X437275096Y-149265543D01*
X437250264Y-149274428D01*
X437224681Y-149280836D01*
X437198592Y-149284706D01*
X437172250Y-149286000D01*
X436634750Y-149286000D01*
X436608408Y-149284706D01*
X436582319Y-149280836D01*
X436556736Y-149274428D01*
X436531904Y-149265543D01*
X436508062Y-149254266D01*
X436485440Y-149240707D01*
X436464257Y-149224997D01*
X436444715Y-149207285D01*
X436427003Y-149187743D01*
X436411293Y-149166560D01*
X436397734Y-149143938D01*
X436386457Y-149120096D01*
X436377572Y-149095264D01*
X436371164Y-149069681D01*
X436367294Y-149043592D01*
X436366000Y-149017250D01*
X436366000Y-148054750D01*
X436367294Y-148028408D01*
X436371164Y-148002319D01*
X436377572Y-147976736D01*
X436386457Y-147951904D01*
X436397734Y-147928062D01*
X436411293Y-147905440D01*
X436427003Y-147884257D01*
X436444715Y-147864715D01*
X436464257Y-147847003D01*
X436485440Y-147831293D01*
X436508062Y-147817734D01*
X436531904Y-147806457D01*
X436556736Y-147797572D01*
X436582319Y-147791164D01*
X436608408Y-147787294D01*
X436634750Y-147786000D01*
X437172250Y-147786000D01*
X437198592Y-147787294D01*
G37*
G36*
X421233592Y-138426294D02*
G01*
X421259681Y-138430164D01*
X421285264Y-138436572D01*
X421310096Y-138445457D01*
X421333938Y-138456734D01*
X421356560Y-138470293D01*
X421377743Y-138486003D01*
X421397285Y-138503715D01*
X421414997Y-138523257D01*
X421430707Y-138544440D01*
X421444266Y-138567062D01*
X421455543Y-138590904D01*
X421464428Y-138615736D01*
X421470836Y-138641319D01*
X421474706Y-138667408D01*
X421476000Y-138693750D01*
X421476000Y-139231250D01*
X421474706Y-139257592D01*
X421470836Y-139283681D01*
X421464428Y-139309264D01*
X421455543Y-139334096D01*
X421444266Y-139357938D01*
X421430707Y-139380560D01*
X421414997Y-139401743D01*
X421397285Y-139421285D01*
X421377743Y-139438997D01*
X421356560Y-139454707D01*
X421333938Y-139468266D01*
X421310096Y-139479543D01*
X421285264Y-139488428D01*
X421259681Y-139494836D01*
X421233592Y-139498706D01*
X421207250Y-139500000D01*
X420244750Y-139500000D01*
X420218408Y-139498706D01*
X420192319Y-139494836D01*
X420166736Y-139488428D01*
X420141904Y-139479543D01*
X420118062Y-139468266D01*
X420095440Y-139454707D01*
X420074257Y-139438997D01*
X420054715Y-139421285D01*
X420037003Y-139401743D01*
X420021293Y-139380560D01*
X420007734Y-139357938D01*
X419996457Y-139334096D01*
X419987572Y-139309264D01*
X419981164Y-139283681D01*
X419977294Y-139257592D01*
X419976000Y-139231250D01*
X419976000Y-138693750D01*
X419977294Y-138667408D01*
X419981164Y-138641319D01*
X419987572Y-138615736D01*
X419996457Y-138590904D01*
X420007734Y-138567062D01*
X420021293Y-138544440D01*
X420037003Y-138523257D01*
X420054715Y-138503715D01*
X420074257Y-138486003D01*
X420095440Y-138470293D01*
X420118062Y-138456734D01*
X420141904Y-138445457D01*
X420166736Y-138436572D01*
X420192319Y-138430164D01*
X420218408Y-138426294D01*
X420244750Y-138425000D01*
X421207250Y-138425000D01*
X421233592Y-138426294D01*
G37*
G36*
X421233592Y-140301294D02*
G01*
X421259681Y-140305164D01*
X421285264Y-140311572D01*
X421310096Y-140320457D01*
X421333938Y-140331734D01*
X421356560Y-140345293D01*
X421377743Y-140361003D01*
X421397285Y-140378715D01*
X421414997Y-140398257D01*
X421430707Y-140419440D01*
X421444266Y-140442062D01*
X421455543Y-140465904D01*
X421464428Y-140490736D01*
X421470836Y-140516319D01*
X421474706Y-140542408D01*
X421476000Y-140568750D01*
X421476000Y-141106250D01*
X421474706Y-141132592D01*
X421470836Y-141158681D01*
X421464428Y-141184264D01*
X421455543Y-141209096D01*
X421444266Y-141232938D01*
X421430707Y-141255560D01*
X421414997Y-141276743D01*
X421397285Y-141296285D01*
X421377743Y-141313997D01*
X421356560Y-141329707D01*
X421333938Y-141343266D01*
X421310096Y-141354543D01*
X421285264Y-141363428D01*
X421259681Y-141369836D01*
X421233592Y-141373706D01*
X421207250Y-141375000D01*
X420244750Y-141375000D01*
X420218408Y-141373706D01*
X420192319Y-141369836D01*
X420166736Y-141363428D01*
X420141904Y-141354543D01*
X420118062Y-141343266D01*
X420095440Y-141329707D01*
X420074257Y-141313997D01*
X420054715Y-141296285D01*
X420037003Y-141276743D01*
X420021293Y-141255560D01*
X420007734Y-141232938D01*
X419996457Y-141209096D01*
X419987572Y-141184264D01*
X419981164Y-141158681D01*
X419977294Y-141132592D01*
X419976000Y-141106250D01*
X419976000Y-140568750D01*
X419977294Y-140542408D01*
X419981164Y-140516319D01*
X419987572Y-140490736D01*
X419996457Y-140465904D01*
X420007734Y-140442062D01*
X420021293Y-140419440D01*
X420037003Y-140398257D01*
X420054715Y-140378715D01*
X420074257Y-140361003D01*
X420095440Y-140345293D01*
X420118062Y-140331734D01*
X420141904Y-140320457D01*
X420166736Y-140311572D01*
X420192319Y-140305164D01*
X420218408Y-140301294D01*
X420244750Y-140300000D01*
X421207250Y-140300000D01*
X421233592Y-140301294D01*
G37*
G36*
X439521592Y-135983294D02*
G01*
X439547681Y-135987164D01*
X439573264Y-135993572D01*
X439598096Y-136002457D01*
X439621938Y-136013734D01*
X439644560Y-136027293D01*
X439665743Y-136043003D01*
X439685285Y-136060715D01*
X439702997Y-136080257D01*
X439718707Y-136101440D01*
X439732266Y-136124062D01*
X439743543Y-136147904D01*
X439752428Y-136172736D01*
X439758836Y-136198319D01*
X439762706Y-136224408D01*
X439764000Y-136250750D01*
X439764000Y-136788250D01*
X439762706Y-136814592D01*
X439758836Y-136840681D01*
X439752428Y-136866264D01*
X439743543Y-136891096D01*
X439732266Y-136914938D01*
X439718707Y-136937560D01*
X439702997Y-136958743D01*
X439685285Y-136978285D01*
X439665743Y-136995997D01*
X439644560Y-137011707D01*
X439621938Y-137025266D01*
X439598096Y-137036543D01*
X439573264Y-137045428D01*
X439547681Y-137051836D01*
X439521592Y-137055706D01*
X439495250Y-137057000D01*
X438532750Y-137057000D01*
X438506408Y-137055706D01*
X438480319Y-137051836D01*
X438454736Y-137045428D01*
X438429904Y-137036543D01*
X438406062Y-137025266D01*
X438383440Y-137011707D01*
X438362257Y-136995997D01*
X438342715Y-136978285D01*
X438325003Y-136958743D01*
X438309293Y-136937560D01*
X438295734Y-136914938D01*
X438284457Y-136891096D01*
X438275572Y-136866264D01*
X438269164Y-136840681D01*
X438265294Y-136814592D01*
X438264000Y-136788250D01*
X438264000Y-136250750D01*
X438265294Y-136224408D01*
X438269164Y-136198319D01*
X438275572Y-136172736D01*
X438284457Y-136147904D01*
X438295734Y-136124062D01*
X438309293Y-136101440D01*
X438325003Y-136080257D01*
X438342715Y-136060715D01*
X438362257Y-136043003D01*
X438383440Y-136027293D01*
X438406062Y-136013734D01*
X438429904Y-136002457D01*
X438454736Y-135993572D01*
X438480319Y-135987164D01*
X438506408Y-135983294D01*
X438532750Y-135982000D01*
X439495250Y-135982000D01*
X439521592Y-135983294D01*
G37*
G36*
X439521592Y-134108294D02*
G01*
X439547681Y-134112164D01*
X439573264Y-134118572D01*
X439598096Y-134127457D01*
X439621938Y-134138734D01*
X439644560Y-134152293D01*
X439665743Y-134168003D01*
X439685285Y-134185715D01*
X439702997Y-134205257D01*
X439718707Y-134226440D01*
X439732266Y-134249062D01*
X439743543Y-134272904D01*
X439752428Y-134297736D01*
X439758836Y-134323319D01*
X439762706Y-134349408D01*
X439764000Y-134375750D01*
X439764000Y-134913250D01*
X439762706Y-134939592D01*
X439758836Y-134965681D01*
X439752428Y-134991264D01*
X439743543Y-135016096D01*
X439732266Y-135039938D01*
X439718707Y-135062560D01*
X439702997Y-135083743D01*
X439685285Y-135103285D01*
X439665743Y-135120997D01*
X439644560Y-135136707D01*
X439621938Y-135150266D01*
X439598096Y-135161543D01*
X439573264Y-135170428D01*
X439547681Y-135176836D01*
X439521592Y-135180706D01*
X439495250Y-135182000D01*
X438532750Y-135182000D01*
X438506408Y-135180706D01*
X438480319Y-135176836D01*
X438454736Y-135170428D01*
X438429904Y-135161543D01*
X438406062Y-135150266D01*
X438383440Y-135136707D01*
X438362257Y-135120997D01*
X438342715Y-135103285D01*
X438325003Y-135083743D01*
X438309293Y-135062560D01*
X438295734Y-135039938D01*
X438284457Y-135016096D01*
X438275572Y-134991264D01*
X438269164Y-134965681D01*
X438265294Y-134939592D01*
X438264000Y-134913250D01*
X438264000Y-134375750D01*
X438265294Y-134349408D01*
X438269164Y-134323319D01*
X438275572Y-134297736D01*
X438284457Y-134272904D01*
X438295734Y-134249062D01*
X438309293Y-134226440D01*
X438325003Y-134205257D01*
X438342715Y-134185715D01*
X438362257Y-134168003D01*
X438383440Y-134152293D01*
X438406062Y-134138734D01*
X438429904Y-134127457D01*
X438454736Y-134118572D01*
X438480319Y-134112164D01*
X438506408Y-134108294D01*
X438532750Y-134107000D01*
X439495250Y-134107000D01*
X439521592Y-134108294D01*
G37*
G36*
X442061592Y-135983294D02*
G01*
X442087681Y-135987164D01*
X442113264Y-135993572D01*
X442138096Y-136002457D01*
X442161938Y-136013734D01*
X442184560Y-136027293D01*
X442205743Y-136043003D01*
X442225285Y-136060715D01*
X442242997Y-136080257D01*
X442258707Y-136101440D01*
X442272266Y-136124062D01*
X442283543Y-136147904D01*
X442292428Y-136172736D01*
X442298836Y-136198319D01*
X442302706Y-136224408D01*
X442304000Y-136250750D01*
X442304000Y-136788250D01*
X442302706Y-136814592D01*
X442298836Y-136840681D01*
X442292428Y-136866264D01*
X442283543Y-136891096D01*
X442272266Y-136914938D01*
X442258707Y-136937560D01*
X442242997Y-136958743D01*
X442225285Y-136978285D01*
X442205743Y-136995997D01*
X442184560Y-137011707D01*
X442161938Y-137025266D01*
X442138096Y-137036543D01*
X442113264Y-137045428D01*
X442087681Y-137051836D01*
X442061592Y-137055706D01*
X442035250Y-137057000D01*
X441072750Y-137057000D01*
X441046408Y-137055706D01*
X441020319Y-137051836D01*
X440994736Y-137045428D01*
X440969904Y-137036543D01*
X440946062Y-137025266D01*
X440923440Y-137011707D01*
X440902257Y-136995997D01*
X440882715Y-136978285D01*
X440865003Y-136958743D01*
X440849293Y-136937560D01*
X440835734Y-136914938D01*
X440824457Y-136891096D01*
X440815572Y-136866264D01*
X440809164Y-136840681D01*
X440805294Y-136814592D01*
X440804000Y-136788250D01*
X440804000Y-136250750D01*
X440805294Y-136224408D01*
X440809164Y-136198319D01*
X440815572Y-136172736D01*
X440824457Y-136147904D01*
X440835734Y-136124062D01*
X440849293Y-136101440D01*
X440865003Y-136080257D01*
X440882715Y-136060715D01*
X440902257Y-136043003D01*
X440923440Y-136027293D01*
X440946062Y-136013734D01*
X440969904Y-136002457D01*
X440994736Y-135993572D01*
X441020319Y-135987164D01*
X441046408Y-135983294D01*
X441072750Y-135982000D01*
X442035250Y-135982000D01*
X442061592Y-135983294D01*
G37*
G36*
X442061592Y-134108294D02*
G01*
X442087681Y-134112164D01*
X442113264Y-134118572D01*
X442138096Y-134127457D01*
X442161938Y-134138734D01*
X442184560Y-134152293D01*
X442205743Y-134168003D01*
X442225285Y-134185715D01*
X442242997Y-134205257D01*
X442258707Y-134226440D01*
X442272266Y-134249062D01*
X442283543Y-134272904D01*
X442292428Y-134297736D01*
X442298836Y-134323319D01*
X442302706Y-134349408D01*
X442304000Y-134375750D01*
X442304000Y-134913250D01*
X442302706Y-134939592D01*
X442298836Y-134965681D01*
X442292428Y-134991264D01*
X442283543Y-135016096D01*
X442272266Y-135039938D01*
X442258707Y-135062560D01*
X442242997Y-135083743D01*
X442225285Y-135103285D01*
X442205743Y-135120997D01*
X442184560Y-135136707D01*
X442161938Y-135150266D01*
X442138096Y-135161543D01*
X442113264Y-135170428D01*
X442087681Y-135176836D01*
X442061592Y-135180706D01*
X442035250Y-135182000D01*
X441072750Y-135182000D01*
X441046408Y-135180706D01*
X441020319Y-135176836D01*
X440994736Y-135170428D01*
X440969904Y-135161543D01*
X440946062Y-135150266D01*
X440923440Y-135136707D01*
X440902257Y-135120997D01*
X440882715Y-135103285D01*
X440865003Y-135083743D01*
X440849293Y-135062560D01*
X440835734Y-135039938D01*
X440824457Y-135016096D01*
X440815572Y-134991264D01*
X440809164Y-134965681D01*
X440805294Y-134939592D01*
X440804000Y-134913250D01*
X440804000Y-134375750D01*
X440805294Y-134349408D01*
X440809164Y-134323319D01*
X440815572Y-134297736D01*
X440824457Y-134272904D01*
X440835734Y-134249062D01*
X440849293Y-134226440D01*
X440865003Y-134205257D01*
X440882715Y-134185715D01*
X440902257Y-134168003D01*
X440923440Y-134152293D01*
X440946062Y-134138734D01*
X440969904Y-134127457D01*
X440994736Y-134118572D01*
X441020319Y-134112164D01*
X441046408Y-134108294D01*
X441072750Y-134107000D01*
X442035250Y-134107000D01*
X442061592Y-134108294D01*
G37*
G36*
X435323592Y-145501294D02*
G01*
X435349681Y-145505164D01*
X435375264Y-145511572D01*
X435400096Y-145520457D01*
X435423938Y-145531734D01*
X435446560Y-145545293D01*
X435467743Y-145561003D01*
X435487285Y-145578715D01*
X435504997Y-145598257D01*
X435520707Y-145619440D01*
X435534266Y-145642062D01*
X435545543Y-145665904D01*
X435554428Y-145690736D01*
X435560836Y-145716319D01*
X435564706Y-145742408D01*
X435566000Y-145768750D01*
X435566000Y-146731250D01*
X435564706Y-146757592D01*
X435560836Y-146783681D01*
X435554428Y-146809264D01*
X435545543Y-146834096D01*
X435534266Y-146857938D01*
X435520707Y-146880560D01*
X435504997Y-146901743D01*
X435487285Y-146921285D01*
X435467743Y-146938997D01*
X435446560Y-146954707D01*
X435423938Y-146968266D01*
X435400096Y-146979543D01*
X435375264Y-146988428D01*
X435349681Y-146994836D01*
X435323592Y-146998706D01*
X435297250Y-147000000D01*
X434759750Y-147000000D01*
X434733408Y-146998706D01*
X434707319Y-146994836D01*
X434681736Y-146988428D01*
X434656904Y-146979543D01*
X434633062Y-146968266D01*
X434610440Y-146954707D01*
X434589257Y-146938997D01*
X434569715Y-146921285D01*
X434552003Y-146901743D01*
X434536293Y-146880560D01*
X434522734Y-146857938D01*
X434511457Y-146834096D01*
X434502572Y-146809264D01*
X434496164Y-146783681D01*
X434492294Y-146757592D01*
X434491000Y-146731250D01*
X434491000Y-145768750D01*
X434492294Y-145742408D01*
X434496164Y-145716319D01*
X434502572Y-145690736D01*
X434511457Y-145665904D01*
X434522734Y-145642062D01*
X434536293Y-145619440D01*
X434552003Y-145598257D01*
X434569715Y-145578715D01*
X434589257Y-145561003D01*
X434610440Y-145545293D01*
X434633062Y-145531734D01*
X434656904Y-145520457D01*
X434681736Y-145511572D01*
X434707319Y-145505164D01*
X434733408Y-145501294D01*
X434759750Y-145500000D01*
X435297250Y-145500000D01*
X435323592Y-145501294D01*
G37*
G36*
X437198592Y-145501294D02*
G01*
X437224681Y-145505164D01*
X437250264Y-145511572D01*
X437275096Y-145520457D01*
X437298938Y-145531734D01*
X437321560Y-145545293D01*
X437342743Y-145561003D01*
X437362285Y-145578715D01*
X437379997Y-145598257D01*
X437395707Y-145619440D01*
X437409266Y-145642062D01*
X437420543Y-145665904D01*
X437429428Y-145690736D01*
X437435836Y-145716319D01*
X437439706Y-145742408D01*
X437441000Y-145768750D01*
X437441000Y-146731250D01*
X437439706Y-146757592D01*
X437435836Y-146783681D01*
X437429428Y-146809264D01*
X437420543Y-146834096D01*
X437409266Y-146857938D01*
X437395707Y-146880560D01*
X437379997Y-146901743D01*
X437362285Y-146921285D01*
X437342743Y-146938997D01*
X437321560Y-146954707D01*
X437298938Y-146968266D01*
X437275096Y-146979543D01*
X437250264Y-146988428D01*
X437224681Y-146994836D01*
X437198592Y-146998706D01*
X437172250Y-147000000D01*
X436634750Y-147000000D01*
X436608408Y-146998706D01*
X436582319Y-146994836D01*
X436556736Y-146988428D01*
X436531904Y-146979543D01*
X436508062Y-146968266D01*
X436485440Y-146954707D01*
X436464257Y-146938997D01*
X436444715Y-146921285D01*
X436427003Y-146901743D01*
X436411293Y-146880560D01*
X436397734Y-146857938D01*
X436386457Y-146834096D01*
X436377572Y-146809264D01*
X436371164Y-146783681D01*
X436367294Y-146757592D01*
X436366000Y-146731250D01*
X436366000Y-145768750D01*
X436367294Y-145742408D01*
X436371164Y-145716319D01*
X436377572Y-145690736D01*
X436386457Y-145665904D01*
X436397734Y-145642062D01*
X436411293Y-145619440D01*
X436427003Y-145598257D01*
X436444715Y-145578715D01*
X436464257Y-145561003D01*
X436485440Y-145545293D01*
X436508062Y-145531734D01*
X436531904Y-145520457D01*
X436556736Y-145511572D01*
X436582319Y-145505164D01*
X436608408Y-145501294D01*
X436634750Y-145500000D01*
X437172250Y-145500000D01*
X437198592Y-145501294D01*
G37*
G36*
X424401592Y-134833294D02*
G01*
X424427681Y-134837164D01*
X424453264Y-134843572D01*
X424478096Y-134852457D01*
X424501938Y-134863734D01*
X424524560Y-134877293D01*
X424545743Y-134893003D01*
X424565285Y-134910715D01*
X424582997Y-134930257D01*
X424598707Y-134951440D01*
X424612266Y-134974062D01*
X424623543Y-134997904D01*
X424632428Y-135022736D01*
X424638836Y-135048319D01*
X424642706Y-135074408D01*
X424644000Y-135100750D01*
X424644000Y-136063250D01*
X424642706Y-136089592D01*
X424638836Y-136115681D01*
X424632428Y-136141264D01*
X424623543Y-136166096D01*
X424612266Y-136189938D01*
X424598707Y-136212560D01*
X424582997Y-136233743D01*
X424565285Y-136253285D01*
X424545743Y-136270997D01*
X424524560Y-136286707D01*
X424501938Y-136300266D01*
X424478096Y-136311543D01*
X424453264Y-136320428D01*
X424427681Y-136326836D01*
X424401592Y-136330706D01*
X424375250Y-136332000D01*
X423837750Y-136332000D01*
X423811408Y-136330706D01*
X423785319Y-136326836D01*
X423759736Y-136320428D01*
X423734904Y-136311543D01*
X423711062Y-136300266D01*
X423688440Y-136286707D01*
X423667257Y-136270997D01*
X423647715Y-136253285D01*
X423630003Y-136233743D01*
X423614293Y-136212560D01*
X423600734Y-136189938D01*
X423589457Y-136166096D01*
X423580572Y-136141264D01*
X423574164Y-136115681D01*
X423570294Y-136089592D01*
X423569000Y-136063250D01*
X423569000Y-135100750D01*
X423570294Y-135074408D01*
X423574164Y-135048319D01*
X423580572Y-135022736D01*
X423589457Y-134997904D01*
X423600734Y-134974062D01*
X423614293Y-134951440D01*
X423630003Y-134930257D01*
X423647715Y-134910715D01*
X423667257Y-134893003D01*
X423688440Y-134877293D01*
X423711062Y-134863734D01*
X423734904Y-134852457D01*
X423759736Y-134843572D01*
X423785319Y-134837164D01*
X423811408Y-134833294D01*
X423837750Y-134832000D01*
X424375250Y-134832000D01*
X424401592Y-134833294D01*
G37*
G36*
X426276592Y-134833294D02*
G01*
X426302681Y-134837164D01*
X426328264Y-134843572D01*
X426353096Y-134852457D01*
X426376938Y-134863734D01*
X426399560Y-134877293D01*
X426420743Y-134893003D01*
X426440285Y-134910715D01*
X426457997Y-134930257D01*
X426473707Y-134951440D01*
X426487266Y-134974062D01*
X426498543Y-134997904D01*
X426507428Y-135022736D01*
X426513836Y-135048319D01*
X426517706Y-135074408D01*
X426519000Y-135100750D01*
X426519000Y-136063250D01*
X426517706Y-136089592D01*
X426513836Y-136115681D01*
X426507428Y-136141264D01*
X426498543Y-136166096D01*
X426487266Y-136189938D01*
X426473707Y-136212560D01*
X426457997Y-136233743D01*
X426440285Y-136253285D01*
X426420743Y-136270997D01*
X426399560Y-136286707D01*
X426376938Y-136300266D01*
X426353096Y-136311543D01*
X426328264Y-136320428D01*
X426302681Y-136326836D01*
X426276592Y-136330706D01*
X426250250Y-136332000D01*
X425712750Y-136332000D01*
X425686408Y-136330706D01*
X425660319Y-136326836D01*
X425634736Y-136320428D01*
X425609904Y-136311543D01*
X425586062Y-136300266D01*
X425563440Y-136286707D01*
X425542257Y-136270997D01*
X425522715Y-136253285D01*
X425505003Y-136233743D01*
X425489293Y-136212560D01*
X425475734Y-136189938D01*
X425464457Y-136166096D01*
X425455572Y-136141264D01*
X425449164Y-136115681D01*
X425445294Y-136089592D01*
X425444000Y-136063250D01*
X425444000Y-135100750D01*
X425445294Y-135074408D01*
X425449164Y-135048319D01*
X425455572Y-135022736D01*
X425464457Y-134997904D01*
X425475734Y-134974062D01*
X425489293Y-134951440D01*
X425505003Y-134930257D01*
X425522715Y-134910715D01*
X425542257Y-134893003D01*
X425563440Y-134877293D01*
X425586062Y-134863734D01*
X425609904Y-134852457D01*
X425634736Y-134843572D01*
X425660319Y-134837164D01*
X425686408Y-134833294D01*
X425712750Y-134832000D01*
X426250250Y-134832000D01*
X426276592Y-134833294D01*
G37*
M02*
