G04 #@! TF.GenerationSoftware,KiCad,Pcbnew,5.1.5+dfsg1-2build2*
G04 #@! TF.CreationDate,2020-08-17T22:58:45+02:00*
G04 #@! TF.ProjectId,PENIS,50454e49-532e-46b6-9963-61645f706362,rev?*
G04 #@! TF.SameCoordinates,Original*
G04 #@! TF.FileFunction,Legend,Top*
G04 #@! TF.FilePolarity,Positive*
%FSLAX46Y46*%
G04 Gerber Fmt 4.6, Leading zero omitted, Abs format (unit mm)*
G04 Created by KiCad (PCBNEW 5.1.5+dfsg1-2build2) date 2020-08-17 22:58:45*
%MOMM*%
%LPD*%
G04 APERTURE LIST*
%ADD10C,0.150000*%
%ADD11C,0.120000*%
%ADD12C,0.127000*%
G04 APERTURE END LIST*
D10*
X483409523Y-282372380D02*
X483409523Y-281372380D01*
X483742857Y-282086666D01*
X484076190Y-281372380D01*
X484076190Y-282372380D01*
X484552380Y-282372380D02*
X484552380Y-281372380D01*
X485123809Y-282372380D02*
X484695238Y-281800952D01*
X485123809Y-281372380D02*
X484552380Y-281943809D01*
X486266666Y-281467619D02*
X486314285Y-281420000D01*
X486409523Y-281372380D01*
X486647619Y-281372380D01*
X486742857Y-281420000D01*
X486790476Y-281467619D01*
X486838095Y-281562857D01*
X486838095Y-281658095D01*
X486790476Y-281800952D01*
X486219047Y-282372380D01*
X486838095Y-282372380D01*
X463386904Y-139417023D02*
X463386904Y-138147023D01*
X463810238Y-139054166D01*
X464233571Y-138147023D01*
X464233571Y-139417023D01*
X465382619Y-139417023D02*
X465382619Y-138751785D01*
X465322142Y-138630833D01*
X465201190Y-138570357D01*
X464959285Y-138570357D01*
X464838333Y-138630833D01*
X465382619Y-139356547D02*
X465261666Y-139417023D01*
X464959285Y-139417023D01*
X464838333Y-139356547D01*
X464777857Y-139235595D01*
X464777857Y-139114642D01*
X464838333Y-138993690D01*
X464959285Y-138933214D01*
X465261666Y-138933214D01*
X465382619Y-138872738D01*
X466531666Y-139417023D02*
X466531666Y-138147023D01*
X466531666Y-139356547D02*
X466410714Y-139417023D01*
X466168809Y-139417023D01*
X466047857Y-139356547D01*
X465987380Y-139296071D01*
X465926904Y-139175119D01*
X465926904Y-138812261D01*
X465987380Y-138691309D01*
X466047857Y-138630833D01*
X466168809Y-138570357D01*
X466410714Y-138570357D01*
X466531666Y-138630833D01*
X467620238Y-139356547D02*
X467499285Y-139417023D01*
X467257380Y-139417023D01*
X467136428Y-139356547D01*
X467075952Y-139235595D01*
X467075952Y-138751785D01*
X467136428Y-138630833D01*
X467257380Y-138570357D01*
X467499285Y-138570357D01*
X467620238Y-138630833D01*
X467680714Y-138751785D01*
X467680714Y-138872738D01*
X467075952Y-138993690D01*
X469192619Y-139417023D02*
X469192619Y-138570357D01*
X469192619Y-138147023D02*
X469132142Y-138207500D01*
X469192619Y-138267976D01*
X469253095Y-138207500D01*
X469192619Y-138147023D01*
X469192619Y-138267976D01*
X469797380Y-138570357D02*
X469797380Y-139417023D01*
X469797380Y-138691309D02*
X469857857Y-138630833D01*
X469978809Y-138570357D01*
X470160238Y-138570357D01*
X470281190Y-138630833D01*
X470341666Y-138751785D01*
X470341666Y-139417023D01*
X472579285Y-138207500D02*
X472458333Y-138147023D01*
X472276904Y-138147023D01*
X472095476Y-138207500D01*
X471974523Y-138328452D01*
X471914047Y-138449404D01*
X471853571Y-138691309D01*
X471853571Y-138872738D01*
X471914047Y-139114642D01*
X471974523Y-139235595D01*
X472095476Y-139356547D01*
X472276904Y-139417023D01*
X472397857Y-139417023D01*
X472579285Y-139356547D01*
X472639761Y-139296071D01*
X472639761Y-138872738D01*
X472397857Y-138872738D01*
X473667857Y-139356547D02*
X473546904Y-139417023D01*
X473305000Y-139417023D01*
X473184047Y-139356547D01*
X473123571Y-139235595D01*
X473123571Y-138751785D01*
X473184047Y-138630833D01*
X473305000Y-138570357D01*
X473546904Y-138570357D01*
X473667857Y-138630833D01*
X473728333Y-138751785D01*
X473728333Y-138872738D01*
X473123571Y-138993690D01*
X474272619Y-139417023D02*
X474272619Y-138570357D01*
X474272619Y-138812261D02*
X474333095Y-138691309D01*
X474393571Y-138630833D01*
X474514523Y-138570357D01*
X474635476Y-138570357D01*
X475058809Y-139417023D02*
X475058809Y-138570357D01*
X475058809Y-138691309D02*
X475119285Y-138630833D01*
X475240238Y-138570357D01*
X475421666Y-138570357D01*
X475542619Y-138630833D01*
X475603095Y-138751785D01*
X475603095Y-139417023D01*
X475603095Y-138751785D02*
X475663571Y-138630833D01*
X475784523Y-138570357D01*
X475965952Y-138570357D01*
X476086904Y-138630833D01*
X476147380Y-138751785D01*
X476147380Y-139417023D01*
X477296428Y-139417023D02*
X477296428Y-138751785D01*
X477235952Y-138630833D01*
X477115000Y-138570357D01*
X476873095Y-138570357D01*
X476752142Y-138630833D01*
X477296428Y-139356547D02*
X477175476Y-139417023D01*
X476873095Y-139417023D01*
X476752142Y-139356547D01*
X476691666Y-139235595D01*
X476691666Y-139114642D01*
X476752142Y-138993690D01*
X476873095Y-138933214D01*
X477175476Y-138933214D01*
X477296428Y-138872738D01*
X477901190Y-138570357D02*
X477901190Y-139417023D01*
X477901190Y-138691309D02*
X477961666Y-138630833D01*
X478082619Y-138570357D01*
X478264047Y-138570357D01*
X478385000Y-138630833D01*
X478445476Y-138751785D01*
X478445476Y-139417023D01*
X478929285Y-138570357D02*
X479231666Y-139417023D01*
X479534047Y-138570357D02*
X479231666Y-139417023D01*
X479110714Y-139719404D01*
X479050238Y-139779880D01*
X478929285Y-139840357D01*
X463749761Y-140806785D02*
X463931190Y-140867261D01*
X463991666Y-140927738D01*
X464052142Y-141048690D01*
X464052142Y-141230119D01*
X463991666Y-141351071D01*
X463931190Y-141411547D01*
X463810238Y-141472023D01*
X463326428Y-141472023D01*
X463326428Y-140202023D01*
X463749761Y-140202023D01*
X463870714Y-140262500D01*
X463931190Y-140322976D01*
X463991666Y-140443928D01*
X463991666Y-140564880D01*
X463931190Y-140685833D01*
X463870714Y-140746309D01*
X463749761Y-140806785D01*
X463326428Y-140806785D01*
X464475476Y-140625357D02*
X464777857Y-141472023D01*
X465080238Y-140625357D02*
X464777857Y-141472023D01*
X464656904Y-141774404D01*
X464596428Y-141834880D01*
X464475476Y-141895357D01*
X466894523Y-140202023D02*
X466894523Y-141109166D01*
X466834047Y-141290595D01*
X466713095Y-141411547D01*
X466531666Y-141472023D01*
X466410714Y-141472023D01*
X468043571Y-141472023D02*
X468043571Y-140806785D01*
X467983095Y-140685833D01*
X467862142Y-140625357D01*
X467620238Y-140625357D01*
X467499285Y-140685833D01*
X468043571Y-141411547D02*
X467922619Y-141472023D01*
X467620238Y-141472023D01*
X467499285Y-141411547D01*
X467438809Y-141290595D01*
X467438809Y-141169642D01*
X467499285Y-141048690D01*
X467620238Y-140988214D01*
X467922619Y-140988214D01*
X468043571Y-140927738D01*
X468648333Y-141472023D02*
X468648333Y-140202023D01*
X468769285Y-140988214D02*
X469132142Y-141472023D01*
X469132142Y-140625357D02*
X468648333Y-141109166D01*
X470160238Y-141411547D02*
X470039285Y-141472023D01*
X469797380Y-141472023D01*
X469676428Y-141411547D01*
X469615952Y-141290595D01*
X469615952Y-140806785D01*
X469676428Y-140685833D01*
X469797380Y-140625357D01*
X470039285Y-140625357D01*
X470160238Y-140685833D01*
X470220714Y-140806785D01*
X470220714Y-140927738D01*
X469615952Y-141048690D01*
X471369761Y-141472023D02*
X470765000Y-141472023D01*
X470765000Y-140202023D01*
X471793095Y-141472023D02*
X471793095Y-140625357D01*
X471793095Y-140202023D02*
X471732619Y-140262500D01*
X471793095Y-140322976D01*
X471853571Y-140262500D01*
X471793095Y-140202023D01*
X471793095Y-140322976D01*
X472397857Y-141472023D02*
X472397857Y-140202023D01*
X472518809Y-140988214D02*
X472881666Y-141472023D01*
X472881666Y-140625357D02*
X472397857Y-141109166D01*
X473909761Y-141411547D02*
X473788809Y-141472023D01*
X473546904Y-141472023D01*
X473425952Y-141411547D01*
X473365476Y-141290595D01*
X473365476Y-140806785D01*
X473425952Y-140685833D01*
X473546904Y-140625357D01*
X473788809Y-140625357D01*
X473909761Y-140685833D01*
X473970238Y-140806785D01*
X473970238Y-140927738D01*
X473365476Y-141048690D01*
X474454047Y-141411547D02*
X474575000Y-141472023D01*
X474816904Y-141472023D01*
X474937857Y-141411547D01*
X474998333Y-141290595D01*
X474998333Y-141230119D01*
X474937857Y-141109166D01*
X474816904Y-141048690D01*
X474635476Y-141048690D01*
X474514523Y-140988214D01*
X474454047Y-140867261D01*
X474454047Y-140806785D01*
X474514523Y-140685833D01*
X474635476Y-140625357D01*
X474816904Y-140625357D01*
X474937857Y-140685833D01*
X476268333Y-141351071D02*
X476207857Y-141411547D01*
X476026428Y-141472023D01*
X475905476Y-141472023D01*
X475724047Y-141411547D01*
X475603095Y-141290595D01*
X475542619Y-141169642D01*
X475482142Y-140927738D01*
X475482142Y-140746309D01*
X475542619Y-140504404D01*
X475603095Y-140383452D01*
X475724047Y-140262500D01*
X475905476Y-140202023D01*
X476026428Y-140202023D01*
X476207857Y-140262500D01*
X476268333Y-140322976D01*
X477356904Y-141472023D02*
X477356904Y-140806785D01*
X477296428Y-140685833D01*
X477175476Y-140625357D01*
X476933571Y-140625357D01*
X476812619Y-140685833D01*
X477356904Y-141411547D02*
X477235952Y-141472023D01*
X476933571Y-141472023D01*
X476812619Y-141411547D01*
X476752142Y-141290595D01*
X476752142Y-141169642D01*
X476812619Y-141048690D01*
X476933571Y-140988214D01*
X477235952Y-140988214D01*
X477356904Y-140927738D01*
X477961666Y-141472023D02*
X477961666Y-140202023D01*
X478082619Y-140988214D02*
X478445476Y-141472023D01*
X478445476Y-140625357D02*
X477961666Y-141109166D01*
X479473571Y-141411547D02*
X479352619Y-141472023D01*
X479110714Y-141472023D01*
X478989761Y-141411547D01*
X478929285Y-141290595D01*
X478929285Y-140806785D01*
X478989761Y-140685833D01*
X479110714Y-140625357D01*
X479352619Y-140625357D01*
X479473571Y-140685833D01*
X479534047Y-140806785D01*
X479534047Y-140927738D01*
X478929285Y-141048690D01*
D11*
X407330000Y-143460000D02*
X407330000Y-141220000D01*
X407330000Y-141220000D02*
X403090000Y-141220000D01*
X403090000Y-141220000D02*
X403090000Y-143460000D01*
X403090000Y-143460000D02*
X407330000Y-143460000D01*
X409250000Y-142340000D02*
X407330000Y-142340000D01*
X401170000Y-142340000D02*
X403090000Y-142340000D01*
X406610000Y-143460000D02*
X406610000Y-141220000D01*
X406490000Y-143460000D02*
X406490000Y-141220000D01*
X406730000Y-143460000D02*
X406730000Y-141220000D01*
X407330000Y-140910000D02*
X407330000Y-138670000D01*
X407330000Y-138670000D02*
X403090000Y-138670000D01*
X403090000Y-138670000D02*
X403090000Y-140910000D01*
X403090000Y-140910000D02*
X407330000Y-140910000D01*
X409250000Y-139790000D02*
X407330000Y-139790000D01*
X401170000Y-139790000D02*
X403090000Y-139790000D01*
X406610000Y-140910000D02*
X406610000Y-138670000D01*
X406490000Y-140910000D02*
X406490000Y-138670000D01*
X406730000Y-140910000D02*
X406730000Y-138670000D01*
X388980000Y-148560000D02*
X388980000Y-146320000D01*
X388980000Y-146320000D02*
X384740000Y-146320000D01*
X384740000Y-146320000D02*
X384740000Y-148560000D01*
X384740000Y-148560000D02*
X388980000Y-148560000D01*
X390900000Y-147440000D02*
X388980000Y-147440000D01*
X382820000Y-147440000D02*
X384740000Y-147440000D01*
X388260000Y-148560000D02*
X388260000Y-146320000D01*
X388140000Y-148560000D02*
X388140000Y-146320000D01*
X388380000Y-148560000D02*
X388380000Y-146320000D01*
X388980000Y-146060000D02*
X388980000Y-143820000D01*
X388980000Y-143820000D02*
X384740000Y-143820000D01*
X384740000Y-143820000D02*
X384740000Y-146060000D01*
X384740000Y-146060000D02*
X388980000Y-146060000D01*
X390900000Y-144940000D02*
X388980000Y-144940000D01*
X382820000Y-144940000D02*
X384740000Y-144940000D01*
X388260000Y-146060000D02*
X388260000Y-143820000D01*
X388140000Y-146060000D02*
X388140000Y-143820000D01*
X388380000Y-146060000D02*
X388380000Y-143820000D01*
X388980000Y-143560000D02*
X388980000Y-141320000D01*
X388980000Y-141320000D02*
X384740000Y-141320000D01*
X384740000Y-141320000D02*
X384740000Y-143560000D01*
X384740000Y-143560000D02*
X388980000Y-143560000D01*
X390900000Y-142440000D02*
X388980000Y-142440000D01*
X382820000Y-142440000D02*
X384740000Y-142440000D01*
X388260000Y-143560000D02*
X388260000Y-141320000D01*
X388140000Y-143560000D02*
X388140000Y-141320000D01*
X388380000Y-143560000D02*
X388380000Y-141320000D01*
X388980000Y-141010000D02*
X388980000Y-138770000D01*
X388980000Y-138770000D02*
X384740000Y-138770000D01*
X384740000Y-138770000D02*
X384740000Y-141010000D01*
X384740000Y-141010000D02*
X388980000Y-141010000D01*
X390900000Y-139890000D02*
X388980000Y-139890000D01*
X382820000Y-139890000D02*
X384740000Y-139890000D01*
X388260000Y-141010000D02*
X388260000Y-138770000D01*
X388140000Y-141010000D02*
X388140000Y-138770000D01*
X388380000Y-141010000D02*
X388380000Y-138770000D01*
X388980000Y-138510000D02*
X388980000Y-136270000D01*
X388980000Y-136270000D02*
X384740000Y-136270000D01*
X384740000Y-136270000D02*
X384740000Y-138510000D01*
X384740000Y-138510000D02*
X388980000Y-138510000D01*
X390900000Y-137390000D02*
X388980000Y-137390000D01*
X382820000Y-137390000D02*
X384740000Y-137390000D01*
X388260000Y-138510000D02*
X388260000Y-136270000D01*
X388140000Y-138510000D02*
X388140000Y-136270000D01*
X388380000Y-138510000D02*
X388380000Y-136270000D01*
X388980000Y-135960000D02*
X388980000Y-133720000D01*
X388980000Y-133720000D02*
X384740000Y-133720000D01*
X384740000Y-133720000D02*
X384740000Y-135960000D01*
X384740000Y-135960000D02*
X388980000Y-135960000D01*
X390900000Y-134840000D02*
X388980000Y-134840000D01*
X382820000Y-134840000D02*
X384740000Y-134840000D01*
X388260000Y-135960000D02*
X388260000Y-133720000D01*
X388140000Y-135960000D02*
X388140000Y-133720000D01*
X388380000Y-135960000D02*
X388380000Y-133720000D01*
X372427000Y-148640000D02*
X372427000Y-146400000D01*
X372427000Y-146400000D02*
X368187000Y-146400000D01*
X368187000Y-146400000D02*
X368187000Y-148640000D01*
X368187000Y-148640000D02*
X372427000Y-148640000D01*
X374347000Y-147520000D02*
X372427000Y-147520000D01*
X366267000Y-147520000D02*
X368187000Y-147520000D01*
X371707000Y-148640000D02*
X371707000Y-146400000D01*
X371587000Y-148640000D02*
X371587000Y-146400000D01*
X371827000Y-148640000D02*
X371827000Y-146400000D01*
X372427000Y-138505400D02*
X372427000Y-136265400D01*
X372427000Y-136265400D02*
X368187000Y-136265400D01*
X368187000Y-136265400D02*
X368187000Y-138505400D01*
X368187000Y-138505400D02*
X372427000Y-138505400D01*
X374347000Y-137385400D02*
X372427000Y-137385400D01*
X366267000Y-137385400D02*
X368187000Y-137385400D01*
X371707000Y-138505400D02*
X371707000Y-136265400D01*
X371587000Y-138505400D02*
X371587000Y-136265400D01*
X371827000Y-138505400D02*
X371827000Y-136265400D01*
X372427000Y-141045400D02*
X372427000Y-138805400D01*
X372427000Y-138805400D02*
X368187000Y-138805400D01*
X368187000Y-138805400D02*
X368187000Y-141045400D01*
X368187000Y-141045400D02*
X372427000Y-141045400D01*
X374347000Y-139925400D02*
X372427000Y-139925400D01*
X366267000Y-139925400D02*
X368187000Y-139925400D01*
X371707000Y-141045400D02*
X371707000Y-138805400D01*
X371587000Y-141045400D02*
X371587000Y-138805400D01*
X371827000Y-141045400D02*
X371827000Y-138805400D01*
X372427000Y-143560000D02*
X372427000Y-141320000D01*
X372427000Y-141320000D02*
X368187000Y-141320000D01*
X368187000Y-141320000D02*
X368187000Y-143560000D01*
X368187000Y-143560000D02*
X372427000Y-143560000D01*
X374347000Y-142440000D02*
X372427000Y-142440000D01*
X366267000Y-142440000D02*
X368187000Y-142440000D01*
X371707000Y-143560000D02*
X371707000Y-141320000D01*
X371587000Y-143560000D02*
X371587000Y-141320000D01*
X371827000Y-143560000D02*
X371827000Y-141320000D01*
X372427000Y-146100000D02*
X372427000Y-143860000D01*
X372427000Y-143860000D02*
X368187000Y-143860000D01*
X368187000Y-143860000D02*
X368187000Y-146100000D01*
X368187000Y-146100000D02*
X372427000Y-146100000D01*
X374347000Y-144980000D02*
X372427000Y-144980000D01*
X366267000Y-144980000D02*
X368187000Y-144980000D01*
X371707000Y-146100000D02*
X371707000Y-143860000D01*
X371587000Y-146100000D02*
X371587000Y-143860000D01*
X371827000Y-146100000D02*
X371827000Y-143860000D01*
X372430000Y-135960000D02*
X372430000Y-133720000D01*
X372430000Y-133720000D02*
X368190000Y-133720000D01*
X368190000Y-133720000D02*
X368190000Y-135960000D01*
X368190000Y-135960000D02*
X372430000Y-135960000D01*
X374350000Y-134840000D02*
X372430000Y-134840000D01*
X366270000Y-134840000D02*
X368190000Y-134840000D01*
X371710000Y-135960000D02*
X371710000Y-133720000D01*
X371590000Y-135960000D02*
X371590000Y-133720000D01*
X371830000Y-135960000D02*
X371830000Y-133720000D01*
X356190000Y-148670000D02*
X356190000Y-146430000D01*
X356190000Y-146430000D02*
X351950000Y-146430000D01*
X351950000Y-146430000D02*
X351950000Y-148670000D01*
X351950000Y-148670000D02*
X356190000Y-148670000D01*
X358110000Y-147550000D02*
X356190000Y-147550000D01*
X350030000Y-147550000D02*
X351950000Y-147550000D01*
X355470000Y-148670000D02*
X355470000Y-146430000D01*
X355350000Y-148670000D02*
X355350000Y-146430000D01*
X355590000Y-148670000D02*
X355590000Y-146430000D01*
X356190000Y-146120000D02*
X356190000Y-143880000D01*
X356190000Y-143880000D02*
X351950000Y-143880000D01*
X351950000Y-143880000D02*
X351950000Y-146120000D01*
X351950000Y-146120000D02*
X356190000Y-146120000D01*
X358110000Y-145000000D02*
X356190000Y-145000000D01*
X350030000Y-145000000D02*
X351950000Y-145000000D01*
X355470000Y-146120000D02*
X355470000Y-143880000D01*
X355350000Y-146120000D02*
X355350000Y-143880000D01*
X355590000Y-146120000D02*
X355590000Y-143880000D01*
X356190000Y-143570000D02*
X356190000Y-141330000D01*
X356190000Y-141330000D02*
X351950000Y-141330000D01*
X351950000Y-141330000D02*
X351950000Y-143570000D01*
X351950000Y-143570000D02*
X356190000Y-143570000D01*
X358110000Y-142450000D02*
X356190000Y-142450000D01*
X350030000Y-142450000D02*
X351950000Y-142450000D01*
X355470000Y-143570000D02*
X355470000Y-141330000D01*
X355350000Y-143570000D02*
X355350000Y-141330000D01*
X355590000Y-143570000D02*
X355590000Y-141330000D01*
X356180000Y-141010000D02*
X356180000Y-138770000D01*
X356180000Y-138770000D02*
X351940000Y-138770000D01*
X351940000Y-138770000D02*
X351940000Y-141010000D01*
X351940000Y-141010000D02*
X356180000Y-141010000D01*
X358100000Y-139890000D02*
X356180000Y-139890000D01*
X350020000Y-139890000D02*
X351940000Y-139890000D01*
X355460000Y-141010000D02*
X355460000Y-138770000D01*
X355340000Y-141010000D02*
X355340000Y-138770000D01*
X355580000Y-141010000D02*
X355580000Y-138770000D01*
X356180000Y-138470000D02*
X356180000Y-136230000D01*
X356180000Y-136230000D02*
X351940000Y-136230000D01*
X351940000Y-136230000D02*
X351940000Y-138470000D01*
X351940000Y-138470000D02*
X356180000Y-138470000D01*
X358100000Y-137350000D02*
X356180000Y-137350000D01*
X350020000Y-137350000D02*
X351940000Y-137350000D01*
X355460000Y-138470000D02*
X355460000Y-136230000D01*
X355340000Y-138470000D02*
X355340000Y-136230000D01*
X355580000Y-138470000D02*
X355580000Y-136230000D01*
X356180000Y-135960000D02*
X356180000Y-133720000D01*
X356180000Y-133720000D02*
X351940000Y-133720000D01*
X351940000Y-133720000D02*
X351940000Y-135960000D01*
X351940000Y-135960000D02*
X356180000Y-135960000D01*
X358100000Y-134840000D02*
X356180000Y-134840000D01*
X350020000Y-134840000D02*
X351940000Y-134840000D01*
X355460000Y-135960000D02*
X355460000Y-133720000D01*
X355340000Y-135960000D02*
X355340000Y-133720000D01*
X355580000Y-135960000D02*
X355580000Y-133720000D01*
X340090000Y-148670000D02*
X340090000Y-146430000D01*
X340090000Y-146430000D02*
X335850000Y-146430000D01*
X335850000Y-146430000D02*
X335850000Y-148670000D01*
X335850000Y-148670000D02*
X340090000Y-148670000D01*
X342010000Y-147550000D02*
X340090000Y-147550000D01*
X333930000Y-147550000D02*
X335850000Y-147550000D01*
X339370000Y-148670000D02*
X339370000Y-146430000D01*
X339250000Y-148670000D02*
X339250000Y-146430000D01*
X339490000Y-148670000D02*
X339490000Y-146430000D01*
X340080000Y-146110000D02*
X340080000Y-143870000D01*
X340080000Y-143870000D02*
X335840000Y-143870000D01*
X335840000Y-143870000D02*
X335840000Y-146110000D01*
X335840000Y-146110000D02*
X340080000Y-146110000D01*
X342000000Y-144990000D02*
X340080000Y-144990000D01*
X333920000Y-144990000D02*
X335840000Y-144990000D01*
X339360000Y-146110000D02*
X339360000Y-143870000D01*
X339240000Y-146110000D02*
X339240000Y-143870000D01*
X339480000Y-146110000D02*
X339480000Y-143870000D01*
X340030000Y-143560000D02*
X340030000Y-141320000D01*
X340030000Y-141320000D02*
X335790000Y-141320000D01*
X335790000Y-141320000D02*
X335790000Y-143560000D01*
X335790000Y-143560000D02*
X340030000Y-143560000D01*
X341950000Y-142440000D02*
X340030000Y-142440000D01*
X333870000Y-142440000D02*
X335790000Y-142440000D01*
X339310000Y-143560000D02*
X339310000Y-141320000D01*
X339190000Y-143560000D02*
X339190000Y-141320000D01*
X339430000Y-143560000D02*
X339430000Y-141320000D01*
X340080000Y-141010000D02*
X340080000Y-138770000D01*
X340080000Y-138770000D02*
X335840000Y-138770000D01*
X335840000Y-138770000D02*
X335840000Y-141010000D01*
X335840000Y-141010000D02*
X340080000Y-141010000D01*
X342000000Y-139890000D02*
X340080000Y-139890000D01*
X333920000Y-139890000D02*
X335840000Y-139890000D01*
X339360000Y-141010000D02*
X339360000Y-138770000D01*
X339240000Y-141010000D02*
X339240000Y-138770000D01*
X339480000Y-141010000D02*
X339480000Y-138770000D01*
X340130000Y-138460000D02*
X340130000Y-136220000D01*
X340130000Y-136220000D02*
X335890000Y-136220000D01*
X335890000Y-136220000D02*
X335890000Y-138460000D01*
X335890000Y-138460000D02*
X340130000Y-138460000D01*
X342050000Y-137340000D02*
X340130000Y-137340000D01*
X333970000Y-137340000D02*
X335890000Y-137340000D01*
X339410000Y-138460000D02*
X339410000Y-136220000D01*
X339290000Y-138460000D02*
X339290000Y-136220000D01*
X339530000Y-138460000D02*
X339530000Y-136220000D01*
X340130000Y-135960000D02*
X340130000Y-133720000D01*
X340130000Y-133720000D02*
X335890000Y-133720000D01*
X335890000Y-133720000D02*
X335890000Y-135960000D01*
X335890000Y-135960000D02*
X340130000Y-135960000D01*
X342050000Y-134840000D02*
X340130000Y-134840000D01*
X333970000Y-134840000D02*
X335890000Y-134840000D01*
X339410000Y-135960000D02*
X339410000Y-133720000D01*
X339290000Y-135960000D02*
X339290000Y-133720000D01*
X339530000Y-135960000D02*
X339530000Y-133720000D01*
X324280000Y-148560000D02*
X324280000Y-146320000D01*
X324280000Y-146320000D02*
X320040000Y-146320000D01*
X320040000Y-146320000D02*
X320040000Y-148560000D01*
X320040000Y-148560000D02*
X324280000Y-148560000D01*
X326200000Y-147440000D02*
X324280000Y-147440000D01*
X318120000Y-147440000D02*
X320040000Y-147440000D01*
X323560000Y-148560000D02*
X323560000Y-146320000D01*
X323440000Y-148560000D02*
X323440000Y-146320000D01*
X323680000Y-148560000D02*
X323680000Y-146320000D01*
X324280000Y-146010000D02*
X324280000Y-143770000D01*
X324280000Y-143770000D02*
X320040000Y-143770000D01*
X320040000Y-143770000D02*
X320040000Y-146010000D01*
X320040000Y-146010000D02*
X324280000Y-146010000D01*
X326200000Y-144890000D02*
X324280000Y-144890000D01*
X318120000Y-144890000D02*
X320040000Y-144890000D01*
X323560000Y-146010000D02*
X323560000Y-143770000D01*
X323440000Y-146010000D02*
X323440000Y-143770000D01*
X323680000Y-146010000D02*
X323680000Y-143770000D01*
X324280000Y-143460000D02*
X324280000Y-141220000D01*
X324280000Y-141220000D02*
X320040000Y-141220000D01*
X320040000Y-141220000D02*
X320040000Y-143460000D01*
X320040000Y-143460000D02*
X324280000Y-143460000D01*
X326200000Y-142340000D02*
X324280000Y-142340000D01*
X318120000Y-142340000D02*
X320040000Y-142340000D01*
X323560000Y-143460000D02*
X323560000Y-141220000D01*
X323440000Y-143460000D02*
X323440000Y-141220000D01*
X323680000Y-143460000D02*
X323680000Y-141220000D01*
X324280000Y-140960000D02*
X324280000Y-138720000D01*
X324280000Y-138720000D02*
X320040000Y-138720000D01*
X320040000Y-138720000D02*
X320040000Y-140960000D01*
X320040000Y-140960000D02*
X324280000Y-140960000D01*
X326200000Y-139840000D02*
X324280000Y-139840000D01*
X318120000Y-139840000D02*
X320040000Y-139840000D01*
X323560000Y-140960000D02*
X323560000Y-138720000D01*
X323440000Y-140960000D02*
X323440000Y-138720000D01*
X323680000Y-140960000D02*
X323680000Y-138720000D01*
X324280000Y-138410000D02*
X324280000Y-136170000D01*
X324280000Y-136170000D02*
X320040000Y-136170000D01*
X320040000Y-136170000D02*
X320040000Y-138410000D01*
X320040000Y-138410000D02*
X324280000Y-138410000D01*
X326200000Y-137290000D02*
X324280000Y-137290000D01*
X318120000Y-137290000D02*
X320040000Y-137290000D01*
X323560000Y-138410000D02*
X323560000Y-136170000D01*
X323440000Y-138410000D02*
X323440000Y-136170000D01*
X323680000Y-138410000D02*
X323680000Y-136170000D01*
X324280000Y-135860000D02*
X324280000Y-133620000D01*
X324280000Y-133620000D02*
X320040000Y-133620000D01*
X320040000Y-133620000D02*
X320040000Y-135860000D01*
X320040000Y-135860000D02*
X324280000Y-135860000D01*
X326200000Y-134740000D02*
X324280000Y-134740000D01*
X318120000Y-134740000D02*
X320040000Y-134740000D01*
X323560000Y-135860000D02*
X323560000Y-133620000D01*
X323440000Y-135860000D02*
X323440000Y-133620000D01*
X323680000Y-135860000D02*
X323680000Y-133620000D01*
X308380000Y-148810000D02*
X308380000Y-146570000D01*
X308380000Y-146570000D02*
X304140000Y-146570000D01*
X304140000Y-146570000D02*
X304140000Y-148810000D01*
X304140000Y-148810000D02*
X308380000Y-148810000D01*
X310300000Y-147690000D02*
X308380000Y-147690000D01*
X302220000Y-147690000D02*
X304140000Y-147690000D01*
X307660000Y-148810000D02*
X307660000Y-146570000D01*
X307540000Y-148810000D02*
X307540000Y-146570000D01*
X307780000Y-148810000D02*
X307780000Y-146570000D01*
X308430000Y-146260000D02*
X308430000Y-144020000D01*
X308430000Y-144020000D02*
X304190000Y-144020000D01*
X304190000Y-144020000D02*
X304190000Y-146260000D01*
X304190000Y-146260000D02*
X308430000Y-146260000D01*
X310350000Y-145140000D02*
X308430000Y-145140000D01*
X302270000Y-145140000D02*
X304190000Y-145140000D01*
X307710000Y-146260000D02*
X307710000Y-144020000D01*
X307590000Y-146260000D02*
X307590000Y-144020000D01*
X307830000Y-146260000D02*
X307830000Y-144020000D01*
X308430000Y-143710000D02*
X308430000Y-141470000D01*
X308430000Y-141470000D02*
X304190000Y-141470000D01*
X304190000Y-141470000D02*
X304190000Y-143710000D01*
X304190000Y-143710000D02*
X308430000Y-143710000D01*
X310350000Y-142590000D02*
X308430000Y-142590000D01*
X302270000Y-142590000D02*
X304190000Y-142590000D01*
X307710000Y-143710000D02*
X307710000Y-141470000D01*
X307590000Y-143710000D02*
X307590000Y-141470000D01*
X307830000Y-143710000D02*
X307830000Y-141470000D01*
X308380000Y-141160000D02*
X308380000Y-138920000D01*
X308380000Y-138920000D02*
X304140000Y-138920000D01*
X304140000Y-138920000D02*
X304140000Y-141160000D01*
X304140000Y-141160000D02*
X308380000Y-141160000D01*
X310300000Y-140040000D02*
X308380000Y-140040000D01*
X302220000Y-140040000D02*
X304140000Y-140040000D01*
X307660000Y-141160000D02*
X307660000Y-138920000D01*
X307540000Y-141160000D02*
X307540000Y-138920000D01*
X307780000Y-141160000D02*
X307780000Y-138920000D01*
X308430000Y-138610000D02*
X308430000Y-136370000D01*
X308430000Y-136370000D02*
X304190000Y-136370000D01*
X304190000Y-136370000D02*
X304190000Y-138610000D01*
X304190000Y-138610000D02*
X308430000Y-138610000D01*
X310350000Y-137490000D02*
X308430000Y-137490000D01*
X302270000Y-137490000D02*
X304190000Y-137490000D01*
X307710000Y-138610000D02*
X307710000Y-136370000D01*
X307590000Y-138610000D02*
X307590000Y-136370000D01*
X307830000Y-138610000D02*
X307830000Y-136370000D01*
X308380000Y-135960000D02*
X308380000Y-133720000D01*
X308380000Y-133720000D02*
X304140000Y-133720000D01*
X304140000Y-133720000D02*
X304140000Y-135960000D01*
X304140000Y-135960000D02*
X308380000Y-135960000D01*
X310300000Y-134840000D02*
X308380000Y-134840000D01*
X302220000Y-134840000D02*
X304140000Y-134840000D01*
X307660000Y-135960000D02*
X307660000Y-133720000D01*
X307540000Y-135960000D02*
X307540000Y-133720000D01*
X307780000Y-135960000D02*
X307780000Y-133720000D01*
X292380000Y-148610000D02*
X292380000Y-146370000D01*
X292380000Y-146370000D02*
X288140000Y-146370000D01*
X288140000Y-146370000D02*
X288140000Y-148610000D01*
X288140000Y-148610000D02*
X292380000Y-148610000D01*
X294300000Y-147490000D02*
X292380000Y-147490000D01*
X286220000Y-147490000D02*
X288140000Y-147490000D01*
X291660000Y-148610000D02*
X291660000Y-146370000D01*
X291540000Y-148610000D02*
X291540000Y-146370000D01*
X291780000Y-148610000D02*
X291780000Y-146370000D01*
X292330000Y-146060000D02*
X292330000Y-143820000D01*
X292330000Y-143820000D02*
X288090000Y-143820000D01*
X288090000Y-143820000D02*
X288090000Y-146060000D01*
X288090000Y-146060000D02*
X292330000Y-146060000D01*
X294250000Y-144940000D02*
X292330000Y-144940000D01*
X286170000Y-144940000D02*
X288090000Y-144940000D01*
X291610000Y-146060000D02*
X291610000Y-143820000D01*
X291490000Y-146060000D02*
X291490000Y-143820000D01*
X291730000Y-146060000D02*
X291730000Y-143820000D01*
X292330000Y-143560000D02*
X292330000Y-141320000D01*
X292330000Y-141320000D02*
X288090000Y-141320000D01*
X288090000Y-141320000D02*
X288090000Y-143560000D01*
X288090000Y-143560000D02*
X292330000Y-143560000D01*
X294250000Y-142440000D02*
X292330000Y-142440000D01*
X286170000Y-142440000D02*
X288090000Y-142440000D01*
X291610000Y-143560000D02*
X291610000Y-141320000D01*
X291490000Y-143560000D02*
X291490000Y-141320000D01*
X291730000Y-143560000D02*
X291730000Y-141320000D01*
X292330000Y-141010000D02*
X292330000Y-138770000D01*
X292330000Y-138770000D02*
X288090000Y-138770000D01*
X288090000Y-138770000D02*
X288090000Y-141010000D01*
X288090000Y-141010000D02*
X292330000Y-141010000D01*
X294250000Y-139890000D02*
X292330000Y-139890000D01*
X286170000Y-139890000D02*
X288090000Y-139890000D01*
X291610000Y-141010000D02*
X291610000Y-138770000D01*
X291490000Y-141010000D02*
X291490000Y-138770000D01*
X291730000Y-141010000D02*
X291730000Y-138770000D01*
X292330000Y-138460000D02*
X292330000Y-136220000D01*
X292330000Y-136220000D02*
X288090000Y-136220000D01*
X288090000Y-136220000D02*
X288090000Y-138460000D01*
X288090000Y-138460000D02*
X292330000Y-138460000D01*
X294250000Y-137340000D02*
X292330000Y-137340000D01*
X286170000Y-137340000D02*
X288090000Y-137340000D01*
X291610000Y-138460000D02*
X291610000Y-136220000D01*
X291490000Y-138460000D02*
X291490000Y-136220000D01*
X291730000Y-138460000D02*
X291730000Y-136220000D01*
X292330000Y-135910000D02*
X292330000Y-133670000D01*
X292330000Y-133670000D02*
X288090000Y-133670000D01*
X288090000Y-133670000D02*
X288090000Y-135910000D01*
X288090000Y-135910000D02*
X292330000Y-135910000D01*
X294250000Y-134790000D02*
X292330000Y-134790000D01*
X286170000Y-134790000D02*
X288090000Y-134790000D01*
X291610000Y-135910000D02*
X291610000Y-133670000D01*
X291490000Y-135910000D02*
X291490000Y-133670000D01*
X291730000Y-135910000D02*
X291730000Y-133670000D01*
X276160000Y-140300000D02*
X273920000Y-140300000D01*
X273920000Y-140300000D02*
X273920000Y-144540000D01*
X273920000Y-144540000D02*
X276160000Y-144540000D01*
X276160000Y-144540000D02*
X276160000Y-140300000D01*
X275040000Y-138380000D02*
X275040000Y-140300000D01*
X275040000Y-146460000D02*
X275040000Y-144540000D01*
X276160000Y-141020000D02*
X273920000Y-141020000D01*
X276160000Y-141140000D02*
X273920000Y-141140000D01*
X276160000Y-140900000D02*
X273920000Y-140900000D01*
X273010000Y-137600000D02*
X270770000Y-137600000D01*
X270770000Y-137600000D02*
X270770000Y-141840000D01*
X270770000Y-141840000D02*
X273010000Y-141840000D01*
X273010000Y-141840000D02*
X273010000Y-137600000D01*
X271890000Y-135680000D02*
X271890000Y-137600000D01*
X271890000Y-143760000D02*
X271890000Y-141840000D01*
X273010000Y-138320000D02*
X270770000Y-138320000D01*
X273010000Y-138440000D02*
X270770000Y-138440000D01*
X273010000Y-138200000D02*
X270770000Y-138200000D01*
X270110000Y-140300000D02*
X267870000Y-140300000D01*
X267870000Y-140300000D02*
X267870000Y-144540000D01*
X267870000Y-144540000D02*
X270110000Y-144540000D01*
X270110000Y-144540000D02*
X270110000Y-140300000D01*
X268990000Y-138380000D02*
X268990000Y-140300000D01*
X268990000Y-146460000D02*
X268990000Y-144540000D01*
X270110000Y-141020000D02*
X267870000Y-141020000D01*
X270110000Y-141140000D02*
X267870000Y-141140000D01*
X270110000Y-140900000D02*
X267870000Y-140900000D01*
X267060000Y-137600000D02*
X264820000Y-137600000D01*
X264820000Y-137600000D02*
X264820000Y-141840000D01*
X264820000Y-141840000D02*
X267060000Y-141840000D01*
X267060000Y-141840000D02*
X267060000Y-137600000D01*
X265940000Y-135680000D02*
X265940000Y-137600000D01*
X265940000Y-143760000D02*
X265940000Y-141840000D01*
X267060000Y-138320000D02*
X264820000Y-138320000D01*
X267060000Y-138440000D02*
X264820000Y-138440000D01*
X267060000Y-138200000D02*
X264820000Y-138200000D01*
X264010000Y-140400000D02*
X261770000Y-140400000D01*
X261770000Y-140400000D02*
X261770000Y-144640000D01*
X261770000Y-144640000D02*
X264010000Y-144640000D01*
X264010000Y-144640000D02*
X264010000Y-140400000D01*
X262890000Y-138480000D02*
X262890000Y-140400000D01*
X262890000Y-146560000D02*
X262890000Y-144640000D01*
X264010000Y-141120000D02*
X261770000Y-141120000D01*
X264010000Y-141240000D02*
X261770000Y-141240000D01*
X264010000Y-141000000D02*
X261770000Y-141000000D01*
X261010000Y-137640000D02*
X258770000Y-137640000D01*
X258770000Y-137640000D02*
X258770000Y-141880000D01*
X258770000Y-141880000D02*
X261010000Y-141880000D01*
X261010000Y-141880000D02*
X261010000Y-137640000D01*
X259890000Y-135720000D02*
X259890000Y-137640000D01*
X259890000Y-143800000D02*
X259890000Y-141880000D01*
X261010000Y-138360000D02*
X258770000Y-138360000D01*
X261010000Y-138480000D02*
X258770000Y-138480000D01*
X261010000Y-138240000D02*
X258770000Y-138240000D01*
X258110000Y-140300000D02*
X255870000Y-140300000D01*
X255870000Y-140300000D02*
X255870000Y-144540000D01*
X255870000Y-144540000D02*
X258110000Y-144540000D01*
X258110000Y-144540000D02*
X258110000Y-140300000D01*
X256990000Y-138380000D02*
X256990000Y-140300000D01*
X256990000Y-146460000D02*
X256990000Y-144540000D01*
X258110000Y-141020000D02*
X255870000Y-141020000D01*
X258110000Y-141140000D02*
X255870000Y-141140000D01*
X258110000Y-140900000D02*
X255870000Y-140900000D01*
X255060000Y-137550000D02*
X252820000Y-137550000D01*
X252820000Y-137550000D02*
X252820000Y-141790000D01*
X252820000Y-141790000D02*
X255060000Y-141790000D01*
X255060000Y-141790000D02*
X255060000Y-137550000D01*
X253940000Y-135630000D02*
X253940000Y-137550000D01*
X253940000Y-143710000D02*
X253940000Y-141790000D01*
X255060000Y-138270000D02*
X252820000Y-138270000D01*
X255060000Y-138390000D02*
X252820000Y-138390000D01*
X255060000Y-138150000D02*
X252820000Y-138150000D01*
X251810000Y-140300000D02*
X249570000Y-140300000D01*
X249570000Y-140300000D02*
X249570000Y-144540000D01*
X249570000Y-144540000D02*
X251810000Y-144540000D01*
X251810000Y-144540000D02*
X251810000Y-140300000D01*
X250690000Y-138380000D02*
X250690000Y-140300000D01*
X250690000Y-146460000D02*
X250690000Y-144540000D01*
X251810000Y-141020000D02*
X249570000Y-141020000D01*
X251810000Y-141140000D02*
X249570000Y-141140000D01*
X251810000Y-140900000D02*
X249570000Y-140900000D01*
X248610000Y-137550000D02*
X246370000Y-137550000D01*
X246370000Y-137550000D02*
X246370000Y-141790000D01*
X246370000Y-141790000D02*
X248610000Y-141790000D01*
X248610000Y-141790000D02*
X248610000Y-137550000D01*
X247490000Y-135630000D02*
X247490000Y-137550000D01*
X247490000Y-143710000D02*
X247490000Y-141790000D01*
X248610000Y-138270000D02*
X246370000Y-138270000D01*
X248610000Y-138390000D02*
X246370000Y-138390000D01*
X248610000Y-138150000D02*
X246370000Y-138150000D01*
X245360000Y-140250000D02*
X243120000Y-140250000D01*
X243120000Y-140250000D02*
X243120000Y-144490000D01*
X243120000Y-144490000D02*
X245360000Y-144490000D01*
X245360000Y-144490000D02*
X245360000Y-140250000D01*
X244240000Y-138330000D02*
X244240000Y-140250000D01*
X244240000Y-146410000D02*
X244240000Y-144490000D01*
X245360000Y-140970000D02*
X243120000Y-140970000D01*
X245360000Y-141090000D02*
X243120000Y-141090000D01*
X245360000Y-140850000D02*
X243120000Y-140850000D01*
X242160000Y-137600000D02*
X239920000Y-137600000D01*
X239920000Y-137600000D02*
X239920000Y-141840000D01*
X239920000Y-141840000D02*
X242160000Y-141840000D01*
X242160000Y-141840000D02*
X242160000Y-137600000D01*
X241040000Y-135680000D02*
X241040000Y-137600000D01*
X241040000Y-143760000D02*
X241040000Y-141840000D01*
X242160000Y-138320000D02*
X239920000Y-138320000D01*
X242160000Y-138440000D02*
X239920000Y-138440000D01*
X242160000Y-138200000D02*
X239920000Y-138200000D01*
X239010000Y-140300000D02*
X236770000Y-140300000D01*
X236770000Y-140300000D02*
X236770000Y-144540000D01*
X236770000Y-144540000D02*
X239010000Y-144540000D01*
X239010000Y-144540000D02*
X239010000Y-140300000D01*
X237890000Y-138380000D02*
X237890000Y-140300000D01*
X237890000Y-146460000D02*
X237890000Y-144540000D01*
X239010000Y-141020000D02*
X236770000Y-141020000D01*
X239010000Y-141140000D02*
X236770000Y-141140000D01*
X239010000Y-140900000D02*
X236770000Y-140900000D01*
X235810000Y-137600000D02*
X233570000Y-137600000D01*
X233570000Y-137600000D02*
X233570000Y-141840000D01*
X233570000Y-141840000D02*
X235810000Y-141840000D01*
X235810000Y-141840000D02*
X235810000Y-137600000D01*
X234690000Y-135680000D02*
X234690000Y-137600000D01*
X234690000Y-143760000D02*
X234690000Y-141840000D01*
X235810000Y-138320000D02*
X233570000Y-138320000D01*
X235810000Y-138440000D02*
X233570000Y-138440000D01*
X235810000Y-138200000D02*
X233570000Y-138200000D01*
X232710000Y-140250000D02*
X230470000Y-140250000D01*
X230470000Y-140250000D02*
X230470000Y-144490000D01*
X230470000Y-144490000D02*
X232710000Y-144490000D01*
X232710000Y-144490000D02*
X232710000Y-140250000D01*
X231590000Y-138330000D02*
X231590000Y-140250000D01*
X231590000Y-146410000D02*
X231590000Y-144490000D01*
X232710000Y-140970000D02*
X230470000Y-140970000D01*
X232710000Y-141090000D02*
X230470000Y-141090000D01*
X232710000Y-140850000D02*
X230470000Y-140850000D01*
X229710000Y-137700000D02*
X227470000Y-137700000D01*
X227470000Y-137700000D02*
X227470000Y-141940000D01*
X227470000Y-141940000D02*
X229710000Y-141940000D01*
X229710000Y-141940000D02*
X229710000Y-137700000D01*
X228590000Y-135780000D02*
X228590000Y-137700000D01*
X228590000Y-143860000D02*
X228590000Y-141940000D01*
X229710000Y-138420000D02*
X227470000Y-138420000D01*
X229710000Y-138540000D02*
X227470000Y-138540000D01*
X229710000Y-138300000D02*
X227470000Y-138300000D01*
X217560000Y-137650000D02*
X215320000Y-137650000D01*
X215320000Y-137650000D02*
X215320000Y-141890000D01*
X215320000Y-141890000D02*
X217560000Y-141890000D01*
X217560000Y-141890000D02*
X217560000Y-137650000D01*
X216440000Y-135730000D02*
X216440000Y-137650000D01*
X216440000Y-143810000D02*
X216440000Y-141890000D01*
X217560000Y-138370000D02*
X215320000Y-138370000D01*
X217560000Y-138490000D02*
X215320000Y-138490000D01*
X217560000Y-138250000D02*
X215320000Y-138250000D01*
X214710000Y-140200000D02*
X212470000Y-140200000D01*
X212470000Y-140200000D02*
X212470000Y-144440000D01*
X212470000Y-144440000D02*
X214710000Y-144440000D01*
X214710000Y-144440000D02*
X214710000Y-140200000D01*
X213590000Y-138280000D02*
X213590000Y-140200000D01*
X213590000Y-146360000D02*
X213590000Y-144440000D01*
X214710000Y-140920000D02*
X212470000Y-140920000D01*
X214710000Y-141040000D02*
X212470000Y-141040000D01*
X214710000Y-140800000D02*
X212470000Y-140800000D01*
X226460000Y-140200000D02*
X224220000Y-140200000D01*
X224220000Y-140200000D02*
X224220000Y-144440000D01*
X224220000Y-144440000D02*
X226460000Y-144440000D01*
X226460000Y-144440000D02*
X226460000Y-140200000D01*
X225340000Y-138280000D02*
X225340000Y-140200000D01*
X225340000Y-146360000D02*
X225340000Y-144440000D01*
X226460000Y-140920000D02*
X224220000Y-140920000D01*
X226460000Y-141040000D02*
X224220000Y-141040000D01*
X226460000Y-140800000D02*
X224220000Y-140800000D01*
X223610000Y-137550000D02*
X221370000Y-137550000D01*
X221370000Y-137550000D02*
X221370000Y-141790000D01*
X221370000Y-141790000D02*
X223610000Y-141790000D01*
X223610000Y-141790000D02*
X223610000Y-137550000D01*
X222490000Y-135630000D02*
X222490000Y-137550000D01*
X222490000Y-143710000D02*
X222490000Y-141790000D01*
X223610000Y-138270000D02*
X221370000Y-138270000D01*
X223610000Y-138390000D02*
X221370000Y-138390000D01*
X223610000Y-138150000D02*
X221370000Y-138150000D01*
X220660000Y-140250000D02*
X218420000Y-140250000D01*
X218420000Y-140250000D02*
X218420000Y-144490000D01*
X218420000Y-144490000D02*
X220660000Y-144490000D01*
X220660000Y-144490000D02*
X220660000Y-140250000D01*
X219540000Y-138330000D02*
X219540000Y-140250000D01*
X219540000Y-146410000D02*
X219540000Y-144490000D01*
X220660000Y-140970000D02*
X218420000Y-140970000D01*
X220660000Y-141090000D02*
X218420000Y-141090000D01*
X220660000Y-140850000D02*
X218420000Y-140850000D01*
X211510000Y-137600000D02*
X209270000Y-137600000D01*
X209270000Y-137600000D02*
X209270000Y-141840000D01*
X209270000Y-141840000D02*
X211510000Y-141840000D01*
X211510000Y-141840000D02*
X211510000Y-137600000D01*
X210390000Y-135680000D02*
X210390000Y-137600000D01*
X210390000Y-143760000D02*
X210390000Y-141840000D01*
X211510000Y-138320000D02*
X209270000Y-138320000D01*
X211510000Y-138440000D02*
X209270000Y-138440000D01*
X211510000Y-138200000D02*
X209270000Y-138200000D01*
X208460000Y-140250000D02*
X206220000Y-140250000D01*
X206220000Y-140250000D02*
X206220000Y-144490000D01*
X206220000Y-144490000D02*
X208460000Y-144490000D01*
X208460000Y-144490000D02*
X208460000Y-140250000D01*
X207340000Y-138330000D02*
X207340000Y-140250000D01*
X207340000Y-146410000D02*
X207340000Y-144490000D01*
X208460000Y-140970000D02*
X206220000Y-140970000D01*
X208460000Y-141090000D02*
X206220000Y-141090000D01*
X208460000Y-140850000D02*
X206220000Y-140850000D01*
X205460000Y-137550000D02*
X203220000Y-137550000D01*
X203220000Y-137550000D02*
X203220000Y-141790000D01*
X203220000Y-141790000D02*
X205460000Y-141790000D01*
X205460000Y-141790000D02*
X205460000Y-137550000D01*
X204340000Y-135630000D02*
X204340000Y-137550000D01*
X204340000Y-143710000D02*
X204340000Y-141790000D01*
X205460000Y-138270000D02*
X203220000Y-138270000D01*
X205460000Y-138390000D02*
X203220000Y-138390000D01*
X205460000Y-138150000D02*
X203220000Y-138150000D01*
X202460000Y-140350000D02*
X200220000Y-140350000D01*
X200220000Y-140350000D02*
X200220000Y-144590000D01*
X200220000Y-144590000D02*
X202460000Y-144590000D01*
X202460000Y-144590000D02*
X202460000Y-140350000D01*
X201340000Y-138430000D02*
X201340000Y-140350000D01*
X201340000Y-146510000D02*
X201340000Y-144590000D01*
X202460000Y-141070000D02*
X200220000Y-141070000D01*
X202460000Y-141190000D02*
X200220000Y-141190000D01*
X202460000Y-140950000D02*
X200220000Y-140950000D01*
X199360000Y-137640000D02*
X197120000Y-137640000D01*
X197120000Y-137640000D02*
X197120000Y-141880000D01*
X197120000Y-141880000D02*
X199360000Y-141880000D01*
X199360000Y-141880000D02*
X199360000Y-137640000D01*
X198240000Y-135720000D02*
X198240000Y-137640000D01*
X198240000Y-143800000D02*
X198240000Y-141880000D01*
X199360000Y-138360000D02*
X197120000Y-138360000D01*
X199360000Y-138480000D02*
X197120000Y-138480000D01*
X199360000Y-138240000D02*
X197120000Y-138240000D01*
X195710000Y-140300000D02*
X193470000Y-140300000D01*
X193470000Y-140300000D02*
X193470000Y-144540000D01*
X193470000Y-144540000D02*
X195710000Y-144540000D01*
X195710000Y-144540000D02*
X195710000Y-140300000D01*
X194590000Y-138380000D02*
X194590000Y-140300000D01*
X194590000Y-146460000D02*
X194590000Y-144540000D01*
X195710000Y-141020000D02*
X193470000Y-141020000D01*
X195710000Y-141140000D02*
X193470000Y-141140000D01*
X195710000Y-140900000D02*
X193470000Y-140900000D01*
X192810000Y-137550000D02*
X190570000Y-137550000D01*
X190570000Y-137550000D02*
X190570000Y-141790000D01*
X190570000Y-141790000D02*
X192810000Y-141790000D01*
X192810000Y-141790000D02*
X192810000Y-137550000D01*
X191690000Y-135630000D02*
X191690000Y-137550000D01*
X191690000Y-143710000D02*
X191690000Y-141790000D01*
X192810000Y-138270000D02*
X190570000Y-138270000D01*
X192810000Y-138390000D02*
X190570000Y-138390000D01*
X192810000Y-138150000D02*
X190570000Y-138150000D01*
X189760000Y-140300000D02*
X187520000Y-140300000D01*
X187520000Y-140300000D02*
X187520000Y-144540000D01*
X187520000Y-144540000D02*
X189760000Y-144540000D01*
X189760000Y-144540000D02*
X189760000Y-140300000D01*
X188640000Y-138380000D02*
X188640000Y-140300000D01*
X188640000Y-146460000D02*
X188640000Y-144540000D01*
X189760000Y-141020000D02*
X187520000Y-141020000D01*
X189760000Y-141140000D02*
X187520000Y-141140000D01*
X189760000Y-140900000D02*
X187520000Y-140900000D01*
X186760000Y-137650000D02*
X184520000Y-137650000D01*
X184520000Y-137650000D02*
X184520000Y-141890000D01*
X184520000Y-141890000D02*
X186760000Y-141890000D01*
X186760000Y-141890000D02*
X186760000Y-137650000D01*
X185640000Y-135730000D02*
X185640000Y-137650000D01*
X185640000Y-143810000D02*
X185640000Y-141890000D01*
X186760000Y-138370000D02*
X184520000Y-138370000D01*
X186760000Y-138490000D02*
X184520000Y-138490000D01*
X186760000Y-138250000D02*
X184520000Y-138250000D01*
X183760000Y-140250000D02*
X181520000Y-140250000D01*
X181520000Y-140250000D02*
X181520000Y-144490000D01*
X181520000Y-144490000D02*
X183760000Y-144490000D01*
X183760000Y-144490000D02*
X183760000Y-140250000D01*
X182640000Y-138330000D02*
X182640000Y-140250000D01*
X182640000Y-146410000D02*
X182640000Y-144490000D01*
X183760000Y-140970000D02*
X181520000Y-140970000D01*
X183760000Y-141090000D02*
X181520000Y-141090000D01*
X183760000Y-140850000D02*
X181520000Y-140850000D01*
X180810000Y-137550000D02*
X178570000Y-137550000D01*
X178570000Y-137550000D02*
X178570000Y-141790000D01*
X178570000Y-141790000D02*
X180810000Y-141790000D01*
X180810000Y-141790000D02*
X180810000Y-137550000D01*
X179690000Y-135630000D02*
X179690000Y-137550000D01*
X179690000Y-143710000D02*
X179690000Y-141790000D01*
X180810000Y-138270000D02*
X178570000Y-138270000D01*
X180810000Y-138390000D02*
X178570000Y-138390000D01*
X180810000Y-138150000D02*
X178570000Y-138150000D01*
X177760000Y-140300000D02*
X175520000Y-140300000D01*
X175520000Y-140300000D02*
X175520000Y-144540000D01*
X175520000Y-144540000D02*
X177760000Y-144540000D01*
X177760000Y-144540000D02*
X177760000Y-140300000D01*
X176640000Y-138380000D02*
X176640000Y-140300000D01*
X176640000Y-146460000D02*
X176640000Y-144540000D01*
X177760000Y-141020000D02*
X175520000Y-141020000D01*
X177760000Y-141140000D02*
X175520000Y-141140000D01*
X177760000Y-140900000D02*
X175520000Y-140900000D01*
X174810000Y-137550000D02*
X172570000Y-137550000D01*
X172570000Y-137550000D02*
X172570000Y-141790000D01*
X172570000Y-141790000D02*
X174810000Y-141790000D01*
X174810000Y-141790000D02*
X174810000Y-137550000D01*
X173690000Y-135630000D02*
X173690000Y-137550000D01*
X173690000Y-143710000D02*
X173690000Y-141790000D01*
X174810000Y-138270000D02*
X172570000Y-138270000D01*
X174810000Y-138390000D02*
X172570000Y-138390000D01*
X174810000Y-138150000D02*
X172570000Y-138150000D01*
X171960000Y-140250000D02*
X169720000Y-140250000D01*
X169720000Y-140250000D02*
X169720000Y-144490000D01*
X169720000Y-144490000D02*
X171960000Y-144490000D01*
X171960000Y-144490000D02*
X171960000Y-140250000D01*
X170840000Y-138330000D02*
X170840000Y-140250000D01*
X170840000Y-146410000D02*
X170840000Y-144490000D01*
X171960000Y-140970000D02*
X169720000Y-140970000D01*
X171960000Y-141090000D02*
X169720000Y-141090000D01*
X171960000Y-140850000D02*
X169720000Y-140850000D01*
X169010000Y-137550000D02*
X166770000Y-137550000D01*
X166770000Y-137550000D02*
X166770000Y-141790000D01*
X166770000Y-141790000D02*
X169010000Y-141790000D01*
X169010000Y-141790000D02*
X169010000Y-137550000D01*
X167890000Y-135630000D02*
X167890000Y-137550000D01*
X167890000Y-143710000D02*
X167890000Y-141790000D01*
X169010000Y-138270000D02*
X166770000Y-138270000D01*
X169010000Y-138390000D02*
X166770000Y-138390000D01*
X169010000Y-138150000D02*
X166770000Y-138150000D01*
X165960000Y-140250000D02*
X163720000Y-140250000D01*
X163720000Y-140250000D02*
X163720000Y-144490000D01*
X163720000Y-144490000D02*
X165960000Y-144490000D01*
X165960000Y-144490000D02*
X165960000Y-140250000D01*
X164840000Y-138330000D02*
X164840000Y-140250000D01*
X164840000Y-146410000D02*
X164840000Y-144490000D01*
X165960000Y-140970000D02*
X163720000Y-140970000D01*
X165960000Y-141090000D02*
X163720000Y-141090000D01*
X165960000Y-140850000D02*
X163720000Y-140850000D01*
X163010000Y-137500000D02*
X160770000Y-137500000D01*
X160770000Y-137500000D02*
X160770000Y-141740000D01*
X160770000Y-141740000D02*
X163010000Y-141740000D01*
X163010000Y-141740000D02*
X163010000Y-137500000D01*
X161890000Y-135580000D02*
X161890000Y-137500000D01*
X161890000Y-143660000D02*
X161890000Y-141740000D01*
X163010000Y-138220000D02*
X160770000Y-138220000D01*
X163010000Y-138340000D02*
X160770000Y-138340000D01*
X163010000Y-138100000D02*
X160770000Y-138100000D01*
X160060000Y-140250000D02*
X157820000Y-140250000D01*
X157820000Y-140250000D02*
X157820000Y-144490000D01*
X157820000Y-144490000D02*
X160060000Y-144490000D01*
X160060000Y-144490000D02*
X160060000Y-140250000D01*
X158940000Y-138330000D02*
X158940000Y-140250000D01*
X158940000Y-146410000D02*
X158940000Y-144490000D01*
X160060000Y-140970000D02*
X157820000Y-140970000D01*
X160060000Y-141090000D02*
X157820000Y-141090000D01*
X160060000Y-140850000D02*
X157820000Y-140850000D01*
X157210000Y-137600000D02*
X154970000Y-137600000D01*
X154970000Y-137600000D02*
X154970000Y-141840000D01*
X154970000Y-141840000D02*
X157210000Y-141840000D01*
X157210000Y-141840000D02*
X157210000Y-137600000D01*
X156090000Y-135680000D02*
X156090000Y-137600000D01*
X156090000Y-143760000D02*
X156090000Y-141840000D01*
X157210000Y-138320000D02*
X154970000Y-138320000D01*
X157210000Y-138440000D02*
X154970000Y-138440000D01*
X157210000Y-138200000D02*
X154970000Y-138200000D01*
X154310000Y-140300000D02*
X152070000Y-140300000D01*
X152070000Y-140300000D02*
X152070000Y-144540000D01*
X152070000Y-144540000D02*
X154310000Y-144540000D01*
X154310000Y-144540000D02*
X154310000Y-140300000D01*
X153190000Y-138380000D02*
X153190000Y-140300000D01*
X153190000Y-146460000D02*
X153190000Y-144540000D01*
X154310000Y-141020000D02*
X152070000Y-141020000D01*
X154310000Y-141140000D02*
X152070000Y-141140000D01*
X154310000Y-140900000D02*
X152070000Y-140900000D01*
X151510000Y-137600000D02*
X149270000Y-137600000D01*
X149270000Y-137600000D02*
X149270000Y-141840000D01*
X149270000Y-141840000D02*
X151510000Y-141840000D01*
X151510000Y-141840000D02*
X151510000Y-137600000D01*
X150390000Y-135680000D02*
X150390000Y-137600000D01*
X150390000Y-143760000D02*
X150390000Y-141840000D01*
X151510000Y-138320000D02*
X149270000Y-138320000D01*
X151510000Y-138440000D02*
X149270000Y-138440000D01*
X151510000Y-138200000D02*
X149270000Y-138200000D01*
X148410000Y-140300000D02*
X146170000Y-140300000D01*
X146170000Y-140300000D02*
X146170000Y-144540000D01*
X146170000Y-144540000D02*
X148410000Y-144540000D01*
X148410000Y-144540000D02*
X148410000Y-140300000D01*
X147290000Y-138380000D02*
X147290000Y-140300000D01*
X147290000Y-146460000D02*
X147290000Y-144540000D01*
X148410000Y-141020000D02*
X146170000Y-141020000D01*
X148410000Y-141140000D02*
X146170000Y-141140000D01*
X148410000Y-140900000D02*
X146170000Y-140900000D01*
X131510000Y-140200000D02*
X129270000Y-140200000D01*
X129270000Y-140200000D02*
X129270000Y-144440000D01*
X129270000Y-144440000D02*
X131510000Y-144440000D01*
X131510000Y-144440000D02*
X131510000Y-140200000D01*
X130390000Y-138280000D02*
X130390000Y-140200000D01*
X130390000Y-146360000D02*
X130390000Y-144440000D01*
X131510000Y-140920000D02*
X129270000Y-140920000D01*
X131510000Y-141040000D02*
X129270000Y-141040000D01*
X131510000Y-140800000D02*
X129270000Y-140800000D01*
X145510000Y-137600000D02*
X143270000Y-137600000D01*
X143270000Y-137600000D02*
X143270000Y-141840000D01*
X143270000Y-141840000D02*
X145510000Y-141840000D01*
X145510000Y-141840000D02*
X145510000Y-137600000D01*
X144390000Y-135680000D02*
X144390000Y-137600000D01*
X144390000Y-143760000D02*
X144390000Y-141840000D01*
X145510000Y-138320000D02*
X143270000Y-138320000D01*
X145510000Y-138440000D02*
X143270000Y-138440000D01*
X145510000Y-138200000D02*
X143270000Y-138200000D01*
X142760000Y-140300000D02*
X140520000Y-140300000D01*
X140520000Y-140300000D02*
X140520000Y-144540000D01*
X140520000Y-144540000D02*
X142760000Y-144540000D01*
X142760000Y-144540000D02*
X142760000Y-140300000D01*
X141640000Y-138380000D02*
X141640000Y-140300000D01*
X141640000Y-146460000D02*
X141640000Y-144540000D01*
X142760000Y-141020000D02*
X140520000Y-141020000D01*
X142760000Y-141140000D02*
X140520000Y-141140000D01*
X142760000Y-140900000D02*
X140520000Y-140900000D01*
X140010000Y-137550000D02*
X137770000Y-137550000D01*
X137770000Y-137550000D02*
X137770000Y-141790000D01*
X137770000Y-141790000D02*
X140010000Y-141790000D01*
X140010000Y-141790000D02*
X140010000Y-137550000D01*
X138890000Y-135630000D02*
X138890000Y-137550000D01*
X138890000Y-143710000D02*
X138890000Y-141790000D01*
X140010000Y-138270000D02*
X137770000Y-138270000D01*
X140010000Y-138390000D02*
X137770000Y-138390000D01*
X140010000Y-138150000D02*
X137770000Y-138150000D01*
X137210000Y-140250000D02*
X134970000Y-140250000D01*
X134970000Y-140250000D02*
X134970000Y-144490000D01*
X134970000Y-144490000D02*
X137210000Y-144490000D01*
X137210000Y-144490000D02*
X137210000Y-140250000D01*
X136090000Y-138330000D02*
X136090000Y-140250000D01*
X136090000Y-146410000D02*
X136090000Y-144490000D01*
X137210000Y-140970000D02*
X134970000Y-140970000D01*
X137210000Y-141090000D02*
X134970000Y-141090000D01*
X137210000Y-140850000D02*
X134970000Y-140850000D01*
X134410000Y-137600000D02*
X132170000Y-137600000D01*
X132170000Y-137600000D02*
X132170000Y-141840000D01*
X132170000Y-141840000D02*
X134410000Y-141840000D01*
X134410000Y-141840000D02*
X134410000Y-137600000D01*
X133290000Y-135680000D02*
X133290000Y-137600000D01*
X133290000Y-143760000D02*
X133290000Y-141840000D01*
X134410000Y-138320000D02*
X132170000Y-138320000D01*
X134410000Y-138440000D02*
X132170000Y-138440000D01*
X134410000Y-138200000D02*
X132170000Y-138200000D01*
X407326600Y-146125400D02*
X407326600Y-143885400D01*
X407326600Y-143885400D02*
X403086600Y-143885400D01*
X403086600Y-143885400D02*
X403086600Y-146125400D01*
X403086600Y-146125400D02*
X407326600Y-146125400D01*
X409246600Y-145005400D02*
X407326600Y-145005400D01*
X401166600Y-145005400D02*
X403086600Y-145005400D01*
X406606600Y-146125400D02*
X406606600Y-143885400D01*
X406486600Y-146125400D02*
X406486600Y-143885400D01*
X406726600Y-146125400D02*
X406726600Y-143885400D01*
X117578000Y-128940000D02*
X117578000Y-127040000D01*
X117578000Y-132840000D02*
X117578000Y-130840000D01*
X108178000Y-128940000D02*
X108178000Y-127040000D01*
X108178000Y-132840000D02*
X108178000Y-130840000D01*
X117578000Y-127040000D02*
X108178000Y-127040000D01*
X110760000Y-138492000D02*
X110760000Y-140292000D01*
X113980000Y-140292000D02*
X113980000Y-137842000D01*
X115216000Y-139396578D02*
X115216000Y-138879422D01*
X116636000Y-139396578D02*
X116636000Y-138879422D01*
X485556000Y-142440000D02*
X482896000Y-142440000D01*
X485556000Y-142440000D02*
X485556000Y-134760000D01*
X485556000Y-134760000D02*
X482896000Y-134760000D01*
X482896000Y-142440000D02*
X482896000Y-134760000D01*
X482896000Y-145040000D02*
X482896000Y-143710000D01*
X484226000Y-145040000D02*
X482896000Y-145040000D01*
X107650000Y-146344064D02*
X107650000Y-145139936D01*
X109470000Y-146344064D02*
X109470000Y-145139936D01*
X117645000Y-145432000D02*
X117645000Y-146362000D01*
X117645000Y-148592000D02*
X117645000Y-147662000D01*
X117645000Y-148592000D02*
X119805000Y-148592000D01*
X117645000Y-145432000D02*
X119105000Y-145432000D01*
X428800000Y-135978000D02*
X427510000Y-135978000D01*
X428800000Y-135528000D02*
X428800000Y-135978000D01*
X429250000Y-135528000D02*
X428800000Y-135528000D01*
X436020000Y-135528000D02*
X436020000Y-135978000D01*
X435570000Y-135528000D02*
X436020000Y-135528000D01*
X428800000Y-142748000D02*
X428800000Y-142298000D01*
X429250000Y-142748000D02*
X428800000Y-142748000D01*
X436020000Y-142748000D02*
X436020000Y-142298000D01*
X435570000Y-142748000D02*
X436020000Y-142748000D01*
X117000000Y-163240000D02*
G75*
G03X117000000Y-163240000I-3000000J0D01*
G01*
X116000000Y-157340000D02*
X120100000Y-157340000D01*
X120100000Y-169140000D02*
X116000000Y-169140000D01*
X112000000Y-169140000D02*
X107900000Y-169140000D01*
X112000000Y-157340000D02*
X107900000Y-157340000D01*
X107900000Y-157340000D02*
X107900000Y-169140000D01*
X106500000Y-159440000D02*
X106200000Y-159140000D01*
X106200000Y-159140000D02*
X106800000Y-159140000D01*
X106800000Y-159140000D02*
X106500000Y-159440000D01*
X120100000Y-157340000D02*
X120100000Y-159740000D01*
X120100000Y-161940000D02*
X120100000Y-164540000D01*
X120100000Y-166740000D02*
X120100000Y-169140000D01*
X114000000Y-162740000D02*
X114000000Y-163740000D01*
X113500000Y-163240000D02*
X114500000Y-163240000D01*
X408654600Y-135483200D02*
X408654600Y-133983200D01*
X407404600Y-131483200D02*
X402904600Y-131483200D01*
X401654600Y-133983200D02*
X401654600Y-135483200D01*
X402904600Y-137983200D02*
X407404600Y-137983200D01*
X124553000Y-147007422D02*
X124553000Y-147524578D01*
X125973000Y-147007422D02*
X125973000Y-147524578D01*
X411942200Y-145682822D02*
X411942200Y-146199978D01*
X413362200Y-145682822D02*
X413362200Y-146199978D01*
X112765000Y-148023422D02*
X112765000Y-148540578D01*
X111345000Y-148023422D02*
X111345000Y-148540578D01*
D12*
X414389700Y-136588000D02*
X415786700Y-136588000D01*
X414389700Y-139585200D02*
X414389700Y-136588000D01*
X415786700Y-139585200D02*
X414389700Y-139585200D01*
X415786700Y-136588000D02*
X415786700Y-139585200D01*
X415786700Y-138086600D02*
X416447100Y-138086600D01*
X414389700Y-137134100D02*
X413729300Y-137134100D01*
X414389700Y-139039100D02*
X413729300Y-139039100D01*
D11*
X116155000Y-142456000D02*
X120055000Y-142456000D01*
X116155000Y-144456000D02*
X120055000Y-144456000D01*
X116155000Y-142456000D02*
X116155000Y-144456000D01*
X122013000Y-147007422D02*
X122013000Y-147524578D01*
X123433000Y-147007422D02*
X123433000Y-147524578D01*
X419423200Y-137170178D02*
X419423200Y-136653022D01*
X418003200Y-137170178D02*
X418003200Y-136653022D01*
X414250200Y-145684322D02*
X414250200Y-146201478D01*
X415670200Y-145684322D02*
X415670200Y-146201478D01*
X115305000Y-148023422D02*
X115305000Y-148540578D01*
X113885000Y-148023422D02*
X113885000Y-148540578D01*
X423722000Y-140158578D02*
X423722000Y-139641422D01*
X422302000Y-140158578D02*
X422302000Y-139641422D01*
X436224578Y-147826000D02*
X435707422Y-147826000D01*
X436224578Y-149246000D02*
X435707422Y-149246000D01*
X421436000Y-140158578D02*
X421436000Y-139641422D01*
X420016000Y-140158578D02*
X420016000Y-139641422D01*
X438304000Y-135323422D02*
X438304000Y-135840578D01*
X439724000Y-135323422D02*
X439724000Y-135840578D01*
X440844000Y-135323422D02*
X440844000Y-135840578D01*
X442264000Y-135323422D02*
X442264000Y-135840578D01*
X436224578Y-145540000D02*
X435707422Y-145540000D01*
X436224578Y-146960000D02*
X435707422Y-146960000D01*
X425302578Y-134872000D02*
X424785422Y-134872000D01*
X425302578Y-136292000D02*
X424785422Y-136292000D01*
D10*
X483892666Y-145932380D02*
X483892666Y-146646666D01*
X483845047Y-146789523D01*
X483749809Y-146884761D01*
X483606952Y-146932380D01*
X483511714Y-146932380D01*
X484321238Y-146027619D02*
X484368857Y-145980000D01*
X484464095Y-145932380D01*
X484702190Y-145932380D01*
X484797428Y-145980000D01*
X484845047Y-146027619D01*
X484892666Y-146122857D01*
X484892666Y-146218095D01*
X484845047Y-146360952D01*
X484273619Y-146932380D01*
X484892666Y-146932380D01*
X431648095Y-132740380D02*
X431648095Y-133549904D01*
X431695714Y-133645142D01*
X431743333Y-133692761D01*
X431838571Y-133740380D01*
X432029047Y-133740380D01*
X432124285Y-133692761D01*
X432171904Y-133645142D01*
X432219523Y-133549904D01*
X432219523Y-132740380D01*
X433219523Y-133740380D02*
X432648095Y-133740380D01*
X432933809Y-133740380D02*
X432933809Y-132740380D01*
X432838571Y-132883238D01*
X432743333Y-132978476D01*
X432648095Y-133026095D01*
X107966666Y-156444761D02*
X108109523Y-156492380D01*
X108347619Y-156492380D01*
X108442857Y-156444761D01*
X108490476Y-156397142D01*
X108538095Y-156301904D01*
X108538095Y-156206666D01*
X108490476Y-156111428D01*
X108442857Y-156063809D01*
X108347619Y-156016190D01*
X108157142Y-155968571D01*
X108061904Y-155920952D01*
X108014285Y-155873333D01*
X107966666Y-155778095D01*
X107966666Y-155682857D01*
X108014285Y-155587619D01*
X108061904Y-155540000D01*
X108157142Y-155492380D01*
X108395238Y-155492380D01*
X108538095Y-155540000D01*
X108871428Y-155492380D02*
X109109523Y-156492380D01*
X109300000Y-155778095D01*
X109490476Y-156492380D01*
X109728571Y-155492380D01*
X110061904Y-155587619D02*
X110109523Y-155540000D01*
X110204761Y-155492380D01*
X110442857Y-155492380D01*
X110538095Y-155540000D01*
X110585714Y-155587619D01*
X110633333Y-155682857D01*
X110633333Y-155778095D01*
X110585714Y-155920952D01*
X110014285Y-156492380D01*
X110633333Y-156492380D01*
X403821266Y-130887961D02*
X403964123Y-130935580D01*
X404202219Y-130935580D01*
X404297457Y-130887961D01*
X404345076Y-130840342D01*
X404392695Y-130745104D01*
X404392695Y-130649866D01*
X404345076Y-130554628D01*
X404297457Y-130507009D01*
X404202219Y-130459390D01*
X404011742Y-130411771D01*
X403916504Y-130364152D01*
X403868885Y-130316533D01*
X403821266Y-130221295D01*
X403821266Y-130126057D01*
X403868885Y-130030819D01*
X403916504Y-129983200D01*
X404011742Y-129935580D01*
X404249838Y-129935580D01*
X404392695Y-129983200D01*
X404726028Y-129935580D02*
X404964123Y-130935580D01*
X405154600Y-130221295D01*
X405345076Y-130935580D01*
X405583171Y-129935580D01*
X406487933Y-130935580D02*
X405916504Y-130935580D01*
X406202219Y-130935580D02*
X406202219Y-129935580D01*
X406106980Y-130078438D01*
X406011742Y-130173676D01*
X405916504Y-130221295D01*
X127365380Y-147432666D02*
X126889190Y-147766000D01*
X127365380Y-148004095D02*
X126365380Y-148004095D01*
X126365380Y-147623142D01*
X126413000Y-147527904D01*
X126460619Y-147480285D01*
X126555857Y-147432666D01*
X126698714Y-147432666D01*
X126793952Y-147480285D01*
X126841571Y-147527904D01*
X126889190Y-147623142D01*
X126889190Y-148004095D01*
X126365380Y-146527904D02*
X126365380Y-147004095D01*
X126841571Y-147051714D01*
X126793952Y-147004095D01*
X126746333Y-146908857D01*
X126746333Y-146670761D01*
X126793952Y-146575523D01*
X126841571Y-146527904D01*
X126936809Y-146480285D01*
X127174904Y-146480285D01*
X127270142Y-146527904D01*
X127317761Y-146575523D01*
X127365380Y-146670761D01*
X127365380Y-146908857D01*
X127317761Y-147004095D01*
X127270142Y-147051714D01*
X414754580Y-146108066D02*
X414278390Y-146441400D01*
X414754580Y-146679495D02*
X413754580Y-146679495D01*
X413754580Y-146298542D01*
X413802200Y-146203304D01*
X413849819Y-146155685D01*
X413945057Y-146108066D01*
X414087914Y-146108066D01*
X414183152Y-146155685D01*
X414230771Y-146203304D01*
X414278390Y-146298542D01*
X414278390Y-146679495D01*
X414087914Y-145250923D02*
X414754580Y-145250923D01*
X413706961Y-145489019D02*
X414421247Y-145727114D01*
X414421247Y-145108066D01*
X415526295Y-138162790D02*
X415488200Y-138238980D01*
X415412009Y-138315171D01*
X415297723Y-138429457D01*
X415259628Y-138505647D01*
X415259628Y-138581838D01*
X415450104Y-138543742D02*
X415412009Y-138619933D01*
X415335819Y-138696123D01*
X415183438Y-138734219D01*
X414916771Y-138734219D01*
X414764390Y-138696123D01*
X414688200Y-138619933D01*
X414650104Y-138543742D01*
X414650104Y-138391361D01*
X414688200Y-138315171D01*
X414764390Y-138238980D01*
X414916771Y-138200885D01*
X415183438Y-138200885D01*
X415335819Y-138238980D01*
X415412009Y-138315171D01*
X415450104Y-138391361D01*
X415450104Y-138543742D01*
X415450104Y-137438980D02*
X415450104Y-137896123D01*
X415450104Y-137667552D02*
X414650104Y-137667552D01*
X414764390Y-137743742D01*
X414840580Y-137819933D01*
X414878676Y-137896123D01*
X124730142Y-147908857D02*
X124777761Y-147956476D01*
X124825380Y-148099333D01*
X124825380Y-148194571D01*
X124777761Y-148337428D01*
X124682523Y-148432666D01*
X124587285Y-148480285D01*
X124396809Y-148527904D01*
X124253952Y-148527904D01*
X124063476Y-148480285D01*
X123968238Y-148432666D01*
X123873000Y-148337428D01*
X123825380Y-148194571D01*
X123825380Y-148099333D01*
X123873000Y-147956476D01*
X123920619Y-147908857D01*
X123825380Y-147051714D02*
X123825380Y-147242190D01*
X123873000Y-147337428D01*
X123920619Y-147385047D01*
X124063476Y-147480285D01*
X124253952Y-147527904D01*
X124634904Y-147527904D01*
X124730142Y-147480285D01*
X124777761Y-147432666D01*
X124825380Y-147337428D01*
X124825380Y-147146952D01*
X124777761Y-147051714D01*
X124730142Y-147004095D01*
X124634904Y-146956476D01*
X124396809Y-146956476D01*
X124301571Y-147004095D01*
X124253952Y-147051714D01*
X124206333Y-147146952D01*
X124206333Y-147337428D01*
X124253952Y-147432666D01*
X124301571Y-147480285D01*
X124396809Y-147527904D01*
X123825380Y-146623142D02*
X123825380Y-146004095D01*
X124206333Y-146337428D01*
X124206333Y-146194571D01*
X124253952Y-146099333D01*
X124301571Y-146051714D01*
X124396809Y-146004095D01*
X124634904Y-146004095D01*
X124730142Y-146051714D01*
X124777761Y-146099333D01*
X124825380Y-146194571D01*
X124825380Y-146480285D01*
X124777761Y-146575523D01*
X124730142Y-146623142D01*
X417420342Y-137554457D02*
X417467961Y-137602076D01*
X417515580Y-137744933D01*
X417515580Y-137840171D01*
X417467961Y-137983028D01*
X417372723Y-138078266D01*
X417277485Y-138125885D01*
X417087009Y-138173504D01*
X416944152Y-138173504D01*
X416753676Y-138125885D01*
X416658438Y-138078266D01*
X416563200Y-137983028D01*
X416515580Y-137840171D01*
X416515580Y-137744933D01*
X416563200Y-137602076D01*
X416610819Y-137554457D01*
X416515580Y-136697314D02*
X416515580Y-136887790D01*
X416563200Y-136983028D01*
X416610819Y-137030647D01*
X416753676Y-137125885D01*
X416944152Y-137173504D01*
X417325104Y-137173504D01*
X417420342Y-137125885D01*
X417467961Y-137078266D01*
X417515580Y-136983028D01*
X417515580Y-136792552D01*
X417467961Y-136697314D01*
X417420342Y-136649695D01*
X417325104Y-136602076D01*
X417087009Y-136602076D01*
X416991771Y-136649695D01*
X416944152Y-136697314D01*
X416896533Y-136792552D01*
X416896533Y-136983028D01*
X416944152Y-137078266D01*
X416991771Y-137125885D01*
X417087009Y-137173504D01*
X416610819Y-136221123D02*
X416563200Y-136173504D01*
X416515580Y-136078266D01*
X416515580Y-135840171D01*
X416563200Y-135744933D01*
X416610819Y-135697314D01*
X416706057Y-135649695D01*
X416801295Y-135649695D01*
X416944152Y-135697314D01*
X417515580Y-136268742D01*
X417515580Y-135649695D01*
X416967342Y-146585757D02*
X417014961Y-146633376D01*
X417062580Y-146776233D01*
X417062580Y-146871471D01*
X417014961Y-147014328D01*
X416919723Y-147109566D01*
X416824485Y-147157185D01*
X416634009Y-147204804D01*
X416491152Y-147204804D01*
X416300676Y-147157185D01*
X416205438Y-147109566D01*
X416110200Y-147014328D01*
X416062580Y-146871471D01*
X416062580Y-146776233D01*
X416110200Y-146633376D01*
X416157819Y-146585757D01*
X416062580Y-145680995D02*
X416062580Y-146157185D01*
X416538771Y-146204804D01*
X416491152Y-146157185D01*
X416443533Y-146061947D01*
X416443533Y-145823852D01*
X416491152Y-145728614D01*
X416538771Y-145680995D01*
X416634009Y-145633376D01*
X416872104Y-145633376D01*
X416967342Y-145680995D01*
X417014961Y-145728614D01*
X417062580Y-145823852D01*
X417062580Y-146061947D01*
X417014961Y-146157185D01*
X416967342Y-146204804D01*
X416062580Y-144728614D02*
X416062580Y-145204804D01*
X416538771Y-145252423D01*
X416491152Y-145204804D01*
X416443533Y-145109566D01*
X416443533Y-144871471D01*
X416491152Y-144776233D01*
X416538771Y-144728614D01*
X416634009Y-144680995D01*
X416872104Y-144680995D01*
X416967342Y-144728614D01*
X417014961Y-144776233D01*
X417062580Y-144871471D01*
X417062580Y-145109566D01*
X417014961Y-145204804D01*
X416967342Y-145252423D01*
X421719142Y-140542857D02*
X421766761Y-140590476D01*
X421814380Y-140733333D01*
X421814380Y-140828571D01*
X421766761Y-140971428D01*
X421671523Y-141066666D01*
X421576285Y-141114285D01*
X421385809Y-141161904D01*
X421242952Y-141161904D01*
X421052476Y-141114285D01*
X420957238Y-141066666D01*
X420862000Y-140971428D01*
X420814380Y-140828571D01*
X420814380Y-140733333D01*
X420862000Y-140590476D01*
X420909619Y-140542857D01*
X420814380Y-140209523D02*
X420814380Y-139590476D01*
X421195333Y-139923809D01*
X421195333Y-139780952D01*
X421242952Y-139685714D01*
X421290571Y-139638095D01*
X421385809Y-139590476D01*
X421623904Y-139590476D01*
X421719142Y-139638095D01*
X421766761Y-139685714D01*
X421814380Y-139780952D01*
X421814380Y-140066666D01*
X421766761Y-140161904D01*
X421719142Y-140209523D01*
X420909619Y-139209523D02*
X420862000Y-139161904D01*
X420814380Y-139066666D01*
X420814380Y-138828571D01*
X420862000Y-138733333D01*
X420909619Y-138685714D01*
X421004857Y-138638095D01*
X421100095Y-138638095D01*
X421242952Y-138685714D01*
X421814380Y-139257142D01*
X421814380Y-138638095D01*
X435323142Y-150543142D02*
X435275523Y-150590761D01*
X435132666Y-150638380D01*
X435037428Y-150638380D01*
X434894571Y-150590761D01*
X434799333Y-150495523D01*
X434751714Y-150400285D01*
X434704095Y-150209809D01*
X434704095Y-150066952D01*
X434751714Y-149876476D01*
X434799333Y-149781238D01*
X434894571Y-149686000D01*
X435037428Y-149638380D01*
X435132666Y-149638380D01*
X435275523Y-149686000D01*
X435323142Y-149733619D01*
X435704095Y-149733619D02*
X435751714Y-149686000D01*
X435846952Y-149638380D01*
X436085047Y-149638380D01*
X436180285Y-149686000D01*
X436227904Y-149733619D01*
X436275523Y-149828857D01*
X436275523Y-149924095D01*
X436227904Y-150066952D01*
X435656476Y-150638380D01*
X436275523Y-150638380D01*
X436751714Y-150638380D02*
X436942190Y-150638380D01*
X437037428Y-150590761D01*
X437085047Y-150543142D01*
X437180285Y-150400285D01*
X437227904Y-150209809D01*
X437227904Y-149828857D01*
X437180285Y-149733619D01*
X437132666Y-149686000D01*
X437037428Y-149638380D01*
X436846952Y-149638380D01*
X436751714Y-149686000D01*
X436704095Y-149733619D01*
X436656476Y-149828857D01*
X436656476Y-150066952D01*
X436704095Y-150162190D01*
X436751714Y-150209809D01*
X436846952Y-150257428D01*
X437037428Y-150257428D01*
X437132666Y-150209809D01*
X437180285Y-150162190D01*
X437227904Y-150066952D01*
X419433142Y-140542857D02*
X419480761Y-140590476D01*
X419528380Y-140733333D01*
X419528380Y-140828571D01*
X419480761Y-140971428D01*
X419385523Y-141066666D01*
X419290285Y-141114285D01*
X419099809Y-141161904D01*
X418956952Y-141161904D01*
X418766476Y-141114285D01*
X418671238Y-141066666D01*
X418576000Y-140971428D01*
X418528380Y-140828571D01*
X418528380Y-140733333D01*
X418576000Y-140590476D01*
X418623619Y-140542857D01*
X418623619Y-140161904D02*
X418576000Y-140114285D01*
X418528380Y-140019047D01*
X418528380Y-139780952D01*
X418576000Y-139685714D01*
X418623619Y-139638095D01*
X418718857Y-139590476D01*
X418814095Y-139590476D01*
X418956952Y-139638095D01*
X419528380Y-140209523D01*
X419528380Y-139590476D01*
X418956952Y-139019047D02*
X418909333Y-139114285D01*
X418861714Y-139161904D01*
X418766476Y-139209523D01*
X418718857Y-139209523D01*
X418623619Y-139161904D01*
X418576000Y-139114285D01*
X418528380Y-139019047D01*
X418528380Y-138828571D01*
X418576000Y-138733333D01*
X418623619Y-138685714D01*
X418718857Y-138638095D01*
X418766476Y-138638095D01*
X418861714Y-138685714D01*
X418909333Y-138733333D01*
X418956952Y-138828571D01*
X418956952Y-139019047D01*
X419004571Y-139114285D01*
X419052190Y-139161904D01*
X419147428Y-139209523D01*
X419337904Y-139209523D01*
X419433142Y-139161904D01*
X419480761Y-139114285D01*
X419528380Y-139019047D01*
X419528380Y-138828571D01*
X419480761Y-138733333D01*
X419433142Y-138685714D01*
X419337904Y-138638095D01*
X419147428Y-138638095D01*
X419052190Y-138685714D01*
X419004571Y-138733333D01*
X418956952Y-138828571D01*
X441021142Y-136224857D02*
X441068761Y-136272476D01*
X441116380Y-136415333D01*
X441116380Y-136510571D01*
X441068761Y-136653428D01*
X440973523Y-136748666D01*
X440878285Y-136796285D01*
X440687809Y-136843904D01*
X440544952Y-136843904D01*
X440354476Y-136796285D01*
X440259238Y-136748666D01*
X440164000Y-136653428D01*
X440116380Y-136510571D01*
X440116380Y-136415333D01*
X440164000Y-136272476D01*
X440211619Y-136224857D01*
X440211619Y-135843904D02*
X440164000Y-135796285D01*
X440116380Y-135701047D01*
X440116380Y-135462952D01*
X440164000Y-135367714D01*
X440211619Y-135320095D01*
X440306857Y-135272476D01*
X440402095Y-135272476D01*
X440544952Y-135320095D01*
X441116380Y-135891523D01*
X441116380Y-135272476D01*
X440116380Y-134939142D02*
X440116380Y-134272476D01*
X441116380Y-134701047D01*
X443561142Y-136224857D02*
X443608761Y-136272476D01*
X443656380Y-136415333D01*
X443656380Y-136510571D01*
X443608761Y-136653428D01*
X443513523Y-136748666D01*
X443418285Y-136796285D01*
X443227809Y-136843904D01*
X443084952Y-136843904D01*
X442894476Y-136796285D01*
X442799238Y-136748666D01*
X442704000Y-136653428D01*
X442656380Y-136510571D01*
X442656380Y-136415333D01*
X442704000Y-136272476D01*
X442751619Y-136224857D01*
X442751619Y-135843904D02*
X442704000Y-135796285D01*
X442656380Y-135701047D01*
X442656380Y-135462952D01*
X442704000Y-135367714D01*
X442751619Y-135320095D01*
X442846857Y-135272476D01*
X442942095Y-135272476D01*
X443084952Y-135320095D01*
X443656380Y-135891523D01*
X443656380Y-135272476D01*
X442656380Y-134415333D02*
X442656380Y-134605809D01*
X442704000Y-134701047D01*
X442751619Y-134748666D01*
X442894476Y-134843904D01*
X443084952Y-134891523D01*
X443465904Y-134891523D01*
X443561142Y-134843904D01*
X443608761Y-134796285D01*
X443656380Y-134701047D01*
X443656380Y-134510571D01*
X443608761Y-134415333D01*
X443561142Y-134367714D01*
X443465904Y-134320095D01*
X443227809Y-134320095D01*
X443132571Y-134367714D01*
X443084952Y-134415333D01*
X443037333Y-134510571D01*
X443037333Y-134701047D01*
X443084952Y-134796285D01*
X443132571Y-134843904D01*
X443227809Y-134891523D01*
X435323142Y-148257142D02*
X435275523Y-148304761D01*
X435132666Y-148352380D01*
X435037428Y-148352380D01*
X434894571Y-148304761D01*
X434799333Y-148209523D01*
X434751714Y-148114285D01*
X434704095Y-147923809D01*
X434704095Y-147780952D01*
X434751714Y-147590476D01*
X434799333Y-147495238D01*
X434894571Y-147400000D01*
X435037428Y-147352380D01*
X435132666Y-147352380D01*
X435275523Y-147400000D01*
X435323142Y-147447619D01*
X435704095Y-147447619D02*
X435751714Y-147400000D01*
X435846952Y-147352380D01*
X436085047Y-147352380D01*
X436180285Y-147400000D01*
X436227904Y-147447619D01*
X436275523Y-147542857D01*
X436275523Y-147638095D01*
X436227904Y-147780952D01*
X435656476Y-148352380D01*
X436275523Y-148352380D01*
X437180285Y-147352380D02*
X436704095Y-147352380D01*
X436656476Y-147828571D01*
X436704095Y-147780952D01*
X436799333Y-147733333D01*
X437037428Y-147733333D01*
X437132666Y-147780952D01*
X437180285Y-147828571D01*
X437227904Y-147923809D01*
X437227904Y-148161904D01*
X437180285Y-148257142D01*
X437132666Y-148304761D01*
X437037428Y-148352380D01*
X436799333Y-148352380D01*
X436704095Y-148304761D01*
X436656476Y-148257142D01*
X424401142Y-137589142D02*
X424353523Y-137636761D01*
X424210666Y-137684380D01*
X424115428Y-137684380D01*
X423972571Y-137636761D01*
X423877333Y-137541523D01*
X423829714Y-137446285D01*
X423782095Y-137255809D01*
X423782095Y-137112952D01*
X423829714Y-136922476D01*
X423877333Y-136827238D01*
X423972571Y-136732000D01*
X424115428Y-136684380D01*
X424210666Y-136684380D01*
X424353523Y-136732000D01*
X424401142Y-136779619D01*
X424782095Y-136779619D02*
X424829714Y-136732000D01*
X424924952Y-136684380D01*
X425163047Y-136684380D01*
X425258285Y-136732000D01*
X425305904Y-136779619D01*
X425353523Y-136874857D01*
X425353523Y-136970095D01*
X425305904Y-137112952D01*
X424734476Y-137684380D01*
X425353523Y-137684380D01*
X426210666Y-137017714D02*
X426210666Y-137684380D01*
X425972571Y-136636761D02*
X425734476Y-137351047D01*
X426353523Y-137351047D01*
M02*
