G04 #@! TF.GenerationSoftware,KiCad,Pcbnew,5.1.5+dfsg1-2build2*
G04 #@! TF.CreationDate,2020-08-17T22:58:45+02:00*
G04 #@! TF.ProjectId,PENIS,50454e49-532e-46b6-9963-61645f706362,rev?*
G04 #@! TF.SameCoordinates,Original*
G04 #@! TF.FileFunction,Paste,Top*
G04 #@! TF.FilePolarity,Positive*
%FSLAX46Y46*%
G04 Gerber Fmt 4.6, Leading zero omitted, Abs format (unit mm)*
G04 Created by KiCad (PCBNEW 5.1.5+dfsg1-2build2) date 2020-08-17 22:58:45*
%MOMM*%
%LPD*%
G04 APERTURE LIST*
%ADD10R,0.600000X1.450000*%
%ADD11R,0.300000X1.450000*%
%ADD12R,0.650000X1.060000*%
%ADD13C,0.100000*%
%ADD14R,0.900000X0.800000*%
%ADD15R,1.200000X0.800000*%
%ADD16R,0.900000X1.200000*%
G04 APERTURE END LIST*
D10*
X109628000Y-134985000D03*
X110428000Y-134985000D03*
X115328000Y-134985000D03*
X116128000Y-134985000D03*
X116128000Y-134985000D03*
X115328000Y-134985000D03*
X110428000Y-134985000D03*
X109628000Y-134985000D03*
D11*
X114628000Y-134985000D03*
X114128000Y-134985000D03*
X113628000Y-134985000D03*
X112628000Y-134985000D03*
X112128000Y-134985000D03*
X111628000Y-134985000D03*
X111128000Y-134985000D03*
X113128000Y-134985000D03*
D12*
X112370000Y-140492000D03*
X113320000Y-140492000D03*
X111420000Y-140492000D03*
X111420000Y-138292000D03*
X112370000Y-138292000D03*
X113320000Y-138292000D03*
D13*
G36*
X116406142Y-137714174D02*
G01*
X116429803Y-137717684D01*
X116453007Y-137723496D01*
X116475529Y-137731554D01*
X116497153Y-137741782D01*
X116517670Y-137754079D01*
X116536883Y-137768329D01*
X116554607Y-137784393D01*
X116570671Y-137802117D01*
X116584921Y-137821330D01*
X116597218Y-137841847D01*
X116607446Y-137863471D01*
X116615504Y-137885993D01*
X116621316Y-137909197D01*
X116624826Y-137932858D01*
X116626000Y-137956750D01*
X116626000Y-138444250D01*
X116624826Y-138468142D01*
X116621316Y-138491803D01*
X116615504Y-138515007D01*
X116607446Y-138537529D01*
X116597218Y-138559153D01*
X116584921Y-138579670D01*
X116570671Y-138598883D01*
X116554607Y-138616607D01*
X116536883Y-138632671D01*
X116517670Y-138646921D01*
X116497153Y-138659218D01*
X116475529Y-138669446D01*
X116453007Y-138677504D01*
X116429803Y-138683316D01*
X116406142Y-138686826D01*
X116382250Y-138688000D01*
X115469750Y-138688000D01*
X115445858Y-138686826D01*
X115422197Y-138683316D01*
X115398993Y-138677504D01*
X115376471Y-138669446D01*
X115354847Y-138659218D01*
X115334330Y-138646921D01*
X115315117Y-138632671D01*
X115297393Y-138616607D01*
X115281329Y-138598883D01*
X115267079Y-138579670D01*
X115254782Y-138559153D01*
X115244554Y-138537529D01*
X115236496Y-138515007D01*
X115230684Y-138491803D01*
X115227174Y-138468142D01*
X115226000Y-138444250D01*
X115226000Y-137956750D01*
X115227174Y-137932858D01*
X115230684Y-137909197D01*
X115236496Y-137885993D01*
X115244554Y-137863471D01*
X115254782Y-137841847D01*
X115267079Y-137821330D01*
X115281329Y-137802117D01*
X115297393Y-137784393D01*
X115315117Y-137768329D01*
X115334330Y-137754079D01*
X115354847Y-137741782D01*
X115376471Y-137731554D01*
X115398993Y-137723496D01*
X115422197Y-137717684D01*
X115445858Y-137714174D01*
X115469750Y-137713000D01*
X116382250Y-137713000D01*
X116406142Y-137714174D01*
G37*
G36*
X116406142Y-139589174D02*
G01*
X116429803Y-139592684D01*
X116453007Y-139598496D01*
X116475529Y-139606554D01*
X116497153Y-139616782D01*
X116517670Y-139629079D01*
X116536883Y-139643329D01*
X116554607Y-139659393D01*
X116570671Y-139677117D01*
X116584921Y-139696330D01*
X116597218Y-139716847D01*
X116607446Y-139738471D01*
X116615504Y-139760993D01*
X116621316Y-139784197D01*
X116624826Y-139807858D01*
X116626000Y-139831750D01*
X116626000Y-140319250D01*
X116624826Y-140343142D01*
X116621316Y-140366803D01*
X116615504Y-140390007D01*
X116607446Y-140412529D01*
X116597218Y-140434153D01*
X116584921Y-140454670D01*
X116570671Y-140473883D01*
X116554607Y-140491607D01*
X116536883Y-140507671D01*
X116517670Y-140521921D01*
X116497153Y-140534218D01*
X116475529Y-140544446D01*
X116453007Y-140552504D01*
X116429803Y-140558316D01*
X116406142Y-140561826D01*
X116382250Y-140563000D01*
X115469750Y-140563000D01*
X115445858Y-140561826D01*
X115422197Y-140558316D01*
X115398993Y-140552504D01*
X115376471Y-140544446D01*
X115354847Y-140534218D01*
X115334330Y-140521921D01*
X115315117Y-140507671D01*
X115297393Y-140491607D01*
X115281329Y-140473883D01*
X115267079Y-140454670D01*
X115254782Y-140434153D01*
X115244554Y-140412529D01*
X115236496Y-140390007D01*
X115230684Y-140366803D01*
X115227174Y-140343142D01*
X115226000Y-140319250D01*
X115226000Y-139831750D01*
X115227174Y-139807858D01*
X115230684Y-139784197D01*
X115236496Y-139760993D01*
X115244554Y-139738471D01*
X115254782Y-139716847D01*
X115267079Y-139696330D01*
X115281329Y-139677117D01*
X115297393Y-139659393D01*
X115315117Y-139643329D01*
X115334330Y-139629079D01*
X115354847Y-139616782D01*
X115376471Y-139606554D01*
X115398993Y-139598496D01*
X115422197Y-139592684D01*
X115445858Y-139589174D01*
X115469750Y-139588000D01*
X116382250Y-139588000D01*
X116406142Y-139589174D01*
G37*
G36*
X109209504Y-143718204D02*
G01*
X109233773Y-143721804D01*
X109257571Y-143727765D01*
X109280671Y-143736030D01*
X109302849Y-143746520D01*
X109323893Y-143759133D01*
X109343598Y-143773747D01*
X109361777Y-143790223D01*
X109378253Y-143808402D01*
X109392867Y-143828107D01*
X109405480Y-143849151D01*
X109415970Y-143871329D01*
X109424235Y-143894429D01*
X109430196Y-143918227D01*
X109433796Y-143942496D01*
X109435000Y-143967000D01*
X109435000Y-144717000D01*
X109433796Y-144741504D01*
X109430196Y-144765773D01*
X109424235Y-144789571D01*
X109415970Y-144812671D01*
X109405480Y-144834849D01*
X109392867Y-144855893D01*
X109378253Y-144875598D01*
X109361777Y-144893777D01*
X109343598Y-144910253D01*
X109323893Y-144924867D01*
X109302849Y-144937480D01*
X109280671Y-144947970D01*
X109257571Y-144956235D01*
X109233773Y-144962196D01*
X109209504Y-144965796D01*
X109185000Y-144967000D01*
X107935000Y-144967000D01*
X107910496Y-144965796D01*
X107886227Y-144962196D01*
X107862429Y-144956235D01*
X107839329Y-144947970D01*
X107817151Y-144937480D01*
X107796107Y-144924867D01*
X107776402Y-144910253D01*
X107758223Y-144893777D01*
X107741747Y-144875598D01*
X107727133Y-144855893D01*
X107714520Y-144834849D01*
X107704030Y-144812671D01*
X107695765Y-144789571D01*
X107689804Y-144765773D01*
X107686204Y-144741504D01*
X107685000Y-144717000D01*
X107685000Y-143967000D01*
X107686204Y-143942496D01*
X107689804Y-143918227D01*
X107695765Y-143894429D01*
X107704030Y-143871329D01*
X107714520Y-143849151D01*
X107727133Y-143828107D01*
X107741747Y-143808402D01*
X107758223Y-143790223D01*
X107776402Y-143773747D01*
X107796107Y-143759133D01*
X107817151Y-143746520D01*
X107839329Y-143736030D01*
X107862429Y-143727765D01*
X107886227Y-143721804D01*
X107910496Y-143718204D01*
X107935000Y-143717000D01*
X109185000Y-143717000D01*
X109209504Y-143718204D01*
G37*
G36*
X109209504Y-146518204D02*
G01*
X109233773Y-146521804D01*
X109257571Y-146527765D01*
X109280671Y-146536030D01*
X109302849Y-146546520D01*
X109323893Y-146559133D01*
X109343598Y-146573747D01*
X109361777Y-146590223D01*
X109378253Y-146608402D01*
X109392867Y-146628107D01*
X109405480Y-146649151D01*
X109415970Y-146671329D01*
X109424235Y-146694429D01*
X109430196Y-146718227D01*
X109433796Y-146742496D01*
X109435000Y-146767000D01*
X109435000Y-147517000D01*
X109433796Y-147541504D01*
X109430196Y-147565773D01*
X109424235Y-147589571D01*
X109415970Y-147612671D01*
X109405480Y-147634849D01*
X109392867Y-147655893D01*
X109378253Y-147675598D01*
X109361777Y-147693777D01*
X109343598Y-147710253D01*
X109323893Y-147724867D01*
X109302849Y-147737480D01*
X109280671Y-147747970D01*
X109257571Y-147756235D01*
X109233773Y-147762196D01*
X109209504Y-147765796D01*
X109185000Y-147767000D01*
X107935000Y-147767000D01*
X107910496Y-147765796D01*
X107886227Y-147762196D01*
X107862429Y-147756235D01*
X107839329Y-147747970D01*
X107817151Y-147737480D01*
X107796107Y-147724867D01*
X107776402Y-147710253D01*
X107758223Y-147693777D01*
X107741747Y-147675598D01*
X107727133Y-147655893D01*
X107714520Y-147634849D01*
X107704030Y-147612671D01*
X107695765Y-147589571D01*
X107689804Y-147565773D01*
X107686204Y-147541504D01*
X107685000Y-147517000D01*
X107685000Y-146767000D01*
X107686204Y-146742496D01*
X107689804Y-146718227D01*
X107695765Y-146694429D01*
X107704030Y-146671329D01*
X107714520Y-146649151D01*
X107727133Y-146628107D01*
X107741747Y-146608402D01*
X107758223Y-146590223D01*
X107776402Y-146573747D01*
X107796107Y-146559133D01*
X107817151Y-146546520D01*
X107839329Y-146536030D01*
X107862429Y-146527765D01*
X107886227Y-146521804D01*
X107910496Y-146518204D01*
X107935000Y-146517000D01*
X109185000Y-146517000D01*
X109209504Y-146518204D01*
G37*
D14*
X119405000Y-147962000D03*
X119405000Y-146062000D03*
X117405000Y-147012000D03*
D13*
G36*
X429742351Y-134238361D02*
G01*
X429749632Y-134239441D01*
X429756771Y-134241229D01*
X429763701Y-134243709D01*
X429770355Y-134246856D01*
X429776668Y-134250640D01*
X429782579Y-134255024D01*
X429788033Y-134259967D01*
X429792976Y-134265421D01*
X429797360Y-134271332D01*
X429801144Y-134277645D01*
X429804291Y-134284299D01*
X429806771Y-134291229D01*
X429808559Y-134298368D01*
X429809639Y-134305649D01*
X429810000Y-134313000D01*
X429810000Y-135638000D01*
X429809639Y-135645351D01*
X429808559Y-135652632D01*
X429806771Y-135659771D01*
X429804291Y-135666701D01*
X429801144Y-135673355D01*
X429797360Y-135679668D01*
X429792976Y-135685579D01*
X429788033Y-135691033D01*
X429782579Y-135695976D01*
X429776668Y-135700360D01*
X429770355Y-135704144D01*
X429763701Y-135707291D01*
X429756771Y-135709771D01*
X429749632Y-135711559D01*
X429742351Y-135712639D01*
X429735000Y-135713000D01*
X429585000Y-135713000D01*
X429577649Y-135712639D01*
X429570368Y-135711559D01*
X429563229Y-135709771D01*
X429556299Y-135707291D01*
X429549645Y-135704144D01*
X429543332Y-135700360D01*
X429537421Y-135695976D01*
X429531967Y-135691033D01*
X429527024Y-135685579D01*
X429522640Y-135679668D01*
X429518856Y-135673355D01*
X429515709Y-135666701D01*
X429513229Y-135659771D01*
X429511441Y-135652632D01*
X429510361Y-135645351D01*
X429510000Y-135638000D01*
X429510000Y-134313000D01*
X429510361Y-134305649D01*
X429511441Y-134298368D01*
X429513229Y-134291229D01*
X429515709Y-134284299D01*
X429518856Y-134277645D01*
X429522640Y-134271332D01*
X429527024Y-134265421D01*
X429531967Y-134259967D01*
X429537421Y-134255024D01*
X429543332Y-134250640D01*
X429549645Y-134246856D01*
X429556299Y-134243709D01*
X429563229Y-134241229D01*
X429570368Y-134239441D01*
X429577649Y-134238361D01*
X429585000Y-134238000D01*
X429735000Y-134238000D01*
X429742351Y-134238361D01*
G37*
G36*
X430242351Y-134238361D02*
G01*
X430249632Y-134239441D01*
X430256771Y-134241229D01*
X430263701Y-134243709D01*
X430270355Y-134246856D01*
X430276668Y-134250640D01*
X430282579Y-134255024D01*
X430288033Y-134259967D01*
X430292976Y-134265421D01*
X430297360Y-134271332D01*
X430301144Y-134277645D01*
X430304291Y-134284299D01*
X430306771Y-134291229D01*
X430308559Y-134298368D01*
X430309639Y-134305649D01*
X430310000Y-134313000D01*
X430310000Y-135638000D01*
X430309639Y-135645351D01*
X430308559Y-135652632D01*
X430306771Y-135659771D01*
X430304291Y-135666701D01*
X430301144Y-135673355D01*
X430297360Y-135679668D01*
X430292976Y-135685579D01*
X430288033Y-135691033D01*
X430282579Y-135695976D01*
X430276668Y-135700360D01*
X430270355Y-135704144D01*
X430263701Y-135707291D01*
X430256771Y-135709771D01*
X430249632Y-135711559D01*
X430242351Y-135712639D01*
X430235000Y-135713000D01*
X430085000Y-135713000D01*
X430077649Y-135712639D01*
X430070368Y-135711559D01*
X430063229Y-135709771D01*
X430056299Y-135707291D01*
X430049645Y-135704144D01*
X430043332Y-135700360D01*
X430037421Y-135695976D01*
X430031967Y-135691033D01*
X430027024Y-135685579D01*
X430022640Y-135679668D01*
X430018856Y-135673355D01*
X430015709Y-135666701D01*
X430013229Y-135659771D01*
X430011441Y-135652632D01*
X430010361Y-135645351D01*
X430010000Y-135638000D01*
X430010000Y-134313000D01*
X430010361Y-134305649D01*
X430011441Y-134298368D01*
X430013229Y-134291229D01*
X430015709Y-134284299D01*
X430018856Y-134277645D01*
X430022640Y-134271332D01*
X430027024Y-134265421D01*
X430031967Y-134259967D01*
X430037421Y-134255024D01*
X430043332Y-134250640D01*
X430049645Y-134246856D01*
X430056299Y-134243709D01*
X430063229Y-134241229D01*
X430070368Y-134239441D01*
X430077649Y-134238361D01*
X430085000Y-134238000D01*
X430235000Y-134238000D01*
X430242351Y-134238361D01*
G37*
G36*
X430742351Y-134238361D02*
G01*
X430749632Y-134239441D01*
X430756771Y-134241229D01*
X430763701Y-134243709D01*
X430770355Y-134246856D01*
X430776668Y-134250640D01*
X430782579Y-134255024D01*
X430788033Y-134259967D01*
X430792976Y-134265421D01*
X430797360Y-134271332D01*
X430801144Y-134277645D01*
X430804291Y-134284299D01*
X430806771Y-134291229D01*
X430808559Y-134298368D01*
X430809639Y-134305649D01*
X430810000Y-134313000D01*
X430810000Y-135638000D01*
X430809639Y-135645351D01*
X430808559Y-135652632D01*
X430806771Y-135659771D01*
X430804291Y-135666701D01*
X430801144Y-135673355D01*
X430797360Y-135679668D01*
X430792976Y-135685579D01*
X430788033Y-135691033D01*
X430782579Y-135695976D01*
X430776668Y-135700360D01*
X430770355Y-135704144D01*
X430763701Y-135707291D01*
X430756771Y-135709771D01*
X430749632Y-135711559D01*
X430742351Y-135712639D01*
X430735000Y-135713000D01*
X430585000Y-135713000D01*
X430577649Y-135712639D01*
X430570368Y-135711559D01*
X430563229Y-135709771D01*
X430556299Y-135707291D01*
X430549645Y-135704144D01*
X430543332Y-135700360D01*
X430537421Y-135695976D01*
X430531967Y-135691033D01*
X430527024Y-135685579D01*
X430522640Y-135679668D01*
X430518856Y-135673355D01*
X430515709Y-135666701D01*
X430513229Y-135659771D01*
X430511441Y-135652632D01*
X430510361Y-135645351D01*
X430510000Y-135638000D01*
X430510000Y-134313000D01*
X430510361Y-134305649D01*
X430511441Y-134298368D01*
X430513229Y-134291229D01*
X430515709Y-134284299D01*
X430518856Y-134277645D01*
X430522640Y-134271332D01*
X430527024Y-134265421D01*
X430531967Y-134259967D01*
X430537421Y-134255024D01*
X430543332Y-134250640D01*
X430549645Y-134246856D01*
X430556299Y-134243709D01*
X430563229Y-134241229D01*
X430570368Y-134239441D01*
X430577649Y-134238361D01*
X430585000Y-134238000D01*
X430735000Y-134238000D01*
X430742351Y-134238361D01*
G37*
G36*
X431242351Y-134238361D02*
G01*
X431249632Y-134239441D01*
X431256771Y-134241229D01*
X431263701Y-134243709D01*
X431270355Y-134246856D01*
X431276668Y-134250640D01*
X431282579Y-134255024D01*
X431288033Y-134259967D01*
X431292976Y-134265421D01*
X431297360Y-134271332D01*
X431301144Y-134277645D01*
X431304291Y-134284299D01*
X431306771Y-134291229D01*
X431308559Y-134298368D01*
X431309639Y-134305649D01*
X431310000Y-134313000D01*
X431310000Y-135638000D01*
X431309639Y-135645351D01*
X431308559Y-135652632D01*
X431306771Y-135659771D01*
X431304291Y-135666701D01*
X431301144Y-135673355D01*
X431297360Y-135679668D01*
X431292976Y-135685579D01*
X431288033Y-135691033D01*
X431282579Y-135695976D01*
X431276668Y-135700360D01*
X431270355Y-135704144D01*
X431263701Y-135707291D01*
X431256771Y-135709771D01*
X431249632Y-135711559D01*
X431242351Y-135712639D01*
X431235000Y-135713000D01*
X431085000Y-135713000D01*
X431077649Y-135712639D01*
X431070368Y-135711559D01*
X431063229Y-135709771D01*
X431056299Y-135707291D01*
X431049645Y-135704144D01*
X431043332Y-135700360D01*
X431037421Y-135695976D01*
X431031967Y-135691033D01*
X431027024Y-135685579D01*
X431022640Y-135679668D01*
X431018856Y-135673355D01*
X431015709Y-135666701D01*
X431013229Y-135659771D01*
X431011441Y-135652632D01*
X431010361Y-135645351D01*
X431010000Y-135638000D01*
X431010000Y-134313000D01*
X431010361Y-134305649D01*
X431011441Y-134298368D01*
X431013229Y-134291229D01*
X431015709Y-134284299D01*
X431018856Y-134277645D01*
X431022640Y-134271332D01*
X431027024Y-134265421D01*
X431031967Y-134259967D01*
X431037421Y-134255024D01*
X431043332Y-134250640D01*
X431049645Y-134246856D01*
X431056299Y-134243709D01*
X431063229Y-134241229D01*
X431070368Y-134239441D01*
X431077649Y-134238361D01*
X431085000Y-134238000D01*
X431235000Y-134238000D01*
X431242351Y-134238361D01*
G37*
G36*
X431742351Y-134238361D02*
G01*
X431749632Y-134239441D01*
X431756771Y-134241229D01*
X431763701Y-134243709D01*
X431770355Y-134246856D01*
X431776668Y-134250640D01*
X431782579Y-134255024D01*
X431788033Y-134259967D01*
X431792976Y-134265421D01*
X431797360Y-134271332D01*
X431801144Y-134277645D01*
X431804291Y-134284299D01*
X431806771Y-134291229D01*
X431808559Y-134298368D01*
X431809639Y-134305649D01*
X431810000Y-134313000D01*
X431810000Y-135638000D01*
X431809639Y-135645351D01*
X431808559Y-135652632D01*
X431806771Y-135659771D01*
X431804291Y-135666701D01*
X431801144Y-135673355D01*
X431797360Y-135679668D01*
X431792976Y-135685579D01*
X431788033Y-135691033D01*
X431782579Y-135695976D01*
X431776668Y-135700360D01*
X431770355Y-135704144D01*
X431763701Y-135707291D01*
X431756771Y-135709771D01*
X431749632Y-135711559D01*
X431742351Y-135712639D01*
X431735000Y-135713000D01*
X431585000Y-135713000D01*
X431577649Y-135712639D01*
X431570368Y-135711559D01*
X431563229Y-135709771D01*
X431556299Y-135707291D01*
X431549645Y-135704144D01*
X431543332Y-135700360D01*
X431537421Y-135695976D01*
X431531967Y-135691033D01*
X431527024Y-135685579D01*
X431522640Y-135679668D01*
X431518856Y-135673355D01*
X431515709Y-135666701D01*
X431513229Y-135659771D01*
X431511441Y-135652632D01*
X431510361Y-135645351D01*
X431510000Y-135638000D01*
X431510000Y-134313000D01*
X431510361Y-134305649D01*
X431511441Y-134298368D01*
X431513229Y-134291229D01*
X431515709Y-134284299D01*
X431518856Y-134277645D01*
X431522640Y-134271332D01*
X431527024Y-134265421D01*
X431531967Y-134259967D01*
X431537421Y-134255024D01*
X431543332Y-134250640D01*
X431549645Y-134246856D01*
X431556299Y-134243709D01*
X431563229Y-134241229D01*
X431570368Y-134239441D01*
X431577649Y-134238361D01*
X431585000Y-134238000D01*
X431735000Y-134238000D01*
X431742351Y-134238361D01*
G37*
G36*
X432242351Y-134238361D02*
G01*
X432249632Y-134239441D01*
X432256771Y-134241229D01*
X432263701Y-134243709D01*
X432270355Y-134246856D01*
X432276668Y-134250640D01*
X432282579Y-134255024D01*
X432288033Y-134259967D01*
X432292976Y-134265421D01*
X432297360Y-134271332D01*
X432301144Y-134277645D01*
X432304291Y-134284299D01*
X432306771Y-134291229D01*
X432308559Y-134298368D01*
X432309639Y-134305649D01*
X432310000Y-134313000D01*
X432310000Y-135638000D01*
X432309639Y-135645351D01*
X432308559Y-135652632D01*
X432306771Y-135659771D01*
X432304291Y-135666701D01*
X432301144Y-135673355D01*
X432297360Y-135679668D01*
X432292976Y-135685579D01*
X432288033Y-135691033D01*
X432282579Y-135695976D01*
X432276668Y-135700360D01*
X432270355Y-135704144D01*
X432263701Y-135707291D01*
X432256771Y-135709771D01*
X432249632Y-135711559D01*
X432242351Y-135712639D01*
X432235000Y-135713000D01*
X432085000Y-135713000D01*
X432077649Y-135712639D01*
X432070368Y-135711559D01*
X432063229Y-135709771D01*
X432056299Y-135707291D01*
X432049645Y-135704144D01*
X432043332Y-135700360D01*
X432037421Y-135695976D01*
X432031967Y-135691033D01*
X432027024Y-135685579D01*
X432022640Y-135679668D01*
X432018856Y-135673355D01*
X432015709Y-135666701D01*
X432013229Y-135659771D01*
X432011441Y-135652632D01*
X432010361Y-135645351D01*
X432010000Y-135638000D01*
X432010000Y-134313000D01*
X432010361Y-134305649D01*
X432011441Y-134298368D01*
X432013229Y-134291229D01*
X432015709Y-134284299D01*
X432018856Y-134277645D01*
X432022640Y-134271332D01*
X432027024Y-134265421D01*
X432031967Y-134259967D01*
X432037421Y-134255024D01*
X432043332Y-134250640D01*
X432049645Y-134246856D01*
X432056299Y-134243709D01*
X432063229Y-134241229D01*
X432070368Y-134239441D01*
X432077649Y-134238361D01*
X432085000Y-134238000D01*
X432235000Y-134238000D01*
X432242351Y-134238361D01*
G37*
G36*
X432742351Y-134238361D02*
G01*
X432749632Y-134239441D01*
X432756771Y-134241229D01*
X432763701Y-134243709D01*
X432770355Y-134246856D01*
X432776668Y-134250640D01*
X432782579Y-134255024D01*
X432788033Y-134259967D01*
X432792976Y-134265421D01*
X432797360Y-134271332D01*
X432801144Y-134277645D01*
X432804291Y-134284299D01*
X432806771Y-134291229D01*
X432808559Y-134298368D01*
X432809639Y-134305649D01*
X432810000Y-134313000D01*
X432810000Y-135638000D01*
X432809639Y-135645351D01*
X432808559Y-135652632D01*
X432806771Y-135659771D01*
X432804291Y-135666701D01*
X432801144Y-135673355D01*
X432797360Y-135679668D01*
X432792976Y-135685579D01*
X432788033Y-135691033D01*
X432782579Y-135695976D01*
X432776668Y-135700360D01*
X432770355Y-135704144D01*
X432763701Y-135707291D01*
X432756771Y-135709771D01*
X432749632Y-135711559D01*
X432742351Y-135712639D01*
X432735000Y-135713000D01*
X432585000Y-135713000D01*
X432577649Y-135712639D01*
X432570368Y-135711559D01*
X432563229Y-135709771D01*
X432556299Y-135707291D01*
X432549645Y-135704144D01*
X432543332Y-135700360D01*
X432537421Y-135695976D01*
X432531967Y-135691033D01*
X432527024Y-135685579D01*
X432522640Y-135679668D01*
X432518856Y-135673355D01*
X432515709Y-135666701D01*
X432513229Y-135659771D01*
X432511441Y-135652632D01*
X432510361Y-135645351D01*
X432510000Y-135638000D01*
X432510000Y-134313000D01*
X432510361Y-134305649D01*
X432511441Y-134298368D01*
X432513229Y-134291229D01*
X432515709Y-134284299D01*
X432518856Y-134277645D01*
X432522640Y-134271332D01*
X432527024Y-134265421D01*
X432531967Y-134259967D01*
X432537421Y-134255024D01*
X432543332Y-134250640D01*
X432549645Y-134246856D01*
X432556299Y-134243709D01*
X432563229Y-134241229D01*
X432570368Y-134239441D01*
X432577649Y-134238361D01*
X432585000Y-134238000D01*
X432735000Y-134238000D01*
X432742351Y-134238361D01*
G37*
G36*
X433242351Y-134238361D02*
G01*
X433249632Y-134239441D01*
X433256771Y-134241229D01*
X433263701Y-134243709D01*
X433270355Y-134246856D01*
X433276668Y-134250640D01*
X433282579Y-134255024D01*
X433288033Y-134259967D01*
X433292976Y-134265421D01*
X433297360Y-134271332D01*
X433301144Y-134277645D01*
X433304291Y-134284299D01*
X433306771Y-134291229D01*
X433308559Y-134298368D01*
X433309639Y-134305649D01*
X433310000Y-134313000D01*
X433310000Y-135638000D01*
X433309639Y-135645351D01*
X433308559Y-135652632D01*
X433306771Y-135659771D01*
X433304291Y-135666701D01*
X433301144Y-135673355D01*
X433297360Y-135679668D01*
X433292976Y-135685579D01*
X433288033Y-135691033D01*
X433282579Y-135695976D01*
X433276668Y-135700360D01*
X433270355Y-135704144D01*
X433263701Y-135707291D01*
X433256771Y-135709771D01*
X433249632Y-135711559D01*
X433242351Y-135712639D01*
X433235000Y-135713000D01*
X433085000Y-135713000D01*
X433077649Y-135712639D01*
X433070368Y-135711559D01*
X433063229Y-135709771D01*
X433056299Y-135707291D01*
X433049645Y-135704144D01*
X433043332Y-135700360D01*
X433037421Y-135695976D01*
X433031967Y-135691033D01*
X433027024Y-135685579D01*
X433022640Y-135679668D01*
X433018856Y-135673355D01*
X433015709Y-135666701D01*
X433013229Y-135659771D01*
X433011441Y-135652632D01*
X433010361Y-135645351D01*
X433010000Y-135638000D01*
X433010000Y-134313000D01*
X433010361Y-134305649D01*
X433011441Y-134298368D01*
X433013229Y-134291229D01*
X433015709Y-134284299D01*
X433018856Y-134277645D01*
X433022640Y-134271332D01*
X433027024Y-134265421D01*
X433031967Y-134259967D01*
X433037421Y-134255024D01*
X433043332Y-134250640D01*
X433049645Y-134246856D01*
X433056299Y-134243709D01*
X433063229Y-134241229D01*
X433070368Y-134239441D01*
X433077649Y-134238361D01*
X433085000Y-134238000D01*
X433235000Y-134238000D01*
X433242351Y-134238361D01*
G37*
G36*
X433742351Y-134238361D02*
G01*
X433749632Y-134239441D01*
X433756771Y-134241229D01*
X433763701Y-134243709D01*
X433770355Y-134246856D01*
X433776668Y-134250640D01*
X433782579Y-134255024D01*
X433788033Y-134259967D01*
X433792976Y-134265421D01*
X433797360Y-134271332D01*
X433801144Y-134277645D01*
X433804291Y-134284299D01*
X433806771Y-134291229D01*
X433808559Y-134298368D01*
X433809639Y-134305649D01*
X433810000Y-134313000D01*
X433810000Y-135638000D01*
X433809639Y-135645351D01*
X433808559Y-135652632D01*
X433806771Y-135659771D01*
X433804291Y-135666701D01*
X433801144Y-135673355D01*
X433797360Y-135679668D01*
X433792976Y-135685579D01*
X433788033Y-135691033D01*
X433782579Y-135695976D01*
X433776668Y-135700360D01*
X433770355Y-135704144D01*
X433763701Y-135707291D01*
X433756771Y-135709771D01*
X433749632Y-135711559D01*
X433742351Y-135712639D01*
X433735000Y-135713000D01*
X433585000Y-135713000D01*
X433577649Y-135712639D01*
X433570368Y-135711559D01*
X433563229Y-135709771D01*
X433556299Y-135707291D01*
X433549645Y-135704144D01*
X433543332Y-135700360D01*
X433537421Y-135695976D01*
X433531967Y-135691033D01*
X433527024Y-135685579D01*
X433522640Y-135679668D01*
X433518856Y-135673355D01*
X433515709Y-135666701D01*
X433513229Y-135659771D01*
X433511441Y-135652632D01*
X433510361Y-135645351D01*
X433510000Y-135638000D01*
X433510000Y-134313000D01*
X433510361Y-134305649D01*
X433511441Y-134298368D01*
X433513229Y-134291229D01*
X433515709Y-134284299D01*
X433518856Y-134277645D01*
X433522640Y-134271332D01*
X433527024Y-134265421D01*
X433531967Y-134259967D01*
X433537421Y-134255024D01*
X433543332Y-134250640D01*
X433549645Y-134246856D01*
X433556299Y-134243709D01*
X433563229Y-134241229D01*
X433570368Y-134239441D01*
X433577649Y-134238361D01*
X433585000Y-134238000D01*
X433735000Y-134238000D01*
X433742351Y-134238361D01*
G37*
G36*
X434242351Y-134238361D02*
G01*
X434249632Y-134239441D01*
X434256771Y-134241229D01*
X434263701Y-134243709D01*
X434270355Y-134246856D01*
X434276668Y-134250640D01*
X434282579Y-134255024D01*
X434288033Y-134259967D01*
X434292976Y-134265421D01*
X434297360Y-134271332D01*
X434301144Y-134277645D01*
X434304291Y-134284299D01*
X434306771Y-134291229D01*
X434308559Y-134298368D01*
X434309639Y-134305649D01*
X434310000Y-134313000D01*
X434310000Y-135638000D01*
X434309639Y-135645351D01*
X434308559Y-135652632D01*
X434306771Y-135659771D01*
X434304291Y-135666701D01*
X434301144Y-135673355D01*
X434297360Y-135679668D01*
X434292976Y-135685579D01*
X434288033Y-135691033D01*
X434282579Y-135695976D01*
X434276668Y-135700360D01*
X434270355Y-135704144D01*
X434263701Y-135707291D01*
X434256771Y-135709771D01*
X434249632Y-135711559D01*
X434242351Y-135712639D01*
X434235000Y-135713000D01*
X434085000Y-135713000D01*
X434077649Y-135712639D01*
X434070368Y-135711559D01*
X434063229Y-135709771D01*
X434056299Y-135707291D01*
X434049645Y-135704144D01*
X434043332Y-135700360D01*
X434037421Y-135695976D01*
X434031967Y-135691033D01*
X434027024Y-135685579D01*
X434022640Y-135679668D01*
X434018856Y-135673355D01*
X434015709Y-135666701D01*
X434013229Y-135659771D01*
X434011441Y-135652632D01*
X434010361Y-135645351D01*
X434010000Y-135638000D01*
X434010000Y-134313000D01*
X434010361Y-134305649D01*
X434011441Y-134298368D01*
X434013229Y-134291229D01*
X434015709Y-134284299D01*
X434018856Y-134277645D01*
X434022640Y-134271332D01*
X434027024Y-134265421D01*
X434031967Y-134259967D01*
X434037421Y-134255024D01*
X434043332Y-134250640D01*
X434049645Y-134246856D01*
X434056299Y-134243709D01*
X434063229Y-134241229D01*
X434070368Y-134239441D01*
X434077649Y-134238361D01*
X434085000Y-134238000D01*
X434235000Y-134238000D01*
X434242351Y-134238361D01*
G37*
G36*
X434742351Y-134238361D02*
G01*
X434749632Y-134239441D01*
X434756771Y-134241229D01*
X434763701Y-134243709D01*
X434770355Y-134246856D01*
X434776668Y-134250640D01*
X434782579Y-134255024D01*
X434788033Y-134259967D01*
X434792976Y-134265421D01*
X434797360Y-134271332D01*
X434801144Y-134277645D01*
X434804291Y-134284299D01*
X434806771Y-134291229D01*
X434808559Y-134298368D01*
X434809639Y-134305649D01*
X434810000Y-134313000D01*
X434810000Y-135638000D01*
X434809639Y-135645351D01*
X434808559Y-135652632D01*
X434806771Y-135659771D01*
X434804291Y-135666701D01*
X434801144Y-135673355D01*
X434797360Y-135679668D01*
X434792976Y-135685579D01*
X434788033Y-135691033D01*
X434782579Y-135695976D01*
X434776668Y-135700360D01*
X434770355Y-135704144D01*
X434763701Y-135707291D01*
X434756771Y-135709771D01*
X434749632Y-135711559D01*
X434742351Y-135712639D01*
X434735000Y-135713000D01*
X434585000Y-135713000D01*
X434577649Y-135712639D01*
X434570368Y-135711559D01*
X434563229Y-135709771D01*
X434556299Y-135707291D01*
X434549645Y-135704144D01*
X434543332Y-135700360D01*
X434537421Y-135695976D01*
X434531967Y-135691033D01*
X434527024Y-135685579D01*
X434522640Y-135679668D01*
X434518856Y-135673355D01*
X434515709Y-135666701D01*
X434513229Y-135659771D01*
X434511441Y-135652632D01*
X434510361Y-135645351D01*
X434510000Y-135638000D01*
X434510000Y-134313000D01*
X434510361Y-134305649D01*
X434511441Y-134298368D01*
X434513229Y-134291229D01*
X434515709Y-134284299D01*
X434518856Y-134277645D01*
X434522640Y-134271332D01*
X434527024Y-134265421D01*
X434531967Y-134259967D01*
X434537421Y-134255024D01*
X434543332Y-134250640D01*
X434549645Y-134246856D01*
X434556299Y-134243709D01*
X434563229Y-134241229D01*
X434570368Y-134239441D01*
X434577649Y-134238361D01*
X434585000Y-134238000D01*
X434735000Y-134238000D01*
X434742351Y-134238361D01*
G37*
G36*
X435242351Y-134238361D02*
G01*
X435249632Y-134239441D01*
X435256771Y-134241229D01*
X435263701Y-134243709D01*
X435270355Y-134246856D01*
X435276668Y-134250640D01*
X435282579Y-134255024D01*
X435288033Y-134259967D01*
X435292976Y-134265421D01*
X435297360Y-134271332D01*
X435301144Y-134277645D01*
X435304291Y-134284299D01*
X435306771Y-134291229D01*
X435308559Y-134298368D01*
X435309639Y-134305649D01*
X435310000Y-134313000D01*
X435310000Y-135638000D01*
X435309639Y-135645351D01*
X435308559Y-135652632D01*
X435306771Y-135659771D01*
X435304291Y-135666701D01*
X435301144Y-135673355D01*
X435297360Y-135679668D01*
X435292976Y-135685579D01*
X435288033Y-135691033D01*
X435282579Y-135695976D01*
X435276668Y-135700360D01*
X435270355Y-135704144D01*
X435263701Y-135707291D01*
X435256771Y-135709771D01*
X435249632Y-135711559D01*
X435242351Y-135712639D01*
X435235000Y-135713000D01*
X435085000Y-135713000D01*
X435077649Y-135712639D01*
X435070368Y-135711559D01*
X435063229Y-135709771D01*
X435056299Y-135707291D01*
X435049645Y-135704144D01*
X435043332Y-135700360D01*
X435037421Y-135695976D01*
X435031967Y-135691033D01*
X435027024Y-135685579D01*
X435022640Y-135679668D01*
X435018856Y-135673355D01*
X435015709Y-135666701D01*
X435013229Y-135659771D01*
X435011441Y-135652632D01*
X435010361Y-135645351D01*
X435010000Y-135638000D01*
X435010000Y-134313000D01*
X435010361Y-134305649D01*
X435011441Y-134298368D01*
X435013229Y-134291229D01*
X435015709Y-134284299D01*
X435018856Y-134277645D01*
X435022640Y-134271332D01*
X435027024Y-134265421D01*
X435031967Y-134259967D01*
X435037421Y-134255024D01*
X435043332Y-134250640D01*
X435049645Y-134246856D01*
X435056299Y-134243709D01*
X435063229Y-134241229D01*
X435070368Y-134239441D01*
X435077649Y-134238361D01*
X435085000Y-134238000D01*
X435235000Y-134238000D01*
X435242351Y-134238361D01*
G37*
G36*
X437242351Y-136238361D02*
G01*
X437249632Y-136239441D01*
X437256771Y-136241229D01*
X437263701Y-136243709D01*
X437270355Y-136246856D01*
X437276668Y-136250640D01*
X437282579Y-136255024D01*
X437288033Y-136259967D01*
X437292976Y-136265421D01*
X437297360Y-136271332D01*
X437301144Y-136277645D01*
X437304291Y-136284299D01*
X437306771Y-136291229D01*
X437308559Y-136298368D01*
X437309639Y-136305649D01*
X437310000Y-136313000D01*
X437310000Y-136463000D01*
X437309639Y-136470351D01*
X437308559Y-136477632D01*
X437306771Y-136484771D01*
X437304291Y-136491701D01*
X437301144Y-136498355D01*
X437297360Y-136504668D01*
X437292976Y-136510579D01*
X437288033Y-136516033D01*
X437282579Y-136520976D01*
X437276668Y-136525360D01*
X437270355Y-136529144D01*
X437263701Y-136532291D01*
X437256771Y-136534771D01*
X437249632Y-136536559D01*
X437242351Y-136537639D01*
X437235000Y-136538000D01*
X435910000Y-136538000D01*
X435902649Y-136537639D01*
X435895368Y-136536559D01*
X435888229Y-136534771D01*
X435881299Y-136532291D01*
X435874645Y-136529144D01*
X435868332Y-136525360D01*
X435862421Y-136520976D01*
X435856967Y-136516033D01*
X435852024Y-136510579D01*
X435847640Y-136504668D01*
X435843856Y-136498355D01*
X435840709Y-136491701D01*
X435838229Y-136484771D01*
X435836441Y-136477632D01*
X435835361Y-136470351D01*
X435835000Y-136463000D01*
X435835000Y-136313000D01*
X435835361Y-136305649D01*
X435836441Y-136298368D01*
X435838229Y-136291229D01*
X435840709Y-136284299D01*
X435843856Y-136277645D01*
X435847640Y-136271332D01*
X435852024Y-136265421D01*
X435856967Y-136259967D01*
X435862421Y-136255024D01*
X435868332Y-136250640D01*
X435874645Y-136246856D01*
X435881299Y-136243709D01*
X435888229Y-136241229D01*
X435895368Y-136239441D01*
X435902649Y-136238361D01*
X435910000Y-136238000D01*
X437235000Y-136238000D01*
X437242351Y-136238361D01*
G37*
G36*
X437242351Y-136738361D02*
G01*
X437249632Y-136739441D01*
X437256771Y-136741229D01*
X437263701Y-136743709D01*
X437270355Y-136746856D01*
X437276668Y-136750640D01*
X437282579Y-136755024D01*
X437288033Y-136759967D01*
X437292976Y-136765421D01*
X437297360Y-136771332D01*
X437301144Y-136777645D01*
X437304291Y-136784299D01*
X437306771Y-136791229D01*
X437308559Y-136798368D01*
X437309639Y-136805649D01*
X437310000Y-136813000D01*
X437310000Y-136963000D01*
X437309639Y-136970351D01*
X437308559Y-136977632D01*
X437306771Y-136984771D01*
X437304291Y-136991701D01*
X437301144Y-136998355D01*
X437297360Y-137004668D01*
X437292976Y-137010579D01*
X437288033Y-137016033D01*
X437282579Y-137020976D01*
X437276668Y-137025360D01*
X437270355Y-137029144D01*
X437263701Y-137032291D01*
X437256771Y-137034771D01*
X437249632Y-137036559D01*
X437242351Y-137037639D01*
X437235000Y-137038000D01*
X435910000Y-137038000D01*
X435902649Y-137037639D01*
X435895368Y-137036559D01*
X435888229Y-137034771D01*
X435881299Y-137032291D01*
X435874645Y-137029144D01*
X435868332Y-137025360D01*
X435862421Y-137020976D01*
X435856967Y-137016033D01*
X435852024Y-137010579D01*
X435847640Y-137004668D01*
X435843856Y-136998355D01*
X435840709Y-136991701D01*
X435838229Y-136984771D01*
X435836441Y-136977632D01*
X435835361Y-136970351D01*
X435835000Y-136963000D01*
X435835000Y-136813000D01*
X435835361Y-136805649D01*
X435836441Y-136798368D01*
X435838229Y-136791229D01*
X435840709Y-136784299D01*
X435843856Y-136777645D01*
X435847640Y-136771332D01*
X435852024Y-136765421D01*
X435856967Y-136759967D01*
X435862421Y-136755024D01*
X435868332Y-136750640D01*
X435874645Y-136746856D01*
X435881299Y-136743709D01*
X435888229Y-136741229D01*
X435895368Y-136739441D01*
X435902649Y-136738361D01*
X435910000Y-136738000D01*
X437235000Y-136738000D01*
X437242351Y-136738361D01*
G37*
G36*
X437242351Y-137238361D02*
G01*
X437249632Y-137239441D01*
X437256771Y-137241229D01*
X437263701Y-137243709D01*
X437270355Y-137246856D01*
X437276668Y-137250640D01*
X437282579Y-137255024D01*
X437288033Y-137259967D01*
X437292976Y-137265421D01*
X437297360Y-137271332D01*
X437301144Y-137277645D01*
X437304291Y-137284299D01*
X437306771Y-137291229D01*
X437308559Y-137298368D01*
X437309639Y-137305649D01*
X437310000Y-137313000D01*
X437310000Y-137463000D01*
X437309639Y-137470351D01*
X437308559Y-137477632D01*
X437306771Y-137484771D01*
X437304291Y-137491701D01*
X437301144Y-137498355D01*
X437297360Y-137504668D01*
X437292976Y-137510579D01*
X437288033Y-137516033D01*
X437282579Y-137520976D01*
X437276668Y-137525360D01*
X437270355Y-137529144D01*
X437263701Y-137532291D01*
X437256771Y-137534771D01*
X437249632Y-137536559D01*
X437242351Y-137537639D01*
X437235000Y-137538000D01*
X435910000Y-137538000D01*
X435902649Y-137537639D01*
X435895368Y-137536559D01*
X435888229Y-137534771D01*
X435881299Y-137532291D01*
X435874645Y-137529144D01*
X435868332Y-137525360D01*
X435862421Y-137520976D01*
X435856967Y-137516033D01*
X435852024Y-137510579D01*
X435847640Y-137504668D01*
X435843856Y-137498355D01*
X435840709Y-137491701D01*
X435838229Y-137484771D01*
X435836441Y-137477632D01*
X435835361Y-137470351D01*
X435835000Y-137463000D01*
X435835000Y-137313000D01*
X435835361Y-137305649D01*
X435836441Y-137298368D01*
X435838229Y-137291229D01*
X435840709Y-137284299D01*
X435843856Y-137277645D01*
X435847640Y-137271332D01*
X435852024Y-137265421D01*
X435856967Y-137259967D01*
X435862421Y-137255024D01*
X435868332Y-137250640D01*
X435874645Y-137246856D01*
X435881299Y-137243709D01*
X435888229Y-137241229D01*
X435895368Y-137239441D01*
X435902649Y-137238361D01*
X435910000Y-137238000D01*
X437235000Y-137238000D01*
X437242351Y-137238361D01*
G37*
G36*
X437242351Y-137738361D02*
G01*
X437249632Y-137739441D01*
X437256771Y-137741229D01*
X437263701Y-137743709D01*
X437270355Y-137746856D01*
X437276668Y-137750640D01*
X437282579Y-137755024D01*
X437288033Y-137759967D01*
X437292976Y-137765421D01*
X437297360Y-137771332D01*
X437301144Y-137777645D01*
X437304291Y-137784299D01*
X437306771Y-137791229D01*
X437308559Y-137798368D01*
X437309639Y-137805649D01*
X437310000Y-137813000D01*
X437310000Y-137963000D01*
X437309639Y-137970351D01*
X437308559Y-137977632D01*
X437306771Y-137984771D01*
X437304291Y-137991701D01*
X437301144Y-137998355D01*
X437297360Y-138004668D01*
X437292976Y-138010579D01*
X437288033Y-138016033D01*
X437282579Y-138020976D01*
X437276668Y-138025360D01*
X437270355Y-138029144D01*
X437263701Y-138032291D01*
X437256771Y-138034771D01*
X437249632Y-138036559D01*
X437242351Y-138037639D01*
X437235000Y-138038000D01*
X435910000Y-138038000D01*
X435902649Y-138037639D01*
X435895368Y-138036559D01*
X435888229Y-138034771D01*
X435881299Y-138032291D01*
X435874645Y-138029144D01*
X435868332Y-138025360D01*
X435862421Y-138020976D01*
X435856967Y-138016033D01*
X435852024Y-138010579D01*
X435847640Y-138004668D01*
X435843856Y-137998355D01*
X435840709Y-137991701D01*
X435838229Y-137984771D01*
X435836441Y-137977632D01*
X435835361Y-137970351D01*
X435835000Y-137963000D01*
X435835000Y-137813000D01*
X435835361Y-137805649D01*
X435836441Y-137798368D01*
X435838229Y-137791229D01*
X435840709Y-137784299D01*
X435843856Y-137777645D01*
X435847640Y-137771332D01*
X435852024Y-137765421D01*
X435856967Y-137759967D01*
X435862421Y-137755024D01*
X435868332Y-137750640D01*
X435874645Y-137746856D01*
X435881299Y-137743709D01*
X435888229Y-137741229D01*
X435895368Y-137739441D01*
X435902649Y-137738361D01*
X435910000Y-137738000D01*
X437235000Y-137738000D01*
X437242351Y-137738361D01*
G37*
G36*
X437242351Y-138238361D02*
G01*
X437249632Y-138239441D01*
X437256771Y-138241229D01*
X437263701Y-138243709D01*
X437270355Y-138246856D01*
X437276668Y-138250640D01*
X437282579Y-138255024D01*
X437288033Y-138259967D01*
X437292976Y-138265421D01*
X437297360Y-138271332D01*
X437301144Y-138277645D01*
X437304291Y-138284299D01*
X437306771Y-138291229D01*
X437308559Y-138298368D01*
X437309639Y-138305649D01*
X437310000Y-138313000D01*
X437310000Y-138463000D01*
X437309639Y-138470351D01*
X437308559Y-138477632D01*
X437306771Y-138484771D01*
X437304291Y-138491701D01*
X437301144Y-138498355D01*
X437297360Y-138504668D01*
X437292976Y-138510579D01*
X437288033Y-138516033D01*
X437282579Y-138520976D01*
X437276668Y-138525360D01*
X437270355Y-138529144D01*
X437263701Y-138532291D01*
X437256771Y-138534771D01*
X437249632Y-138536559D01*
X437242351Y-138537639D01*
X437235000Y-138538000D01*
X435910000Y-138538000D01*
X435902649Y-138537639D01*
X435895368Y-138536559D01*
X435888229Y-138534771D01*
X435881299Y-138532291D01*
X435874645Y-138529144D01*
X435868332Y-138525360D01*
X435862421Y-138520976D01*
X435856967Y-138516033D01*
X435852024Y-138510579D01*
X435847640Y-138504668D01*
X435843856Y-138498355D01*
X435840709Y-138491701D01*
X435838229Y-138484771D01*
X435836441Y-138477632D01*
X435835361Y-138470351D01*
X435835000Y-138463000D01*
X435835000Y-138313000D01*
X435835361Y-138305649D01*
X435836441Y-138298368D01*
X435838229Y-138291229D01*
X435840709Y-138284299D01*
X435843856Y-138277645D01*
X435847640Y-138271332D01*
X435852024Y-138265421D01*
X435856967Y-138259967D01*
X435862421Y-138255024D01*
X435868332Y-138250640D01*
X435874645Y-138246856D01*
X435881299Y-138243709D01*
X435888229Y-138241229D01*
X435895368Y-138239441D01*
X435902649Y-138238361D01*
X435910000Y-138238000D01*
X437235000Y-138238000D01*
X437242351Y-138238361D01*
G37*
G36*
X437242351Y-138738361D02*
G01*
X437249632Y-138739441D01*
X437256771Y-138741229D01*
X437263701Y-138743709D01*
X437270355Y-138746856D01*
X437276668Y-138750640D01*
X437282579Y-138755024D01*
X437288033Y-138759967D01*
X437292976Y-138765421D01*
X437297360Y-138771332D01*
X437301144Y-138777645D01*
X437304291Y-138784299D01*
X437306771Y-138791229D01*
X437308559Y-138798368D01*
X437309639Y-138805649D01*
X437310000Y-138813000D01*
X437310000Y-138963000D01*
X437309639Y-138970351D01*
X437308559Y-138977632D01*
X437306771Y-138984771D01*
X437304291Y-138991701D01*
X437301144Y-138998355D01*
X437297360Y-139004668D01*
X437292976Y-139010579D01*
X437288033Y-139016033D01*
X437282579Y-139020976D01*
X437276668Y-139025360D01*
X437270355Y-139029144D01*
X437263701Y-139032291D01*
X437256771Y-139034771D01*
X437249632Y-139036559D01*
X437242351Y-139037639D01*
X437235000Y-139038000D01*
X435910000Y-139038000D01*
X435902649Y-139037639D01*
X435895368Y-139036559D01*
X435888229Y-139034771D01*
X435881299Y-139032291D01*
X435874645Y-139029144D01*
X435868332Y-139025360D01*
X435862421Y-139020976D01*
X435856967Y-139016033D01*
X435852024Y-139010579D01*
X435847640Y-139004668D01*
X435843856Y-138998355D01*
X435840709Y-138991701D01*
X435838229Y-138984771D01*
X435836441Y-138977632D01*
X435835361Y-138970351D01*
X435835000Y-138963000D01*
X435835000Y-138813000D01*
X435835361Y-138805649D01*
X435836441Y-138798368D01*
X435838229Y-138791229D01*
X435840709Y-138784299D01*
X435843856Y-138777645D01*
X435847640Y-138771332D01*
X435852024Y-138765421D01*
X435856967Y-138759967D01*
X435862421Y-138755024D01*
X435868332Y-138750640D01*
X435874645Y-138746856D01*
X435881299Y-138743709D01*
X435888229Y-138741229D01*
X435895368Y-138739441D01*
X435902649Y-138738361D01*
X435910000Y-138738000D01*
X437235000Y-138738000D01*
X437242351Y-138738361D01*
G37*
G36*
X437242351Y-139238361D02*
G01*
X437249632Y-139239441D01*
X437256771Y-139241229D01*
X437263701Y-139243709D01*
X437270355Y-139246856D01*
X437276668Y-139250640D01*
X437282579Y-139255024D01*
X437288033Y-139259967D01*
X437292976Y-139265421D01*
X437297360Y-139271332D01*
X437301144Y-139277645D01*
X437304291Y-139284299D01*
X437306771Y-139291229D01*
X437308559Y-139298368D01*
X437309639Y-139305649D01*
X437310000Y-139313000D01*
X437310000Y-139463000D01*
X437309639Y-139470351D01*
X437308559Y-139477632D01*
X437306771Y-139484771D01*
X437304291Y-139491701D01*
X437301144Y-139498355D01*
X437297360Y-139504668D01*
X437292976Y-139510579D01*
X437288033Y-139516033D01*
X437282579Y-139520976D01*
X437276668Y-139525360D01*
X437270355Y-139529144D01*
X437263701Y-139532291D01*
X437256771Y-139534771D01*
X437249632Y-139536559D01*
X437242351Y-139537639D01*
X437235000Y-139538000D01*
X435910000Y-139538000D01*
X435902649Y-139537639D01*
X435895368Y-139536559D01*
X435888229Y-139534771D01*
X435881299Y-139532291D01*
X435874645Y-139529144D01*
X435868332Y-139525360D01*
X435862421Y-139520976D01*
X435856967Y-139516033D01*
X435852024Y-139510579D01*
X435847640Y-139504668D01*
X435843856Y-139498355D01*
X435840709Y-139491701D01*
X435838229Y-139484771D01*
X435836441Y-139477632D01*
X435835361Y-139470351D01*
X435835000Y-139463000D01*
X435835000Y-139313000D01*
X435835361Y-139305649D01*
X435836441Y-139298368D01*
X435838229Y-139291229D01*
X435840709Y-139284299D01*
X435843856Y-139277645D01*
X435847640Y-139271332D01*
X435852024Y-139265421D01*
X435856967Y-139259967D01*
X435862421Y-139255024D01*
X435868332Y-139250640D01*
X435874645Y-139246856D01*
X435881299Y-139243709D01*
X435888229Y-139241229D01*
X435895368Y-139239441D01*
X435902649Y-139238361D01*
X435910000Y-139238000D01*
X437235000Y-139238000D01*
X437242351Y-139238361D01*
G37*
G36*
X437242351Y-139738361D02*
G01*
X437249632Y-139739441D01*
X437256771Y-139741229D01*
X437263701Y-139743709D01*
X437270355Y-139746856D01*
X437276668Y-139750640D01*
X437282579Y-139755024D01*
X437288033Y-139759967D01*
X437292976Y-139765421D01*
X437297360Y-139771332D01*
X437301144Y-139777645D01*
X437304291Y-139784299D01*
X437306771Y-139791229D01*
X437308559Y-139798368D01*
X437309639Y-139805649D01*
X437310000Y-139813000D01*
X437310000Y-139963000D01*
X437309639Y-139970351D01*
X437308559Y-139977632D01*
X437306771Y-139984771D01*
X437304291Y-139991701D01*
X437301144Y-139998355D01*
X437297360Y-140004668D01*
X437292976Y-140010579D01*
X437288033Y-140016033D01*
X437282579Y-140020976D01*
X437276668Y-140025360D01*
X437270355Y-140029144D01*
X437263701Y-140032291D01*
X437256771Y-140034771D01*
X437249632Y-140036559D01*
X437242351Y-140037639D01*
X437235000Y-140038000D01*
X435910000Y-140038000D01*
X435902649Y-140037639D01*
X435895368Y-140036559D01*
X435888229Y-140034771D01*
X435881299Y-140032291D01*
X435874645Y-140029144D01*
X435868332Y-140025360D01*
X435862421Y-140020976D01*
X435856967Y-140016033D01*
X435852024Y-140010579D01*
X435847640Y-140004668D01*
X435843856Y-139998355D01*
X435840709Y-139991701D01*
X435838229Y-139984771D01*
X435836441Y-139977632D01*
X435835361Y-139970351D01*
X435835000Y-139963000D01*
X435835000Y-139813000D01*
X435835361Y-139805649D01*
X435836441Y-139798368D01*
X435838229Y-139791229D01*
X435840709Y-139784299D01*
X435843856Y-139777645D01*
X435847640Y-139771332D01*
X435852024Y-139765421D01*
X435856967Y-139759967D01*
X435862421Y-139755024D01*
X435868332Y-139750640D01*
X435874645Y-139746856D01*
X435881299Y-139743709D01*
X435888229Y-139741229D01*
X435895368Y-139739441D01*
X435902649Y-139738361D01*
X435910000Y-139738000D01*
X437235000Y-139738000D01*
X437242351Y-139738361D01*
G37*
G36*
X437242351Y-140238361D02*
G01*
X437249632Y-140239441D01*
X437256771Y-140241229D01*
X437263701Y-140243709D01*
X437270355Y-140246856D01*
X437276668Y-140250640D01*
X437282579Y-140255024D01*
X437288033Y-140259967D01*
X437292976Y-140265421D01*
X437297360Y-140271332D01*
X437301144Y-140277645D01*
X437304291Y-140284299D01*
X437306771Y-140291229D01*
X437308559Y-140298368D01*
X437309639Y-140305649D01*
X437310000Y-140313000D01*
X437310000Y-140463000D01*
X437309639Y-140470351D01*
X437308559Y-140477632D01*
X437306771Y-140484771D01*
X437304291Y-140491701D01*
X437301144Y-140498355D01*
X437297360Y-140504668D01*
X437292976Y-140510579D01*
X437288033Y-140516033D01*
X437282579Y-140520976D01*
X437276668Y-140525360D01*
X437270355Y-140529144D01*
X437263701Y-140532291D01*
X437256771Y-140534771D01*
X437249632Y-140536559D01*
X437242351Y-140537639D01*
X437235000Y-140538000D01*
X435910000Y-140538000D01*
X435902649Y-140537639D01*
X435895368Y-140536559D01*
X435888229Y-140534771D01*
X435881299Y-140532291D01*
X435874645Y-140529144D01*
X435868332Y-140525360D01*
X435862421Y-140520976D01*
X435856967Y-140516033D01*
X435852024Y-140510579D01*
X435847640Y-140504668D01*
X435843856Y-140498355D01*
X435840709Y-140491701D01*
X435838229Y-140484771D01*
X435836441Y-140477632D01*
X435835361Y-140470351D01*
X435835000Y-140463000D01*
X435835000Y-140313000D01*
X435835361Y-140305649D01*
X435836441Y-140298368D01*
X435838229Y-140291229D01*
X435840709Y-140284299D01*
X435843856Y-140277645D01*
X435847640Y-140271332D01*
X435852024Y-140265421D01*
X435856967Y-140259967D01*
X435862421Y-140255024D01*
X435868332Y-140250640D01*
X435874645Y-140246856D01*
X435881299Y-140243709D01*
X435888229Y-140241229D01*
X435895368Y-140239441D01*
X435902649Y-140238361D01*
X435910000Y-140238000D01*
X437235000Y-140238000D01*
X437242351Y-140238361D01*
G37*
G36*
X437242351Y-140738361D02*
G01*
X437249632Y-140739441D01*
X437256771Y-140741229D01*
X437263701Y-140743709D01*
X437270355Y-140746856D01*
X437276668Y-140750640D01*
X437282579Y-140755024D01*
X437288033Y-140759967D01*
X437292976Y-140765421D01*
X437297360Y-140771332D01*
X437301144Y-140777645D01*
X437304291Y-140784299D01*
X437306771Y-140791229D01*
X437308559Y-140798368D01*
X437309639Y-140805649D01*
X437310000Y-140813000D01*
X437310000Y-140963000D01*
X437309639Y-140970351D01*
X437308559Y-140977632D01*
X437306771Y-140984771D01*
X437304291Y-140991701D01*
X437301144Y-140998355D01*
X437297360Y-141004668D01*
X437292976Y-141010579D01*
X437288033Y-141016033D01*
X437282579Y-141020976D01*
X437276668Y-141025360D01*
X437270355Y-141029144D01*
X437263701Y-141032291D01*
X437256771Y-141034771D01*
X437249632Y-141036559D01*
X437242351Y-141037639D01*
X437235000Y-141038000D01*
X435910000Y-141038000D01*
X435902649Y-141037639D01*
X435895368Y-141036559D01*
X435888229Y-141034771D01*
X435881299Y-141032291D01*
X435874645Y-141029144D01*
X435868332Y-141025360D01*
X435862421Y-141020976D01*
X435856967Y-141016033D01*
X435852024Y-141010579D01*
X435847640Y-141004668D01*
X435843856Y-140998355D01*
X435840709Y-140991701D01*
X435838229Y-140984771D01*
X435836441Y-140977632D01*
X435835361Y-140970351D01*
X435835000Y-140963000D01*
X435835000Y-140813000D01*
X435835361Y-140805649D01*
X435836441Y-140798368D01*
X435838229Y-140791229D01*
X435840709Y-140784299D01*
X435843856Y-140777645D01*
X435847640Y-140771332D01*
X435852024Y-140765421D01*
X435856967Y-140759967D01*
X435862421Y-140755024D01*
X435868332Y-140750640D01*
X435874645Y-140746856D01*
X435881299Y-140743709D01*
X435888229Y-140741229D01*
X435895368Y-140739441D01*
X435902649Y-140738361D01*
X435910000Y-140738000D01*
X437235000Y-140738000D01*
X437242351Y-140738361D01*
G37*
G36*
X437242351Y-141238361D02*
G01*
X437249632Y-141239441D01*
X437256771Y-141241229D01*
X437263701Y-141243709D01*
X437270355Y-141246856D01*
X437276668Y-141250640D01*
X437282579Y-141255024D01*
X437288033Y-141259967D01*
X437292976Y-141265421D01*
X437297360Y-141271332D01*
X437301144Y-141277645D01*
X437304291Y-141284299D01*
X437306771Y-141291229D01*
X437308559Y-141298368D01*
X437309639Y-141305649D01*
X437310000Y-141313000D01*
X437310000Y-141463000D01*
X437309639Y-141470351D01*
X437308559Y-141477632D01*
X437306771Y-141484771D01*
X437304291Y-141491701D01*
X437301144Y-141498355D01*
X437297360Y-141504668D01*
X437292976Y-141510579D01*
X437288033Y-141516033D01*
X437282579Y-141520976D01*
X437276668Y-141525360D01*
X437270355Y-141529144D01*
X437263701Y-141532291D01*
X437256771Y-141534771D01*
X437249632Y-141536559D01*
X437242351Y-141537639D01*
X437235000Y-141538000D01*
X435910000Y-141538000D01*
X435902649Y-141537639D01*
X435895368Y-141536559D01*
X435888229Y-141534771D01*
X435881299Y-141532291D01*
X435874645Y-141529144D01*
X435868332Y-141525360D01*
X435862421Y-141520976D01*
X435856967Y-141516033D01*
X435852024Y-141510579D01*
X435847640Y-141504668D01*
X435843856Y-141498355D01*
X435840709Y-141491701D01*
X435838229Y-141484771D01*
X435836441Y-141477632D01*
X435835361Y-141470351D01*
X435835000Y-141463000D01*
X435835000Y-141313000D01*
X435835361Y-141305649D01*
X435836441Y-141298368D01*
X435838229Y-141291229D01*
X435840709Y-141284299D01*
X435843856Y-141277645D01*
X435847640Y-141271332D01*
X435852024Y-141265421D01*
X435856967Y-141259967D01*
X435862421Y-141255024D01*
X435868332Y-141250640D01*
X435874645Y-141246856D01*
X435881299Y-141243709D01*
X435888229Y-141241229D01*
X435895368Y-141239441D01*
X435902649Y-141238361D01*
X435910000Y-141238000D01*
X437235000Y-141238000D01*
X437242351Y-141238361D01*
G37*
G36*
X437242351Y-141738361D02*
G01*
X437249632Y-141739441D01*
X437256771Y-141741229D01*
X437263701Y-141743709D01*
X437270355Y-141746856D01*
X437276668Y-141750640D01*
X437282579Y-141755024D01*
X437288033Y-141759967D01*
X437292976Y-141765421D01*
X437297360Y-141771332D01*
X437301144Y-141777645D01*
X437304291Y-141784299D01*
X437306771Y-141791229D01*
X437308559Y-141798368D01*
X437309639Y-141805649D01*
X437310000Y-141813000D01*
X437310000Y-141963000D01*
X437309639Y-141970351D01*
X437308559Y-141977632D01*
X437306771Y-141984771D01*
X437304291Y-141991701D01*
X437301144Y-141998355D01*
X437297360Y-142004668D01*
X437292976Y-142010579D01*
X437288033Y-142016033D01*
X437282579Y-142020976D01*
X437276668Y-142025360D01*
X437270355Y-142029144D01*
X437263701Y-142032291D01*
X437256771Y-142034771D01*
X437249632Y-142036559D01*
X437242351Y-142037639D01*
X437235000Y-142038000D01*
X435910000Y-142038000D01*
X435902649Y-142037639D01*
X435895368Y-142036559D01*
X435888229Y-142034771D01*
X435881299Y-142032291D01*
X435874645Y-142029144D01*
X435868332Y-142025360D01*
X435862421Y-142020976D01*
X435856967Y-142016033D01*
X435852024Y-142010579D01*
X435847640Y-142004668D01*
X435843856Y-141998355D01*
X435840709Y-141991701D01*
X435838229Y-141984771D01*
X435836441Y-141977632D01*
X435835361Y-141970351D01*
X435835000Y-141963000D01*
X435835000Y-141813000D01*
X435835361Y-141805649D01*
X435836441Y-141798368D01*
X435838229Y-141791229D01*
X435840709Y-141784299D01*
X435843856Y-141777645D01*
X435847640Y-141771332D01*
X435852024Y-141765421D01*
X435856967Y-141759967D01*
X435862421Y-141755024D01*
X435868332Y-141750640D01*
X435874645Y-141746856D01*
X435881299Y-141743709D01*
X435888229Y-141741229D01*
X435895368Y-141739441D01*
X435902649Y-141738361D01*
X435910000Y-141738000D01*
X437235000Y-141738000D01*
X437242351Y-141738361D01*
G37*
G36*
X435242351Y-142563361D02*
G01*
X435249632Y-142564441D01*
X435256771Y-142566229D01*
X435263701Y-142568709D01*
X435270355Y-142571856D01*
X435276668Y-142575640D01*
X435282579Y-142580024D01*
X435288033Y-142584967D01*
X435292976Y-142590421D01*
X435297360Y-142596332D01*
X435301144Y-142602645D01*
X435304291Y-142609299D01*
X435306771Y-142616229D01*
X435308559Y-142623368D01*
X435309639Y-142630649D01*
X435310000Y-142638000D01*
X435310000Y-143963000D01*
X435309639Y-143970351D01*
X435308559Y-143977632D01*
X435306771Y-143984771D01*
X435304291Y-143991701D01*
X435301144Y-143998355D01*
X435297360Y-144004668D01*
X435292976Y-144010579D01*
X435288033Y-144016033D01*
X435282579Y-144020976D01*
X435276668Y-144025360D01*
X435270355Y-144029144D01*
X435263701Y-144032291D01*
X435256771Y-144034771D01*
X435249632Y-144036559D01*
X435242351Y-144037639D01*
X435235000Y-144038000D01*
X435085000Y-144038000D01*
X435077649Y-144037639D01*
X435070368Y-144036559D01*
X435063229Y-144034771D01*
X435056299Y-144032291D01*
X435049645Y-144029144D01*
X435043332Y-144025360D01*
X435037421Y-144020976D01*
X435031967Y-144016033D01*
X435027024Y-144010579D01*
X435022640Y-144004668D01*
X435018856Y-143998355D01*
X435015709Y-143991701D01*
X435013229Y-143984771D01*
X435011441Y-143977632D01*
X435010361Y-143970351D01*
X435010000Y-143963000D01*
X435010000Y-142638000D01*
X435010361Y-142630649D01*
X435011441Y-142623368D01*
X435013229Y-142616229D01*
X435015709Y-142609299D01*
X435018856Y-142602645D01*
X435022640Y-142596332D01*
X435027024Y-142590421D01*
X435031967Y-142584967D01*
X435037421Y-142580024D01*
X435043332Y-142575640D01*
X435049645Y-142571856D01*
X435056299Y-142568709D01*
X435063229Y-142566229D01*
X435070368Y-142564441D01*
X435077649Y-142563361D01*
X435085000Y-142563000D01*
X435235000Y-142563000D01*
X435242351Y-142563361D01*
G37*
G36*
X434742351Y-142563361D02*
G01*
X434749632Y-142564441D01*
X434756771Y-142566229D01*
X434763701Y-142568709D01*
X434770355Y-142571856D01*
X434776668Y-142575640D01*
X434782579Y-142580024D01*
X434788033Y-142584967D01*
X434792976Y-142590421D01*
X434797360Y-142596332D01*
X434801144Y-142602645D01*
X434804291Y-142609299D01*
X434806771Y-142616229D01*
X434808559Y-142623368D01*
X434809639Y-142630649D01*
X434810000Y-142638000D01*
X434810000Y-143963000D01*
X434809639Y-143970351D01*
X434808559Y-143977632D01*
X434806771Y-143984771D01*
X434804291Y-143991701D01*
X434801144Y-143998355D01*
X434797360Y-144004668D01*
X434792976Y-144010579D01*
X434788033Y-144016033D01*
X434782579Y-144020976D01*
X434776668Y-144025360D01*
X434770355Y-144029144D01*
X434763701Y-144032291D01*
X434756771Y-144034771D01*
X434749632Y-144036559D01*
X434742351Y-144037639D01*
X434735000Y-144038000D01*
X434585000Y-144038000D01*
X434577649Y-144037639D01*
X434570368Y-144036559D01*
X434563229Y-144034771D01*
X434556299Y-144032291D01*
X434549645Y-144029144D01*
X434543332Y-144025360D01*
X434537421Y-144020976D01*
X434531967Y-144016033D01*
X434527024Y-144010579D01*
X434522640Y-144004668D01*
X434518856Y-143998355D01*
X434515709Y-143991701D01*
X434513229Y-143984771D01*
X434511441Y-143977632D01*
X434510361Y-143970351D01*
X434510000Y-143963000D01*
X434510000Y-142638000D01*
X434510361Y-142630649D01*
X434511441Y-142623368D01*
X434513229Y-142616229D01*
X434515709Y-142609299D01*
X434518856Y-142602645D01*
X434522640Y-142596332D01*
X434527024Y-142590421D01*
X434531967Y-142584967D01*
X434537421Y-142580024D01*
X434543332Y-142575640D01*
X434549645Y-142571856D01*
X434556299Y-142568709D01*
X434563229Y-142566229D01*
X434570368Y-142564441D01*
X434577649Y-142563361D01*
X434585000Y-142563000D01*
X434735000Y-142563000D01*
X434742351Y-142563361D01*
G37*
G36*
X434242351Y-142563361D02*
G01*
X434249632Y-142564441D01*
X434256771Y-142566229D01*
X434263701Y-142568709D01*
X434270355Y-142571856D01*
X434276668Y-142575640D01*
X434282579Y-142580024D01*
X434288033Y-142584967D01*
X434292976Y-142590421D01*
X434297360Y-142596332D01*
X434301144Y-142602645D01*
X434304291Y-142609299D01*
X434306771Y-142616229D01*
X434308559Y-142623368D01*
X434309639Y-142630649D01*
X434310000Y-142638000D01*
X434310000Y-143963000D01*
X434309639Y-143970351D01*
X434308559Y-143977632D01*
X434306771Y-143984771D01*
X434304291Y-143991701D01*
X434301144Y-143998355D01*
X434297360Y-144004668D01*
X434292976Y-144010579D01*
X434288033Y-144016033D01*
X434282579Y-144020976D01*
X434276668Y-144025360D01*
X434270355Y-144029144D01*
X434263701Y-144032291D01*
X434256771Y-144034771D01*
X434249632Y-144036559D01*
X434242351Y-144037639D01*
X434235000Y-144038000D01*
X434085000Y-144038000D01*
X434077649Y-144037639D01*
X434070368Y-144036559D01*
X434063229Y-144034771D01*
X434056299Y-144032291D01*
X434049645Y-144029144D01*
X434043332Y-144025360D01*
X434037421Y-144020976D01*
X434031967Y-144016033D01*
X434027024Y-144010579D01*
X434022640Y-144004668D01*
X434018856Y-143998355D01*
X434015709Y-143991701D01*
X434013229Y-143984771D01*
X434011441Y-143977632D01*
X434010361Y-143970351D01*
X434010000Y-143963000D01*
X434010000Y-142638000D01*
X434010361Y-142630649D01*
X434011441Y-142623368D01*
X434013229Y-142616229D01*
X434015709Y-142609299D01*
X434018856Y-142602645D01*
X434022640Y-142596332D01*
X434027024Y-142590421D01*
X434031967Y-142584967D01*
X434037421Y-142580024D01*
X434043332Y-142575640D01*
X434049645Y-142571856D01*
X434056299Y-142568709D01*
X434063229Y-142566229D01*
X434070368Y-142564441D01*
X434077649Y-142563361D01*
X434085000Y-142563000D01*
X434235000Y-142563000D01*
X434242351Y-142563361D01*
G37*
G36*
X433742351Y-142563361D02*
G01*
X433749632Y-142564441D01*
X433756771Y-142566229D01*
X433763701Y-142568709D01*
X433770355Y-142571856D01*
X433776668Y-142575640D01*
X433782579Y-142580024D01*
X433788033Y-142584967D01*
X433792976Y-142590421D01*
X433797360Y-142596332D01*
X433801144Y-142602645D01*
X433804291Y-142609299D01*
X433806771Y-142616229D01*
X433808559Y-142623368D01*
X433809639Y-142630649D01*
X433810000Y-142638000D01*
X433810000Y-143963000D01*
X433809639Y-143970351D01*
X433808559Y-143977632D01*
X433806771Y-143984771D01*
X433804291Y-143991701D01*
X433801144Y-143998355D01*
X433797360Y-144004668D01*
X433792976Y-144010579D01*
X433788033Y-144016033D01*
X433782579Y-144020976D01*
X433776668Y-144025360D01*
X433770355Y-144029144D01*
X433763701Y-144032291D01*
X433756771Y-144034771D01*
X433749632Y-144036559D01*
X433742351Y-144037639D01*
X433735000Y-144038000D01*
X433585000Y-144038000D01*
X433577649Y-144037639D01*
X433570368Y-144036559D01*
X433563229Y-144034771D01*
X433556299Y-144032291D01*
X433549645Y-144029144D01*
X433543332Y-144025360D01*
X433537421Y-144020976D01*
X433531967Y-144016033D01*
X433527024Y-144010579D01*
X433522640Y-144004668D01*
X433518856Y-143998355D01*
X433515709Y-143991701D01*
X433513229Y-143984771D01*
X433511441Y-143977632D01*
X433510361Y-143970351D01*
X433510000Y-143963000D01*
X433510000Y-142638000D01*
X433510361Y-142630649D01*
X433511441Y-142623368D01*
X433513229Y-142616229D01*
X433515709Y-142609299D01*
X433518856Y-142602645D01*
X433522640Y-142596332D01*
X433527024Y-142590421D01*
X433531967Y-142584967D01*
X433537421Y-142580024D01*
X433543332Y-142575640D01*
X433549645Y-142571856D01*
X433556299Y-142568709D01*
X433563229Y-142566229D01*
X433570368Y-142564441D01*
X433577649Y-142563361D01*
X433585000Y-142563000D01*
X433735000Y-142563000D01*
X433742351Y-142563361D01*
G37*
G36*
X433242351Y-142563361D02*
G01*
X433249632Y-142564441D01*
X433256771Y-142566229D01*
X433263701Y-142568709D01*
X433270355Y-142571856D01*
X433276668Y-142575640D01*
X433282579Y-142580024D01*
X433288033Y-142584967D01*
X433292976Y-142590421D01*
X433297360Y-142596332D01*
X433301144Y-142602645D01*
X433304291Y-142609299D01*
X433306771Y-142616229D01*
X433308559Y-142623368D01*
X433309639Y-142630649D01*
X433310000Y-142638000D01*
X433310000Y-143963000D01*
X433309639Y-143970351D01*
X433308559Y-143977632D01*
X433306771Y-143984771D01*
X433304291Y-143991701D01*
X433301144Y-143998355D01*
X433297360Y-144004668D01*
X433292976Y-144010579D01*
X433288033Y-144016033D01*
X433282579Y-144020976D01*
X433276668Y-144025360D01*
X433270355Y-144029144D01*
X433263701Y-144032291D01*
X433256771Y-144034771D01*
X433249632Y-144036559D01*
X433242351Y-144037639D01*
X433235000Y-144038000D01*
X433085000Y-144038000D01*
X433077649Y-144037639D01*
X433070368Y-144036559D01*
X433063229Y-144034771D01*
X433056299Y-144032291D01*
X433049645Y-144029144D01*
X433043332Y-144025360D01*
X433037421Y-144020976D01*
X433031967Y-144016033D01*
X433027024Y-144010579D01*
X433022640Y-144004668D01*
X433018856Y-143998355D01*
X433015709Y-143991701D01*
X433013229Y-143984771D01*
X433011441Y-143977632D01*
X433010361Y-143970351D01*
X433010000Y-143963000D01*
X433010000Y-142638000D01*
X433010361Y-142630649D01*
X433011441Y-142623368D01*
X433013229Y-142616229D01*
X433015709Y-142609299D01*
X433018856Y-142602645D01*
X433022640Y-142596332D01*
X433027024Y-142590421D01*
X433031967Y-142584967D01*
X433037421Y-142580024D01*
X433043332Y-142575640D01*
X433049645Y-142571856D01*
X433056299Y-142568709D01*
X433063229Y-142566229D01*
X433070368Y-142564441D01*
X433077649Y-142563361D01*
X433085000Y-142563000D01*
X433235000Y-142563000D01*
X433242351Y-142563361D01*
G37*
G36*
X432742351Y-142563361D02*
G01*
X432749632Y-142564441D01*
X432756771Y-142566229D01*
X432763701Y-142568709D01*
X432770355Y-142571856D01*
X432776668Y-142575640D01*
X432782579Y-142580024D01*
X432788033Y-142584967D01*
X432792976Y-142590421D01*
X432797360Y-142596332D01*
X432801144Y-142602645D01*
X432804291Y-142609299D01*
X432806771Y-142616229D01*
X432808559Y-142623368D01*
X432809639Y-142630649D01*
X432810000Y-142638000D01*
X432810000Y-143963000D01*
X432809639Y-143970351D01*
X432808559Y-143977632D01*
X432806771Y-143984771D01*
X432804291Y-143991701D01*
X432801144Y-143998355D01*
X432797360Y-144004668D01*
X432792976Y-144010579D01*
X432788033Y-144016033D01*
X432782579Y-144020976D01*
X432776668Y-144025360D01*
X432770355Y-144029144D01*
X432763701Y-144032291D01*
X432756771Y-144034771D01*
X432749632Y-144036559D01*
X432742351Y-144037639D01*
X432735000Y-144038000D01*
X432585000Y-144038000D01*
X432577649Y-144037639D01*
X432570368Y-144036559D01*
X432563229Y-144034771D01*
X432556299Y-144032291D01*
X432549645Y-144029144D01*
X432543332Y-144025360D01*
X432537421Y-144020976D01*
X432531967Y-144016033D01*
X432527024Y-144010579D01*
X432522640Y-144004668D01*
X432518856Y-143998355D01*
X432515709Y-143991701D01*
X432513229Y-143984771D01*
X432511441Y-143977632D01*
X432510361Y-143970351D01*
X432510000Y-143963000D01*
X432510000Y-142638000D01*
X432510361Y-142630649D01*
X432511441Y-142623368D01*
X432513229Y-142616229D01*
X432515709Y-142609299D01*
X432518856Y-142602645D01*
X432522640Y-142596332D01*
X432527024Y-142590421D01*
X432531967Y-142584967D01*
X432537421Y-142580024D01*
X432543332Y-142575640D01*
X432549645Y-142571856D01*
X432556299Y-142568709D01*
X432563229Y-142566229D01*
X432570368Y-142564441D01*
X432577649Y-142563361D01*
X432585000Y-142563000D01*
X432735000Y-142563000D01*
X432742351Y-142563361D01*
G37*
G36*
X432242351Y-142563361D02*
G01*
X432249632Y-142564441D01*
X432256771Y-142566229D01*
X432263701Y-142568709D01*
X432270355Y-142571856D01*
X432276668Y-142575640D01*
X432282579Y-142580024D01*
X432288033Y-142584967D01*
X432292976Y-142590421D01*
X432297360Y-142596332D01*
X432301144Y-142602645D01*
X432304291Y-142609299D01*
X432306771Y-142616229D01*
X432308559Y-142623368D01*
X432309639Y-142630649D01*
X432310000Y-142638000D01*
X432310000Y-143963000D01*
X432309639Y-143970351D01*
X432308559Y-143977632D01*
X432306771Y-143984771D01*
X432304291Y-143991701D01*
X432301144Y-143998355D01*
X432297360Y-144004668D01*
X432292976Y-144010579D01*
X432288033Y-144016033D01*
X432282579Y-144020976D01*
X432276668Y-144025360D01*
X432270355Y-144029144D01*
X432263701Y-144032291D01*
X432256771Y-144034771D01*
X432249632Y-144036559D01*
X432242351Y-144037639D01*
X432235000Y-144038000D01*
X432085000Y-144038000D01*
X432077649Y-144037639D01*
X432070368Y-144036559D01*
X432063229Y-144034771D01*
X432056299Y-144032291D01*
X432049645Y-144029144D01*
X432043332Y-144025360D01*
X432037421Y-144020976D01*
X432031967Y-144016033D01*
X432027024Y-144010579D01*
X432022640Y-144004668D01*
X432018856Y-143998355D01*
X432015709Y-143991701D01*
X432013229Y-143984771D01*
X432011441Y-143977632D01*
X432010361Y-143970351D01*
X432010000Y-143963000D01*
X432010000Y-142638000D01*
X432010361Y-142630649D01*
X432011441Y-142623368D01*
X432013229Y-142616229D01*
X432015709Y-142609299D01*
X432018856Y-142602645D01*
X432022640Y-142596332D01*
X432027024Y-142590421D01*
X432031967Y-142584967D01*
X432037421Y-142580024D01*
X432043332Y-142575640D01*
X432049645Y-142571856D01*
X432056299Y-142568709D01*
X432063229Y-142566229D01*
X432070368Y-142564441D01*
X432077649Y-142563361D01*
X432085000Y-142563000D01*
X432235000Y-142563000D01*
X432242351Y-142563361D01*
G37*
G36*
X431742351Y-142563361D02*
G01*
X431749632Y-142564441D01*
X431756771Y-142566229D01*
X431763701Y-142568709D01*
X431770355Y-142571856D01*
X431776668Y-142575640D01*
X431782579Y-142580024D01*
X431788033Y-142584967D01*
X431792976Y-142590421D01*
X431797360Y-142596332D01*
X431801144Y-142602645D01*
X431804291Y-142609299D01*
X431806771Y-142616229D01*
X431808559Y-142623368D01*
X431809639Y-142630649D01*
X431810000Y-142638000D01*
X431810000Y-143963000D01*
X431809639Y-143970351D01*
X431808559Y-143977632D01*
X431806771Y-143984771D01*
X431804291Y-143991701D01*
X431801144Y-143998355D01*
X431797360Y-144004668D01*
X431792976Y-144010579D01*
X431788033Y-144016033D01*
X431782579Y-144020976D01*
X431776668Y-144025360D01*
X431770355Y-144029144D01*
X431763701Y-144032291D01*
X431756771Y-144034771D01*
X431749632Y-144036559D01*
X431742351Y-144037639D01*
X431735000Y-144038000D01*
X431585000Y-144038000D01*
X431577649Y-144037639D01*
X431570368Y-144036559D01*
X431563229Y-144034771D01*
X431556299Y-144032291D01*
X431549645Y-144029144D01*
X431543332Y-144025360D01*
X431537421Y-144020976D01*
X431531967Y-144016033D01*
X431527024Y-144010579D01*
X431522640Y-144004668D01*
X431518856Y-143998355D01*
X431515709Y-143991701D01*
X431513229Y-143984771D01*
X431511441Y-143977632D01*
X431510361Y-143970351D01*
X431510000Y-143963000D01*
X431510000Y-142638000D01*
X431510361Y-142630649D01*
X431511441Y-142623368D01*
X431513229Y-142616229D01*
X431515709Y-142609299D01*
X431518856Y-142602645D01*
X431522640Y-142596332D01*
X431527024Y-142590421D01*
X431531967Y-142584967D01*
X431537421Y-142580024D01*
X431543332Y-142575640D01*
X431549645Y-142571856D01*
X431556299Y-142568709D01*
X431563229Y-142566229D01*
X431570368Y-142564441D01*
X431577649Y-142563361D01*
X431585000Y-142563000D01*
X431735000Y-142563000D01*
X431742351Y-142563361D01*
G37*
G36*
X431242351Y-142563361D02*
G01*
X431249632Y-142564441D01*
X431256771Y-142566229D01*
X431263701Y-142568709D01*
X431270355Y-142571856D01*
X431276668Y-142575640D01*
X431282579Y-142580024D01*
X431288033Y-142584967D01*
X431292976Y-142590421D01*
X431297360Y-142596332D01*
X431301144Y-142602645D01*
X431304291Y-142609299D01*
X431306771Y-142616229D01*
X431308559Y-142623368D01*
X431309639Y-142630649D01*
X431310000Y-142638000D01*
X431310000Y-143963000D01*
X431309639Y-143970351D01*
X431308559Y-143977632D01*
X431306771Y-143984771D01*
X431304291Y-143991701D01*
X431301144Y-143998355D01*
X431297360Y-144004668D01*
X431292976Y-144010579D01*
X431288033Y-144016033D01*
X431282579Y-144020976D01*
X431276668Y-144025360D01*
X431270355Y-144029144D01*
X431263701Y-144032291D01*
X431256771Y-144034771D01*
X431249632Y-144036559D01*
X431242351Y-144037639D01*
X431235000Y-144038000D01*
X431085000Y-144038000D01*
X431077649Y-144037639D01*
X431070368Y-144036559D01*
X431063229Y-144034771D01*
X431056299Y-144032291D01*
X431049645Y-144029144D01*
X431043332Y-144025360D01*
X431037421Y-144020976D01*
X431031967Y-144016033D01*
X431027024Y-144010579D01*
X431022640Y-144004668D01*
X431018856Y-143998355D01*
X431015709Y-143991701D01*
X431013229Y-143984771D01*
X431011441Y-143977632D01*
X431010361Y-143970351D01*
X431010000Y-143963000D01*
X431010000Y-142638000D01*
X431010361Y-142630649D01*
X431011441Y-142623368D01*
X431013229Y-142616229D01*
X431015709Y-142609299D01*
X431018856Y-142602645D01*
X431022640Y-142596332D01*
X431027024Y-142590421D01*
X431031967Y-142584967D01*
X431037421Y-142580024D01*
X431043332Y-142575640D01*
X431049645Y-142571856D01*
X431056299Y-142568709D01*
X431063229Y-142566229D01*
X431070368Y-142564441D01*
X431077649Y-142563361D01*
X431085000Y-142563000D01*
X431235000Y-142563000D01*
X431242351Y-142563361D01*
G37*
G36*
X430742351Y-142563361D02*
G01*
X430749632Y-142564441D01*
X430756771Y-142566229D01*
X430763701Y-142568709D01*
X430770355Y-142571856D01*
X430776668Y-142575640D01*
X430782579Y-142580024D01*
X430788033Y-142584967D01*
X430792976Y-142590421D01*
X430797360Y-142596332D01*
X430801144Y-142602645D01*
X430804291Y-142609299D01*
X430806771Y-142616229D01*
X430808559Y-142623368D01*
X430809639Y-142630649D01*
X430810000Y-142638000D01*
X430810000Y-143963000D01*
X430809639Y-143970351D01*
X430808559Y-143977632D01*
X430806771Y-143984771D01*
X430804291Y-143991701D01*
X430801144Y-143998355D01*
X430797360Y-144004668D01*
X430792976Y-144010579D01*
X430788033Y-144016033D01*
X430782579Y-144020976D01*
X430776668Y-144025360D01*
X430770355Y-144029144D01*
X430763701Y-144032291D01*
X430756771Y-144034771D01*
X430749632Y-144036559D01*
X430742351Y-144037639D01*
X430735000Y-144038000D01*
X430585000Y-144038000D01*
X430577649Y-144037639D01*
X430570368Y-144036559D01*
X430563229Y-144034771D01*
X430556299Y-144032291D01*
X430549645Y-144029144D01*
X430543332Y-144025360D01*
X430537421Y-144020976D01*
X430531967Y-144016033D01*
X430527024Y-144010579D01*
X430522640Y-144004668D01*
X430518856Y-143998355D01*
X430515709Y-143991701D01*
X430513229Y-143984771D01*
X430511441Y-143977632D01*
X430510361Y-143970351D01*
X430510000Y-143963000D01*
X430510000Y-142638000D01*
X430510361Y-142630649D01*
X430511441Y-142623368D01*
X430513229Y-142616229D01*
X430515709Y-142609299D01*
X430518856Y-142602645D01*
X430522640Y-142596332D01*
X430527024Y-142590421D01*
X430531967Y-142584967D01*
X430537421Y-142580024D01*
X430543332Y-142575640D01*
X430549645Y-142571856D01*
X430556299Y-142568709D01*
X430563229Y-142566229D01*
X430570368Y-142564441D01*
X430577649Y-142563361D01*
X430585000Y-142563000D01*
X430735000Y-142563000D01*
X430742351Y-142563361D01*
G37*
G36*
X430242351Y-142563361D02*
G01*
X430249632Y-142564441D01*
X430256771Y-142566229D01*
X430263701Y-142568709D01*
X430270355Y-142571856D01*
X430276668Y-142575640D01*
X430282579Y-142580024D01*
X430288033Y-142584967D01*
X430292976Y-142590421D01*
X430297360Y-142596332D01*
X430301144Y-142602645D01*
X430304291Y-142609299D01*
X430306771Y-142616229D01*
X430308559Y-142623368D01*
X430309639Y-142630649D01*
X430310000Y-142638000D01*
X430310000Y-143963000D01*
X430309639Y-143970351D01*
X430308559Y-143977632D01*
X430306771Y-143984771D01*
X430304291Y-143991701D01*
X430301144Y-143998355D01*
X430297360Y-144004668D01*
X430292976Y-144010579D01*
X430288033Y-144016033D01*
X430282579Y-144020976D01*
X430276668Y-144025360D01*
X430270355Y-144029144D01*
X430263701Y-144032291D01*
X430256771Y-144034771D01*
X430249632Y-144036559D01*
X430242351Y-144037639D01*
X430235000Y-144038000D01*
X430085000Y-144038000D01*
X430077649Y-144037639D01*
X430070368Y-144036559D01*
X430063229Y-144034771D01*
X430056299Y-144032291D01*
X430049645Y-144029144D01*
X430043332Y-144025360D01*
X430037421Y-144020976D01*
X430031967Y-144016033D01*
X430027024Y-144010579D01*
X430022640Y-144004668D01*
X430018856Y-143998355D01*
X430015709Y-143991701D01*
X430013229Y-143984771D01*
X430011441Y-143977632D01*
X430010361Y-143970351D01*
X430010000Y-143963000D01*
X430010000Y-142638000D01*
X430010361Y-142630649D01*
X430011441Y-142623368D01*
X430013229Y-142616229D01*
X430015709Y-142609299D01*
X430018856Y-142602645D01*
X430022640Y-142596332D01*
X430027024Y-142590421D01*
X430031967Y-142584967D01*
X430037421Y-142580024D01*
X430043332Y-142575640D01*
X430049645Y-142571856D01*
X430056299Y-142568709D01*
X430063229Y-142566229D01*
X430070368Y-142564441D01*
X430077649Y-142563361D01*
X430085000Y-142563000D01*
X430235000Y-142563000D01*
X430242351Y-142563361D01*
G37*
G36*
X429742351Y-142563361D02*
G01*
X429749632Y-142564441D01*
X429756771Y-142566229D01*
X429763701Y-142568709D01*
X429770355Y-142571856D01*
X429776668Y-142575640D01*
X429782579Y-142580024D01*
X429788033Y-142584967D01*
X429792976Y-142590421D01*
X429797360Y-142596332D01*
X429801144Y-142602645D01*
X429804291Y-142609299D01*
X429806771Y-142616229D01*
X429808559Y-142623368D01*
X429809639Y-142630649D01*
X429810000Y-142638000D01*
X429810000Y-143963000D01*
X429809639Y-143970351D01*
X429808559Y-143977632D01*
X429806771Y-143984771D01*
X429804291Y-143991701D01*
X429801144Y-143998355D01*
X429797360Y-144004668D01*
X429792976Y-144010579D01*
X429788033Y-144016033D01*
X429782579Y-144020976D01*
X429776668Y-144025360D01*
X429770355Y-144029144D01*
X429763701Y-144032291D01*
X429756771Y-144034771D01*
X429749632Y-144036559D01*
X429742351Y-144037639D01*
X429735000Y-144038000D01*
X429585000Y-144038000D01*
X429577649Y-144037639D01*
X429570368Y-144036559D01*
X429563229Y-144034771D01*
X429556299Y-144032291D01*
X429549645Y-144029144D01*
X429543332Y-144025360D01*
X429537421Y-144020976D01*
X429531967Y-144016033D01*
X429527024Y-144010579D01*
X429522640Y-144004668D01*
X429518856Y-143998355D01*
X429515709Y-143991701D01*
X429513229Y-143984771D01*
X429511441Y-143977632D01*
X429510361Y-143970351D01*
X429510000Y-143963000D01*
X429510000Y-142638000D01*
X429510361Y-142630649D01*
X429511441Y-142623368D01*
X429513229Y-142616229D01*
X429515709Y-142609299D01*
X429518856Y-142602645D01*
X429522640Y-142596332D01*
X429527024Y-142590421D01*
X429531967Y-142584967D01*
X429537421Y-142580024D01*
X429543332Y-142575640D01*
X429549645Y-142571856D01*
X429556299Y-142568709D01*
X429563229Y-142566229D01*
X429570368Y-142564441D01*
X429577649Y-142563361D01*
X429585000Y-142563000D01*
X429735000Y-142563000D01*
X429742351Y-142563361D01*
G37*
G36*
X428917351Y-141738361D02*
G01*
X428924632Y-141739441D01*
X428931771Y-141741229D01*
X428938701Y-141743709D01*
X428945355Y-141746856D01*
X428951668Y-141750640D01*
X428957579Y-141755024D01*
X428963033Y-141759967D01*
X428967976Y-141765421D01*
X428972360Y-141771332D01*
X428976144Y-141777645D01*
X428979291Y-141784299D01*
X428981771Y-141791229D01*
X428983559Y-141798368D01*
X428984639Y-141805649D01*
X428985000Y-141813000D01*
X428985000Y-141963000D01*
X428984639Y-141970351D01*
X428983559Y-141977632D01*
X428981771Y-141984771D01*
X428979291Y-141991701D01*
X428976144Y-141998355D01*
X428972360Y-142004668D01*
X428967976Y-142010579D01*
X428963033Y-142016033D01*
X428957579Y-142020976D01*
X428951668Y-142025360D01*
X428945355Y-142029144D01*
X428938701Y-142032291D01*
X428931771Y-142034771D01*
X428924632Y-142036559D01*
X428917351Y-142037639D01*
X428910000Y-142038000D01*
X427585000Y-142038000D01*
X427577649Y-142037639D01*
X427570368Y-142036559D01*
X427563229Y-142034771D01*
X427556299Y-142032291D01*
X427549645Y-142029144D01*
X427543332Y-142025360D01*
X427537421Y-142020976D01*
X427531967Y-142016033D01*
X427527024Y-142010579D01*
X427522640Y-142004668D01*
X427518856Y-141998355D01*
X427515709Y-141991701D01*
X427513229Y-141984771D01*
X427511441Y-141977632D01*
X427510361Y-141970351D01*
X427510000Y-141963000D01*
X427510000Y-141813000D01*
X427510361Y-141805649D01*
X427511441Y-141798368D01*
X427513229Y-141791229D01*
X427515709Y-141784299D01*
X427518856Y-141777645D01*
X427522640Y-141771332D01*
X427527024Y-141765421D01*
X427531967Y-141759967D01*
X427537421Y-141755024D01*
X427543332Y-141750640D01*
X427549645Y-141746856D01*
X427556299Y-141743709D01*
X427563229Y-141741229D01*
X427570368Y-141739441D01*
X427577649Y-141738361D01*
X427585000Y-141738000D01*
X428910000Y-141738000D01*
X428917351Y-141738361D01*
G37*
G36*
X428917351Y-141238361D02*
G01*
X428924632Y-141239441D01*
X428931771Y-141241229D01*
X428938701Y-141243709D01*
X428945355Y-141246856D01*
X428951668Y-141250640D01*
X428957579Y-141255024D01*
X428963033Y-141259967D01*
X428967976Y-141265421D01*
X428972360Y-141271332D01*
X428976144Y-141277645D01*
X428979291Y-141284299D01*
X428981771Y-141291229D01*
X428983559Y-141298368D01*
X428984639Y-141305649D01*
X428985000Y-141313000D01*
X428985000Y-141463000D01*
X428984639Y-141470351D01*
X428983559Y-141477632D01*
X428981771Y-141484771D01*
X428979291Y-141491701D01*
X428976144Y-141498355D01*
X428972360Y-141504668D01*
X428967976Y-141510579D01*
X428963033Y-141516033D01*
X428957579Y-141520976D01*
X428951668Y-141525360D01*
X428945355Y-141529144D01*
X428938701Y-141532291D01*
X428931771Y-141534771D01*
X428924632Y-141536559D01*
X428917351Y-141537639D01*
X428910000Y-141538000D01*
X427585000Y-141538000D01*
X427577649Y-141537639D01*
X427570368Y-141536559D01*
X427563229Y-141534771D01*
X427556299Y-141532291D01*
X427549645Y-141529144D01*
X427543332Y-141525360D01*
X427537421Y-141520976D01*
X427531967Y-141516033D01*
X427527024Y-141510579D01*
X427522640Y-141504668D01*
X427518856Y-141498355D01*
X427515709Y-141491701D01*
X427513229Y-141484771D01*
X427511441Y-141477632D01*
X427510361Y-141470351D01*
X427510000Y-141463000D01*
X427510000Y-141313000D01*
X427510361Y-141305649D01*
X427511441Y-141298368D01*
X427513229Y-141291229D01*
X427515709Y-141284299D01*
X427518856Y-141277645D01*
X427522640Y-141271332D01*
X427527024Y-141265421D01*
X427531967Y-141259967D01*
X427537421Y-141255024D01*
X427543332Y-141250640D01*
X427549645Y-141246856D01*
X427556299Y-141243709D01*
X427563229Y-141241229D01*
X427570368Y-141239441D01*
X427577649Y-141238361D01*
X427585000Y-141238000D01*
X428910000Y-141238000D01*
X428917351Y-141238361D01*
G37*
G36*
X428917351Y-140738361D02*
G01*
X428924632Y-140739441D01*
X428931771Y-140741229D01*
X428938701Y-140743709D01*
X428945355Y-140746856D01*
X428951668Y-140750640D01*
X428957579Y-140755024D01*
X428963033Y-140759967D01*
X428967976Y-140765421D01*
X428972360Y-140771332D01*
X428976144Y-140777645D01*
X428979291Y-140784299D01*
X428981771Y-140791229D01*
X428983559Y-140798368D01*
X428984639Y-140805649D01*
X428985000Y-140813000D01*
X428985000Y-140963000D01*
X428984639Y-140970351D01*
X428983559Y-140977632D01*
X428981771Y-140984771D01*
X428979291Y-140991701D01*
X428976144Y-140998355D01*
X428972360Y-141004668D01*
X428967976Y-141010579D01*
X428963033Y-141016033D01*
X428957579Y-141020976D01*
X428951668Y-141025360D01*
X428945355Y-141029144D01*
X428938701Y-141032291D01*
X428931771Y-141034771D01*
X428924632Y-141036559D01*
X428917351Y-141037639D01*
X428910000Y-141038000D01*
X427585000Y-141038000D01*
X427577649Y-141037639D01*
X427570368Y-141036559D01*
X427563229Y-141034771D01*
X427556299Y-141032291D01*
X427549645Y-141029144D01*
X427543332Y-141025360D01*
X427537421Y-141020976D01*
X427531967Y-141016033D01*
X427527024Y-141010579D01*
X427522640Y-141004668D01*
X427518856Y-140998355D01*
X427515709Y-140991701D01*
X427513229Y-140984771D01*
X427511441Y-140977632D01*
X427510361Y-140970351D01*
X427510000Y-140963000D01*
X427510000Y-140813000D01*
X427510361Y-140805649D01*
X427511441Y-140798368D01*
X427513229Y-140791229D01*
X427515709Y-140784299D01*
X427518856Y-140777645D01*
X427522640Y-140771332D01*
X427527024Y-140765421D01*
X427531967Y-140759967D01*
X427537421Y-140755024D01*
X427543332Y-140750640D01*
X427549645Y-140746856D01*
X427556299Y-140743709D01*
X427563229Y-140741229D01*
X427570368Y-140739441D01*
X427577649Y-140738361D01*
X427585000Y-140738000D01*
X428910000Y-140738000D01*
X428917351Y-140738361D01*
G37*
G36*
X428917351Y-140238361D02*
G01*
X428924632Y-140239441D01*
X428931771Y-140241229D01*
X428938701Y-140243709D01*
X428945355Y-140246856D01*
X428951668Y-140250640D01*
X428957579Y-140255024D01*
X428963033Y-140259967D01*
X428967976Y-140265421D01*
X428972360Y-140271332D01*
X428976144Y-140277645D01*
X428979291Y-140284299D01*
X428981771Y-140291229D01*
X428983559Y-140298368D01*
X428984639Y-140305649D01*
X428985000Y-140313000D01*
X428985000Y-140463000D01*
X428984639Y-140470351D01*
X428983559Y-140477632D01*
X428981771Y-140484771D01*
X428979291Y-140491701D01*
X428976144Y-140498355D01*
X428972360Y-140504668D01*
X428967976Y-140510579D01*
X428963033Y-140516033D01*
X428957579Y-140520976D01*
X428951668Y-140525360D01*
X428945355Y-140529144D01*
X428938701Y-140532291D01*
X428931771Y-140534771D01*
X428924632Y-140536559D01*
X428917351Y-140537639D01*
X428910000Y-140538000D01*
X427585000Y-140538000D01*
X427577649Y-140537639D01*
X427570368Y-140536559D01*
X427563229Y-140534771D01*
X427556299Y-140532291D01*
X427549645Y-140529144D01*
X427543332Y-140525360D01*
X427537421Y-140520976D01*
X427531967Y-140516033D01*
X427527024Y-140510579D01*
X427522640Y-140504668D01*
X427518856Y-140498355D01*
X427515709Y-140491701D01*
X427513229Y-140484771D01*
X427511441Y-140477632D01*
X427510361Y-140470351D01*
X427510000Y-140463000D01*
X427510000Y-140313000D01*
X427510361Y-140305649D01*
X427511441Y-140298368D01*
X427513229Y-140291229D01*
X427515709Y-140284299D01*
X427518856Y-140277645D01*
X427522640Y-140271332D01*
X427527024Y-140265421D01*
X427531967Y-140259967D01*
X427537421Y-140255024D01*
X427543332Y-140250640D01*
X427549645Y-140246856D01*
X427556299Y-140243709D01*
X427563229Y-140241229D01*
X427570368Y-140239441D01*
X427577649Y-140238361D01*
X427585000Y-140238000D01*
X428910000Y-140238000D01*
X428917351Y-140238361D01*
G37*
G36*
X428917351Y-139738361D02*
G01*
X428924632Y-139739441D01*
X428931771Y-139741229D01*
X428938701Y-139743709D01*
X428945355Y-139746856D01*
X428951668Y-139750640D01*
X428957579Y-139755024D01*
X428963033Y-139759967D01*
X428967976Y-139765421D01*
X428972360Y-139771332D01*
X428976144Y-139777645D01*
X428979291Y-139784299D01*
X428981771Y-139791229D01*
X428983559Y-139798368D01*
X428984639Y-139805649D01*
X428985000Y-139813000D01*
X428985000Y-139963000D01*
X428984639Y-139970351D01*
X428983559Y-139977632D01*
X428981771Y-139984771D01*
X428979291Y-139991701D01*
X428976144Y-139998355D01*
X428972360Y-140004668D01*
X428967976Y-140010579D01*
X428963033Y-140016033D01*
X428957579Y-140020976D01*
X428951668Y-140025360D01*
X428945355Y-140029144D01*
X428938701Y-140032291D01*
X428931771Y-140034771D01*
X428924632Y-140036559D01*
X428917351Y-140037639D01*
X428910000Y-140038000D01*
X427585000Y-140038000D01*
X427577649Y-140037639D01*
X427570368Y-140036559D01*
X427563229Y-140034771D01*
X427556299Y-140032291D01*
X427549645Y-140029144D01*
X427543332Y-140025360D01*
X427537421Y-140020976D01*
X427531967Y-140016033D01*
X427527024Y-140010579D01*
X427522640Y-140004668D01*
X427518856Y-139998355D01*
X427515709Y-139991701D01*
X427513229Y-139984771D01*
X427511441Y-139977632D01*
X427510361Y-139970351D01*
X427510000Y-139963000D01*
X427510000Y-139813000D01*
X427510361Y-139805649D01*
X427511441Y-139798368D01*
X427513229Y-139791229D01*
X427515709Y-139784299D01*
X427518856Y-139777645D01*
X427522640Y-139771332D01*
X427527024Y-139765421D01*
X427531967Y-139759967D01*
X427537421Y-139755024D01*
X427543332Y-139750640D01*
X427549645Y-139746856D01*
X427556299Y-139743709D01*
X427563229Y-139741229D01*
X427570368Y-139739441D01*
X427577649Y-139738361D01*
X427585000Y-139738000D01*
X428910000Y-139738000D01*
X428917351Y-139738361D01*
G37*
G36*
X428917351Y-139238361D02*
G01*
X428924632Y-139239441D01*
X428931771Y-139241229D01*
X428938701Y-139243709D01*
X428945355Y-139246856D01*
X428951668Y-139250640D01*
X428957579Y-139255024D01*
X428963033Y-139259967D01*
X428967976Y-139265421D01*
X428972360Y-139271332D01*
X428976144Y-139277645D01*
X428979291Y-139284299D01*
X428981771Y-139291229D01*
X428983559Y-139298368D01*
X428984639Y-139305649D01*
X428985000Y-139313000D01*
X428985000Y-139463000D01*
X428984639Y-139470351D01*
X428983559Y-139477632D01*
X428981771Y-139484771D01*
X428979291Y-139491701D01*
X428976144Y-139498355D01*
X428972360Y-139504668D01*
X428967976Y-139510579D01*
X428963033Y-139516033D01*
X428957579Y-139520976D01*
X428951668Y-139525360D01*
X428945355Y-139529144D01*
X428938701Y-139532291D01*
X428931771Y-139534771D01*
X428924632Y-139536559D01*
X428917351Y-139537639D01*
X428910000Y-139538000D01*
X427585000Y-139538000D01*
X427577649Y-139537639D01*
X427570368Y-139536559D01*
X427563229Y-139534771D01*
X427556299Y-139532291D01*
X427549645Y-139529144D01*
X427543332Y-139525360D01*
X427537421Y-139520976D01*
X427531967Y-139516033D01*
X427527024Y-139510579D01*
X427522640Y-139504668D01*
X427518856Y-139498355D01*
X427515709Y-139491701D01*
X427513229Y-139484771D01*
X427511441Y-139477632D01*
X427510361Y-139470351D01*
X427510000Y-139463000D01*
X427510000Y-139313000D01*
X427510361Y-139305649D01*
X427511441Y-139298368D01*
X427513229Y-139291229D01*
X427515709Y-139284299D01*
X427518856Y-139277645D01*
X427522640Y-139271332D01*
X427527024Y-139265421D01*
X427531967Y-139259967D01*
X427537421Y-139255024D01*
X427543332Y-139250640D01*
X427549645Y-139246856D01*
X427556299Y-139243709D01*
X427563229Y-139241229D01*
X427570368Y-139239441D01*
X427577649Y-139238361D01*
X427585000Y-139238000D01*
X428910000Y-139238000D01*
X428917351Y-139238361D01*
G37*
G36*
X428917351Y-138738361D02*
G01*
X428924632Y-138739441D01*
X428931771Y-138741229D01*
X428938701Y-138743709D01*
X428945355Y-138746856D01*
X428951668Y-138750640D01*
X428957579Y-138755024D01*
X428963033Y-138759967D01*
X428967976Y-138765421D01*
X428972360Y-138771332D01*
X428976144Y-138777645D01*
X428979291Y-138784299D01*
X428981771Y-138791229D01*
X428983559Y-138798368D01*
X428984639Y-138805649D01*
X428985000Y-138813000D01*
X428985000Y-138963000D01*
X428984639Y-138970351D01*
X428983559Y-138977632D01*
X428981771Y-138984771D01*
X428979291Y-138991701D01*
X428976144Y-138998355D01*
X428972360Y-139004668D01*
X428967976Y-139010579D01*
X428963033Y-139016033D01*
X428957579Y-139020976D01*
X428951668Y-139025360D01*
X428945355Y-139029144D01*
X428938701Y-139032291D01*
X428931771Y-139034771D01*
X428924632Y-139036559D01*
X428917351Y-139037639D01*
X428910000Y-139038000D01*
X427585000Y-139038000D01*
X427577649Y-139037639D01*
X427570368Y-139036559D01*
X427563229Y-139034771D01*
X427556299Y-139032291D01*
X427549645Y-139029144D01*
X427543332Y-139025360D01*
X427537421Y-139020976D01*
X427531967Y-139016033D01*
X427527024Y-139010579D01*
X427522640Y-139004668D01*
X427518856Y-138998355D01*
X427515709Y-138991701D01*
X427513229Y-138984771D01*
X427511441Y-138977632D01*
X427510361Y-138970351D01*
X427510000Y-138963000D01*
X427510000Y-138813000D01*
X427510361Y-138805649D01*
X427511441Y-138798368D01*
X427513229Y-138791229D01*
X427515709Y-138784299D01*
X427518856Y-138777645D01*
X427522640Y-138771332D01*
X427527024Y-138765421D01*
X427531967Y-138759967D01*
X427537421Y-138755024D01*
X427543332Y-138750640D01*
X427549645Y-138746856D01*
X427556299Y-138743709D01*
X427563229Y-138741229D01*
X427570368Y-138739441D01*
X427577649Y-138738361D01*
X427585000Y-138738000D01*
X428910000Y-138738000D01*
X428917351Y-138738361D01*
G37*
G36*
X428917351Y-138238361D02*
G01*
X428924632Y-138239441D01*
X428931771Y-138241229D01*
X428938701Y-138243709D01*
X428945355Y-138246856D01*
X428951668Y-138250640D01*
X428957579Y-138255024D01*
X428963033Y-138259967D01*
X428967976Y-138265421D01*
X428972360Y-138271332D01*
X428976144Y-138277645D01*
X428979291Y-138284299D01*
X428981771Y-138291229D01*
X428983559Y-138298368D01*
X428984639Y-138305649D01*
X428985000Y-138313000D01*
X428985000Y-138463000D01*
X428984639Y-138470351D01*
X428983559Y-138477632D01*
X428981771Y-138484771D01*
X428979291Y-138491701D01*
X428976144Y-138498355D01*
X428972360Y-138504668D01*
X428967976Y-138510579D01*
X428963033Y-138516033D01*
X428957579Y-138520976D01*
X428951668Y-138525360D01*
X428945355Y-138529144D01*
X428938701Y-138532291D01*
X428931771Y-138534771D01*
X428924632Y-138536559D01*
X428917351Y-138537639D01*
X428910000Y-138538000D01*
X427585000Y-138538000D01*
X427577649Y-138537639D01*
X427570368Y-138536559D01*
X427563229Y-138534771D01*
X427556299Y-138532291D01*
X427549645Y-138529144D01*
X427543332Y-138525360D01*
X427537421Y-138520976D01*
X427531967Y-138516033D01*
X427527024Y-138510579D01*
X427522640Y-138504668D01*
X427518856Y-138498355D01*
X427515709Y-138491701D01*
X427513229Y-138484771D01*
X427511441Y-138477632D01*
X427510361Y-138470351D01*
X427510000Y-138463000D01*
X427510000Y-138313000D01*
X427510361Y-138305649D01*
X427511441Y-138298368D01*
X427513229Y-138291229D01*
X427515709Y-138284299D01*
X427518856Y-138277645D01*
X427522640Y-138271332D01*
X427527024Y-138265421D01*
X427531967Y-138259967D01*
X427537421Y-138255024D01*
X427543332Y-138250640D01*
X427549645Y-138246856D01*
X427556299Y-138243709D01*
X427563229Y-138241229D01*
X427570368Y-138239441D01*
X427577649Y-138238361D01*
X427585000Y-138238000D01*
X428910000Y-138238000D01*
X428917351Y-138238361D01*
G37*
G36*
X428917351Y-137738361D02*
G01*
X428924632Y-137739441D01*
X428931771Y-137741229D01*
X428938701Y-137743709D01*
X428945355Y-137746856D01*
X428951668Y-137750640D01*
X428957579Y-137755024D01*
X428963033Y-137759967D01*
X428967976Y-137765421D01*
X428972360Y-137771332D01*
X428976144Y-137777645D01*
X428979291Y-137784299D01*
X428981771Y-137791229D01*
X428983559Y-137798368D01*
X428984639Y-137805649D01*
X428985000Y-137813000D01*
X428985000Y-137963000D01*
X428984639Y-137970351D01*
X428983559Y-137977632D01*
X428981771Y-137984771D01*
X428979291Y-137991701D01*
X428976144Y-137998355D01*
X428972360Y-138004668D01*
X428967976Y-138010579D01*
X428963033Y-138016033D01*
X428957579Y-138020976D01*
X428951668Y-138025360D01*
X428945355Y-138029144D01*
X428938701Y-138032291D01*
X428931771Y-138034771D01*
X428924632Y-138036559D01*
X428917351Y-138037639D01*
X428910000Y-138038000D01*
X427585000Y-138038000D01*
X427577649Y-138037639D01*
X427570368Y-138036559D01*
X427563229Y-138034771D01*
X427556299Y-138032291D01*
X427549645Y-138029144D01*
X427543332Y-138025360D01*
X427537421Y-138020976D01*
X427531967Y-138016033D01*
X427527024Y-138010579D01*
X427522640Y-138004668D01*
X427518856Y-137998355D01*
X427515709Y-137991701D01*
X427513229Y-137984771D01*
X427511441Y-137977632D01*
X427510361Y-137970351D01*
X427510000Y-137963000D01*
X427510000Y-137813000D01*
X427510361Y-137805649D01*
X427511441Y-137798368D01*
X427513229Y-137791229D01*
X427515709Y-137784299D01*
X427518856Y-137777645D01*
X427522640Y-137771332D01*
X427527024Y-137765421D01*
X427531967Y-137759967D01*
X427537421Y-137755024D01*
X427543332Y-137750640D01*
X427549645Y-137746856D01*
X427556299Y-137743709D01*
X427563229Y-137741229D01*
X427570368Y-137739441D01*
X427577649Y-137738361D01*
X427585000Y-137738000D01*
X428910000Y-137738000D01*
X428917351Y-137738361D01*
G37*
G36*
X428917351Y-137238361D02*
G01*
X428924632Y-137239441D01*
X428931771Y-137241229D01*
X428938701Y-137243709D01*
X428945355Y-137246856D01*
X428951668Y-137250640D01*
X428957579Y-137255024D01*
X428963033Y-137259967D01*
X428967976Y-137265421D01*
X428972360Y-137271332D01*
X428976144Y-137277645D01*
X428979291Y-137284299D01*
X428981771Y-137291229D01*
X428983559Y-137298368D01*
X428984639Y-137305649D01*
X428985000Y-137313000D01*
X428985000Y-137463000D01*
X428984639Y-137470351D01*
X428983559Y-137477632D01*
X428981771Y-137484771D01*
X428979291Y-137491701D01*
X428976144Y-137498355D01*
X428972360Y-137504668D01*
X428967976Y-137510579D01*
X428963033Y-137516033D01*
X428957579Y-137520976D01*
X428951668Y-137525360D01*
X428945355Y-137529144D01*
X428938701Y-137532291D01*
X428931771Y-137534771D01*
X428924632Y-137536559D01*
X428917351Y-137537639D01*
X428910000Y-137538000D01*
X427585000Y-137538000D01*
X427577649Y-137537639D01*
X427570368Y-137536559D01*
X427563229Y-137534771D01*
X427556299Y-137532291D01*
X427549645Y-137529144D01*
X427543332Y-137525360D01*
X427537421Y-137520976D01*
X427531967Y-137516033D01*
X427527024Y-137510579D01*
X427522640Y-137504668D01*
X427518856Y-137498355D01*
X427515709Y-137491701D01*
X427513229Y-137484771D01*
X427511441Y-137477632D01*
X427510361Y-137470351D01*
X427510000Y-137463000D01*
X427510000Y-137313000D01*
X427510361Y-137305649D01*
X427511441Y-137298368D01*
X427513229Y-137291229D01*
X427515709Y-137284299D01*
X427518856Y-137277645D01*
X427522640Y-137271332D01*
X427527024Y-137265421D01*
X427531967Y-137259967D01*
X427537421Y-137255024D01*
X427543332Y-137250640D01*
X427549645Y-137246856D01*
X427556299Y-137243709D01*
X427563229Y-137241229D01*
X427570368Y-137239441D01*
X427577649Y-137238361D01*
X427585000Y-137238000D01*
X428910000Y-137238000D01*
X428917351Y-137238361D01*
G37*
G36*
X428917351Y-136738361D02*
G01*
X428924632Y-136739441D01*
X428931771Y-136741229D01*
X428938701Y-136743709D01*
X428945355Y-136746856D01*
X428951668Y-136750640D01*
X428957579Y-136755024D01*
X428963033Y-136759967D01*
X428967976Y-136765421D01*
X428972360Y-136771332D01*
X428976144Y-136777645D01*
X428979291Y-136784299D01*
X428981771Y-136791229D01*
X428983559Y-136798368D01*
X428984639Y-136805649D01*
X428985000Y-136813000D01*
X428985000Y-136963000D01*
X428984639Y-136970351D01*
X428983559Y-136977632D01*
X428981771Y-136984771D01*
X428979291Y-136991701D01*
X428976144Y-136998355D01*
X428972360Y-137004668D01*
X428967976Y-137010579D01*
X428963033Y-137016033D01*
X428957579Y-137020976D01*
X428951668Y-137025360D01*
X428945355Y-137029144D01*
X428938701Y-137032291D01*
X428931771Y-137034771D01*
X428924632Y-137036559D01*
X428917351Y-137037639D01*
X428910000Y-137038000D01*
X427585000Y-137038000D01*
X427577649Y-137037639D01*
X427570368Y-137036559D01*
X427563229Y-137034771D01*
X427556299Y-137032291D01*
X427549645Y-137029144D01*
X427543332Y-137025360D01*
X427537421Y-137020976D01*
X427531967Y-137016033D01*
X427527024Y-137010579D01*
X427522640Y-137004668D01*
X427518856Y-136998355D01*
X427515709Y-136991701D01*
X427513229Y-136984771D01*
X427511441Y-136977632D01*
X427510361Y-136970351D01*
X427510000Y-136963000D01*
X427510000Y-136813000D01*
X427510361Y-136805649D01*
X427511441Y-136798368D01*
X427513229Y-136791229D01*
X427515709Y-136784299D01*
X427518856Y-136777645D01*
X427522640Y-136771332D01*
X427527024Y-136765421D01*
X427531967Y-136759967D01*
X427537421Y-136755024D01*
X427543332Y-136750640D01*
X427549645Y-136746856D01*
X427556299Y-136743709D01*
X427563229Y-136741229D01*
X427570368Y-136739441D01*
X427577649Y-136738361D01*
X427585000Y-136738000D01*
X428910000Y-136738000D01*
X428917351Y-136738361D01*
G37*
G36*
X428917351Y-136238361D02*
G01*
X428924632Y-136239441D01*
X428931771Y-136241229D01*
X428938701Y-136243709D01*
X428945355Y-136246856D01*
X428951668Y-136250640D01*
X428957579Y-136255024D01*
X428963033Y-136259967D01*
X428967976Y-136265421D01*
X428972360Y-136271332D01*
X428976144Y-136277645D01*
X428979291Y-136284299D01*
X428981771Y-136291229D01*
X428983559Y-136298368D01*
X428984639Y-136305649D01*
X428985000Y-136313000D01*
X428985000Y-136463000D01*
X428984639Y-136470351D01*
X428983559Y-136477632D01*
X428981771Y-136484771D01*
X428979291Y-136491701D01*
X428976144Y-136498355D01*
X428972360Y-136504668D01*
X428967976Y-136510579D01*
X428963033Y-136516033D01*
X428957579Y-136520976D01*
X428951668Y-136525360D01*
X428945355Y-136529144D01*
X428938701Y-136532291D01*
X428931771Y-136534771D01*
X428924632Y-136536559D01*
X428917351Y-136537639D01*
X428910000Y-136538000D01*
X427585000Y-136538000D01*
X427577649Y-136537639D01*
X427570368Y-136536559D01*
X427563229Y-136534771D01*
X427556299Y-136532291D01*
X427549645Y-136529144D01*
X427543332Y-136525360D01*
X427537421Y-136520976D01*
X427531967Y-136516033D01*
X427527024Y-136510579D01*
X427522640Y-136504668D01*
X427518856Y-136498355D01*
X427515709Y-136491701D01*
X427513229Y-136484771D01*
X427511441Y-136477632D01*
X427510361Y-136470351D01*
X427510000Y-136463000D01*
X427510000Y-136313000D01*
X427510361Y-136305649D01*
X427511441Y-136298368D01*
X427513229Y-136291229D01*
X427515709Y-136284299D01*
X427518856Y-136277645D01*
X427522640Y-136271332D01*
X427527024Y-136265421D01*
X427531967Y-136259967D01*
X427537421Y-136255024D01*
X427543332Y-136250640D01*
X427549645Y-136246856D01*
X427556299Y-136243709D01*
X427563229Y-136241229D01*
X427570368Y-136239441D01*
X427577649Y-136238361D01*
X427585000Y-136238000D01*
X428910000Y-136238000D01*
X428917351Y-136238361D01*
G37*
G36*
X125743142Y-147717174D02*
G01*
X125766803Y-147720684D01*
X125790007Y-147726496D01*
X125812529Y-147734554D01*
X125834153Y-147744782D01*
X125854670Y-147757079D01*
X125873883Y-147771329D01*
X125891607Y-147787393D01*
X125907671Y-147805117D01*
X125921921Y-147824330D01*
X125934218Y-147844847D01*
X125944446Y-147866471D01*
X125952504Y-147888993D01*
X125958316Y-147912197D01*
X125961826Y-147935858D01*
X125963000Y-147959750D01*
X125963000Y-148447250D01*
X125961826Y-148471142D01*
X125958316Y-148494803D01*
X125952504Y-148518007D01*
X125944446Y-148540529D01*
X125934218Y-148562153D01*
X125921921Y-148582670D01*
X125907671Y-148601883D01*
X125891607Y-148619607D01*
X125873883Y-148635671D01*
X125854670Y-148649921D01*
X125834153Y-148662218D01*
X125812529Y-148672446D01*
X125790007Y-148680504D01*
X125766803Y-148686316D01*
X125743142Y-148689826D01*
X125719250Y-148691000D01*
X124806750Y-148691000D01*
X124782858Y-148689826D01*
X124759197Y-148686316D01*
X124735993Y-148680504D01*
X124713471Y-148672446D01*
X124691847Y-148662218D01*
X124671330Y-148649921D01*
X124652117Y-148635671D01*
X124634393Y-148619607D01*
X124618329Y-148601883D01*
X124604079Y-148582670D01*
X124591782Y-148562153D01*
X124581554Y-148540529D01*
X124573496Y-148518007D01*
X124567684Y-148494803D01*
X124564174Y-148471142D01*
X124563000Y-148447250D01*
X124563000Y-147959750D01*
X124564174Y-147935858D01*
X124567684Y-147912197D01*
X124573496Y-147888993D01*
X124581554Y-147866471D01*
X124591782Y-147844847D01*
X124604079Y-147824330D01*
X124618329Y-147805117D01*
X124634393Y-147787393D01*
X124652117Y-147771329D01*
X124671330Y-147757079D01*
X124691847Y-147744782D01*
X124713471Y-147734554D01*
X124735993Y-147726496D01*
X124759197Y-147720684D01*
X124782858Y-147717174D01*
X124806750Y-147716000D01*
X125719250Y-147716000D01*
X125743142Y-147717174D01*
G37*
G36*
X125743142Y-145842174D02*
G01*
X125766803Y-145845684D01*
X125790007Y-145851496D01*
X125812529Y-145859554D01*
X125834153Y-145869782D01*
X125854670Y-145882079D01*
X125873883Y-145896329D01*
X125891607Y-145912393D01*
X125907671Y-145930117D01*
X125921921Y-145949330D01*
X125934218Y-145969847D01*
X125944446Y-145991471D01*
X125952504Y-146013993D01*
X125958316Y-146037197D01*
X125961826Y-146060858D01*
X125963000Y-146084750D01*
X125963000Y-146572250D01*
X125961826Y-146596142D01*
X125958316Y-146619803D01*
X125952504Y-146643007D01*
X125944446Y-146665529D01*
X125934218Y-146687153D01*
X125921921Y-146707670D01*
X125907671Y-146726883D01*
X125891607Y-146744607D01*
X125873883Y-146760671D01*
X125854670Y-146774921D01*
X125834153Y-146787218D01*
X125812529Y-146797446D01*
X125790007Y-146805504D01*
X125766803Y-146811316D01*
X125743142Y-146814826D01*
X125719250Y-146816000D01*
X124806750Y-146816000D01*
X124782858Y-146814826D01*
X124759197Y-146811316D01*
X124735993Y-146805504D01*
X124713471Y-146797446D01*
X124691847Y-146787218D01*
X124671330Y-146774921D01*
X124652117Y-146760671D01*
X124634393Y-146744607D01*
X124618329Y-146726883D01*
X124604079Y-146707670D01*
X124591782Y-146687153D01*
X124581554Y-146665529D01*
X124573496Y-146643007D01*
X124567684Y-146619803D01*
X124564174Y-146596142D01*
X124563000Y-146572250D01*
X124563000Y-146084750D01*
X124564174Y-146060858D01*
X124567684Y-146037197D01*
X124573496Y-146013993D01*
X124581554Y-145991471D01*
X124591782Y-145969847D01*
X124604079Y-145949330D01*
X124618329Y-145930117D01*
X124634393Y-145912393D01*
X124652117Y-145896329D01*
X124671330Y-145882079D01*
X124691847Y-145869782D01*
X124713471Y-145859554D01*
X124735993Y-145851496D01*
X124759197Y-145845684D01*
X124782858Y-145842174D01*
X124806750Y-145841000D01*
X125719250Y-145841000D01*
X125743142Y-145842174D01*
G37*
G36*
X413132342Y-146392574D02*
G01*
X413156003Y-146396084D01*
X413179207Y-146401896D01*
X413201729Y-146409954D01*
X413223353Y-146420182D01*
X413243870Y-146432479D01*
X413263083Y-146446729D01*
X413280807Y-146462793D01*
X413296871Y-146480517D01*
X413311121Y-146499730D01*
X413323418Y-146520247D01*
X413333646Y-146541871D01*
X413341704Y-146564393D01*
X413347516Y-146587597D01*
X413351026Y-146611258D01*
X413352200Y-146635150D01*
X413352200Y-147122650D01*
X413351026Y-147146542D01*
X413347516Y-147170203D01*
X413341704Y-147193407D01*
X413333646Y-147215929D01*
X413323418Y-147237553D01*
X413311121Y-147258070D01*
X413296871Y-147277283D01*
X413280807Y-147295007D01*
X413263083Y-147311071D01*
X413243870Y-147325321D01*
X413223353Y-147337618D01*
X413201729Y-147347846D01*
X413179207Y-147355904D01*
X413156003Y-147361716D01*
X413132342Y-147365226D01*
X413108450Y-147366400D01*
X412195950Y-147366400D01*
X412172058Y-147365226D01*
X412148397Y-147361716D01*
X412125193Y-147355904D01*
X412102671Y-147347846D01*
X412081047Y-147337618D01*
X412060530Y-147325321D01*
X412041317Y-147311071D01*
X412023593Y-147295007D01*
X412007529Y-147277283D01*
X411993279Y-147258070D01*
X411980982Y-147237553D01*
X411970754Y-147215929D01*
X411962696Y-147193407D01*
X411956884Y-147170203D01*
X411953374Y-147146542D01*
X411952200Y-147122650D01*
X411952200Y-146635150D01*
X411953374Y-146611258D01*
X411956884Y-146587597D01*
X411962696Y-146564393D01*
X411970754Y-146541871D01*
X411980982Y-146520247D01*
X411993279Y-146499730D01*
X412007529Y-146480517D01*
X412023593Y-146462793D01*
X412041317Y-146446729D01*
X412060530Y-146432479D01*
X412081047Y-146420182D01*
X412102671Y-146409954D01*
X412125193Y-146401896D01*
X412148397Y-146396084D01*
X412172058Y-146392574D01*
X412195950Y-146391400D01*
X413108450Y-146391400D01*
X413132342Y-146392574D01*
G37*
G36*
X413132342Y-144517574D02*
G01*
X413156003Y-144521084D01*
X413179207Y-144526896D01*
X413201729Y-144534954D01*
X413223353Y-144545182D01*
X413243870Y-144557479D01*
X413263083Y-144571729D01*
X413280807Y-144587793D01*
X413296871Y-144605517D01*
X413311121Y-144624730D01*
X413323418Y-144645247D01*
X413333646Y-144666871D01*
X413341704Y-144689393D01*
X413347516Y-144712597D01*
X413351026Y-144736258D01*
X413352200Y-144760150D01*
X413352200Y-145247650D01*
X413351026Y-145271542D01*
X413347516Y-145295203D01*
X413341704Y-145318407D01*
X413333646Y-145340929D01*
X413323418Y-145362553D01*
X413311121Y-145383070D01*
X413296871Y-145402283D01*
X413280807Y-145420007D01*
X413263083Y-145436071D01*
X413243870Y-145450321D01*
X413223353Y-145462618D01*
X413201729Y-145472846D01*
X413179207Y-145480904D01*
X413156003Y-145486716D01*
X413132342Y-145490226D01*
X413108450Y-145491400D01*
X412195950Y-145491400D01*
X412172058Y-145490226D01*
X412148397Y-145486716D01*
X412125193Y-145480904D01*
X412102671Y-145472846D01*
X412081047Y-145462618D01*
X412060530Y-145450321D01*
X412041317Y-145436071D01*
X412023593Y-145420007D01*
X412007529Y-145402283D01*
X411993279Y-145383070D01*
X411980982Y-145362553D01*
X411970754Y-145340929D01*
X411962696Y-145318407D01*
X411956884Y-145295203D01*
X411953374Y-145271542D01*
X411952200Y-145247650D01*
X411952200Y-144760150D01*
X411953374Y-144736258D01*
X411956884Y-144712597D01*
X411962696Y-144689393D01*
X411970754Y-144666871D01*
X411980982Y-144645247D01*
X411993279Y-144624730D01*
X412007529Y-144605517D01*
X412023593Y-144587793D01*
X412041317Y-144571729D01*
X412060530Y-144557479D01*
X412081047Y-144545182D01*
X412102671Y-144534954D01*
X412125193Y-144526896D01*
X412148397Y-144521084D01*
X412172058Y-144517574D01*
X412195950Y-144516400D01*
X413108450Y-144516400D01*
X413132342Y-144517574D01*
G37*
G36*
X112535142Y-146858174D02*
G01*
X112558803Y-146861684D01*
X112582007Y-146867496D01*
X112604529Y-146875554D01*
X112626153Y-146885782D01*
X112646670Y-146898079D01*
X112665883Y-146912329D01*
X112683607Y-146928393D01*
X112699671Y-146946117D01*
X112713921Y-146965330D01*
X112726218Y-146985847D01*
X112736446Y-147007471D01*
X112744504Y-147029993D01*
X112750316Y-147053197D01*
X112753826Y-147076858D01*
X112755000Y-147100750D01*
X112755000Y-147588250D01*
X112753826Y-147612142D01*
X112750316Y-147635803D01*
X112744504Y-147659007D01*
X112736446Y-147681529D01*
X112726218Y-147703153D01*
X112713921Y-147723670D01*
X112699671Y-147742883D01*
X112683607Y-147760607D01*
X112665883Y-147776671D01*
X112646670Y-147790921D01*
X112626153Y-147803218D01*
X112604529Y-147813446D01*
X112582007Y-147821504D01*
X112558803Y-147827316D01*
X112535142Y-147830826D01*
X112511250Y-147832000D01*
X111598750Y-147832000D01*
X111574858Y-147830826D01*
X111551197Y-147827316D01*
X111527993Y-147821504D01*
X111505471Y-147813446D01*
X111483847Y-147803218D01*
X111463330Y-147790921D01*
X111444117Y-147776671D01*
X111426393Y-147760607D01*
X111410329Y-147742883D01*
X111396079Y-147723670D01*
X111383782Y-147703153D01*
X111373554Y-147681529D01*
X111365496Y-147659007D01*
X111359684Y-147635803D01*
X111356174Y-147612142D01*
X111355000Y-147588250D01*
X111355000Y-147100750D01*
X111356174Y-147076858D01*
X111359684Y-147053197D01*
X111365496Y-147029993D01*
X111373554Y-147007471D01*
X111383782Y-146985847D01*
X111396079Y-146965330D01*
X111410329Y-146946117D01*
X111426393Y-146928393D01*
X111444117Y-146912329D01*
X111463330Y-146898079D01*
X111483847Y-146885782D01*
X111505471Y-146875554D01*
X111527993Y-146867496D01*
X111551197Y-146861684D01*
X111574858Y-146858174D01*
X111598750Y-146857000D01*
X112511250Y-146857000D01*
X112535142Y-146858174D01*
G37*
G36*
X112535142Y-148733174D02*
G01*
X112558803Y-148736684D01*
X112582007Y-148742496D01*
X112604529Y-148750554D01*
X112626153Y-148760782D01*
X112646670Y-148773079D01*
X112665883Y-148787329D01*
X112683607Y-148803393D01*
X112699671Y-148821117D01*
X112713921Y-148840330D01*
X112726218Y-148860847D01*
X112736446Y-148882471D01*
X112744504Y-148904993D01*
X112750316Y-148928197D01*
X112753826Y-148951858D01*
X112755000Y-148975750D01*
X112755000Y-149463250D01*
X112753826Y-149487142D01*
X112750316Y-149510803D01*
X112744504Y-149534007D01*
X112736446Y-149556529D01*
X112726218Y-149578153D01*
X112713921Y-149598670D01*
X112699671Y-149617883D01*
X112683607Y-149635607D01*
X112665883Y-149651671D01*
X112646670Y-149665921D01*
X112626153Y-149678218D01*
X112604529Y-149688446D01*
X112582007Y-149696504D01*
X112558803Y-149702316D01*
X112535142Y-149705826D01*
X112511250Y-149707000D01*
X111598750Y-149707000D01*
X111574858Y-149705826D01*
X111551197Y-149702316D01*
X111527993Y-149696504D01*
X111505471Y-149688446D01*
X111483847Y-149678218D01*
X111463330Y-149665921D01*
X111444117Y-149651671D01*
X111426393Y-149635607D01*
X111410329Y-149617883D01*
X111396079Y-149598670D01*
X111383782Y-149578153D01*
X111373554Y-149556529D01*
X111365496Y-149534007D01*
X111359684Y-149510803D01*
X111356174Y-149487142D01*
X111355000Y-149463250D01*
X111355000Y-148975750D01*
X111356174Y-148951858D01*
X111359684Y-148928197D01*
X111365496Y-148904993D01*
X111373554Y-148882471D01*
X111383782Y-148860847D01*
X111396079Y-148840330D01*
X111410329Y-148821117D01*
X111426393Y-148803393D01*
X111444117Y-148787329D01*
X111463330Y-148773079D01*
X111483847Y-148760782D01*
X111505471Y-148750554D01*
X111527993Y-148742496D01*
X111551197Y-148736684D01*
X111574858Y-148733174D01*
X111598750Y-148732000D01*
X112511250Y-148732000D01*
X112535142Y-148733174D01*
G37*
D15*
X413788200Y-139036600D03*
X416388200Y-138086600D03*
X413788200Y-137136600D03*
D16*
X120055000Y-143456000D03*
X116755000Y-143456000D03*
D13*
G36*
X123203142Y-147717174D02*
G01*
X123226803Y-147720684D01*
X123250007Y-147726496D01*
X123272529Y-147734554D01*
X123294153Y-147744782D01*
X123314670Y-147757079D01*
X123333883Y-147771329D01*
X123351607Y-147787393D01*
X123367671Y-147805117D01*
X123381921Y-147824330D01*
X123394218Y-147844847D01*
X123404446Y-147866471D01*
X123412504Y-147888993D01*
X123418316Y-147912197D01*
X123421826Y-147935858D01*
X123423000Y-147959750D01*
X123423000Y-148447250D01*
X123421826Y-148471142D01*
X123418316Y-148494803D01*
X123412504Y-148518007D01*
X123404446Y-148540529D01*
X123394218Y-148562153D01*
X123381921Y-148582670D01*
X123367671Y-148601883D01*
X123351607Y-148619607D01*
X123333883Y-148635671D01*
X123314670Y-148649921D01*
X123294153Y-148662218D01*
X123272529Y-148672446D01*
X123250007Y-148680504D01*
X123226803Y-148686316D01*
X123203142Y-148689826D01*
X123179250Y-148691000D01*
X122266750Y-148691000D01*
X122242858Y-148689826D01*
X122219197Y-148686316D01*
X122195993Y-148680504D01*
X122173471Y-148672446D01*
X122151847Y-148662218D01*
X122131330Y-148649921D01*
X122112117Y-148635671D01*
X122094393Y-148619607D01*
X122078329Y-148601883D01*
X122064079Y-148582670D01*
X122051782Y-148562153D01*
X122041554Y-148540529D01*
X122033496Y-148518007D01*
X122027684Y-148494803D01*
X122024174Y-148471142D01*
X122023000Y-148447250D01*
X122023000Y-147959750D01*
X122024174Y-147935858D01*
X122027684Y-147912197D01*
X122033496Y-147888993D01*
X122041554Y-147866471D01*
X122051782Y-147844847D01*
X122064079Y-147824330D01*
X122078329Y-147805117D01*
X122094393Y-147787393D01*
X122112117Y-147771329D01*
X122131330Y-147757079D01*
X122151847Y-147744782D01*
X122173471Y-147734554D01*
X122195993Y-147726496D01*
X122219197Y-147720684D01*
X122242858Y-147717174D01*
X122266750Y-147716000D01*
X123179250Y-147716000D01*
X123203142Y-147717174D01*
G37*
G36*
X123203142Y-145842174D02*
G01*
X123226803Y-145845684D01*
X123250007Y-145851496D01*
X123272529Y-145859554D01*
X123294153Y-145869782D01*
X123314670Y-145882079D01*
X123333883Y-145896329D01*
X123351607Y-145912393D01*
X123367671Y-145930117D01*
X123381921Y-145949330D01*
X123394218Y-145969847D01*
X123404446Y-145991471D01*
X123412504Y-146013993D01*
X123418316Y-146037197D01*
X123421826Y-146060858D01*
X123423000Y-146084750D01*
X123423000Y-146572250D01*
X123421826Y-146596142D01*
X123418316Y-146619803D01*
X123412504Y-146643007D01*
X123404446Y-146665529D01*
X123394218Y-146687153D01*
X123381921Y-146707670D01*
X123367671Y-146726883D01*
X123351607Y-146744607D01*
X123333883Y-146760671D01*
X123314670Y-146774921D01*
X123294153Y-146787218D01*
X123272529Y-146797446D01*
X123250007Y-146805504D01*
X123226803Y-146811316D01*
X123203142Y-146814826D01*
X123179250Y-146816000D01*
X122266750Y-146816000D01*
X122242858Y-146814826D01*
X122219197Y-146811316D01*
X122195993Y-146805504D01*
X122173471Y-146797446D01*
X122151847Y-146787218D01*
X122131330Y-146774921D01*
X122112117Y-146760671D01*
X122094393Y-146744607D01*
X122078329Y-146726883D01*
X122064079Y-146707670D01*
X122051782Y-146687153D01*
X122041554Y-146665529D01*
X122033496Y-146643007D01*
X122027684Y-146619803D01*
X122024174Y-146596142D01*
X122023000Y-146572250D01*
X122023000Y-146084750D01*
X122024174Y-146060858D01*
X122027684Y-146037197D01*
X122033496Y-146013993D01*
X122041554Y-145991471D01*
X122051782Y-145969847D01*
X122064079Y-145949330D01*
X122078329Y-145930117D01*
X122094393Y-145912393D01*
X122112117Y-145896329D01*
X122131330Y-145882079D01*
X122151847Y-145869782D01*
X122173471Y-145859554D01*
X122195993Y-145851496D01*
X122219197Y-145845684D01*
X122242858Y-145842174D01*
X122266750Y-145841000D01*
X123179250Y-145841000D01*
X123203142Y-145842174D01*
G37*
G36*
X419193342Y-135487774D02*
G01*
X419217003Y-135491284D01*
X419240207Y-135497096D01*
X419262729Y-135505154D01*
X419284353Y-135515382D01*
X419304870Y-135527679D01*
X419324083Y-135541929D01*
X419341807Y-135557993D01*
X419357871Y-135575717D01*
X419372121Y-135594930D01*
X419384418Y-135615447D01*
X419394646Y-135637071D01*
X419402704Y-135659593D01*
X419408516Y-135682797D01*
X419412026Y-135706458D01*
X419413200Y-135730350D01*
X419413200Y-136217850D01*
X419412026Y-136241742D01*
X419408516Y-136265403D01*
X419402704Y-136288607D01*
X419394646Y-136311129D01*
X419384418Y-136332753D01*
X419372121Y-136353270D01*
X419357871Y-136372483D01*
X419341807Y-136390207D01*
X419324083Y-136406271D01*
X419304870Y-136420521D01*
X419284353Y-136432818D01*
X419262729Y-136443046D01*
X419240207Y-136451104D01*
X419217003Y-136456916D01*
X419193342Y-136460426D01*
X419169450Y-136461600D01*
X418256950Y-136461600D01*
X418233058Y-136460426D01*
X418209397Y-136456916D01*
X418186193Y-136451104D01*
X418163671Y-136443046D01*
X418142047Y-136432818D01*
X418121530Y-136420521D01*
X418102317Y-136406271D01*
X418084593Y-136390207D01*
X418068529Y-136372483D01*
X418054279Y-136353270D01*
X418041982Y-136332753D01*
X418031754Y-136311129D01*
X418023696Y-136288607D01*
X418017884Y-136265403D01*
X418014374Y-136241742D01*
X418013200Y-136217850D01*
X418013200Y-135730350D01*
X418014374Y-135706458D01*
X418017884Y-135682797D01*
X418023696Y-135659593D01*
X418031754Y-135637071D01*
X418041982Y-135615447D01*
X418054279Y-135594930D01*
X418068529Y-135575717D01*
X418084593Y-135557993D01*
X418102317Y-135541929D01*
X418121530Y-135527679D01*
X418142047Y-135515382D01*
X418163671Y-135505154D01*
X418186193Y-135497096D01*
X418209397Y-135491284D01*
X418233058Y-135487774D01*
X418256950Y-135486600D01*
X419169450Y-135486600D01*
X419193342Y-135487774D01*
G37*
G36*
X419193342Y-137362774D02*
G01*
X419217003Y-137366284D01*
X419240207Y-137372096D01*
X419262729Y-137380154D01*
X419284353Y-137390382D01*
X419304870Y-137402679D01*
X419324083Y-137416929D01*
X419341807Y-137432993D01*
X419357871Y-137450717D01*
X419372121Y-137469930D01*
X419384418Y-137490447D01*
X419394646Y-137512071D01*
X419402704Y-137534593D01*
X419408516Y-137557797D01*
X419412026Y-137581458D01*
X419413200Y-137605350D01*
X419413200Y-138092850D01*
X419412026Y-138116742D01*
X419408516Y-138140403D01*
X419402704Y-138163607D01*
X419394646Y-138186129D01*
X419384418Y-138207753D01*
X419372121Y-138228270D01*
X419357871Y-138247483D01*
X419341807Y-138265207D01*
X419324083Y-138281271D01*
X419304870Y-138295521D01*
X419284353Y-138307818D01*
X419262729Y-138318046D01*
X419240207Y-138326104D01*
X419217003Y-138331916D01*
X419193342Y-138335426D01*
X419169450Y-138336600D01*
X418256950Y-138336600D01*
X418233058Y-138335426D01*
X418209397Y-138331916D01*
X418186193Y-138326104D01*
X418163671Y-138318046D01*
X418142047Y-138307818D01*
X418121530Y-138295521D01*
X418102317Y-138281271D01*
X418084593Y-138265207D01*
X418068529Y-138247483D01*
X418054279Y-138228270D01*
X418041982Y-138207753D01*
X418031754Y-138186129D01*
X418023696Y-138163607D01*
X418017884Y-138140403D01*
X418014374Y-138116742D01*
X418013200Y-138092850D01*
X418013200Y-137605350D01*
X418014374Y-137581458D01*
X418017884Y-137557797D01*
X418023696Y-137534593D01*
X418031754Y-137512071D01*
X418041982Y-137490447D01*
X418054279Y-137469930D01*
X418068529Y-137450717D01*
X418084593Y-137432993D01*
X418102317Y-137416929D01*
X418121530Y-137402679D01*
X418142047Y-137390382D01*
X418163671Y-137380154D01*
X418186193Y-137372096D01*
X418209397Y-137366284D01*
X418233058Y-137362774D01*
X418256950Y-137361600D01*
X419169450Y-137361600D01*
X419193342Y-137362774D01*
G37*
G36*
X415440342Y-146394074D02*
G01*
X415464003Y-146397584D01*
X415487207Y-146403396D01*
X415509729Y-146411454D01*
X415531353Y-146421682D01*
X415551870Y-146433979D01*
X415571083Y-146448229D01*
X415588807Y-146464293D01*
X415604871Y-146482017D01*
X415619121Y-146501230D01*
X415631418Y-146521747D01*
X415641646Y-146543371D01*
X415649704Y-146565893D01*
X415655516Y-146589097D01*
X415659026Y-146612758D01*
X415660200Y-146636650D01*
X415660200Y-147124150D01*
X415659026Y-147148042D01*
X415655516Y-147171703D01*
X415649704Y-147194907D01*
X415641646Y-147217429D01*
X415631418Y-147239053D01*
X415619121Y-147259570D01*
X415604871Y-147278783D01*
X415588807Y-147296507D01*
X415571083Y-147312571D01*
X415551870Y-147326821D01*
X415531353Y-147339118D01*
X415509729Y-147349346D01*
X415487207Y-147357404D01*
X415464003Y-147363216D01*
X415440342Y-147366726D01*
X415416450Y-147367900D01*
X414503950Y-147367900D01*
X414480058Y-147366726D01*
X414456397Y-147363216D01*
X414433193Y-147357404D01*
X414410671Y-147349346D01*
X414389047Y-147339118D01*
X414368530Y-147326821D01*
X414349317Y-147312571D01*
X414331593Y-147296507D01*
X414315529Y-147278783D01*
X414301279Y-147259570D01*
X414288982Y-147239053D01*
X414278754Y-147217429D01*
X414270696Y-147194907D01*
X414264884Y-147171703D01*
X414261374Y-147148042D01*
X414260200Y-147124150D01*
X414260200Y-146636650D01*
X414261374Y-146612758D01*
X414264884Y-146589097D01*
X414270696Y-146565893D01*
X414278754Y-146543371D01*
X414288982Y-146521747D01*
X414301279Y-146501230D01*
X414315529Y-146482017D01*
X414331593Y-146464293D01*
X414349317Y-146448229D01*
X414368530Y-146433979D01*
X414389047Y-146421682D01*
X414410671Y-146411454D01*
X414433193Y-146403396D01*
X414456397Y-146397584D01*
X414480058Y-146394074D01*
X414503950Y-146392900D01*
X415416450Y-146392900D01*
X415440342Y-146394074D01*
G37*
G36*
X415440342Y-144519074D02*
G01*
X415464003Y-144522584D01*
X415487207Y-144528396D01*
X415509729Y-144536454D01*
X415531353Y-144546682D01*
X415551870Y-144558979D01*
X415571083Y-144573229D01*
X415588807Y-144589293D01*
X415604871Y-144607017D01*
X415619121Y-144626230D01*
X415631418Y-144646747D01*
X415641646Y-144668371D01*
X415649704Y-144690893D01*
X415655516Y-144714097D01*
X415659026Y-144737758D01*
X415660200Y-144761650D01*
X415660200Y-145249150D01*
X415659026Y-145273042D01*
X415655516Y-145296703D01*
X415649704Y-145319907D01*
X415641646Y-145342429D01*
X415631418Y-145364053D01*
X415619121Y-145384570D01*
X415604871Y-145403783D01*
X415588807Y-145421507D01*
X415571083Y-145437571D01*
X415551870Y-145451821D01*
X415531353Y-145464118D01*
X415509729Y-145474346D01*
X415487207Y-145482404D01*
X415464003Y-145488216D01*
X415440342Y-145491726D01*
X415416450Y-145492900D01*
X414503950Y-145492900D01*
X414480058Y-145491726D01*
X414456397Y-145488216D01*
X414433193Y-145482404D01*
X414410671Y-145474346D01*
X414389047Y-145464118D01*
X414368530Y-145451821D01*
X414349317Y-145437571D01*
X414331593Y-145421507D01*
X414315529Y-145403783D01*
X414301279Y-145384570D01*
X414288982Y-145364053D01*
X414278754Y-145342429D01*
X414270696Y-145319907D01*
X414264884Y-145296703D01*
X414261374Y-145273042D01*
X414260200Y-145249150D01*
X414260200Y-144761650D01*
X414261374Y-144737758D01*
X414264884Y-144714097D01*
X414270696Y-144690893D01*
X414278754Y-144668371D01*
X414288982Y-144646747D01*
X414301279Y-144626230D01*
X414315529Y-144607017D01*
X414331593Y-144589293D01*
X414349317Y-144573229D01*
X414368530Y-144558979D01*
X414389047Y-144546682D01*
X414410671Y-144536454D01*
X414433193Y-144528396D01*
X414456397Y-144522584D01*
X414480058Y-144519074D01*
X414503950Y-144517900D01*
X415416450Y-144517900D01*
X415440342Y-144519074D01*
G37*
G36*
X115075142Y-146858174D02*
G01*
X115098803Y-146861684D01*
X115122007Y-146867496D01*
X115144529Y-146875554D01*
X115166153Y-146885782D01*
X115186670Y-146898079D01*
X115205883Y-146912329D01*
X115223607Y-146928393D01*
X115239671Y-146946117D01*
X115253921Y-146965330D01*
X115266218Y-146985847D01*
X115276446Y-147007471D01*
X115284504Y-147029993D01*
X115290316Y-147053197D01*
X115293826Y-147076858D01*
X115295000Y-147100750D01*
X115295000Y-147588250D01*
X115293826Y-147612142D01*
X115290316Y-147635803D01*
X115284504Y-147659007D01*
X115276446Y-147681529D01*
X115266218Y-147703153D01*
X115253921Y-147723670D01*
X115239671Y-147742883D01*
X115223607Y-147760607D01*
X115205883Y-147776671D01*
X115186670Y-147790921D01*
X115166153Y-147803218D01*
X115144529Y-147813446D01*
X115122007Y-147821504D01*
X115098803Y-147827316D01*
X115075142Y-147830826D01*
X115051250Y-147832000D01*
X114138750Y-147832000D01*
X114114858Y-147830826D01*
X114091197Y-147827316D01*
X114067993Y-147821504D01*
X114045471Y-147813446D01*
X114023847Y-147803218D01*
X114003330Y-147790921D01*
X113984117Y-147776671D01*
X113966393Y-147760607D01*
X113950329Y-147742883D01*
X113936079Y-147723670D01*
X113923782Y-147703153D01*
X113913554Y-147681529D01*
X113905496Y-147659007D01*
X113899684Y-147635803D01*
X113896174Y-147612142D01*
X113895000Y-147588250D01*
X113895000Y-147100750D01*
X113896174Y-147076858D01*
X113899684Y-147053197D01*
X113905496Y-147029993D01*
X113913554Y-147007471D01*
X113923782Y-146985847D01*
X113936079Y-146965330D01*
X113950329Y-146946117D01*
X113966393Y-146928393D01*
X113984117Y-146912329D01*
X114003330Y-146898079D01*
X114023847Y-146885782D01*
X114045471Y-146875554D01*
X114067993Y-146867496D01*
X114091197Y-146861684D01*
X114114858Y-146858174D01*
X114138750Y-146857000D01*
X115051250Y-146857000D01*
X115075142Y-146858174D01*
G37*
G36*
X115075142Y-148733174D02*
G01*
X115098803Y-148736684D01*
X115122007Y-148742496D01*
X115144529Y-148750554D01*
X115166153Y-148760782D01*
X115186670Y-148773079D01*
X115205883Y-148787329D01*
X115223607Y-148803393D01*
X115239671Y-148821117D01*
X115253921Y-148840330D01*
X115266218Y-148860847D01*
X115276446Y-148882471D01*
X115284504Y-148904993D01*
X115290316Y-148928197D01*
X115293826Y-148951858D01*
X115295000Y-148975750D01*
X115295000Y-149463250D01*
X115293826Y-149487142D01*
X115290316Y-149510803D01*
X115284504Y-149534007D01*
X115276446Y-149556529D01*
X115266218Y-149578153D01*
X115253921Y-149598670D01*
X115239671Y-149617883D01*
X115223607Y-149635607D01*
X115205883Y-149651671D01*
X115186670Y-149665921D01*
X115166153Y-149678218D01*
X115144529Y-149688446D01*
X115122007Y-149696504D01*
X115098803Y-149702316D01*
X115075142Y-149705826D01*
X115051250Y-149707000D01*
X114138750Y-149707000D01*
X114114858Y-149705826D01*
X114091197Y-149702316D01*
X114067993Y-149696504D01*
X114045471Y-149688446D01*
X114023847Y-149678218D01*
X114003330Y-149665921D01*
X113984117Y-149651671D01*
X113966393Y-149635607D01*
X113950329Y-149617883D01*
X113936079Y-149598670D01*
X113923782Y-149578153D01*
X113913554Y-149556529D01*
X113905496Y-149534007D01*
X113899684Y-149510803D01*
X113896174Y-149487142D01*
X113895000Y-149463250D01*
X113895000Y-148975750D01*
X113896174Y-148951858D01*
X113899684Y-148928197D01*
X113905496Y-148904993D01*
X113913554Y-148882471D01*
X113923782Y-148860847D01*
X113936079Y-148840330D01*
X113950329Y-148821117D01*
X113966393Y-148803393D01*
X113984117Y-148787329D01*
X114003330Y-148773079D01*
X114023847Y-148760782D01*
X114045471Y-148750554D01*
X114067993Y-148742496D01*
X114091197Y-148736684D01*
X114114858Y-148733174D01*
X114138750Y-148732000D01*
X115051250Y-148732000D01*
X115075142Y-148733174D01*
G37*
G36*
X423492142Y-138476174D02*
G01*
X423515803Y-138479684D01*
X423539007Y-138485496D01*
X423561529Y-138493554D01*
X423583153Y-138503782D01*
X423603670Y-138516079D01*
X423622883Y-138530329D01*
X423640607Y-138546393D01*
X423656671Y-138564117D01*
X423670921Y-138583330D01*
X423683218Y-138603847D01*
X423693446Y-138625471D01*
X423701504Y-138647993D01*
X423707316Y-138671197D01*
X423710826Y-138694858D01*
X423712000Y-138718750D01*
X423712000Y-139206250D01*
X423710826Y-139230142D01*
X423707316Y-139253803D01*
X423701504Y-139277007D01*
X423693446Y-139299529D01*
X423683218Y-139321153D01*
X423670921Y-139341670D01*
X423656671Y-139360883D01*
X423640607Y-139378607D01*
X423622883Y-139394671D01*
X423603670Y-139408921D01*
X423583153Y-139421218D01*
X423561529Y-139431446D01*
X423539007Y-139439504D01*
X423515803Y-139445316D01*
X423492142Y-139448826D01*
X423468250Y-139450000D01*
X422555750Y-139450000D01*
X422531858Y-139448826D01*
X422508197Y-139445316D01*
X422484993Y-139439504D01*
X422462471Y-139431446D01*
X422440847Y-139421218D01*
X422420330Y-139408921D01*
X422401117Y-139394671D01*
X422383393Y-139378607D01*
X422367329Y-139360883D01*
X422353079Y-139341670D01*
X422340782Y-139321153D01*
X422330554Y-139299529D01*
X422322496Y-139277007D01*
X422316684Y-139253803D01*
X422313174Y-139230142D01*
X422312000Y-139206250D01*
X422312000Y-138718750D01*
X422313174Y-138694858D01*
X422316684Y-138671197D01*
X422322496Y-138647993D01*
X422330554Y-138625471D01*
X422340782Y-138603847D01*
X422353079Y-138583330D01*
X422367329Y-138564117D01*
X422383393Y-138546393D01*
X422401117Y-138530329D01*
X422420330Y-138516079D01*
X422440847Y-138503782D01*
X422462471Y-138493554D01*
X422484993Y-138485496D01*
X422508197Y-138479684D01*
X422531858Y-138476174D01*
X422555750Y-138475000D01*
X423468250Y-138475000D01*
X423492142Y-138476174D01*
G37*
G36*
X423492142Y-140351174D02*
G01*
X423515803Y-140354684D01*
X423539007Y-140360496D01*
X423561529Y-140368554D01*
X423583153Y-140378782D01*
X423603670Y-140391079D01*
X423622883Y-140405329D01*
X423640607Y-140421393D01*
X423656671Y-140439117D01*
X423670921Y-140458330D01*
X423683218Y-140478847D01*
X423693446Y-140500471D01*
X423701504Y-140522993D01*
X423707316Y-140546197D01*
X423710826Y-140569858D01*
X423712000Y-140593750D01*
X423712000Y-141081250D01*
X423710826Y-141105142D01*
X423707316Y-141128803D01*
X423701504Y-141152007D01*
X423693446Y-141174529D01*
X423683218Y-141196153D01*
X423670921Y-141216670D01*
X423656671Y-141235883D01*
X423640607Y-141253607D01*
X423622883Y-141269671D01*
X423603670Y-141283921D01*
X423583153Y-141296218D01*
X423561529Y-141306446D01*
X423539007Y-141314504D01*
X423515803Y-141320316D01*
X423492142Y-141323826D01*
X423468250Y-141325000D01*
X422555750Y-141325000D01*
X422531858Y-141323826D01*
X422508197Y-141320316D01*
X422484993Y-141314504D01*
X422462471Y-141306446D01*
X422440847Y-141296218D01*
X422420330Y-141283921D01*
X422401117Y-141269671D01*
X422383393Y-141253607D01*
X422367329Y-141235883D01*
X422353079Y-141216670D01*
X422340782Y-141196153D01*
X422330554Y-141174529D01*
X422322496Y-141152007D01*
X422316684Y-141128803D01*
X422313174Y-141105142D01*
X422312000Y-141081250D01*
X422312000Y-140593750D01*
X422313174Y-140569858D01*
X422316684Y-140546197D01*
X422322496Y-140522993D01*
X422330554Y-140500471D01*
X422340782Y-140478847D01*
X422353079Y-140458330D01*
X422367329Y-140439117D01*
X422383393Y-140421393D01*
X422401117Y-140405329D01*
X422420330Y-140391079D01*
X422440847Y-140378782D01*
X422462471Y-140368554D01*
X422484993Y-140360496D01*
X422508197Y-140354684D01*
X422531858Y-140351174D01*
X422555750Y-140350000D01*
X423468250Y-140350000D01*
X423492142Y-140351174D01*
G37*
G36*
X435296142Y-147837174D02*
G01*
X435319803Y-147840684D01*
X435343007Y-147846496D01*
X435365529Y-147854554D01*
X435387153Y-147864782D01*
X435407670Y-147877079D01*
X435426883Y-147891329D01*
X435444607Y-147907393D01*
X435460671Y-147925117D01*
X435474921Y-147944330D01*
X435487218Y-147964847D01*
X435497446Y-147986471D01*
X435505504Y-148008993D01*
X435511316Y-148032197D01*
X435514826Y-148055858D01*
X435516000Y-148079750D01*
X435516000Y-148992250D01*
X435514826Y-149016142D01*
X435511316Y-149039803D01*
X435505504Y-149063007D01*
X435497446Y-149085529D01*
X435487218Y-149107153D01*
X435474921Y-149127670D01*
X435460671Y-149146883D01*
X435444607Y-149164607D01*
X435426883Y-149180671D01*
X435407670Y-149194921D01*
X435387153Y-149207218D01*
X435365529Y-149217446D01*
X435343007Y-149225504D01*
X435319803Y-149231316D01*
X435296142Y-149234826D01*
X435272250Y-149236000D01*
X434784750Y-149236000D01*
X434760858Y-149234826D01*
X434737197Y-149231316D01*
X434713993Y-149225504D01*
X434691471Y-149217446D01*
X434669847Y-149207218D01*
X434649330Y-149194921D01*
X434630117Y-149180671D01*
X434612393Y-149164607D01*
X434596329Y-149146883D01*
X434582079Y-149127670D01*
X434569782Y-149107153D01*
X434559554Y-149085529D01*
X434551496Y-149063007D01*
X434545684Y-149039803D01*
X434542174Y-149016142D01*
X434541000Y-148992250D01*
X434541000Y-148079750D01*
X434542174Y-148055858D01*
X434545684Y-148032197D01*
X434551496Y-148008993D01*
X434559554Y-147986471D01*
X434569782Y-147964847D01*
X434582079Y-147944330D01*
X434596329Y-147925117D01*
X434612393Y-147907393D01*
X434630117Y-147891329D01*
X434649330Y-147877079D01*
X434669847Y-147864782D01*
X434691471Y-147854554D01*
X434713993Y-147846496D01*
X434737197Y-147840684D01*
X434760858Y-147837174D01*
X434784750Y-147836000D01*
X435272250Y-147836000D01*
X435296142Y-147837174D01*
G37*
G36*
X437171142Y-147837174D02*
G01*
X437194803Y-147840684D01*
X437218007Y-147846496D01*
X437240529Y-147854554D01*
X437262153Y-147864782D01*
X437282670Y-147877079D01*
X437301883Y-147891329D01*
X437319607Y-147907393D01*
X437335671Y-147925117D01*
X437349921Y-147944330D01*
X437362218Y-147964847D01*
X437372446Y-147986471D01*
X437380504Y-148008993D01*
X437386316Y-148032197D01*
X437389826Y-148055858D01*
X437391000Y-148079750D01*
X437391000Y-148992250D01*
X437389826Y-149016142D01*
X437386316Y-149039803D01*
X437380504Y-149063007D01*
X437372446Y-149085529D01*
X437362218Y-149107153D01*
X437349921Y-149127670D01*
X437335671Y-149146883D01*
X437319607Y-149164607D01*
X437301883Y-149180671D01*
X437282670Y-149194921D01*
X437262153Y-149207218D01*
X437240529Y-149217446D01*
X437218007Y-149225504D01*
X437194803Y-149231316D01*
X437171142Y-149234826D01*
X437147250Y-149236000D01*
X436659750Y-149236000D01*
X436635858Y-149234826D01*
X436612197Y-149231316D01*
X436588993Y-149225504D01*
X436566471Y-149217446D01*
X436544847Y-149207218D01*
X436524330Y-149194921D01*
X436505117Y-149180671D01*
X436487393Y-149164607D01*
X436471329Y-149146883D01*
X436457079Y-149127670D01*
X436444782Y-149107153D01*
X436434554Y-149085529D01*
X436426496Y-149063007D01*
X436420684Y-149039803D01*
X436417174Y-149016142D01*
X436416000Y-148992250D01*
X436416000Y-148079750D01*
X436417174Y-148055858D01*
X436420684Y-148032197D01*
X436426496Y-148008993D01*
X436434554Y-147986471D01*
X436444782Y-147964847D01*
X436457079Y-147944330D01*
X436471329Y-147925117D01*
X436487393Y-147907393D01*
X436505117Y-147891329D01*
X436524330Y-147877079D01*
X436544847Y-147864782D01*
X436566471Y-147854554D01*
X436588993Y-147846496D01*
X436612197Y-147840684D01*
X436635858Y-147837174D01*
X436659750Y-147836000D01*
X437147250Y-147836000D01*
X437171142Y-147837174D01*
G37*
G36*
X421206142Y-138476174D02*
G01*
X421229803Y-138479684D01*
X421253007Y-138485496D01*
X421275529Y-138493554D01*
X421297153Y-138503782D01*
X421317670Y-138516079D01*
X421336883Y-138530329D01*
X421354607Y-138546393D01*
X421370671Y-138564117D01*
X421384921Y-138583330D01*
X421397218Y-138603847D01*
X421407446Y-138625471D01*
X421415504Y-138647993D01*
X421421316Y-138671197D01*
X421424826Y-138694858D01*
X421426000Y-138718750D01*
X421426000Y-139206250D01*
X421424826Y-139230142D01*
X421421316Y-139253803D01*
X421415504Y-139277007D01*
X421407446Y-139299529D01*
X421397218Y-139321153D01*
X421384921Y-139341670D01*
X421370671Y-139360883D01*
X421354607Y-139378607D01*
X421336883Y-139394671D01*
X421317670Y-139408921D01*
X421297153Y-139421218D01*
X421275529Y-139431446D01*
X421253007Y-139439504D01*
X421229803Y-139445316D01*
X421206142Y-139448826D01*
X421182250Y-139450000D01*
X420269750Y-139450000D01*
X420245858Y-139448826D01*
X420222197Y-139445316D01*
X420198993Y-139439504D01*
X420176471Y-139431446D01*
X420154847Y-139421218D01*
X420134330Y-139408921D01*
X420115117Y-139394671D01*
X420097393Y-139378607D01*
X420081329Y-139360883D01*
X420067079Y-139341670D01*
X420054782Y-139321153D01*
X420044554Y-139299529D01*
X420036496Y-139277007D01*
X420030684Y-139253803D01*
X420027174Y-139230142D01*
X420026000Y-139206250D01*
X420026000Y-138718750D01*
X420027174Y-138694858D01*
X420030684Y-138671197D01*
X420036496Y-138647993D01*
X420044554Y-138625471D01*
X420054782Y-138603847D01*
X420067079Y-138583330D01*
X420081329Y-138564117D01*
X420097393Y-138546393D01*
X420115117Y-138530329D01*
X420134330Y-138516079D01*
X420154847Y-138503782D01*
X420176471Y-138493554D01*
X420198993Y-138485496D01*
X420222197Y-138479684D01*
X420245858Y-138476174D01*
X420269750Y-138475000D01*
X421182250Y-138475000D01*
X421206142Y-138476174D01*
G37*
G36*
X421206142Y-140351174D02*
G01*
X421229803Y-140354684D01*
X421253007Y-140360496D01*
X421275529Y-140368554D01*
X421297153Y-140378782D01*
X421317670Y-140391079D01*
X421336883Y-140405329D01*
X421354607Y-140421393D01*
X421370671Y-140439117D01*
X421384921Y-140458330D01*
X421397218Y-140478847D01*
X421407446Y-140500471D01*
X421415504Y-140522993D01*
X421421316Y-140546197D01*
X421424826Y-140569858D01*
X421426000Y-140593750D01*
X421426000Y-141081250D01*
X421424826Y-141105142D01*
X421421316Y-141128803D01*
X421415504Y-141152007D01*
X421407446Y-141174529D01*
X421397218Y-141196153D01*
X421384921Y-141216670D01*
X421370671Y-141235883D01*
X421354607Y-141253607D01*
X421336883Y-141269671D01*
X421317670Y-141283921D01*
X421297153Y-141296218D01*
X421275529Y-141306446D01*
X421253007Y-141314504D01*
X421229803Y-141320316D01*
X421206142Y-141323826D01*
X421182250Y-141325000D01*
X420269750Y-141325000D01*
X420245858Y-141323826D01*
X420222197Y-141320316D01*
X420198993Y-141314504D01*
X420176471Y-141306446D01*
X420154847Y-141296218D01*
X420134330Y-141283921D01*
X420115117Y-141269671D01*
X420097393Y-141253607D01*
X420081329Y-141235883D01*
X420067079Y-141216670D01*
X420054782Y-141196153D01*
X420044554Y-141174529D01*
X420036496Y-141152007D01*
X420030684Y-141128803D01*
X420027174Y-141105142D01*
X420026000Y-141081250D01*
X420026000Y-140593750D01*
X420027174Y-140569858D01*
X420030684Y-140546197D01*
X420036496Y-140522993D01*
X420044554Y-140500471D01*
X420054782Y-140478847D01*
X420067079Y-140458330D01*
X420081329Y-140439117D01*
X420097393Y-140421393D01*
X420115117Y-140405329D01*
X420134330Y-140391079D01*
X420154847Y-140378782D01*
X420176471Y-140368554D01*
X420198993Y-140360496D01*
X420222197Y-140354684D01*
X420245858Y-140351174D01*
X420269750Y-140350000D01*
X421182250Y-140350000D01*
X421206142Y-140351174D01*
G37*
G36*
X439494142Y-136033174D02*
G01*
X439517803Y-136036684D01*
X439541007Y-136042496D01*
X439563529Y-136050554D01*
X439585153Y-136060782D01*
X439605670Y-136073079D01*
X439624883Y-136087329D01*
X439642607Y-136103393D01*
X439658671Y-136121117D01*
X439672921Y-136140330D01*
X439685218Y-136160847D01*
X439695446Y-136182471D01*
X439703504Y-136204993D01*
X439709316Y-136228197D01*
X439712826Y-136251858D01*
X439714000Y-136275750D01*
X439714000Y-136763250D01*
X439712826Y-136787142D01*
X439709316Y-136810803D01*
X439703504Y-136834007D01*
X439695446Y-136856529D01*
X439685218Y-136878153D01*
X439672921Y-136898670D01*
X439658671Y-136917883D01*
X439642607Y-136935607D01*
X439624883Y-136951671D01*
X439605670Y-136965921D01*
X439585153Y-136978218D01*
X439563529Y-136988446D01*
X439541007Y-136996504D01*
X439517803Y-137002316D01*
X439494142Y-137005826D01*
X439470250Y-137007000D01*
X438557750Y-137007000D01*
X438533858Y-137005826D01*
X438510197Y-137002316D01*
X438486993Y-136996504D01*
X438464471Y-136988446D01*
X438442847Y-136978218D01*
X438422330Y-136965921D01*
X438403117Y-136951671D01*
X438385393Y-136935607D01*
X438369329Y-136917883D01*
X438355079Y-136898670D01*
X438342782Y-136878153D01*
X438332554Y-136856529D01*
X438324496Y-136834007D01*
X438318684Y-136810803D01*
X438315174Y-136787142D01*
X438314000Y-136763250D01*
X438314000Y-136275750D01*
X438315174Y-136251858D01*
X438318684Y-136228197D01*
X438324496Y-136204993D01*
X438332554Y-136182471D01*
X438342782Y-136160847D01*
X438355079Y-136140330D01*
X438369329Y-136121117D01*
X438385393Y-136103393D01*
X438403117Y-136087329D01*
X438422330Y-136073079D01*
X438442847Y-136060782D01*
X438464471Y-136050554D01*
X438486993Y-136042496D01*
X438510197Y-136036684D01*
X438533858Y-136033174D01*
X438557750Y-136032000D01*
X439470250Y-136032000D01*
X439494142Y-136033174D01*
G37*
G36*
X439494142Y-134158174D02*
G01*
X439517803Y-134161684D01*
X439541007Y-134167496D01*
X439563529Y-134175554D01*
X439585153Y-134185782D01*
X439605670Y-134198079D01*
X439624883Y-134212329D01*
X439642607Y-134228393D01*
X439658671Y-134246117D01*
X439672921Y-134265330D01*
X439685218Y-134285847D01*
X439695446Y-134307471D01*
X439703504Y-134329993D01*
X439709316Y-134353197D01*
X439712826Y-134376858D01*
X439714000Y-134400750D01*
X439714000Y-134888250D01*
X439712826Y-134912142D01*
X439709316Y-134935803D01*
X439703504Y-134959007D01*
X439695446Y-134981529D01*
X439685218Y-135003153D01*
X439672921Y-135023670D01*
X439658671Y-135042883D01*
X439642607Y-135060607D01*
X439624883Y-135076671D01*
X439605670Y-135090921D01*
X439585153Y-135103218D01*
X439563529Y-135113446D01*
X439541007Y-135121504D01*
X439517803Y-135127316D01*
X439494142Y-135130826D01*
X439470250Y-135132000D01*
X438557750Y-135132000D01*
X438533858Y-135130826D01*
X438510197Y-135127316D01*
X438486993Y-135121504D01*
X438464471Y-135113446D01*
X438442847Y-135103218D01*
X438422330Y-135090921D01*
X438403117Y-135076671D01*
X438385393Y-135060607D01*
X438369329Y-135042883D01*
X438355079Y-135023670D01*
X438342782Y-135003153D01*
X438332554Y-134981529D01*
X438324496Y-134959007D01*
X438318684Y-134935803D01*
X438315174Y-134912142D01*
X438314000Y-134888250D01*
X438314000Y-134400750D01*
X438315174Y-134376858D01*
X438318684Y-134353197D01*
X438324496Y-134329993D01*
X438332554Y-134307471D01*
X438342782Y-134285847D01*
X438355079Y-134265330D01*
X438369329Y-134246117D01*
X438385393Y-134228393D01*
X438403117Y-134212329D01*
X438422330Y-134198079D01*
X438442847Y-134185782D01*
X438464471Y-134175554D01*
X438486993Y-134167496D01*
X438510197Y-134161684D01*
X438533858Y-134158174D01*
X438557750Y-134157000D01*
X439470250Y-134157000D01*
X439494142Y-134158174D01*
G37*
G36*
X442034142Y-136033174D02*
G01*
X442057803Y-136036684D01*
X442081007Y-136042496D01*
X442103529Y-136050554D01*
X442125153Y-136060782D01*
X442145670Y-136073079D01*
X442164883Y-136087329D01*
X442182607Y-136103393D01*
X442198671Y-136121117D01*
X442212921Y-136140330D01*
X442225218Y-136160847D01*
X442235446Y-136182471D01*
X442243504Y-136204993D01*
X442249316Y-136228197D01*
X442252826Y-136251858D01*
X442254000Y-136275750D01*
X442254000Y-136763250D01*
X442252826Y-136787142D01*
X442249316Y-136810803D01*
X442243504Y-136834007D01*
X442235446Y-136856529D01*
X442225218Y-136878153D01*
X442212921Y-136898670D01*
X442198671Y-136917883D01*
X442182607Y-136935607D01*
X442164883Y-136951671D01*
X442145670Y-136965921D01*
X442125153Y-136978218D01*
X442103529Y-136988446D01*
X442081007Y-136996504D01*
X442057803Y-137002316D01*
X442034142Y-137005826D01*
X442010250Y-137007000D01*
X441097750Y-137007000D01*
X441073858Y-137005826D01*
X441050197Y-137002316D01*
X441026993Y-136996504D01*
X441004471Y-136988446D01*
X440982847Y-136978218D01*
X440962330Y-136965921D01*
X440943117Y-136951671D01*
X440925393Y-136935607D01*
X440909329Y-136917883D01*
X440895079Y-136898670D01*
X440882782Y-136878153D01*
X440872554Y-136856529D01*
X440864496Y-136834007D01*
X440858684Y-136810803D01*
X440855174Y-136787142D01*
X440854000Y-136763250D01*
X440854000Y-136275750D01*
X440855174Y-136251858D01*
X440858684Y-136228197D01*
X440864496Y-136204993D01*
X440872554Y-136182471D01*
X440882782Y-136160847D01*
X440895079Y-136140330D01*
X440909329Y-136121117D01*
X440925393Y-136103393D01*
X440943117Y-136087329D01*
X440962330Y-136073079D01*
X440982847Y-136060782D01*
X441004471Y-136050554D01*
X441026993Y-136042496D01*
X441050197Y-136036684D01*
X441073858Y-136033174D01*
X441097750Y-136032000D01*
X442010250Y-136032000D01*
X442034142Y-136033174D01*
G37*
G36*
X442034142Y-134158174D02*
G01*
X442057803Y-134161684D01*
X442081007Y-134167496D01*
X442103529Y-134175554D01*
X442125153Y-134185782D01*
X442145670Y-134198079D01*
X442164883Y-134212329D01*
X442182607Y-134228393D01*
X442198671Y-134246117D01*
X442212921Y-134265330D01*
X442225218Y-134285847D01*
X442235446Y-134307471D01*
X442243504Y-134329993D01*
X442249316Y-134353197D01*
X442252826Y-134376858D01*
X442254000Y-134400750D01*
X442254000Y-134888250D01*
X442252826Y-134912142D01*
X442249316Y-134935803D01*
X442243504Y-134959007D01*
X442235446Y-134981529D01*
X442225218Y-135003153D01*
X442212921Y-135023670D01*
X442198671Y-135042883D01*
X442182607Y-135060607D01*
X442164883Y-135076671D01*
X442145670Y-135090921D01*
X442125153Y-135103218D01*
X442103529Y-135113446D01*
X442081007Y-135121504D01*
X442057803Y-135127316D01*
X442034142Y-135130826D01*
X442010250Y-135132000D01*
X441097750Y-135132000D01*
X441073858Y-135130826D01*
X441050197Y-135127316D01*
X441026993Y-135121504D01*
X441004471Y-135113446D01*
X440982847Y-135103218D01*
X440962330Y-135090921D01*
X440943117Y-135076671D01*
X440925393Y-135060607D01*
X440909329Y-135042883D01*
X440895079Y-135023670D01*
X440882782Y-135003153D01*
X440872554Y-134981529D01*
X440864496Y-134959007D01*
X440858684Y-134935803D01*
X440855174Y-134912142D01*
X440854000Y-134888250D01*
X440854000Y-134400750D01*
X440855174Y-134376858D01*
X440858684Y-134353197D01*
X440864496Y-134329993D01*
X440872554Y-134307471D01*
X440882782Y-134285847D01*
X440895079Y-134265330D01*
X440909329Y-134246117D01*
X440925393Y-134228393D01*
X440943117Y-134212329D01*
X440962330Y-134198079D01*
X440982847Y-134185782D01*
X441004471Y-134175554D01*
X441026993Y-134167496D01*
X441050197Y-134161684D01*
X441073858Y-134158174D01*
X441097750Y-134157000D01*
X442010250Y-134157000D01*
X442034142Y-134158174D01*
G37*
G36*
X435296142Y-145551174D02*
G01*
X435319803Y-145554684D01*
X435343007Y-145560496D01*
X435365529Y-145568554D01*
X435387153Y-145578782D01*
X435407670Y-145591079D01*
X435426883Y-145605329D01*
X435444607Y-145621393D01*
X435460671Y-145639117D01*
X435474921Y-145658330D01*
X435487218Y-145678847D01*
X435497446Y-145700471D01*
X435505504Y-145722993D01*
X435511316Y-145746197D01*
X435514826Y-145769858D01*
X435516000Y-145793750D01*
X435516000Y-146706250D01*
X435514826Y-146730142D01*
X435511316Y-146753803D01*
X435505504Y-146777007D01*
X435497446Y-146799529D01*
X435487218Y-146821153D01*
X435474921Y-146841670D01*
X435460671Y-146860883D01*
X435444607Y-146878607D01*
X435426883Y-146894671D01*
X435407670Y-146908921D01*
X435387153Y-146921218D01*
X435365529Y-146931446D01*
X435343007Y-146939504D01*
X435319803Y-146945316D01*
X435296142Y-146948826D01*
X435272250Y-146950000D01*
X434784750Y-146950000D01*
X434760858Y-146948826D01*
X434737197Y-146945316D01*
X434713993Y-146939504D01*
X434691471Y-146931446D01*
X434669847Y-146921218D01*
X434649330Y-146908921D01*
X434630117Y-146894671D01*
X434612393Y-146878607D01*
X434596329Y-146860883D01*
X434582079Y-146841670D01*
X434569782Y-146821153D01*
X434559554Y-146799529D01*
X434551496Y-146777007D01*
X434545684Y-146753803D01*
X434542174Y-146730142D01*
X434541000Y-146706250D01*
X434541000Y-145793750D01*
X434542174Y-145769858D01*
X434545684Y-145746197D01*
X434551496Y-145722993D01*
X434559554Y-145700471D01*
X434569782Y-145678847D01*
X434582079Y-145658330D01*
X434596329Y-145639117D01*
X434612393Y-145621393D01*
X434630117Y-145605329D01*
X434649330Y-145591079D01*
X434669847Y-145578782D01*
X434691471Y-145568554D01*
X434713993Y-145560496D01*
X434737197Y-145554684D01*
X434760858Y-145551174D01*
X434784750Y-145550000D01*
X435272250Y-145550000D01*
X435296142Y-145551174D01*
G37*
G36*
X437171142Y-145551174D02*
G01*
X437194803Y-145554684D01*
X437218007Y-145560496D01*
X437240529Y-145568554D01*
X437262153Y-145578782D01*
X437282670Y-145591079D01*
X437301883Y-145605329D01*
X437319607Y-145621393D01*
X437335671Y-145639117D01*
X437349921Y-145658330D01*
X437362218Y-145678847D01*
X437372446Y-145700471D01*
X437380504Y-145722993D01*
X437386316Y-145746197D01*
X437389826Y-145769858D01*
X437391000Y-145793750D01*
X437391000Y-146706250D01*
X437389826Y-146730142D01*
X437386316Y-146753803D01*
X437380504Y-146777007D01*
X437372446Y-146799529D01*
X437362218Y-146821153D01*
X437349921Y-146841670D01*
X437335671Y-146860883D01*
X437319607Y-146878607D01*
X437301883Y-146894671D01*
X437282670Y-146908921D01*
X437262153Y-146921218D01*
X437240529Y-146931446D01*
X437218007Y-146939504D01*
X437194803Y-146945316D01*
X437171142Y-146948826D01*
X437147250Y-146950000D01*
X436659750Y-146950000D01*
X436635858Y-146948826D01*
X436612197Y-146945316D01*
X436588993Y-146939504D01*
X436566471Y-146931446D01*
X436544847Y-146921218D01*
X436524330Y-146908921D01*
X436505117Y-146894671D01*
X436487393Y-146878607D01*
X436471329Y-146860883D01*
X436457079Y-146841670D01*
X436444782Y-146821153D01*
X436434554Y-146799529D01*
X436426496Y-146777007D01*
X436420684Y-146753803D01*
X436417174Y-146730142D01*
X436416000Y-146706250D01*
X436416000Y-145793750D01*
X436417174Y-145769858D01*
X436420684Y-145746197D01*
X436426496Y-145722993D01*
X436434554Y-145700471D01*
X436444782Y-145678847D01*
X436457079Y-145658330D01*
X436471329Y-145639117D01*
X436487393Y-145621393D01*
X436505117Y-145605329D01*
X436524330Y-145591079D01*
X436544847Y-145578782D01*
X436566471Y-145568554D01*
X436588993Y-145560496D01*
X436612197Y-145554684D01*
X436635858Y-145551174D01*
X436659750Y-145550000D01*
X437147250Y-145550000D01*
X437171142Y-145551174D01*
G37*
G36*
X424374142Y-134883174D02*
G01*
X424397803Y-134886684D01*
X424421007Y-134892496D01*
X424443529Y-134900554D01*
X424465153Y-134910782D01*
X424485670Y-134923079D01*
X424504883Y-134937329D01*
X424522607Y-134953393D01*
X424538671Y-134971117D01*
X424552921Y-134990330D01*
X424565218Y-135010847D01*
X424575446Y-135032471D01*
X424583504Y-135054993D01*
X424589316Y-135078197D01*
X424592826Y-135101858D01*
X424594000Y-135125750D01*
X424594000Y-136038250D01*
X424592826Y-136062142D01*
X424589316Y-136085803D01*
X424583504Y-136109007D01*
X424575446Y-136131529D01*
X424565218Y-136153153D01*
X424552921Y-136173670D01*
X424538671Y-136192883D01*
X424522607Y-136210607D01*
X424504883Y-136226671D01*
X424485670Y-136240921D01*
X424465153Y-136253218D01*
X424443529Y-136263446D01*
X424421007Y-136271504D01*
X424397803Y-136277316D01*
X424374142Y-136280826D01*
X424350250Y-136282000D01*
X423862750Y-136282000D01*
X423838858Y-136280826D01*
X423815197Y-136277316D01*
X423791993Y-136271504D01*
X423769471Y-136263446D01*
X423747847Y-136253218D01*
X423727330Y-136240921D01*
X423708117Y-136226671D01*
X423690393Y-136210607D01*
X423674329Y-136192883D01*
X423660079Y-136173670D01*
X423647782Y-136153153D01*
X423637554Y-136131529D01*
X423629496Y-136109007D01*
X423623684Y-136085803D01*
X423620174Y-136062142D01*
X423619000Y-136038250D01*
X423619000Y-135125750D01*
X423620174Y-135101858D01*
X423623684Y-135078197D01*
X423629496Y-135054993D01*
X423637554Y-135032471D01*
X423647782Y-135010847D01*
X423660079Y-134990330D01*
X423674329Y-134971117D01*
X423690393Y-134953393D01*
X423708117Y-134937329D01*
X423727330Y-134923079D01*
X423747847Y-134910782D01*
X423769471Y-134900554D01*
X423791993Y-134892496D01*
X423815197Y-134886684D01*
X423838858Y-134883174D01*
X423862750Y-134882000D01*
X424350250Y-134882000D01*
X424374142Y-134883174D01*
G37*
G36*
X426249142Y-134883174D02*
G01*
X426272803Y-134886684D01*
X426296007Y-134892496D01*
X426318529Y-134900554D01*
X426340153Y-134910782D01*
X426360670Y-134923079D01*
X426379883Y-134937329D01*
X426397607Y-134953393D01*
X426413671Y-134971117D01*
X426427921Y-134990330D01*
X426440218Y-135010847D01*
X426450446Y-135032471D01*
X426458504Y-135054993D01*
X426464316Y-135078197D01*
X426467826Y-135101858D01*
X426469000Y-135125750D01*
X426469000Y-136038250D01*
X426467826Y-136062142D01*
X426464316Y-136085803D01*
X426458504Y-136109007D01*
X426450446Y-136131529D01*
X426440218Y-136153153D01*
X426427921Y-136173670D01*
X426413671Y-136192883D01*
X426397607Y-136210607D01*
X426379883Y-136226671D01*
X426360670Y-136240921D01*
X426340153Y-136253218D01*
X426318529Y-136263446D01*
X426296007Y-136271504D01*
X426272803Y-136277316D01*
X426249142Y-136280826D01*
X426225250Y-136282000D01*
X425737750Y-136282000D01*
X425713858Y-136280826D01*
X425690197Y-136277316D01*
X425666993Y-136271504D01*
X425644471Y-136263446D01*
X425622847Y-136253218D01*
X425602330Y-136240921D01*
X425583117Y-136226671D01*
X425565393Y-136210607D01*
X425549329Y-136192883D01*
X425535079Y-136173670D01*
X425522782Y-136153153D01*
X425512554Y-136131529D01*
X425504496Y-136109007D01*
X425498684Y-136085803D01*
X425495174Y-136062142D01*
X425494000Y-136038250D01*
X425494000Y-135125750D01*
X425495174Y-135101858D01*
X425498684Y-135078197D01*
X425504496Y-135054993D01*
X425512554Y-135032471D01*
X425522782Y-135010847D01*
X425535079Y-134990330D01*
X425549329Y-134971117D01*
X425565393Y-134953393D01*
X425583117Y-134937329D01*
X425602330Y-134923079D01*
X425622847Y-134910782D01*
X425644471Y-134900554D01*
X425666993Y-134892496D01*
X425690197Y-134886684D01*
X425713858Y-134883174D01*
X425737750Y-134882000D01*
X426225250Y-134882000D01*
X426249142Y-134883174D01*
G37*
M02*
