M48
; DRILL file {KiCad 5.1.5+dfsg1-2build2} date Mo 17 Aug 2020 23:00:17 CEST
; FORMAT={-:-/ absolute / metric / decimal}
; #@! TF.CreationDate,2020-08-17T23:00:17+02:00
; #@! TF.GenerationSoftware,Kicad,Pcbnew,5.1.5+dfsg1-2build2
FMAT,2
METRIC
T1C0.400
T2C0.600
T3C0.800
T4C1.000
T5C1.100
T6C1.500
T7C0.650
T8C1.750
T9C3.000
T10C3.048
T11C3.988
%
G90
G05
T1
X108.37Y-200.54
X108.39Y-238.54
X108.48Y-219.63
X108.8Y-276.78
X109.14Y-257.78
X111.4Y-151.02
X115.61Y-142.21
X116.44Y-235.5
X116.47Y-273.64
X116.49Y-216.66
X116.61Y-254.79
X116.95Y-197.14
X117.86Y-148.86
X118.28Y-139.74
X118.73Y-279.29
X118.88Y-260.49
X118.94Y-241.33
X118.95Y-221.75
X119.0Y-202.95
X120.0Y-140.28
X122.63Y-143.74
X124.59Y-141.77
X126.64Y-147.29
X127.11Y-148.56
X133.18Y-132.29
X135.54Y-158.6
X136.11Y-131.54
X138.83Y-130.79
X139.99Y-201.93
X141.581Y-130.041
X142.26Y-278.47
X143.52Y-148.66
X144.32Y-129.29
X144.78Y-221.4
X145.63Y-197.59
X147.65Y-273.6
X148.29Y-202.66
X148.49Y-173.64
X148.61Y-240.59
X149.24Y-168.43
X150.25Y-132.29
X151.02Y-216.69
X151.94Y-259.26
X152.62Y-221.54
X153.36Y-235.79
X153.38Y-131.54
X154.59Y-240.71
X156.16Y-130.79
X157.74Y-254.53
X159.04Y-202.13
X159.07Y-130.04
X160.23Y-259.69
X162.01Y-129.29
X165.21Y-197.63
X166.09Y-278.41
X166.28Y-165.48
X167.3Y-202.65
X167.81Y-132.344
X168.23Y-221.13
X170.37Y-165.54
X171.05Y-131.565
X171.48Y-273.59
X173.48Y-240.18
X173.65Y-130.79
X174.46Y-216.83
X175.55Y-158.33
X176.2Y-221.67
X176.78Y-129.29
X178.35Y-171.49
X179.1Y-235.82
X179.46Y-202.31
X179.97Y-240.35
X182.61Y-132.29
X182.9Y-259.52
X184.59Y-197.58
X185.27Y-168.08
X185.55Y-131.54
X185.79Y-202.75
X187.18Y-169.8
X187.2Y-168.51
X187.74Y-220.9
X188.42Y-173.11
X188.5Y-254.58
X188.65Y-130.79
X188.65Y-177.07
X188.79Y-166.8
X190.27Y-278.62
X191.68Y-130.065
X192.03Y-259.37
X192.27Y-240.22
X192.94Y-166.75
X193.29Y-216.82
X194.35Y-176.83
X194.5Y-129.29
X194.59Y-158.4
X195.43Y-221.68
X195.91Y-273.61
X197.47Y-201.96
X197.87Y-235.68
X198.94Y-240.36
X199.18Y-172.9
X201.34Y-132.29
X201.93Y-259.12
X203.24Y-197.84
X204.34Y-131.54
X204.58Y-168.37
X204.82Y-202.74
X206.22Y-169.97
X206.33Y-173.04
X206.76Y-221.04
X207.34Y-130.79
X207.7Y-254.75
X207.89Y-168.62
X207.9Y-167.35
X210.22Y-259.86
X210.34Y-130.04
X211.24Y-167.34
X211.49Y-240.37
X212.54Y-216.59
X213.54Y-157.56
X213.594Y-133.044
X215.76Y-221.52
X216.46Y-201.82
X216.59Y-132.29
X217.51Y-235.36
X218.0Y-240.39
X218.19Y-173.02
X219.59Y-131.54
X220.8Y-259.22
X221.63Y-197.67
X222.59Y-130.79
X224.04Y-202.64
X224.5Y-169.04
X225.34Y-130.04
X225.55Y-166.88
X225.64Y-180.13
X225.82Y-221.0
X225.84Y-173.28
X226.5Y-254.44
X228.59Y-133.04
X228.995Y-168.15
X229.8Y-259.51
X230.93Y-240.12
X231.86Y-216.86
X232.54Y-158.64
X233.07Y-179.8
X234.76Y-221.52
X234.84Y-131.54
X235.82Y-201.99
X236.59Y-235.67
X237.05Y-172.78
X237.41Y-240.51
X238.09Y-130.79
X240.31Y-259.95
X241.09Y-130.04
X241.99Y-197.87
X243.16Y-172.82
X243.68Y-168.96
X243.72Y-202.61
X243.92Y-170.56
X244.34Y-129.29
X244.87Y-221.04
X245.25Y-173.23
X245.27Y-254.43
X245.99Y-168.11
X247.343Y-133.043
X248.07Y-259.59
X249.71Y-240.03
X249.9Y-168.1
X250.83Y-216.7
X250.84Y-132.29
X253.98Y-221.28
X254.09Y-131.54
X255.41Y-235.61
X256.48Y-240.54
X256.82Y-202.47
X256.84Y-130.79
X259.84Y-130.04
X260.33Y-159.02
X260.77Y-259.64
X260.92Y-197.79
X261.36Y-278.52
X263.1Y-202.41
X263.99Y-220.81
X264.36Y-254.69
X264.72Y-172.65
X265.84Y-132.29
X266.94Y-273.55
X267.51Y-259.79
X268.7Y-240.11
X269.09Y-131.54
X269.33Y-216.77
X271.84Y-130.79
X272.37Y-221.52
X273.14Y-173.12
X273.8Y-167.41
X273.8Y-168.54
X273.88Y-201.93
X274.72Y-235.75
X275.09Y-130.04
X275.52Y-240.36
X277.82Y-259.26
X277.885Y-167.35
X279.31Y-158.73
X279.84Y-197.67
X282.34Y-202.48
X282.97Y-220.92
X283.48Y-254.6
X283.77Y-172.66
X286.24Y-259.66
X287.81Y-239.94
X289.32Y-216.84
X290.196Y-129.315
X291.07Y-167.95
X291.09Y-130.04
X291.84Y-130.79
X292.25Y-221.39
X292.66Y-173.46
X292.696Y-131.565
X292.8Y-166.71
X292.9Y-201.99
X293.59Y-132.29
X293.62Y-235.5
X294.45Y-240.39
X296.41Y-166.76
X298.15Y-197.61
X298.43Y-157.85
X298.94Y-259.92
X301.15Y-202.45
X301.7Y-197.06
X301.94Y-220.87
X302.73Y-172.68
X302.94Y-254.82
X306.15Y-259.47
X306.34Y-129.29
X306.89Y-240.06
X307.09Y-130.04
X307.758Y-130.815
X308.16Y-168.69
X308.24Y-216.59
X308.59Y-131.54
X309.72Y-196.92
X309.84Y-132.29
X311.15Y-221.33
X311.4Y-173.22
X311.7Y-167.5
X312.68Y-235.82
X313.09Y-240.44
X313.71Y-202.52
X315.82Y-167.55
X316.84Y-133.04
X317.49Y-197.72
X317.56Y-158.53
X318.3Y-259.6
X320.46Y-202.54
X321.11Y-220.95
X321.57Y-254.52
X321.86Y-172.55
X322.59Y-129.29
X323.34Y-130.04
X324.09Y-130.79
X325.09Y-131.54
X325.6Y-240.09
X325.72Y-258.24
X326.09Y-132.29
X326.74Y-216.68
X328.43Y-168.88
X330.12Y-221.61
X330.72Y-173.3
X330.79Y-168.05
X331.43Y-235.8
X332.26Y-240.25
X332.34Y-133.04
X332.97Y-278.52
X333.1Y-255.76
X333.32Y-202.63
X334.76Y-166.32
X337.24Y-197.88
X338.56Y-273.7
X338.84Y-129.29
X339.59Y-130.04
X339.74Y-202.51
X340.17Y-220.87
X340.34Y-130.79
X340.49Y-254.78
X341.09Y-131.54
X341.84Y-132.29
X341.95Y-201.53
X341.97Y-257.34
X342.907Y-167.95
X344.95Y-239.92
X345.42Y-158.19
X346.02Y-253.04
X346.41Y-216.81
X347.58Y-197.71
X348.59Y-133.04
X348.95Y-221.76
X349.04Y-215.77
X349.24Y-252.85
X350.0Y-172.81
X350.97Y-235.77
X351.64Y-240.35
X352.24Y-202.41
X354.33Y-259.08
X354.59Y-132.29
X355.34Y-130.04
X355.68Y-197.61
X356.34Y-130.79
X356.52Y-168.93
X356.6Y-219.59
X356.79Y-278.14
X357.008Y-131.565
X357.84Y-132.29
X358.28Y-202.52
X358.51Y-176.5
X358.76Y-173.36
X359.05Y-168.04
X359.46Y-220.78
X359.98Y-254.77
X362.47Y-273.89
X362.96Y-166.23
X363.1Y-176.63
X363.18Y-168.06
X363.87Y-259.57
X364.21Y-240.01
X364.46Y-158.68
X365.37Y-216.73
X365.4Y-175.565
X366.839Y-133.041
X367.78Y-177.34
X368.28Y-221.55
X369.04Y-201.96
X369.33Y-172.8
X370.03Y-235.62
X370.95Y-240.35
X374.57Y-197.68
X375.59Y-131.54
X375.84Y-168.91
X375.99Y-172.84
X376.59Y-129.29
X377.24Y-177.9
X377.59Y-131.54
X377.81Y-173.97
X377.96Y-168.06
X378.23Y-201.23
X378.59Y-132.29
X379.59Y-133.04
X380.2Y-221.77
X380.71Y-278.2
X381.507Y-174.0
X381.82Y-178.29
X381.83Y-168.04
X383.53Y-158.57
X383.75Y-216.72
X384.21Y-221.36
X386.78Y-273.59
X388.18Y-172.69
X390.18Y-259.3
X392.59Y-132.29
X394.147Y-131.548
X394.4Y-168.49
X394.78Y-240.05
X395.402Y-130.634
X395.67Y-254.74
X396.1Y-173.36
X396.576Y-130.014
X396.7Y-240.52
X397.5Y-165.37
X397.73Y-202.24
X398.26Y-259.59
X398.97Y-185.57
X400.65Y-235.73
X401.08Y-165.1
X402.53Y-158.44
X403.61Y-221.23
X404.41Y-278.3
X404.51Y-197.69
X405.67Y-169.46
X406.06Y-202.63
X406.85Y-148.7
X408.84Y-216.53
X409.96Y-273.91
X410.37Y-174.84
X411.99Y-221.34
X412.04Y-150.25
X413.21Y-149.6
X413.5Y-133.58
X413.6Y-143.3
X413.71Y-141.61
X413.71Y-172.754
X414.3Y-148.88
X415.06Y-131.19
X415.062Y-136.09
X415.12Y-174.82
X415.37Y-148.23
X416.0Y-143.25
X416.23Y-136.268
X416.25Y-129.25
X417.04Y-145.74
X417.64Y-132.86
X417.98Y-172.25
X418.39Y-139.45
X420.85Y-168.27
X421.2Y-136.35
X429.01Y-160.36
X429.718Y-133.067
X430.368Y-132.308
X431.62Y-157.74
X433.426Y-132.356
X433.73Y-150.44
X434.09Y-199.09
X434.239Y-131.569
X434.84Y-137.33
X434.931Y-138.443
X434.964Y-132.509
X435.712Y-131.137
X436.16Y-278.25
X436.56Y-172.62
X437.34Y-144.76
X437.816Y-221.124
X438.59Y-138.95
X439.03Y-140.06
X439.15Y-141.29
X440.22Y-150.49
X440.9Y-144.35
X441.38Y-197.5
X442.06Y-273.77
X442.36Y-216.7
X442.45Y-168.38
X443.61Y-136.29
X444.65Y-173.33
X444.7Y-202.6
X444.82Y-168.23
X445.43Y-221.24
X450.65Y-157.72
X452.52Y-171.64
X454.96Y-278.15
X455.08Y-150.11
X455.17Y-259.69
X455.2Y-202.01
X455.2Y-221.08
X455.46Y-172.73
X455.92Y-157.38
X457.15Y-259.53
X460.65Y-197.6
X460.67Y-273.91
X460.74Y-254.43
X461.22Y-216.63
X461.42Y-168.25
X463.32Y-202.87
X463.48Y-173.43
X464.17Y-221.19
X469.51Y-158.39
X474.13Y-220.77
X474.21Y-172.93
X474.22Y-201.98
X474.27Y-278.14
X474.46Y-152.82
X475.37Y-158.54
X476.03Y-202.69
X476.48Y-221.35
X476.54Y-173.09
X479.59Y-168.38
X479.79Y-197.59
X480.05Y-216.76
T3
X301.23Y-137.49
X311.39Y-137.49
X365.23Y-134.84
X375.39Y-134.84
X179.69Y-134.59
X179.69Y-144.75
X332.83Y-142.44
X342.99Y-142.44
X153.19Y-137.34
X153.19Y-147.5
X144.39Y-134.64
X144.39Y-144.8
X381.78Y-134.84
X391.94Y-134.84
X147.29Y-137.34
X147.29Y-147.5
X381.78Y-147.44
X391.94Y-147.44
X210.39Y-134.64
X210.39Y-144.8
X400.13Y-142.34
X410.29Y-142.34
X285.18Y-147.49
X295.34Y-147.49
X268.99Y-137.34
X268.99Y-147.5
X262.89Y-137.44
X262.89Y-147.6
X365.227Y-142.44
X375.387Y-142.44
X285.13Y-144.94
X295.29Y-144.94
X332.89Y-147.55
X343.05Y-147.55
X348.98Y-139.89
X359.14Y-139.89
X164.84Y-137.29
X164.84Y-147.45
X348.98Y-134.84
X359.14Y-134.84
X182.64Y-137.29
X182.64Y-147.45
X317.08Y-142.34
X327.24Y-142.34
X285.13Y-134.79
X295.29Y-134.79
X170.84Y-137.29
X170.84Y-147.45
X400.127Y-145.005
X410.287Y-145.005
X188.64Y-137.34
X188.64Y-147.5
X332.88Y-144.99
X343.04Y-144.99
X222.49Y-134.59
X222.49Y-144.75
X301.18Y-140.04
X311.34Y-140.04
X158.94Y-137.29
X158.94Y-147.45
X219.54Y-137.29
X219.54Y-147.45
X365.227Y-139.925
X375.387Y-139.925
X198.24Y-134.68
X198.24Y-144.84
X381.78Y-139.89
X391.94Y-139.89
X317.08Y-144.89
X327.24Y-144.89
X365.227Y-137.385
X375.387Y-137.385
X381.78Y-137.39
X391.94Y-137.39
X381.78Y-142.44
X391.94Y-142.44
X185.64Y-134.69
X185.64Y-144.85
X348.98Y-137.35
X359.14Y-137.35
X225.34Y-137.24
X225.34Y-147.4
X156.09Y-134.64
X156.09Y-144.8
X130.39Y-137.24
X130.39Y-147.4
X194.59Y-137.34
X194.59Y-147.5
X285.13Y-139.89
X295.29Y-139.89
X244.24Y-137.29
X244.24Y-147.45
X191.69Y-134.59
X191.69Y-144.75
X265.94Y-134.64
X265.94Y-144.8
X348.99Y-142.45
X359.15Y-142.45
X150.39Y-134.64
X150.39Y-144.8
X237.89Y-137.34
X237.89Y-147.5
X167.89Y-134.59
X167.89Y-144.75
X250.69Y-137.34
X250.69Y-147.5
X317.08Y-139.84
X327.24Y-139.84
X332.88Y-139.89
X343.04Y-139.89
X204.34Y-134.59
X204.34Y-144.75
X136.09Y-137.29
X136.09Y-147.45
X173.69Y-134.59
X173.69Y-144.75
X133.29Y-134.64
X133.29Y-144.8
X317.08Y-134.74
X327.24Y-134.74
X400.13Y-139.79
X410.29Y-139.79
X161.89Y-134.54
X161.89Y-144.7
X241.04Y-134.64
X241.04Y-144.8
X285.13Y-137.34
X295.29Y-137.34
X247.49Y-134.59
X247.49Y-144.75
X348.99Y-147.55
X359.15Y-147.55
X259.89Y-134.68
X259.89Y-144.84
X228.59Y-134.74
X228.59Y-144.9
X201.34Y-137.39
X201.34Y-147.55
X332.93Y-137.34
X343.09Y-137.34
X348.99Y-145.0
X359.15Y-145.0
X317.08Y-147.44
X327.24Y-147.44
X207.34Y-137.29
X207.34Y-147.45
X365.227Y-144.98
X375.387Y-144.98
X253.94Y-134.59
X253.94Y-144.75
X271.89Y-134.64
X271.89Y-144.8
X365.227Y-147.52
X375.387Y-147.52
X141.64Y-137.34
X141.64Y-147.5
X176.64Y-137.34
X176.64Y-147.5
X213.59Y-137.24
X213.59Y-147.4
X256.99Y-137.34
X256.99Y-147.5
X381.78Y-144.94
X391.94Y-144.94
X317.08Y-137.29
X327.24Y-137.29
X275.04Y-137.34
X275.04Y-147.5
X138.89Y-134.59
X138.89Y-144.75
X285.13Y-142.44
X295.29Y-142.44
X332.93Y-134.84
X343.09Y-134.84
X301.23Y-145.14
X311.39Y-145.14
X231.59Y-137.29
X231.59Y-147.45
X216.44Y-134.69
X216.44Y-144.85
X234.69Y-134.64
X234.69Y-144.8
X301.23Y-142.59
X311.39Y-142.59
X301.18Y-147.69
X311.34Y-147.69
X301.18Y-134.84
X311.34Y-134.84
T4
X106.5Y-160.74
X106.5Y-163.24
X106.5Y-165.74
X121.0Y-160.74
X121.0Y-165.74
X484.226Y-136.09
X484.226Y-138.63
X484.226Y-141.17
X484.226Y-143.71
T5
X401.905Y-132.483
X401.905Y-136.983
X408.405Y-132.483
X408.405Y-136.983
T7
X109.988Y-133.54
X115.768Y-133.54
T8
X452.61Y-163.84
X462.77Y-163.84
X433.61Y-269.24
X443.77Y-269.24
X170.81Y-231.14
X180.97Y-231.14
X149.41Y-250.19
X159.57Y-250.19
X237.46Y-250.19
X247.62Y-250.19
X354.21Y-269.24
X364.37Y-269.24
X471.71Y-212.04
X481.87Y-212.04
X256.51Y-250.19
X266.67Y-250.19
X223.41Y-212.09
X233.57Y-212.09
X300.41Y-163.87
X310.57Y-163.87
X304.41Y-231.14
X314.57Y-231.14
X378.16Y-269.24
X388.32Y-269.24
X433.61Y-163.84
X443.77Y-163.84
X166.11Y-212.09
X176.27Y-212.09
X247.16Y-231.14
X257.32Y-231.14
X313.71Y-250.19
X323.87Y-250.19
X323.46Y-231.14
X333.62Y-231.14
X137.49Y-193.03
X147.65Y-193.03
X392.61Y-231.14
X402.77Y-231.14
X213.86Y-193.04
X224.02Y-193.04
X281.36Y-163.84
X291.52Y-163.84
X352.01Y-250.19
X362.17Y-250.19
X299.61Y-212.09
X309.77Y-212.09
X433.56Y-212.04
X443.72Y-212.04
X144.63Y-231.15
X154.79Y-231.15
X404.56Y-163.89
X414.72Y-163.89
X433.56Y-192.99
X443.72Y-192.99
X471.71Y-192.99
X481.87Y-192.99
X242.46Y-212.09
X252.62Y-212.09
X318.71Y-212.09
X328.87Y-212.09
X266.26Y-231.14
X276.42Y-231.14
X261.51Y-212.09
X271.67Y-212.09
X199.36Y-250.19
X209.52Y-250.19
X332.91Y-250.19
X343.07Y-250.19
X142.26Y-212.09
X152.42Y-212.09
X290.16Y-193.04
X300.32Y-193.04
X209.01Y-231.14
X219.17Y-231.14
X156.51Y-193.04
X166.67Y-193.04
X452.66Y-269.24
X462.82Y-269.24
X232.96Y-193.04
X243.12Y-193.04
X180.36Y-250.19
X190.52Y-250.19
X108.51Y-250.19
X118.67Y-250.19
X108.51Y-269.24
X118.67Y-269.24
X309.21Y-193.04
X319.37Y-193.04
X262.36Y-163.84
X272.52Y-163.84
X252.01Y-193.04
X262.17Y-193.04
X342.51Y-231.14
X352.67Y-231.14
X175.61Y-193.04
X185.77Y-193.04
X275.56Y-250.19
X285.72Y-250.19
X385.51Y-163.89
X395.67Y-163.89
X452.66Y-250.14
X462.82Y-250.14
X218.41Y-250.19
X228.57Y-250.19
X189.91Y-231.14
X200.07Y-231.14
X375.91Y-212.09
X386.07Y-212.09
X361.56Y-231.14
X371.72Y-231.14
X399.76Y-212.09
X409.92Y-212.09
X337.76Y-212.09
X347.92Y-212.09
X108.51Y-231.14
X118.67Y-231.14
X196.56Y-163.84
X206.72Y-163.84
X285.31Y-231.14
X295.47Y-231.14
X330.36Y-269.24
X340.52Y-269.24
X452.61Y-212.04
X462.77Y-212.04
X185.21Y-212.09
X195.37Y-212.09
X234.56Y-163.84
X244.72Y-163.84
X356.81Y-212.09
X366.97Y-212.09
X204.31Y-212.09
X214.47Y-212.09
X139.86Y-269.24
X150.02Y-269.24
X366.46Y-163.89
X376.62Y-163.89
X395.01Y-192.99
X405.17Y-192.99
X194.71Y-193.04
X204.87Y-193.04
X328.31Y-193.04
X338.47Y-193.04
X280.56Y-212.09
X290.72Y-212.09
X228.11Y-231.14
X238.27Y-231.14
X366.46Y-192.99
X376.62Y-192.99
X471.61Y-163.84
X481.77Y-163.84
X452.66Y-192.99
X462.82Y-192.99
X258.96Y-269.24
X269.12Y-269.24
X108.51Y-212.09
X118.67Y-212.09
X215.56Y-163.84
X225.72Y-163.84
X177.56Y-163.84
X187.72Y-163.84
X471.71Y-269.24
X481.87Y-269.24
X347.41Y-163.89
X357.57Y-163.89
X163.71Y-269.24
X173.87Y-269.24
X402.11Y-269.24
X412.27Y-269.24
X347.41Y-193.04
X357.57Y-193.04
X108.51Y-193.04
X118.67Y-193.04
X137.51Y-163.84
X147.67Y-163.84
X387.81Y-250.19
X397.97Y-250.19
X271.11Y-193.04
X281.27Y-193.04
X319.46Y-163.86
X329.62Y-163.86
X187.56Y-269.24
X197.72Y-269.24
X294.61Y-250.19
X304.77Y-250.19
T9
X453.93Y-266.7
X460.28Y-264.16
X234.23Y-190.5
X240.58Y-187.96
X181.63Y-247.65
X187.98Y-245.11
X109.78Y-247.65
X116.13Y-245.11
X109.78Y-266.7
X116.13Y-264.16
X310.48Y-190.5
X316.83Y-187.96
X263.63Y-161.3
X269.98Y-158.76
X253.28Y-190.5
X259.63Y-187.96
X343.78Y-228.6
X350.13Y-226.06
X176.88Y-190.5
X183.23Y-187.96
X276.83Y-247.65
X283.18Y-245.11
X386.78Y-161.35
X393.13Y-158.81
X453.93Y-247.6
X460.28Y-245.06
X219.68Y-247.65
X226.03Y-245.11
X191.18Y-228.6
X197.53Y-226.06
X377.18Y-209.55
X383.53Y-207.01
X362.83Y-228.6
X369.18Y-226.06
X401.03Y-209.55
X407.38Y-207.01
X339.03Y-209.55
X345.38Y-207.01
X109.78Y-228.6
X116.13Y-226.06
X197.83Y-161.3
X204.18Y-158.76
X286.58Y-228.6
X292.93Y-226.06
X331.63Y-266.7
X337.98Y-264.16
X453.88Y-209.5
X460.23Y-206.96
X186.48Y-209.55
X192.83Y-207.01
X235.83Y-161.3
X242.18Y-158.76
X358.08Y-209.55
X364.43Y-207.01
X205.58Y-209.55
X211.93Y-207.01
X141.13Y-266.7
X147.48Y-264.16
X367.73Y-161.35
X374.08Y-158.81
X396.28Y-190.45
X402.63Y-187.91
X195.98Y-190.5
X202.33Y-187.96
X329.58Y-190.5
X335.93Y-187.96
X281.83Y-209.55
X288.18Y-207.01
X229.38Y-228.6
X235.73Y-226.06
X367.73Y-190.45
X374.08Y-187.91
X472.88Y-161.3
X479.23Y-158.76
X453.93Y-190.45
X460.28Y-187.91
X260.23Y-266.7
X266.58Y-264.16
X109.78Y-209.55
X116.13Y-207.01
X216.83Y-161.3
X223.18Y-158.76
X178.83Y-161.3
X185.18Y-158.76
X472.98Y-266.7
X479.33Y-264.16
X348.68Y-161.35
X355.03Y-158.81
X164.98Y-266.7
X171.33Y-264.16
X403.38Y-266.7
X409.73Y-264.16
X348.68Y-190.5
X355.03Y-187.96
X109.78Y-190.5
X116.13Y-187.96
X138.78Y-161.3
X145.13Y-158.76
X389.08Y-247.65
X395.43Y-245.11
X272.38Y-190.5
X278.73Y-187.96
X320.73Y-161.32
X327.08Y-158.78
X188.83Y-266.7
X195.18Y-264.16
X295.88Y-247.65
X302.23Y-245.11
X453.88Y-161.3
X460.23Y-158.76
X434.88Y-266.7
X441.23Y-264.16
X172.08Y-228.6
X178.43Y-226.06
X150.68Y-247.65
X157.03Y-245.11
X238.73Y-247.65
X245.08Y-245.11
X355.48Y-266.7
X361.83Y-264.16
X472.98Y-209.5
X479.33Y-206.96
X257.78Y-247.65
X264.13Y-245.11
X224.68Y-209.55
X231.03Y-207.01
X301.68Y-161.33
X308.03Y-158.79
X305.68Y-228.6
X312.03Y-226.06
X379.43Y-266.7
X385.78Y-264.16
X434.88Y-161.3
X441.23Y-158.76
X167.38Y-209.55
X173.73Y-207.01
X248.43Y-228.6
X254.78Y-226.06
X314.98Y-247.65
X321.33Y-245.11
X324.73Y-228.6
X331.08Y-226.06
X138.76Y-190.49
X145.11Y-187.95
X393.88Y-228.6
X400.23Y-226.06
X215.13Y-190.5
X221.48Y-187.96
X282.63Y-161.3
X288.98Y-158.76
X353.28Y-247.65
X359.63Y-245.11
X300.88Y-209.55
X307.23Y-207.01
X434.83Y-209.5
X441.18Y-206.96
X145.9Y-228.61
X152.25Y-226.07
X405.83Y-161.35
X412.18Y-158.81
X434.83Y-190.45
X441.18Y-187.91
X472.98Y-190.45
X479.33Y-187.91
X243.73Y-209.55
X250.08Y-207.01
X319.98Y-209.55
X326.33Y-207.01
X267.53Y-228.6
X273.88Y-226.06
X262.78Y-209.55
X269.13Y-207.01
X200.63Y-247.65
X206.98Y-245.11
X334.18Y-247.65
X340.53Y-245.11
X143.53Y-209.55
X149.88Y-207.01
X291.43Y-190.5
X297.78Y-187.96
X210.28Y-228.6
X216.63Y-226.06
X157.78Y-190.5
X164.13Y-187.96
T10
X388.152Y-186.005
X412.028Y-186.005
X214.04Y-262.255
X314.04Y-262.255
X380.952Y-243.205
X404.828Y-243.205
X142.552Y-243.205
X166.428Y-243.205
X385.752Y-224.155
X409.628Y-224.155
T11
X113.59Y-193.04
X142.59Y-163.84
X380.952Y-258.445
X392.89Y-250.19
X404.828Y-258.445
X276.19Y-193.04
X324.54Y-163.86
X192.64Y-269.24
X299.69Y-250.19
X457.69Y-163.84
X438.69Y-269.24
X175.89Y-231.14
X142.552Y-258.445
X154.49Y-250.19
X166.428Y-258.445
X242.54Y-250.19
X359.29Y-269.24
X476.79Y-212.04
X261.59Y-250.19
X228.49Y-212.09
X305.49Y-163.87
X309.49Y-231.14
X383.24Y-269.24
X438.69Y-163.84
X171.19Y-212.09
X252.24Y-231.14
X318.79Y-250.19
X328.54Y-231.14
X142.57Y-193.03
X385.752Y-239.395
X397.69Y-231.14
X409.628Y-239.395
X218.94Y-193.04
X286.44Y-163.84
X357.09Y-250.19
X304.69Y-212.09
X438.64Y-212.04
X149.71Y-231.15
X409.64Y-163.89
X438.64Y-192.99
X476.79Y-192.99
X247.54Y-212.09
X323.79Y-212.09
X271.34Y-231.14
X266.59Y-212.09
X204.44Y-250.19
X337.99Y-250.19
X147.34Y-212.09
X295.24Y-193.04
X214.09Y-231.14
X161.59Y-193.04
X457.74Y-269.24
X238.04Y-193.04
X185.44Y-250.19
X113.59Y-250.19
X113.59Y-269.24
X314.29Y-193.04
X267.44Y-163.84
X257.09Y-193.04
X347.59Y-231.14
X180.69Y-193.04
X280.64Y-250.19
X390.59Y-163.89
X457.74Y-250.14
X223.49Y-250.19
X194.99Y-231.14
X380.99Y-212.09
X366.64Y-231.14
X404.84Y-212.09
X342.84Y-212.09
X113.59Y-231.14
X201.64Y-163.84
X290.39Y-231.14
X335.44Y-269.24
X457.69Y-212.04
X190.29Y-212.09
X239.64Y-163.84
X361.89Y-212.09
X209.39Y-212.09
X144.94Y-269.24
X371.54Y-163.89
X388.152Y-201.245
X400.09Y-192.99
X412.028Y-201.245
X199.79Y-193.04
X333.39Y-193.04
X285.64Y-212.09
X233.19Y-231.14
X371.54Y-192.99
X476.69Y-163.84
X457.74Y-192.99
X214.04Y-277.495
X264.04Y-269.24
X314.04Y-277.495
X113.59Y-212.09
X220.64Y-163.84
X182.64Y-163.84
X476.79Y-269.24
X352.49Y-163.89
X168.79Y-269.24
X407.19Y-269.24
X352.49Y-193.04
T2
G00X108.558Y-130.19
M15
G01X108.558Y-129.59
M16
G05
G00X108.558Y-134.62
M15
G01X108.558Y-133.52
M16
G05
G00X117.198Y-130.19
M15
G01X117.198Y-129.59
M16
G05
G00X117.198Y-134.62
M15
G01X117.198Y-133.52
M16
G05
T6
G00X113.35Y-157.64
M15
G01X114.65Y-157.64
M16
G05
G00X113.35Y-168.84
M15
G01X114.65Y-168.84
M16
G05
T0
M30
