G04 #@! TF.GenerationSoftware,KiCad,Pcbnew,5.1.5+dfsg1-2build2*
G04 #@! TF.CreationDate,2020-08-17T22:58:45+02:00*
G04 #@! TF.ProjectId,PENIS,50454e49-532e-46b6-9963-61645f706362,rev?*
G04 #@! TF.SameCoordinates,Original*
G04 #@! TF.FileFunction,Profile,NP*
%FSLAX46Y46*%
G04 Gerber Fmt 4.6, Leading zero omitted, Abs format (unit mm)*
G04 Created by KiCad (PCBNEW 5.1.5+dfsg1-2build2) date 2020-08-17 22:58:45*
%MOMM*%
%LPD*%
G04 APERTURE LIST*
%ADD10C,0.050000*%
%ADD11C,0.100000*%
G04 APERTURE END LIST*
D10*
X375150000Y-250475000D02*
G75*
G03X375150000Y-250475000I-1000000J0D01*
G01*
X392575000Y-218825000D02*
G75*
G03X392575000Y-218825000I-1000000J0D01*
G01*
X233900000Y-251800000D02*
G75*
G03X233900000Y-251800000I-1000000J0D01*
G01*
X242800000Y-205600000D02*
G75*
G03X242800000Y-205600000I-1000000J0D01*
G01*
X133425000Y-209850000D02*
G75*
G03X133425000Y-209850000I-1000000J0D01*
G01*
X132750000Y-232475000D02*
G75*
G03X132750000Y-232475000I-1000000J0D01*
G01*
X102500000Y-281725000D02*
G75*
G03X102500000Y-281725000I-1000000J0D01*
G01*
X484375000Y-258050000D02*
G75*
G03X484375000Y-258050000I-1000000J0D01*
G01*
X431300000Y-225800000D02*
G75*
G03X431300000Y-225800000I-1000000J0D01*
G01*
X431300000Y-257900000D02*
G75*
G03X431300000Y-257900000I-1000000J0D01*
G01*
X484375000Y-225750000D02*
G75*
G03X484375000Y-225750000I-1000000J0D01*
G01*
X487125000Y-131000000D02*
G75*
G03X487125000Y-131000000I-1000000J0D01*
G01*
X487125000Y-152575000D02*
G75*
G03X487125000Y-152575000I-1000000J0D01*
G01*
X102800000Y-131000000D02*
G75*
G03X102800000Y-131000000I-1000000J0D01*
G01*
X102800000Y-150650000D02*
G75*
G03X102800000Y-150650000I-1000000J0D01*
G01*
X488590000Y-283790000D02*
X488590000Y-128470000D01*
X488590000Y-128470000D02*
X99090000Y-128470000D01*
X99090000Y-283790000D02*
X488590000Y-283790000D01*
X99090000Y-280540000D02*
X99090000Y-283790000D01*
X99090000Y-280540000D02*
X99090000Y-278540000D01*
X99090000Y-128470000D02*
X99090000Y-278540000D01*
D11*
X477906710Y-217325701D02*
G75*
G02X477654452Y-217394000I-252258J431701D01*
G01*
X476065548Y-217394000D02*
X477654452Y-217394000D01*
X476065548Y-217394000D02*
G75*
G02X475813289Y-217325701I0J500000D01*
G01*
X475110516Y-217974281D02*
G75*
G02X475813289Y-217325701I450515J216879D01*
G01*
X475110516Y-217974280D02*
G75*
G02X475160001Y-218191158I-450515J-216878D01*
G01*
X475160001Y-219596842D02*
X475160001Y-218191158D01*
X475160001Y-219596843D02*
G75*
G02X475110516Y-219813720I-500000J1D01*
G01*
X475813289Y-220462297D02*
G75*
G02X475110516Y-219813720I-252258J431700D01*
G01*
X475813289Y-220462298D02*
G75*
G02X476065547Y-220393999I252258J-431701D01*
G01*
X477654452Y-220393999D02*
X476065547Y-220393999D01*
X477654453Y-220394000D02*
G75*
G02X477906711Y-220462299I-1J-499999D01*
G01*
X478609484Y-219813720D02*
G75*
G02X477906711Y-220462299I-450515J-216878D01*
G01*
X478609484Y-219813720D02*
G75*
G02X478559999Y-219596842I450515J216878D01*
G01*
X478559999Y-218191158D02*
X478559999Y-219596842D01*
X478559999Y-218191157D02*
G75*
G02X478609484Y-217974280I500000J-1D01*
G01*
X477906711Y-217325703D02*
G75*
G02X478609484Y-217974280I252258J-431700D01*
G01*
X477906710Y-198275701D02*
G75*
G02X477654452Y-198344000I-252258J431701D01*
G01*
X476065548Y-198344000D02*
X477654452Y-198344000D01*
X476065548Y-198344000D02*
G75*
G02X475813289Y-198275701I0J500000D01*
G01*
X475110516Y-198924281D02*
G75*
G02X475813289Y-198275701I450515J216879D01*
G01*
X475110516Y-198924280D02*
G75*
G02X475160001Y-199141158I-450515J-216878D01*
G01*
X475160001Y-200546842D02*
X475160001Y-199141158D01*
X475160001Y-200546843D02*
G75*
G02X475110516Y-200763720I-500000J1D01*
G01*
X475813289Y-201412297D02*
G75*
G02X475110516Y-200763720I-252258J431700D01*
G01*
X475813289Y-201412298D02*
G75*
G02X476065547Y-201343999I252258J-431701D01*
G01*
X477654452Y-201343999D02*
X476065547Y-201343999D01*
X477654453Y-201344000D02*
G75*
G02X477906711Y-201412299I-1J-499999D01*
G01*
X478609484Y-200763720D02*
G75*
G02X477906711Y-201412299I-450515J-216878D01*
G01*
X478609484Y-200763720D02*
G75*
G02X478559999Y-200546842I450515J216878D01*
G01*
X478559999Y-199141158D02*
X478559999Y-200546842D01*
X478559999Y-199141157D02*
G75*
G02X478609484Y-198924280I500000J-1D01*
G01*
X477906711Y-198275703D02*
G75*
G02X478609484Y-198924280I252258J-431700D01*
G01*
X458856710Y-198275701D02*
G75*
G02X458604452Y-198344000I-252258J431701D01*
G01*
X457015548Y-198344000D02*
X458604452Y-198344000D01*
X457015548Y-198344000D02*
G75*
G02X456763289Y-198275701I0J500000D01*
G01*
X456060516Y-198924281D02*
G75*
G02X456763289Y-198275701I450515J216879D01*
G01*
X456060516Y-198924280D02*
G75*
G02X456110001Y-199141158I-450515J-216878D01*
G01*
X456110001Y-200546842D02*
X456110001Y-199141158D01*
X456110001Y-200546843D02*
G75*
G02X456060516Y-200763720I-500000J1D01*
G01*
X456763289Y-201412297D02*
G75*
G02X456060516Y-200763720I-252258J431700D01*
G01*
X456763289Y-201412298D02*
G75*
G02X457015547Y-201343999I252258J-431701D01*
G01*
X458604452Y-201343999D02*
X457015547Y-201343999D01*
X458604453Y-201344000D02*
G75*
G02X458856711Y-201412299I-1J-499999D01*
G01*
X459559484Y-200763720D02*
G75*
G02X458856711Y-201412299I-450515J-216878D01*
G01*
X459559484Y-200763720D02*
G75*
G02X459509999Y-200546842I450515J216878D01*
G01*
X459509999Y-199141158D02*
X459509999Y-200546842D01*
X459509999Y-199141157D02*
G75*
G02X459559484Y-198924280I500000J-1D01*
G01*
X458856711Y-198275703D02*
G75*
G02X459559484Y-198924280I252258J-431700D01*
G01*
X458856710Y-217325701D02*
G75*
G02X458604452Y-217394000I-252258J431701D01*
G01*
X457015548Y-217394000D02*
X458604452Y-217394000D01*
X457015548Y-217394000D02*
G75*
G02X456763289Y-217325701I0J500000D01*
G01*
X456060516Y-217974281D02*
G75*
G02X456763289Y-217325701I450515J216879D01*
G01*
X456060516Y-217974280D02*
G75*
G02X456110001Y-218191158I-450515J-216878D01*
G01*
X456110001Y-219596842D02*
X456110001Y-218191158D01*
X456110001Y-219596843D02*
G75*
G02X456060516Y-219813720I-500000J1D01*
G01*
X456763289Y-220462297D02*
G75*
G02X456060516Y-219813720I-252258J431700D01*
G01*
X456763289Y-220462298D02*
G75*
G02X457015547Y-220393999I252258J-431701D01*
G01*
X458604452Y-220393999D02*
X457015547Y-220393999D01*
X458604453Y-220394000D02*
G75*
G02X458856711Y-220462299I-1J-499999D01*
G01*
X459559484Y-219813720D02*
G75*
G02X458856711Y-220462299I-450515J-216878D01*
G01*
X459559484Y-219813720D02*
G75*
G02X459509999Y-219596842I450515J216878D01*
G01*
X459509999Y-218191158D02*
X459509999Y-219596842D01*
X459509999Y-218191157D02*
G75*
G02X459559484Y-217974280I500000J-1D01*
G01*
X458856711Y-217325703D02*
G75*
G02X459559484Y-217974280I252258J-431700D01*
G01*
X439806710Y-198275701D02*
G75*
G02X439554452Y-198344000I-252258J431701D01*
G01*
X437965548Y-198344000D02*
X439554452Y-198344000D01*
X437965548Y-198344000D02*
G75*
G02X437713289Y-198275701I0J500000D01*
G01*
X437010516Y-198924281D02*
G75*
G02X437713289Y-198275701I450515J216879D01*
G01*
X437010516Y-198924280D02*
G75*
G02X437060001Y-199141158I-450515J-216878D01*
G01*
X437060001Y-200546842D02*
X437060001Y-199141158D01*
X437060001Y-200546843D02*
G75*
G02X437010516Y-200763720I-500000J1D01*
G01*
X437713289Y-201412297D02*
G75*
G02X437010516Y-200763720I-252258J431700D01*
G01*
X437713289Y-201412298D02*
G75*
G02X437965547Y-201343999I252258J-431701D01*
G01*
X439554452Y-201343999D02*
X437965547Y-201343999D01*
X439554453Y-201344000D02*
G75*
G02X439806711Y-201412299I-1J-499999D01*
G01*
X440509484Y-200763720D02*
G75*
G02X439806711Y-201412299I-450515J-216878D01*
G01*
X440509484Y-200763720D02*
G75*
G02X440459999Y-200546842I450515J216878D01*
G01*
X440459999Y-199141158D02*
X440459999Y-200546842D01*
X440459999Y-199141157D02*
G75*
G02X440509484Y-198924280I500000J-1D01*
G01*
X439806711Y-198275703D02*
G75*
G02X440509484Y-198924280I252258J-431700D01*
G01*
X439806710Y-217325701D02*
G75*
G02X439554452Y-217394000I-252258J431701D01*
G01*
X437965548Y-217394000D02*
X439554452Y-217394000D01*
X437965548Y-217394000D02*
G75*
G02X437713289Y-217325701I0J500000D01*
G01*
X437010516Y-217974281D02*
G75*
G02X437713289Y-217325701I450515J216879D01*
G01*
X437010516Y-217974280D02*
G75*
G02X437060001Y-218191158I-450515J-216878D01*
G01*
X437060001Y-219596842D02*
X437060001Y-218191158D01*
X437060001Y-219596843D02*
G75*
G02X437010516Y-219813720I-500000J1D01*
G01*
X437713289Y-220462297D02*
G75*
G02X437010516Y-219813720I-252258J431700D01*
G01*
X437713289Y-220462298D02*
G75*
G02X437965547Y-220393999I252258J-431701D01*
G01*
X439554452Y-220393999D02*
X437965547Y-220393999D01*
X439554453Y-220394000D02*
G75*
G02X439806711Y-220462299I-1J-499999D01*
G01*
X440509484Y-219813720D02*
G75*
G02X439806711Y-220462299I-450515J-216878D01*
G01*
X440509484Y-219813720D02*
G75*
G02X440459999Y-219596842I450515J216878D01*
G01*
X440459999Y-218191158D02*
X440459999Y-219596842D01*
X440459999Y-218191157D02*
G75*
G02X440509484Y-217974280I500000J-1D01*
G01*
X439806711Y-217325703D02*
G75*
G02X440509484Y-217974280I252258J-431700D01*
G01*
X477906710Y-169065701D02*
G75*
G02X477654452Y-169134000I-252258J431701D01*
G01*
X476065548Y-169134000D02*
X477654452Y-169134000D01*
X476065548Y-169134000D02*
G75*
G02X475813289Y-169065701I0J500000D01*
G01*
X475110516Y-169714281D02*
G75*
G02X475813289Y-169065701I450515J216879D01*
G01*
X475110516Y-169714280D02*
G75*
G02X475160001Y-169931158I-450515J-216878D01*
G01*
X475160001Y-171336842D02*
X475160001Y-169931158D01*
X475160001Y-171336843D02*
G75*
G02X475110516Y-171553720I-500000J1D01*
G01*
X475813289Y-172202297D02*
G75*
G02X475110516Y-171553720I-252258J431700D01*
G01*
X475813289Y-172202298D02*
G75*
G02X476065547Y-172133999I252258J-431701D01*
G01*
X477654452Y-172133999D02*
X476065547Y-172133999D01*
X477654453Y-172134000D02*
G75*
G02X477906711Y-172202299I-1J-499999D01*
G01*
X478609484Y-171553720D02*
G75*
G02X477906711Y-172202299I-450515J-216878D01*
G01*
X478609484Y-171553720D02*
G75*
G02X478559999Y-171336842I450515J216878D01*
G01*
X478559999Y-169931158D02*
X478559999Y-171336842D01*
X478559999Y-169931157D02*
G75*
G02X478609484Y-169714280I500000J-1D01*
G01*
X477906711Y-169065703D02*
G75*
G02X478609484Y-169714280I252258J-431700D01*
G01*
X401452710Y-198275701D02*
G75*
G02X401200452Y-198344000I-252258J431701D01*
G01*
X399611548Y-198344000D02*
X401200452Y-198344000D01*
X399611548Y-198344000D02*
G75*
G02X399359289Y-198275701I0J500000D01*
G01*
X398656516Y-198924281D02*
G75*
G02X399359289Y-198275701I450515J216879D01*
G01*
X398656516Y-198924280D02*
G75*
G02X398706001Y-199141158I-450515J-216878D01*
G01*
X398706001Y-200546842D02*
X398706001Y-199141158D01*
X398706001Y-200546843D02*
G75*
G02X398656516Y-200763720I-500000J1D01*
G01*
X399359289Y-201412297D02*
G75*
G02X398656516Y-200763720I-252258J431700D01*
G01*
X399359289Y-201412298D02*
G75*
G02X399611547Y-201343999I252258J-431701D01*
G01*
X401200452Y-201343999D02*
X399611547Y-201343999D01*
X401200453Y-201344000D02*
G75*
G02X401452711Y-201412299I-1J-499999D01*
G01*
X402155484Y-200763720D02*
G75*
G02X401452711Y-201412299I-450515J-216878D01*
G01*
X402155484Y-200763720D02*
G75*
G02X402105999Y-200546842I450515J216878D01*
G01*
X402105999Y-199141158D02*
X402105999Y-200546842D01*
X402105999Y-199141157D02*
G75*
G02X402155484Y-198924280I500000J-1D01*
G01*
X401452711Y-198275703D02*
G75*
G02X402155484Y-198924280I252258J-431700D01*
G01*
X406024710Y-217325701D02*
G75*
G02X405772452Y-217394000I-252258J431701D01*
G01*
X404183548Y-217394000D02*
X405772452Y-217394000D01*
X404183548Y-217394000D02*
G75*
G02X403931289Y-217325701I0J500000D01*
G01*
X403228516Y-217974281D02*
G75*
G02X403931289Y-217325701I450515J216879D01*
G01*
X403228516Y-217974280D02*
G75*
G02X403278001Y-218191158I-450515J-216878D01*
G01*
X403278001Y-219596842D02*
X403278001Y-218191158D01*
X403278001Y-219596843D02*
G75*
G02X403228516Y-219813720I-500000J1D01*
G01*
X403931289Y-220462297D02*
G75*
G02X403228516Y-219813720I-252258J431700D01*
G01*
X403931289Y-220462298D02*
G75*
G02X404183547Y-220393999I252258J-431701D01*
G01*
X405772452Y-220393999D02*
X404183547Y-220393999D01*
X405772453Y-220394000D02*
G75*
G02X406024711Y-220462299I-1J-499999D01*
G01*
X406727484Y-219813720D02*
G75*
G02X406024711Y-220462299I-450515J-216878D01*
G01*
X406727484Y-219813720D02*
G75*
G02X406677999Y-219596842I450515J216878D01*
G01*
X406677999Y-218191158D02*
X406677999Y-219596842D01*
X406677999Y-218191157D02*
G75*
G02X406727484Y-217974280I500000J-1D01*
G01*
X406024711Y-217325703D02*
G75*
G02X406727484Y-217974280I252258J-431700D01*
G01*
X459110710Y-169065701D02*
G75*
G02X458858452Y-169134000I-252258J431701D01*
G01*
X457269548Y-169134000D02*
X458858452Y-169134000D01*
X457269548Y-169134000D02*
G75*
G02X457017289Y-169065701I0J500000D01*
G01*
X456314516Y-169714281D02*
G75*
G02X457017289Y-169065701I450515J216879D01*
G01*
X456314516Y-169714280D02*
G75*
G02X456364001Y-169931158I-450515J-216878D01*
G01*
X456364001Y-171336842D02*
X456364001Y-169931158D01*
X456364001Y-171336843D02*
G75*
G02X456314516Y-171553720I-500000J1D01*
G01*
X457017289Y-172202297D02*
G75*
G02X456314516Y-171553720I-252258J431700D01*
G01*
X457017289Y-172202298D02*
G75*
G02X457269547Y-172133999I252258J-431701D01*
G01*
X458858452Y-172133999D02*
X457269547Y-172133999D01*
X458858453Y-172134000D02*
G75*
G02X459110711Y-172202299I-1J-499999D01*
G01*
X459813484Y-171553720D02*
G75*
G02X459110711Y-172202299I-450515J-216878D01*
G01*
X459813484Y-171553720D02*
G75*
G02X459763999Y-171336842I450515J216878D01*
G01*
X459763999Y-169931158D02*
X459763999Y-171336842D01*
X459763999Y-169931157D02*
G75*
G02X459813484Y-169714280I500000J-1D01*
G01*
X459110711Y-169065703D02*
G75*
G02X459813484Y-169714280I252258J-431700D01*
G01*
X372496710Y-198275701D02*
G75*
G02X372244452Y-198344000I-252258J431701D01*
G01*
X370655548Y-198344000D02*
X372244452Y-198344000D01*
X370655548Y-198344000D02*
G75*
G02X370403289Y-198275701I0J500000D01*
G01*
X369700516Y-198924281D02*
G75*
G02X370403289Y-198275701I450515J216879D01*
G01*
X369700516Y-198924280D02*
G75*
G02X369750001Y-199141158I-450515J-216878D01*
G01*
X369750001Y-200546842D02*
X369750001Y-199141158D01*
X369750001Y-200546843D02*
G75*
G02X369700516Y-200763720I-500000J1D01*
G01*
X370403289Y-201412297D02*
G75*
G02X369700516Y-200763720I-252258J431700D01*
G01*
X370403289Y-201412298D02*
G75*
G02X370655547Y-201343999I252258J-431701D01*
G01*
X372244452Y-201343999D02*
X370655547Y-201343999D01*
X372244453Y-201344000D02*
G75*
G02X372496711Y-201412299I-1J-499999D01*
G01*
X373199484Y-200763720D02*
G75*
G02X372496711Y-201412299I-450515J-216878D01*
G01*
X373199484Y-200763720D02*
G75*
G02X373149999Y-200546842I450515J216878D01*
G01*
X373149999Y-199141158D02*
X373149999Y-200546842D01*
X373149999Y-199141157D02*
G75*
G02X373199484Y-198924280I500000J-1D01*
G01*
X372496711Y-198275703D02*
G75*
G02X373199484Y-198924280I252258J-431700D01*
G01*
X381894710Y-217325701D02*
G75*
G02X381642452Y-217394000I-252258J431701D01*
G01*
X380053548Y-217394000D02*
X381642452Y-217394000D01*
X380053548Y-217394000D02*
G75*
G02X379801289Y-217325701I0J500000D01*
G01*
X379098516Y-217974281D02*
G75*
G02X379801289Y-217325701I450515J216879D01*
G01*
X379098516Y-217974280D02*
G75*
G02X379148001Y-218191158I-450515J-216878D01*
G01*
X379148001Y-219596842D02*
X379148001Y-218191158D01*
X379148001Y-219596843D02*
G75*
G02X379098516Y-219813720I-500000J1D01*
G01*
X379801289Y-220462297D02*
G75*
G02X379098516Y-219813720I-252258J431700D01*
G01*
X379801289Y-220462298D02*
G75*
G02X380053547Y-220393999I252258J-431701D01*
G01*
X381642452Y-220393999D02*
X380053547Y-220393999D01*
X381642453Y-220394000D02*
G75*
G02X381894711Y-220462299I-1J-499999D01*
G01*
X382597484Y-219813720D02*
G75*
G02X381894711Y-220462299I-450515J-216878D01*
G01*
X382597484Y-219813720D02*
G75*
G02X382547999Y-219596842I450515J216878D01*
G01*
X382547999Y-218191158D02*
X382547999Y-219596842D01*
X382547999Y-218191157D02*
G75*
G02X382597484Y-217974280I500000J-1D01*
G01*
X381894711Y-217325703D02*
G75*
G02X382597484Y-217974280I252258J-431700D01*
G01*
X440314710Y-169065701D02*
G75*
G02X440062452Y-169134000I-252258J431701D01*
G01*
X438473548Y-169134000D02*
X440062452Y-169134000D01*
X438473548Y-169134000D02*
G75*
G02X438221289Y-169065701I0J500000D01*
G01*
X437518516Y-169714281D02*
G75*
G02X438221289Y-169065701I450515J216879D01*
G01*
X437518516Y-169714280D02*
G75*
G02X437568001Y-169931158I-450515J-216878D01*
G01*
X437568001Y-171336842D02*
X437568001Y-169931158D01*
X437568001Y-171336843D02*
G75*
G02X437518516Y-171553720I-500000J1D01*
G01*
X438221289Y-172202297D02*
G75*
G02X437518516Y-171553720I-252258J431700D01*
G01*
X438221289Y-172202298D02*
G75*
G02X438473547Y-172133999I252258J-431701D01*
G01*
X440062452Y-172133999D02*
X438473547Y-172133999D01*
X440062453Y-172134000D02*
G75*
G02X440314711Y-172202299I-1J-499999D01*
G01*
X441017484Y-171553720D02*
G75*
G02X440314711Y-172202299I-450515J-216878D01*
G01*
X441017484Y-171553720D02*
G75*
G02X440967999Y-171336842I450515J216878D01*
G01*
X440967999Y-169931158D02*
X440967999Y-171336842D01*
X440967999Y-169931157D02*
G75*
G02X441017484Y-169714280I500000J-1D01*
G01*
X440314711Y-169065703D02*
G75*
G02X441017484Y-169714280I252258J-431700D01*
G01*
X458856710Y-255425701D02*
G75*
G02X458604452Y-255494000I-252258J431701D01*
G01*
X457015548Y-255494000D02*
X458604452Y-255494000D01*
X457015548Y-255494000D02*
G75*
G02X456763289Y-255425701I0J500000D01*
G01*
X456060516Y-256074281D02*
G75*
G02X456763289Y-255425701I450515J216879D01*
G01*
X456060516Y-256074280D02*
G75*
G02X456110001Y-256291158I-450515J-216878D01*
G01*
X456110001Y-257696842D02*
X456110001Y-256291158D01*
X456110001Y-257696843D02*
G75*
G02X456060516Y-257913720I-500000J1D01*
G01*
X456763289Y-258562297D02*
G75*
G02X456060516Y-257913720I-252258J431700D01*
G01*
X456763289Y-258562298D02*
G75*
G02X457015547Y-258493999I252258J-431701D01*
G01*
X458604452Y-258493999D02*
X457015547Y-258493999D01*
X458604453Y-258494000D02*
G75*
G02X458856711Y-258562299I-1J-499999D01*
G01*
X459559484Y-257913720D02*
G75*
G02X458856711Y-258562299I-450515J-216878D01*
G01*
X459559484Y-257913720D02*
G75*
G02X459509999Y-257696842I450515J216878D01*
G01*
X459509999Y-256291158D02*
X459509999Y-257696842D01*
X459509999Y-256291157D02*
G75*
G02X459559484Y-256074280I500000J-1D01*
G01*
X458856711Y-255425703D02*
G75*
G02X459559484Y-256074280I252258J-431700D01*
G01*
X398658710Y-236375701D02*
G75*
G02X398406452Y-236444000I-252258J431701D01*
G01*
X396817548Y-236444000D02*
X398406452Y-236444000D01*
X396817548Y-236444000D02*
G75*
G02X396565289Y-236375701I0J500000D01*
G01*
X395862516Y-237024281D02*
G75*
G02X396565289Y-236375701I450515J216879D01*
G01*
X395862516Y-237024280D02*
G75*
G02X395912001Y-237241158I-450515J-216878D01*
G01*
X395912001Y-238646842D02*
X395912001Y-237241158D01*
X395912001Y-238646843D02*
G75*
G02X395862516Y-238863720I-500000J1D01*
G01*
X396565289Y-239512297D02*
G75*
G02X395862516Y-238863720I-252258J431700D01*
G01*
X396565289Y-239512298D02*
G75*
G02X396817547Y-239443999I252258J-431701D01*
G01*
X398406452Y-239443999D02*
X396817547Y-239443999D01*
X398406453Y-239444000D02*
G75*
G02X398658711Y-239512299I-1J-499999D01*
G01*
X399361484Y-238863720D02*
G75*
G02X398658711Y-239512299I-450515J-216878D01*
G01*
X399361484Y-238863720D02*
G75*
G02X399311999Y-238646842I450515J216878D01*
G01*
X399311999Y-237241158D02*
X399311999Y-238646842D01*
X399311999Y-237241157D02*
G75*
G02X399361484Y-237024280I500000J-1D01*
G01*
X398658711Y-236375703D02*
G75*
G02X399361484Y-237024280I252258J-431700D01*
G01*
X353700710Y-198275701D02*
G75*
G02X353448452Y-198344000I-252258J431701D01*
G01*
X351859548Y-198344000D02*
X353448452Y-198344000D01*
X351859548Y-198344000D02*
G75*
G02X351607289Y-198275701I0J500000D01*
G01*
X350904516Y-198924281D02*
G75*
G02X351607289Y-198275701I450515J216879D01*
G01*
X350904516Y-198924280D02*
G75*
G02X350954001Y-199141158I-450515J-216878D01*
G01*
X350954001Y-200546842D02*
X350954001Y-199141158D01*
X350954001Y-200546843D02*
G75*
G02X350904516Y-200763720I-500000J1D01*
G01*
X351607289Y-201412297D02*
G75*
G02X350904516Y-200763720I-252258J431700D01*
G01*
X351607289Y-201412298D02*
G75*
G02X351859547Y-201343999I252258J-431701D01*
G01*
X353448452Y-201343999D02*
X351859547Y-201343999D01*
X353448453Y-201344000D02*
G75*
G02X353700711Y-201412299I-1J-499999D01*
G01*
X354403484Y-200763720D02*
G75*
G02X353700711Y-201412299I-450515J-216878D01*
G01*
X354403484Y-200763720D02*
G75*
G02X354353999Y-200546842I450515J216878D01*
G01*
X354353999Y-199141158D02*
X354353999Y-200546842D01*
X354353999Y-199141157D02*
G75*
G02X354403484Y-198924280I500000J-1D01*
G01*
X353700711Y-198275703D02*
G75*
G02X354403484Y-198924280I252258J-431700D01*
G01*
X363098710Y-217325701D02*
G75*
G02X362846452Y-217394000I-252258J431701D01*
G01*
X361257548Y-217394000D02*
X362846452Y-217394000D01*
X361257548Y-217394000D02*
G75*
G02X361005289Y-217325701I0J500000D01*
G01*
X360302516Y-217974281D02*
G75*
G02X361005289Y-217325701I450515J216879D01*
G01*
X360302516Y-217974280D02*
G75*
G02X360352001Y-218191158I-450515J-216878D01*
G01*
X360352001Y-219596842D02*
X360352001Y-218191158D01*
X360352001Y-219596843D02*
G75*
G02X360302516Y-219813720I-500000J1D01*
G01*
X361005289Y-220462297D02*
G75*
G02X360302516Y-219813720I-252258J431700D01*
G01*
X361005289Y-220462298D02*
G75*
G02X361257547Y-220393999I252258J-431701D01*
G01*
X362846452Y-220393999D02*
X361257547Y-220393999D01*
X362846453Y-220394000D02*
G75*
G02X363098711Y-220462299I-1J-499999D01*
G01*
X363801484Y-219813720D02*
G75*
G02X363098711Y-220462299I-450515J-216878D01*
G01*
X363801484Y-219813720D02*
G75*
G02X363751999Y-219596842I450515J216878D01*
G01*
X363751999Y-218191158D02*
X363751999Y-219596842D01*
X363751999Y-218191157D02*
G75*
G02X363801484Y-217974280I500000J-1D01*
G01*
X363098711Y-217325703D02*
G75*
G02X363801484Y-217974280I252258J-431700D01*
G01*
X411358710Y-169065701D02*
G75*
G02X411106452Y-169134000I-252258J431701D01*
G01*
X409517548Y-169134000D02*
X411106452Y-169134000D01*
X409517548Y-169134000D02*
G75*
G02X409265289Y-169065701I0J500000D01*
G01*
X408562516Y-169714281D02*
G75*
G02X409265289Y-169065701I450515J216879D01*
G01*
X408562516Y-169714280D02*
G75*
G02X408612001Y-169931158I-450515J-216878D01*
G01*
X408612001Y-171336842D02*
X408612001Y-169931158D01*
X408612001Y-171336843D02*
G75*
G02X408562516Y-171553720I-500000J1D01*
G01*
X409265289Y-172202297D02*
G75*
G02X408562516Y-171553720I-252258J431700D01*
G01*
X409265289Y-172202298D02*
G75*
G02X409517547Y-172133999I252258J-431701D01*
G01*
X411106452Y-172133999D02*
X409517547Y-172133999D01*
X411106453Y-172134000D02*
G75*
G02X411358711Y-172202299I-1J-499999D01*
G01*
X412061484Y-171553720D02*
G75*
G02X411358711Y-172202299I-450515J-216878D01*
G01*
X412061484Y-171553720D02*
G75*
G02X412011999Y-171336842I450515J216878D01*
G01*
X412011999Y-169931158D02*
X412011999Y-171336842D01*
X412011999Y-169931157D02*
G75*
G02X412061484Y-169714280I500000J-1D01*
G01*
X411358711Y-169065703D02*
G75*
G02X412061484Y-169714280I252258J-431700D01*
G01*
X477906710Y-274475701D02*
G75*
G02X477654452Y-274544000I-252258J431701D01*
G01*
X476065548Y-274544000D02*
X477654452Y-274544000D01*
X476065548Y-274544000D02*
G75*
G02X475813289Y-274475701I0J500000D01*
G01*
X475110516Y-275124281D02*
G75*
G02X475813289Y-274475701I450515J216879D01*
G01*
X475110516Y-275124280D02*
G75*
G02X475160001Y-275341158I-450515J-216878D01*
G01*
X475160001Y-276746842D02*
X475160001Y-275341158D01*
X475160001Y-276746843D02*
G75*
G02X475110516Y-276963720I-500000J1D01*
G01*
X475813289Y-277612297D02*
G75*
G02X475110516Y-276963720I-252258J431700D01*
G01*
X475813289Y-277612298D02*
G75*
G02X476065547Y-277543999I252258J-431701D01*
G01*
X477654452Y-277543999D02*
X476065547Y-277543999D01*
X477654453Y-277544000D02*
G75*
G02X477906711Y-277612299I-1J-499999D01*
G01*
X478609484Y-276963720D02*
G75*
G02X477906711Y-277612299I-450515J-216878D01*
G01*
X478609484Y-276963720D02*
G75*
G02X478559999Y-276746842I450515J216878D01*
G01*
X478559999Y-275341158D02*
X478559999Y-276746842D01*
X478559999Y-275341157D02*
G75*
G02X478609484Y-275124280I500000J-1D01*
G01*
X477906711Y-274475703D02*
G75*
G02X478609484Y-275124280I252258J-431700D01*
G01*
X393832710Y-255425701D02*
G75*
G02X393580452Y-255494000I-252258J431701D01*
G01*
X391991548Y-255494000D02*
X393580452Y-255494000D01*
X391991548Y-255494000D02*
G75*
G02X391739289Y-255425701I0J500000D01*
G01*
X391036516Y-256074281D02*
G75*
G02X391739289Y-255425701I450515J216879D01*
G01*
X391036516Y-256074280D02*
G75*
G02X391086001Y-256291158I-450515J-216878D01*
G01*
X391086001Y-257696842D02*
X391086001Y-256291158D01*
X391086001Y-257696843D02*
G75*
G02X391036516Y-257913720I-500000J1D01*
G01*
X391739289Y-258562297D02*
G75*
G02X391036516Y-257913720I-252258J431700D01*
G01*
X391739289Y-258562298D02*
G75*
G02X391991547Y-258493999I252258J-431701D01*
G01*
X393580452Y-258493999D02*
X391991547Y-258493999D01*
X393580453Y-258494000D02*
G75*
G02X393832711Y-258562299I-1J-499999D01*
G01*
X394535484Y-257913720D02*
G75*
G02X393832711Y-258562299I-450515J-216878D01*
G01*
X394535484Y-257913720D02*
G75*
G02X394485999Y-257696842I450515J216878D01*
G01*
X394485999Y-256291158D02*
X394485999Y-257696842D01*
X394485999Y-256291157D02*
G75*
G02X394535484Y-256074280I500000J-1D01*
G01*
X393832711Y-255425703D02*
G75*
G02X394535484Y-256074280I252258J-431700D01*
G01*
X367924710Y-236375701D02*
G75*
G02X367672452Y-236444000I-252258J431701D01*
G01*
X366083548Y-236444000D02*
X367672452Y-236444000D01*
X366083548Y-236444000D02*
G75*
G02X365831289Y-236375701I0J500000D01*
G01*
X365128516Y-237024281D02*
G75*
G02X365831289Y-236375701I450515J216879D01*
G01*
X365128516Y-237024280D02*
G75*
G02X365178001Y-237241158I-450515J-216878D01*
G01*
X365178001Y-238646842D02*
X365178001Y-237241158D01*
X365178001Y-238646843D02*
G75*
G02X365128516Y-238863720I-500000J1D01*
G01*
X365831289Y-239512297D02*
G75*
G02X365128516Y-238863720I-252258J431700D01*
G01*
X365831289Y-239512298D02*
G75*
G02X366083547Y-239443999I252258J-431701D01*
G01*
X367672452Y-239443999D02*
X366083547Y-239443999D01*
X367672453Y-239444000D02*
G75*
G02X367924711Y-239512299I-1J-499999D01*
G01*
X368627484Y-238863720D02*
G75*
G02X367924711Y-239512299I-450515J-216878D01*
G01*
X368627484Y-238863720D02*
G75*
G02X368577999Y-238646842I450515J216878D01*
G01*
X368577999Y-237241158D02*
X368577999Y-238646842D01*
X368577999Y-237241157D02*
G75*
G02X368627484Y-237024280I500000J-1D01*
G01*
X367924711Y-236375703D02*
G75*
G02X368627484Y-237024280I252258J-431700D01*
G01*
X334650710Y-198275701D02*
G75*
G02X334398452Y-198344000I-252258J431701D01*
G01*
X332809548Y-198344000D02*
X334398452Y-198344000D01*
X332809548Y-198344000D02*
G75*
G02X332557289Y-198275701I0J500000D01*
G01*
X331854516Y-198924281D02*
G75*
G02X332557289Y-198275701I450515J216879D01*
G01*
X331854516Y-198924280D02*
G75*
G02X331904001Y-199141158I-450515J-216878D01*
G01*
X331904001Y-200546842D02*
X331904001Y-199141158D01*
X331904001Y-200546843D02*
G75*
G02X331854516Y-200763720I-500000J1D01*
G01*
X332557289Y-201412297D02*
G75*
G02X331854516Y-200763720I-252258J431700D01*
G01*
X332557289Y-201412298D02*
G75*
G02X332809547Y-201343999I252258J-431701D01*
G01*
X334398452Y-201343999D02*
X332809547Y-201343999D01*
X334398453Y-201344000D02*
G75*
G02X334650711Y-201412299I-1J-499999D01*
G01*
X335353484Y-200763720D02*
G75*
G02X334650711Y-201412299I-450515J-216878D01*
G01*
X335353484Y-200763720D02*
G75*
G02X335303999Y-200546842I450515J216878D01*
G01*
X335303999Y-199141158D02*
X335303999Y-200546842D01*
X335303999Y-199141157D02*
G75*
G02X335353484Y-198924280I500000J-1D01*
G01*
X334650711Y-198275703D02*
G75*
G02X335353484Y-198924280I252258J-431700D01*
G01*
X358018710Y-255425701D02*
G75*
G02X357766452Y-255494000I-252258J431701D01*
G01*
X356177548Y-255494000D02*
X357766452Y-255494000D01*
X356177548Y-255494000D02*
G75*
G02X355925289Y-255425701I0J500000D01*
G01*
X355222516Y-256074281D02*
G75*
G02X355925289Y-255425701I450515J216879D01*
G01*
X355222516Y-256074280D02*
G75*
G02X355272001Y-256291158I-450515J-216878D01*
G01*
X355272001Y-257696842D02*
X355272001Y-256291158D01*
X355272001Y-257696843D02*
G75*
G02X355222516Y-257913720I-500000J1D01*
G01*
X355925289Y-258562297D02*
G75*
G02X355222516Y-257913720I-252258J431700D01*
G01*
X355925289Y-258562298D02*
G75*
G02X356177547Y-258493999I252258J-431701D01*
G01*
X357766452Y-258493999D02*
X356177547Y-258493999D01*
X357766453Y-258494000D02*
G75*
G02X358018711Y-258562299I-1J-499999D01*
G01*
X358721484Y-257913720D02*
G75*
G02X358018711Y-258562299I-450515J-216878D01*
G01*
X358721484Y-257913720D02*
G75*
G02X358671999Y-257696842I450515J216878D01*
G01*
X358671999Y-256291158D02*
X358671999Y-257696842D01*
X358671999Y-256291157D02*
G75*
G02X358721484Y-256074280I500000J-1D01*
G01*
X358018711Y-255425703D02*
G75*
G02X358721484Y-256074280I252258J-431700D01*
G01*
X348620710Y-236375701D02*
G75*
G02X348368452Y-236444000I-252258J431701D01*
G01*
X346779548Y-236444000D02*
X348368452Y-236444000D01*
X346779548Y-236444000D02*
G75*
G02X346527289Y-236375701I0J500000D01*
G01*
X345824516Y-237024281D02*
G75*
G02X346527289Y-236375701I450515J216879D01*
G01*
X345824516Y-237024280D02*
G75*
G02X345874001Y-237241158I-450515J-216878D01*
G01*
X345874001Y-238646842D02*
X345874001Y-237241158D01*
X345874001Y-238646843D02*
G75*
G02X345824516Y-238863720I-500000J1D01*
G01*
X346527289Y-239512297D02*
G75*
G02X345824516Y-238863720I-252258J431700D01*
G01*
X346527289Y-239512298D02*
G75*
G02X346779547Y-239443999I252258J-431701D01*
G01*
X348368452Y-239443999D02*
X346779547Y-239443999D01*
X348368453Y-239444000D02*
G75*
G02X348620711Y-239512299I-1J-499999D01*
G01*
X349323484Y-238863720D02*
G75*
G02X348620711Y-239512299I-450515J-216878D01*
G01*
X349323484Y-238863720D02*
G75*
G02X349273999Y-238646842I450515J216878D01*
G01*
X349273999Y-237241158D02*
X349273999Y-238646842D01*
X349273999Y-237241157D02*
G75*
G02X349323484Y-237024280I500000J-1D01*
G01*
X348620711Y-236375703D02*
G75*
G02X349323484Y-237024280I252258J-431700D01*
G01*
X344048710Y-217325701D02*
G75*
G02X343796452Y-217394000I-252258J431701D01*
G01*
X342207548Y-217394000D02*
X343796452Y-217394000D01*
X342207548Y-217394000D02*
G75*
G02X341955289Y-217325701I0J500000D01*
G01*
X341252516Y-217974281D02*
G75*
G02X341955289Y-217325701I450515J216879D01*
G01*
X341252516Y-217974280D02*
G75*
G02X341302001Y-218191158I-450515J-216878D01*
G01*
X341302001Y-219596842D02*
X341302001Y-218191158D01*
X341302001Y-219596843D02*
G75*
G02X341252516Y-219813720I-500000J1D01*
G01*
X341955289Y-220462297D02*
G75*
G02X341252516Y-219813720I-252258J431700D01*
G01*
X341955289Y-220462298D02*
G75*
G02X342207547Y-220393999I252258J-431701D01*
G01*
X343796452Y-220393999D02*
X342207547Y-220393999D01*
X343796453Y-220394000D02*
G75*
G02X344048711Y-220462299I-1J-499999D01*
G01*
X344751484Y-219813720D02*
G75*
G02X344048711Y-220462299I-450515J-216878D01*
G01*
X344751484Y-219813720D02*
G75*
G02X344701999Y-219596842I450515J216878D01*
G01*
X344701999Y-218191158D02*
X344701999Y-219596842D01*
X344701999Y-218191157D02*
G75*
G02X344751484Y-217974280I500000J-1D01*
G01*
X344048711Y-217325703D02*
G75*
G02X344751484Y-217974280I252258J-431700D01*
G01*
X391800710Y-169065701D02*
G75*
G02X391548452Y-169134000I-252258J431701D01*
G01*
X389959548Y-169134000D02*
X391548452Y-169134000D01*
X389959548Y-169134000D02*
G75*
G02X389707289Y-169065701I0J500000D01*
G01*
X389004516Y-169714281D02*
G75*
G02X389707289Y-169065701I450515J216879D01*
G01*
X389004516Y-169714280D02*
G75*
G02X389054001Y-169931158I-450515J-216878D01*
G01*
X389054001Y-171336842D02*
X389054001Y-169931158D01*
X389054001Y-171336843D02*
G75*
G02X389004516Y-171553720I-500000J1D01*
G01*
X389707289Y-172202297D02*
G75*
G02X389004516Y-171553720I-252258J431700D01*
G01*
X389707289Y-172202298D02*
G75*
G02X389959547Y-172133999I252258J-431701D01*
G01*
X391548452Y-172133999D02*
X389959547Y-172133999D01*
X391548453Y-172134000D02*
G75*
G02X391800711Y-172202299I-1J-499999D01*
G01*
X392503484Y-171553720D02*
G75*
G02X391800711Y-172202299I-450515J-216878D01*
G01*
X392503484Y-171553720D02*
G75*
G02X392453999Y-171336842I450515J216878D01*
G01*
X392453999Y-169931158D02*
X392453999Y-171336842D01*
X392453999Y-169931157D02*
G75*
G02X392503484Y-169714280I500000J-1D01*
G01*
X391800711Y-169065703D02*
G75*
G02X392503484Y-169714280I252258J-431700D01*
G01*
X315346710Y-198275701D02*
G75*
G02X315094452Y-198344000I-252258J431701D01*
G01*
X313505548Y-198344000D02*
X315094452Y-198344000D01*
X313505548Y-198344000D02*
G75*
G02X313253289Y-198275701I0J500000D01*
G01*
X312550516Y-198924281D02*
G75*
G02X313253289Y-198275701I450515J216879D01*
G01*
X312550516Y-198924280D02*
G75*
G02X312600001Y-199141158I-450515J-216878D01*
G01*
X312600001Y-200546842D02*
X312600001Y-199141158D01*
X312600001Y-200546843D02*
G75*
G02X312550516Y-200763720I-500000J1D01*
G01*
X313253289Y-201412297D02*
G75*
G02X312550516Y-200763720I-252258J431700D01*
G01*
X313253289Y-201412298D02*
G75*
G02X313505547Y-201343999I252258J-431701D01*
G01*
X315094452Y-201343999D02*
X313505547Y-201343999D01*
X315094453Y-201344000D02*
G75*
G02X315346711Y-201412299I-1J-499999D01*
G01*
X316049484Y-200763720D02*
G75*
G02X315346711Y-201412299I-450515J-216878D01*
G01*
X316049484Y-200763720D02*
G75*
G02X315999999Y-200546842I450515J216878D01*
G01*
X315999999Y-199141158D02*
X315999999Y-200546842D01*
X315999999Y-199141157D02*
G75*
G02X316049484Y-198924280I500000J-1D01*
G01*
X315346711Y-198275703D02*
G75*
G02X316049484Y-198924280I252258J-431700D01*
G01*
X458602710Y-274475701D02*
G75*
G02X458350452Y-274544000I-252258J431701D01*
G01*
X456761548Y-274544000D02*
X458350452Y-274544000D01*
X456761548Y-274544000D02*
G75*
G02X456509289Y-274475701I0J500000D01*
G01*
X455806516Y-275124281D02*
G75*
G02X456509289Y-274475701I450515J216879D01*
G01*
X455806516Y-275124280D02*
G75*
G02X455856001Y-275341158I-450515J-216878D01*
G01*
X455856001Y-276746842D02*
X455856001Y-275341158D01*
X455856001Y-276746843D02*
G75*
G02X455806516Y-276963720I-500000J1D01*
G01*
X456509289Y-277612297D02*
G75*
G02X455806516Y-276963720I-252258J431700D01*
G01*
X456509289Y-277612298D02*
G75*
G02X456761547Y-277543999I252258J-431701D01*
G01*
X458350452Y-277543999D02*
X456761547Y-277543999D01*
X458350453Y-277544000D02*
G75*
G02X458602711Y-277612299I-1J-499999D01*
G01*
X459305484Y-276963720D02*
G75*
G02X458602711Y-277612299I-450515J-216878D01*
G01*
X459305484Y-276963720D02*
G75*
G02X459255999Y-276746842I450515J216878D01*
G01*
X459255999Y-275341158D02*
X459255999Y-276746842D01*
X459255999Y-275341157D02*
G75*
G02X459305484Y-275124280I500000J-1D01*
G01*
X458602711Y-274475703D02*
G75*
G02X459305484Y-275124280I252258J-431700D01*
G01*
X338968710Y-255425701D02*
G75*
G02X338716452Y-255494000I-252258J431701D01*
G01*
X337127548Y-255494000D02*
X338716452Y-255494000D01*
X337127548Y-255494000D02*
G75*
G02X336875289Y-255425701I0J500000D01*
G01*
X336172516Y-256074281D02*
G75*
G02X336875289Y-255425701I450515J216879D01*
G01*
X336172516Y-256074280D02*
G75*
G02X336222001Y-256291158I-450515J-216878D01*
G01*
X336222001Y-257696842D02*
X336222001Y-256291158D01*
X336222001Y-257696843D02*
G75*
G02X336172516Y-257913720I-500000J1D01*
G01*
X336875289Y-258562297D02*
G75*
G02X336172516Y-257913720I-252258J431700D01*
G01*
X336875289Y-258562298D02*
G75*
G02X337127547Y-258493999I252258J-431701D01*
G01*
X338716452Y-258493999D02*
X337127547Y-258493999D01*
X338716453Y-258494000D02*
G75*
G02X338968711Y-258562299I-1J-499999D01*
G01*
X339671484Y-257913720D02*
G75*
G02X338968711Y-258562299I-450515J-216878D01*
G01*
X339671484Y-257913720D02*
G75*
G02X339621999Y-257696842I450515J216878D01*
G01*
X339621999Y-256291158D02*
X339621999Y-257696842D01*
X339621999Y-256291157D02*
G75*
G02X339671484Y-256074280I500000J-1D01*
G01*
X338968711Y-255425703D02*
G75*
G02X339671484Y-256074280I252258J-431700D01*
G01*
X329316710Y-236375701D02*
G75*
G02X329064452Y-236444000I-252258J431701D01*
G01*
X327475548Y-236444000D02*
X329064452Y-236444000D01*
X327475548Y-236444000D02*
G75*
G02X327223289Y-236375701I0J500000D01*
G01*
X326520516Y-237024281D02*
G75*
G02X327223289Y-236375701I450515J216879D01*
G01*
X326520516Y-237024280D02*
G75*
G02X326570001Y-237241158I-450515J-216878D01*
G01*
X326570001Y-238646842D02*
X326570001Y-237241158D01*
X326570001Y-238646843D02*
G75*
G02X326520516Y-238863720I-500000J1D01*
G01*
X327223289Y-239512297D02*
G75*
G02X326520516Y-238863720I-252258J431700D01*
G01*
X327223289Y-239512298D02*
G75*
G02X327475547Y-239443999I252258J-431701D01*
G01*
X329064452Y-239443999D02*
X327475547Y-239443999D01*
X329064453Y-239444000D02*
G75*
G02X329316711Y-239512299I-1J-499999D01*
G01*
X330019484Y-238863720D02*
G75*
G02X329316711Y-239512299I-450515J-216878D01*
G01*
X330019484Y-238863720D02*
G75*
G02X329969999Y-238646842I450515J216878D01*
G01*
X329969999Y-237241158D02*
X329969999Y-238646842D01*
X329969999Y-237241157D02*
G75*
G02X330019484Y-237024280I500000J-1D01*
G01*
X329316711Y-236375703D02*
G75*
G02X330019484Y-237024280I252258J-431700D01*
G01*
X324744710Y-217325701D02*
G75*
G02X324492452Y-217394000I-252258J431701D01*
G01*
X322903548Y-217394000D02*
X324492452Y-217394000D01*
X322903548Y-217394000D02*
G75*
G02X322651289Y-217325701I0J500000D01*
G01*
X321948516Y-217974281D02*
G75*
G02X322651289Y-217325701I450515J216879D01*
G01*
X321948516Y-217974280D02*
G75*
G02X321998001Y-218191158I-450515J-216878D01*
G01*
X321998001Y-219596842D02*
X321998001Y-218191158D01*
X321998001Y-219596843D02*
G75*
G02X321948516Y-219813720I-500000J1D01*
G01*
X322651289Y-220462297D02*
G75*
G02X321948516Y-219813720I-252258J431700D01*
G01*
X322651289Y-220462298D02*
G75*
G02X322903547Y-220393999I252258J-431701D01*
G01*
X324492452Y-220393999D02*
X322903547Y-220393999D01*
X324492453Y-220394000D02*
G75*
G02X324744711Y-220462299I-1J-499999D01*
G01*
X325447484Y-219813720D02*
G75*
G02X324744711Y-220462299I-450515J-216878D01*
G01*
X325447484Y-219813720D02*
G75*
G02X325397999Y-219596842I450515J216878D01*
G01*
X325397999Y-218191158D02*
X325397999Y-219596842D01*
X325397999Y-218191157D02*
G75*
G02X325447484Y-217974280I500000J-1D01*
G01*
X324744711Y-217325703D02*
G75*
G02X325447484Y-217974280I252258J-431700D01*
G01*
X373004710Y-169065701D02*
G75*
G02X372752452Y-169134000I-252258J431701D01*
G01*
X371163548Y-169134000D02*
X372752452Y-169134000D01*
X371163548Y-169134000D02*
G75*
G02X370911289Y-169065701I0J500000D01*
G01*
X370208516Y-169714281D02*
G75*
G02X370911289Y-169065701I450515J216879D01*
G01*
X370208516Y-169714280D02*
G75*
G02X370258001Y-169931158I-450515J-216878D01*
G01*
X370258001Y-171336842D02*
X370258001Y-169931158D01*
X370258001Y-171336843D02*
G75*
G02X370208516Y-171553720I-500000J1D01*
G01*
X370911289Y-172202297D02*
G75*
G02X370208516Y-171553720I-252258J431700D01*
G01*
X370911289Y-172202298D02*
G75*
G02X371163547Y-172133999I252258J-431701D01*
G01*
X372752452Y-172133999D02*
X371163547Y-172133999D01*
X372752453Y-172134000D02*
G75*
G02X373004711Y-172202299I-1J-499999D01*
G01*
X373707484Y-171553720D02*
G75*
G02X373004711Y-172202299I-450515J-216878D01*
G01*
X373707484Y-171553720D02*
G75*
G02X373657999Y-171336842I450515J216878D01*
G01*
X373657999Y-169931158D02*
X373657999Y-171336842D01*
X373657999Y-169931157D02*
G75*
G02X373707484Y-169714280I500000J-1D01*
G01*
X373004711Y-169065703D02*
G75*
G02X373707484Y-169714280I252258J-431700D01*
G01*
X296296710Y-198275701D02*
G75*
G02X296044452Y-198344000I-252258J431701D01*
G01*
X294455548Y-198344000D02*
X296044452Y-198344000D01*
X294455548Y-198344000D02*
G75*
G02X294203289Y-198275701I0J500000D01*
G01*
X293500516Y-198924281D02*
G75*
G02X294203289Y-198275701I450515J216879D01*
G01*
X293500516Y-198924280D02*
G75*
G02X293550001Y-199141158I-450515J-216878D01*
G01*
X293550001Y-200546842D02*
X293550001Y-199141158D01*
X293550001Y-200546843D02*
G75*
G02X293500516Y-200763720I-500000J1D01*
G01*
X294203289Y-201412297D02*
G75*
G02X293500516Y-200763720I-252258J431700D01*
G01*
X294203289Y-201412298D02*
G75*
G02X294455547Y-201343999I252258J-431701D01*
G01*
X296044452Y-201343999D02*
X294455547Y-201343999D01*
X296044453Y-201344000D02*
G75*
G02X296296711Y-201412299I-1J-499999D01*
G01*
X296999484Y-200763720D02*
G75*
G02X296296711Y-201412299I-450515J-216878D01*
G01*
X296999484Y-200763720D02*
G75*
G02X296949999Y-200546842I450515J216878D01*
G01*
X296949999Y-199141158D02*
X296949999Y-200546842D01*
X296949999Y-199141157D02*
G75*
G02X296999484Y-198924280I500000J-1D01*
G01*
X296296711Y-198275703D02*
G75*
G02X296999484Y-198924280I252258J-431700D01*
G01*
X439806710Y-274475701D02*
G75*
G02X439554452Y-274544000I-252258J431701D01*
G01*
X437965548Y-274544000D02*
X439554452Y-274544000D01*
X437965548Y-274544000D02*
G75*
G02X437713289Y-274475701I0J500000D01*
G01*
X437010516Y-275124281D02*
G75*
G02X437713289Y-274475701I450515J216879D01*
G01*
X437010516Y-275124280D02*
G75*
G02X437060001Y-275341158I-450515J-216878D01*
G01*
X437060001Y-276746842D02*
X437060001Y-275341158D01*
X437060001Y-276746843D02*
G75*
G02X437010516Y-276963720I-500000J1D01*
G01*
X437713289Y-277612297D02*
G75*
G02X437010516Y-276963720I-252258J431700D01*
G01*
X437713289Y-277612298D02*
G75*
G02X437965547Y-277543999I252258J-431701D01*
G01*
X439554452Y-277543999D02*
X437965547Y-277543999D01*
X439554453Y-277544000D02*
G75*
G02X439806711Y-277612299I-1J-499999D01*
G01*
X440509484Y-276963720D02*
G75*
G02X439806711Y-277612299I-450515J-216878D01*
G01*
X440509484Y-276963720D02*
G75*
G02X440459999Y-276746842I450515J216878D01*
G01*
X440459999Y-275341158D02*
X440459999Y-276746842D01*
X440459999Y-275341157D02*
G75*
G02X440509484Y-275124280I500000J-1D01*
G01*
X439806711Y-274475703D02*
G75*
G02X440509484Y-275124280I252258J-431700D01*
G01*
X319828710Y-255349701D02*
G75*
G02X319576452Y-255418000I-252258J431701D01*
G01*
X317987548Y-255418000D02*
X319576452Y-255418000D01*
X317987548Y-255418000D02*
G75*
G02X317735289Y-255349701I0J500000D01*
G01*
X317032516Y-255998281D02*
G75*
G02X317735289Y-255349701I450515J216879D01*
G01*
X317032516Y-255998280D02*
G75*
G02X317082001Y-256215158I-450515J-216878D01*
G01*
X317082001Y-257620842D02*
X317082001Y-256215158D01*
X317082001Y-257620843D02*
G75*
G02X317032516Y-257837720I-500000J1D01*
G01*
X317735289Y-258486297D02*
G75*
G02X317032516Y-257837720I-252258J431700D01*
G01*
X317735289Y-258486298D02*
G75*
G02X317987547Y-258417999I252258J-431701D01*
G01*
X319576452Y-258417999D02*
X317987547Y-258417999D01*
X319576453Y-258418000D02*
G75*
G02X319828711Y-258486299I-1J-499999D01*
G01*
X320531484Y-257837720D02*
G75*
G02X319828711Y-258486299I-450515J-216878D01*
G01*
X320531484Y-257837720D02*
G75*
G02X320481999Y-257620842I450515J216878D01*
G01*
X320481999Y-256215158D02*
X320481999Y-257620842D01*
X320481999Y-256215157D02*
G75*
G02X320531484Y-255998280I500000J-1D01*
G01*
X319828711Y-255349703D02*
G75*
G02X320531484Y-255998280I252258J-431700D01*
G01*
X310520710Y-236375701D02*
G75*
G02X310268452Y-236444000I-252258J431701D01*
G01*
X308679548Y-236444000D02*
X310268452Y-236444000D01*
X308679548Y-236444000D02*
G75*
G02X308427289Y-236375701I0J500000D01*
G01*
X307724516Y-237024281D02*
G75*
G02X308427289Y-236375701I450515J216879D01*
G01*
X307724516Y-237024280D02*
G75*
G02X307774001Y-237241158I-450515J-216878D01*
G01*
X307774001Y-238646842D02*
X307774001Y-237241158D01*
X307774001Y-238646843D02*
G75*
G02X307724516Y-238863720I-500000J1D01*
G01*
X308427289Y-239512297D02*
G75*
G02X307724516Y-238863720I-252258J431700D01*
G01*
X308427289Y-239512298D02*
G75*
G02X308679547Y-239443999I252258J-431701D01*
G01*
X310268452Y-239443999D02*
X308679547Y-239443999D01*
X310268453Y-239444000D02*
G75*
G02X310520711Y-239512299I-1J-499999D01*
G01*
X311223484Y-238863720D02*
G75*
G02X310520711Y-239512299I-450515J-216878D01*
G01*
X311223484Y-238863720D02*
G75*
G02X311173999Y-238646842I450515J216878D01*
G01*
X311173999Y-237241158D02*
X311173999Y-238646842D01*
X311173999Y-237241157D02*
G75*
G02X311223484Y-237024280I500000J-1D01*
G01*
X310520711Y-236375703D02*
G75*
G02X311223484Y-237024280I252258J-431700D01*
G01*
X305694710Y-217325701D02*
G75*
G02X305442452Y-217394000I-252258J431701D01*
G01*
X303853548Y-217394000D02*
X305442452Y-217394000D01*
X303853548Y-217394000D02*
G75*
G02X303601289Y-217325701I0J500000D01*
G01*
X302898516Y-217974281D02*
G75*
G02X303601289Y-217325701I450515J216879D01*
G01*
X302898516Y-217974280D02*
G75*
G02X302948001Y-218191158I-450515J-216878D01*
G01*
X302948001Y-219596842D02*
X302948001Y-218191158D01*
X302948001Y-219596843D02*
G75*
G02X302898516Y-219813720I-500000J1D01*
G01*
X303601289Y-220462297D02*
G75*
G02X302898516Y-219813720I-252258J431700D01*
G01*
X303601289Y-220462298D02*
G75*
G02X303853547Y-220393999I252258J-431701D01*
G01*
X305442452Y-220393999D02*
X303853547Y-220393999D01*
X305442453Y-220394000D02*
G75*
G02X305694711Y-220462299I-1J-499999D01*
G01*
X306397484Y-219813720D02*
G75*
G02X305694711Y-220462299I-450515J-216878D01*
G01*
X306397484Y-219813720D02*
G75*
G02X306347999Y-219596842I450515J216878D01*
G01*
X306347999Y-218191158D02*
X306347999Y-219596842D01*
X306347999Y-218191157D02*
G75*
G02X306397484Y-217974280I500000J-1D01*
G01*
X305694711Y-217325703D02*
G75*
G02X306397484Y-217974280I252258J-431700D01*
G01*
X353700710Y-169065701D02*
G75*
G02X353448452Y-169134000I-252258J431701D01*
G01*
X351859548Y-169134000D02*
X353448452Y-169134000D01*
X351859548Y-169134000D02*
G75*
G02X351607289Y-169065701I0J500000D01*
G01*
X350904516Y-169714281D02*
G75*
G02X351607289Y-169065701I450515J216879D01*
G01*
X350904516Y-169714280D02*
G75*
G02X350954001Y-169931158I-450515J-216878D01*
G01*
X350954001Y-171336842D02*
X350954001Y-169931158D01*
X350954001Y-171336843D02*
G75*
G02X350904516Y-171553720I-500000J1D01*
G01*
X351607289Y-172202297D02*
G75*
G02X350904516Y-171553720I-252258J431700D01*
G01*
X351607289Y-172202298D02*
G75*
G02X351859547Y-172133999I252258J-431701D01*
G01*
X353448452Y-172133999D02*
X351859547Y-172133999D01*
X353448453Y-172134000D02*
G75*
G02X353700711Y-172202299I-1J-499999D01*
G01*
X354403484Y-171553720D02*
G75*
G02X353700711Y-172202299I-450515J-216878D01*
G01*
X354403484Y-171553720D02*
G75*
G02X354353999Y-171336842I450515J216878D01*
G01*
X354353999Y-169931158D02*
X354353999Y-171336842D01*
X354353999Y-169931157D02*
G75*
G02X354403484Y-169714280I500000J-1D01*
G01*
X353700711Y-169065703D02*
G75*
G02X354403484Y-169714280I252258J-431700D01*
G01*
X277246710Y-198275701D02*
G75*
G02X276994452Y-198344000I-252258J431701D01*
G01*
X275405548Y-198344000D02*
X276994452Y-198344000D01*
X275405548Y-198344000D02*
G75*
G02X275153289Y-198275701I0J500000D01*
G01*
X274450516Y-198924281D02*
G75*
G02X275153289Y-198275701I450515J216879D01*
G01*
X274450516Y-198924280D02*
G75*
G02X274500001Y-199141158I-450515J-216878D01*
G01*
X274500001Y-200546842D02*
X274500001Y-199141158D01*
X274500001Y-200546843D02*
G75*
G02X274450516Y-200763720I-500000J1D01*
G01*
X275153289Y-201412297D02*
G75*
G02X274450516Y-200763720I-252258J431700D01*
G01*
X275153289Y-201412298D02*
G75*
G02X275405547Y-201343999I252258J-431701D01*
G01*
X276994452Y-201343999D02*
X275405547Y-201343999D01*
X276994453Y-201344000D02*
G75*
G02X277246711Y-201412299I-1J-499999D01*
G01*
X277949484Y-200763720D02*
G75*
G02X277246711Y-201412299I-450515J-216878D01*
G01*
X277949484Y-200763720D02*
G75*
G02X277899999Y-200546842I450515J216878D01*
G01*
X277899999Y-199141158D02*
X277899999Y-200546842D01*
X277899999Y-199141157D02*
G75*
G02X277949484Y-198924280I500000J-1D01*
G01*
X277246711Y-198275703D02*
G75*
G02X277949484Y-198924280I252258J-431700D01*
G01*
X408056710Y-274475701D02*
G75*
G02X407804452Y-274544000I-252258J431701D01*
G01*
X406215548Y-274544000D02*
X407804452Y-274544000D01*
X406215548Y-274544000D02*
G75*
G02X405963289Y-274475701I0J500000D01*
G01*
X405260516Y-275124281D02*
G75*
G02X405963289Y-274475701I450515J216879D01*
G01*
X405260516Y-275124280D02*
G75*
G02X405310001Y-275341158I-450515J-216878D01*
G01*
X405310001Y-276746842D02*
X405310001Y-275341158D01*
X405310001Y-276746843D02*
G75*
G02X405260516Y-276963720I-500000J1D01*
G01*
X405963289Y-277612297D02*
G75*
G02X405260516Y-276963720I-252258J431700D01*
G01*
X405963289Y-277612298D02*
G75*
G02X406215547Y-277543999I252258J-431701D01*
G01*
X407804452Y-277543999D02*
X406215547Y-277543999D01*
X407804453Y-277544000D02*
G75*
G02X408056711Y-277612299I-1J-499999D01*
G01*
X408759484Y-276963720D02*
G75*
G02X408056711Y-277612299I-450515J-216878D01*
G01*
X408759484Y-276963720D02*
G75*
G02X408709999Y-276746842I450515J216878D01*
G01*
X408709999Y-275341158D02*
X408709999Y-276746842D01*
X408709999Y-275341157D02*
G75*
G02X408759484Y-275124280I500000J-1D01*
G01*
X408056711Y-274475703D02*
G75*
G02X408759484Y-275124280I252258J-431700D01*
G01*
X300868710Y-255425701D02*
G75*
G02X300616452Y-255494000I-252258J431701D01*
G01*
X299027548Y-255494000D02*
X300616452Y-255494000D01*
X299027548Y-255494000D02*
G75*
G02X298775289Y-255425701I0J500000D01*
G01*
X298072516Y-256074281D02*
G75*
G02X298775289Y-255425701I450515J216879D01*
G01*
X298072516Y-256074280D02*
G75*
G02X298122001Y-256291158I-450515J-216878D01*
G01*
X298122001Y-257696842D02*
X298122001Y-256291158D01*
X298122001Y-257696843D02*
G75*
G02X298072516Y-257913720I-500000J1D01*
G01*
X298775289Y-258562297D02*
G75*
G02X298072516Y-257913720I-252258J431700D01*
G01*
X298775289Y-258562298D02*
G75*
G02X299027547Y-258493999I252258J-431701D01*
G01*
X300616452Y-258493999D02*
X299027547Y-258493999D01*
X300616453Y-258494000D02*
G75*
G02X300868711Y-258562299I-1J-499999D01*
G01*
X301571484Y-257913720D02*
G75*
G02X300868711Y-258562299I-450515J-216878D01*
G01*
X301571484Y-257913720D02*
G75*
G02X301521999Y-257696842I450515J216878D01*
G01*
X301521999Y-256291158D02*
X301521999Y-257696842D01*
X301521999Y-256291157D02*
G75*
G02X301571484Y-256074280I500000J-1D01*
G01*
X300868711Y-255425703D02*
G75*
G02X301571484Y-256074280I252258J-431700D01*
G01*
X291470710Y-236375701D02*
G75*
G02X291218452Y-236444000I-252258J431701D01*
G01*
X289629548Y-236444000D02*
X291218452Y-236444000D01*
X289629548Y-236444000D02*
G75*
G02X289377289Y-236375701I0J500000D01*
G01*
X288674516Y-237024281D02*
G75*
G02X289377289Y-236375701I450515J216879D01*
G01*
X288674516Y-237024280D02*
G75*
G02X288724001Y-237241158I-450515J-216878D01*
G01*
X288724001Y-238646842D02*
X288724001Y-237241158D01*
X288724001Y-238646843D02*
G75*
G02X288674516Y-238863720I-500000J1D01*
G01*
X289377289Y-239512297D02*
G75*
G02X288674516Y-238863720I-252258J431700D01*
G01*
X289377289Y-239512298D02*
G75*
G02X289629547Y-239443999I252258J-431701D01*
G01*
X291218452Y-239443999D02*
X289629547Y-239443999D01*
X291218453Y-239444000D02*
G75*
G02X291470711Y-239512299I-1J-499999D01*
G01*
X292173484Y-238863720D02*
G75*
G02X291470711Y-239512299I-450515J-216878D01*
G01*
X292173484Y-238863720D02*
G75*
G02X292123999Y-238646842I450515J216878D01*
G01*
X292123999Y-237241158D02*
X292123999Y-238646842D01*
X292123999Y-237241157D02*
G75*
G02X292173484Y-237024280I500000J-1D01*
G01*
X291470711Y-236375703D02*
G75*
G02X292173484Y-237024280I252258J-431700D01*
G01*
X286644710Y-217325701D02*
G75*
G02X286392452Y-217394000I-252258J431701D01*
G01*
X284803548Y-217394000D02*
X286392452Y-217394000D01*
X284803548Y-217394000D02*
G75*
G02X284551289Y-217325701I0J500000D01*
G01*
X283848516Y-217974281D02*
G75*
G02X284551289Y-217325701I450515J216879D01*
G01*
X283848516Y-217974280D02*
G75*
G02X283898001Y-218191158I-450515J-216878D01*
G01*
X283898001Y-219596842D02*
X283898001Y-218191158D01*
X283898001Y-219596843D02*
G75*
G02X283848516Y-219813720I-500000J1D01*
G01*
X284551289Y-220462297D02*
G75*
G02X283848516Y-219813720I-252258J431700D01*
G01*
X284551289Y-220462298D02*
G75*
G02X284803547Y-220393999I252258J-431701D01*
G01*
X286392452Y-220393999D02*
X284803547Y-220393999D01*
X286392453Y-220394000D02*
G75*
G02X286644711Y-220462299I-1J-499999D01*
G01*
X287347484Y-219813720D02*
G75*
G02X286644711Y-220462299I-450515J-216878D01*
G01*
X287347484Y-219813720D02*
G75*
G02X287297999Y-219596842I450515J216878D01*
G01*
X287297999Y-218191158D02*
X287297999Y-219596842D01*
X287297999Y-218191157D02*
G75*
G02X287347484Y-217974280I500000J-1D01*
G01*
X286644711Y-217325703D02*
G75*
G02X287347484Y-217974280I252258J-431700D01*
G01*
X325506710Y-169065701D02*
G75*
G02X325254452Y-169134000I-252258J431701D01*
G01*
X323665548Y-169134000D02*
X325254452Y-169134000D01*
X323665548Y-169134000D02*
G75*
G02X323413289Y-169065701I0J500000D01*
G01*
X322710516Y-169714281D02*
G75*
G02X323413289Y-169065701I450515J216879D01*
G01*
X322710516Y-169714280D02*
G75*
G02X322760001Y-169931158I-450515J-216878D01*
G01*
X322760001Y-171336842D02*
X322760001Y-169931158D01*
X322760001Y-171336843D02*
G75*
G02X322710516Y-171553720I-500000J1D01*
G01*
X323413289Y-172202297D02*
G75*
G02X322710516Y-171553720I-252258J431700D01*
G01*
X323413289Y-172202298D02*
G75*
G02X323665547Y-172133999I252258J-431701D01*
G01*
X325254452Y-172133999D02*
X323665547Y-172133999D01*
X325254453Y-172134000D02*
G75*
G02X325506711Y-172202299I-1J-499999D01*
G01*
X326209484Y-171553720D02*
G75*
G02X325506711Y-172202299I-450515J-216878D01*
G01*
X326209484Y-171553720D02*
G75*
G02X326159999Y-171336842I450515J216878D01*
G01*
X326159999Y-169931158D02*
X326159999Y-171336842D01*
X326159999Y-169931157D02*
G75*
G02X326209484Y-169714280I500000J-1D01*
G01*
X325506711Y-169065703D02*
G75*
G02X326209484Y-169714280I252258J-431700D01*
G01*
X258196710Y-198275701D02*
G75*
G02X257944452Y-198344000I-252258J431701D01*
G01*
X256355548Y-198344000D02*
X257944452Y-198344000D01*
X256355548Y-198344000D02*
G75*
G02X256103289Y-198275701I0J500000D01*
G01*
X255400516Y-198924281D02*
G75*
G02X256103289Y-198275701I450515J216879D01*
G01*
X255400516Y-198924280D02*
G75*
G02X255450001Y-199141158I-450515J-216878D01*
G01*
X255450001Y-200546842D02*
X255450001Y-199141158D01*
X255450001Y-200546843D02*
G75*
G02X255400516Y-200763720I-500000J1D01*
G01*
X256103289Y-201412297D02*
G75*
G02X255400516Y-200763720I-252258J431700D01*
G01*
X256103289Y-201412298D02*
G75*
G02X256355547Y-201343999I252258J-431701D01*
G01*
X257944452Y-201343999D02*
X256355547Y-201343999D01*
X257944453Y-201344000D02*
G75*
G02X258196711Y-201412299I-1J-499999D01*
G01*
X258899484Y-200763720D02*
G75*
G02X258196711Y-201412299I-450515J-216878D01*
G01*
X258899484Y-200763720D02*
G75*
G02X258849999Y-200546842I450515J216878D01*
G01*
X258849999Y-199141158D02*
X258849999Y-200546842D01*
X258849999Y-199141157D02*
G75*
G02X258899484Y-198924280I500000J-1D01*
G01*
X258196711Y-198275703D02*
G75*
G02X258899484Y-198924280I252258J-431700D01*
G01*
X384344710Y-274399701D02*
G75*
G02X384092452Y-274468000I-252258J431701D01*
G01*
X382503548Y-274468000D02*
X384092452Y-274468000D01*
X382503548Y-274468000D02*
G75*
G02X382251289Y-274399701I0J500000D01*
G01*
X381548516Y-275048281D02*
G75*
G02X382251289Y-274399701I450515J216879D01*
G01*
X381548516Y-275048280D02*
G75*
G02X381598001Y-275265158I-450515J-216878D01*
G01*
X381598001Y-276670842D02*
X381598001Y-275265158D01*
X381598001Y-276670843D02*
G75*
G02X381548516Y-276887720I-500000J1D01*
G01*
X382251289Y-277536297D02*
G75*
G02X381548516Y-276887720I-252258J431700D01*
G01*
X382251289Y-277536298D02*
G75*
G02X382503547Y-277467999I252258J-431701D01*
G01*
X384092452Y-277467999D02*
X382503547Y-277467999D01*
X384092453Y-277468000D02*
G75*
G02X384344711Y-277536299I-1J-499999D01*
G01*
X385047484Y-276887720D02*
G75*
G02X384344711Y-277536299I-450515J-216878D01*
G01*
X385047484Y-276887720D02*
G75*
G02X384997999Y-276670842I450515J216878D01*
G01*
X384997999Y-275265158D02*
X384997999Y-276670842D01*
X384997999Y-275265157D02*
G75*
G02X385047484Y-275048280I500000J-1D01*
G01*
X384344711Y-274399703D02*
G75*
G02X385047484Y-275048280I252258J-431700D01*
G01*
X281564710Y-255425701D02*
G75*
G02X281312452Y-255494000I-252258J431701D01*
G01*
X279723548Y-255494000D02*
X281312452Y-255494000D01*
X279723548Y-255494000D02*
G75*
G02X279471289Y-255425701I0J500000D01*
G01*
X278768516Y-256074281D02*
G75*
G02X279471289Y-255425701I450515J216879D01*
G01*
X278768516Y-256074280D02*
G75*
G02X278818001Y-256291158I-450515J-216878D01*
G01*
X278818001Y-257696842D02*
X278818001Y-256291158D01*
X278818001Y-257696843D02*
G75*
G02X278768516Y-257913720I-500000J1D01*
G01*
X279471289Y-258562297D02*
G75*
G02X278768516Y-257913720I-252258J431700D01*
G01*
X279471289Y-258562298D02*
G75*
G02X279723547Y-258493999I252258J-431701D01*
G01*
X281312452Y-258493999D02*
X279723547Y-258493999D01*
X281312453Y-258494000D02*
G75*
G02X281564711Y-258562299I-1J-499999D01*
G01*
X282267484Y-257913720D02*
G75*
G02X281564711Y-258562299I-450515J-216878D01*
G01*
X282267484Y-257913720D02*
G75*
G02X282217999Y-257696842I450515J216878D01*
G01*
X282217999Y-256291158D02*
X282217999Y-257696842D01*
X282217999Y-256291157D02*
G75*
G02X282267484Y-256074280I500000J-1D01*
G01*
X281564711Y-255425703D02*
G75*
G02X282267484Y-256074280I252258J-431700D01*
G01*
X272420710Y-236375701D02*
G75*
G02X272168452Y-236444000I-252258J431701D01*
G01*
X270579548Y-236444000D02*
X272168452Y-236444000D01*
X270579548Y-236444000D02*
G75*
G02X270327289Y-236375701I0J500000D01*
G01*
X269624516Y-237024281D02*
G75*
G02X270327289Y-236375701I450515J216879D01*
G01*
X269624516Y-237024280D02*
G75*
G02X269674001Y-237241158I-450515J-216878D01*
G01*
X269674001Y-238646842D02*
X269674001Y-237241158D01*
X269674001Y-238646843D02*
G75*
G02X269624516Y-238863720I-500000J1D01*
G01*
X270327289Y-239512297D02*
G75*
G02X269624516Y-238863720I-252258J431700D01*
G01*
X270327289Y-239512298D02*
G75*
G02X270579547Y-239443999I252258J-431701D01*
G01*
X272168452Y-239443999D02*
X270579547Y-239443999D01*
X272168453Y-239444000D02*
G75*
G02X272420711Y-239512299I-1J-499999D01*
G01*
X273123484Y-238863720D02*
G75*
G02X272420711Y-239512299I-450515J-216878D01*
G01*
X273123484Y-238863720D02*
G75*
G02X273073999Y-238646842I450515J216878D01*
G01*
X273073999Y-237241158D02*
X273073999Y-238646842D01*
X273073999Y-237241157D02*
G75*
G02X273123484Y-237024280I500000J-1D01*
G01*
X272420711Y-236375703D02*
G75*
G02X273123484Y-237024280I252258J-431700D01*
G01*
X267594710Y-217325701D02*
G75*
G02X267342452Y-217394000I-252258J431701D01*
G01*
X265753548Y-217394000D02*
X267342452Y-217394000D01*
X265753548Y-217394000D02*
G75*
G02X265501289Y-217325701I0J500000D01*
G01*
X264798516Y-217974281D02*
G75*
G02X265501289Y-217325701I450515J216879D01*
G01*
X264798516Y-217974280D02*
G75*
G02X264848001Y-218191158I-450515J-216878D01*
G01*
X264848001Y-219596842D02*
X264848001Y-218191158D01*
X264848001Y-219596843D02*
G75*
G02X264798516Y-219813720I-500000J1D01*
G01*
X265501289Y-220462297D02*
G75*
G02X264798516Y-219813720I-252258J431700D01*
G01*
X265501289Y-220462298D02*
G75*
G02X265753547Y-220393999I252258J-431701D01*
G01*
X267342452Y-220393999D02*
X265753547Y-220393999D01*
X267342453Y-220394000D02*
G75*
G02X267594711Y-220462299I-1J-499999D01*
G01*
X268297484Y-219813720D02*
G75*
G02X267594711Y-220462299I-450515J-216878D01*
G01*
X268297484Y-219813720D02*
G75*
G02X268247999Y-219596842I450515J216878D01*
G01*
X268247999Y-218191158D02*
X268247999Y-219596842D01*
X268247999Y-218191157D02*
G75*
G02X268297484Y-217974280I500000J-1D01*
G01*
X267594711Y-217325703D02*
G75*
G02X268297484Y-217974280I252258J-431700D01*
G01*
X306456710Y-169065701D02*
G75*
G02X306204452Y-169134000I-252258J431701D01*
G01*
X304615548Y-169134000D02*
X306204452Y-169134000D01*
X304615548Y-169134000D02*
G75*
G02X304363289Y-169065701I0J500000D01*
G01*
X303660516Y-169714281D02*
G75*
G02X304363289Y-169065701I450515J216879D01*
G01*
X303660516Y-169714280D02*
G75*
G02X303710001Y-169931158I-450515J-216878D01*
G01*
X303710001Y-171336842D02*
X303710001Y-169931158D01*
X303710001Y-171336843D02*
G75*
G02X303660516Y-171553720I-500000J1D01*
G01*
X304363289Y-172202297D02*
G75*
G02X303660516Y-171553720I-252258J431700D01*
G01*
X304363289Y-172202298D02*
G75*
G02X304615547Y-172133999I252258J-431701D01*
G01*
X306204452Y-172133999D02*
X304615547Y-172133999D01*
X306204453Y-172134000D02*
G75*
G02X306456711Y-172202299I-1J-499999D01*
G01*
X307159484Y-171553720D02*
G75*
G02X306456711Y-172202299I-450515J-216878D01*
G01*
X307159484Y-171553720D02*
G75*
G02X307109999Y-171336842I450515J216878D01*
G01*
X307109999Y-169931158D02*
X307109999Y-171336842D01*
X307109999Y-169931157D02*
G75*
G02X307159484Y-169714280I500000J-1D01*
G01*
X306456711Y-169065703D02*
G75*
G02X307159484Y-169714280I252258J-431700D01*
G01*
X239146710Y-198275701D02*
G75*
G02X238894452Y-198344000I-252258J431701D01*
G01*
X237305548Y-198344000D02*
X238894452Y-198344000D01*
X237305548Y-198344000D02*
G75*
G02X237053289Y-198275701I0J500000D01*
G01*
X236350516Y-198924281D02*
G75*
G02X237053289Y-198275701I450515J216879D01*
G01*
X236350516Y-198924280D02*
G75*
G02X236400001Y-199141158I-450515J-216878D01*
G01*
X236400001Y-200546842D02*
X236400001Y-199141158D01*
X236400001Y-200546843D02*
G75*
G02X236350516Y-200763720I-500000J1D01*
G01*
X237053289Y-201412297D02*
G75*
G02X236350516Y-200763720I-252258J431700D01*
G01*
X237053289Y-201412298D02*
G75*
G02X237305547Y-201343999I252258J-431701D01*
G01*
X238894452Y-201343999D02*
X237305547Y-201343999D01*
X238894453Y-201344000D02*
G75*
G02X239146711Y-201412299I-1J-499999D01*
G01*
X239849484Y-200763720D02*
G75*
G02X239146711Y-201412299I-450515J-216878D01*
G01*
X239849484Y-200763720D02*
G75*
G02X239799999Y-200546842I450515J216878D01*
G01*
X239799999Y-199141158D02*
X239799999Y-200546842D01*
X239799999Y-199141157D02*
G75*
G02X239849484Y-198924280I500000J-1D01*
G01*
X239146711Y-198275703D02*
G75*
G02X239849484Y-198924280I252258J-431700D01*
G01*
X360468710Y-274399701D02*
G75*
G02X360216452Y-274468000I-252258J431701D01*
G01*
X358627548Y-274468000D02*
X360216452Y-274468000D01*
X358627548Y-274468000D02*
G75*
G02X358375289Y-274399701I0J500000D01*
G01*
X357672516Y-275048281D02*
G75*
G02X358375289Y-274399701I450515J216879D01*
G01*
X357672516Y-275048280D02*
G75*
G02X357722001Y-275265158I-450515J-216878D01*
G01*
X357722001Y-276670842D02*
X357722001Y-275265158D01*
X357722001Y-276670843D02*
G75*
G02X357672516Y-276887720I-500000J1D01*
G01*
X358375289Y-277536297D02*
G75*
G02X357672516Y-276887720I-252258J431700D01*
G01*
X358375289Y-277536298D02*
G75*
G02X358627547Y-277467999I252258J-431701D01*
G01*
X360216452Y-277467999D02*
X358627547Y-277467999D01*
X360216453Y-277468000D02*
G75*
G02X360468711Y-277536299I-1J-499999D01*
G01*
X361171484Y-276887720D02*
G75*
G02X360468711Y-277536299I-450515J-216878D01*
G01*
X361171484Y-276887720D02*
G75*
G02X361121999Y-276670842I450515J216878D01*
G01*
X361121999Y-275265158D02*
X361121999Y-276670842D01*
X361121999Y-275265157D02*
G75*
G02X361171484Y-275048280I500000J-1D01*
G01*
X360468711Y-274399703D02*
G75*
G02X361171484Y-275048280I252258J-431700D01*
G01*
X262514710Y-255425701D02*
G75*
G02X262262452Y-255494000I-252258J431701D01*
G01*
X260673548Y-255494000D02*
X262262452Y-255494000D01*
X260673548Y-255494000D02*
G75*
G02X260421289Y-255425701I0J500000D01*
G01*
X259718516Y-256074281D02*
G75*
G02X260421289Y-255425701I450515J216879D01*
G01*
X259718516Y-256074280D02*
G75*
G02X259768001Y-256291158I-450515J-216878D01*
G01*
X259768001Y-257696842D02*
X259768001Y-256291158D01*
X259768001Y-257696843D02*
G75*
G02X259718516Y-257913720I-500000J1D01*
G01*
X260421289Y-258562297D02*
G75*
G02X259718516Y-257913720I-252258J431700D01*
G01*
X260421289Y-258562298D02*
G75*
G02X260673547Y-258493999I252258J-431701D01*
G01*
X262262452Y-258493999D02*
X260673547Y-258493999D01*
X262262453Y-258494000D02*
G75*
G02X262514711Y-258562299I-1J-499999D01*
G01*
X263217484Y-257913720D02*
G75*
G02X262514711Y-258562299I-450515J-216878D01*
G01*
X263217484Y-257913720D02*
G75*
G02X263167999Y-257696842I450515J216878D01*
G01*
X263167999Y-256291158D02*
X263167999Y-257696842D01*
X263167999Y-256291157D02*
G75*
G02X263217484Y-256074280I500000J-1D01*
G01*
X262514711Y-255425703D02*
G75*
G02X263217484Y-256074280I252258J-431700D01*
G01*
X253370710Y-236375701D02*
G75*
G02X253118452Y-236444000I-252258J431701D01*
G01*
X251529548Y-236444000D02*
X253118452Y-236444000D01*
X251529548Y-236444000D02*
G75*
G02X251277289Y-236375701I0J500000D01*
G01*
X250574516Y-237024281D02*
G75*
G02X251277289Y-236375701I450515J216879D01*
G01*
X250574516Y-237024280D02*
G75*
G02X250624001Y-237241158I-450515J-216878D01*
G01*
X250624001Y-238646842D02*
X250624001Y-237241158D01*
X250624001Y-238646843D02*
G75*
G02X250574516Y-238863720I-500000J1D01*
G01*
X251277289Y-239512297D02*
G75*
G02X250574516Y-238863720I-252258J431700D01*
G01*
X251277289Y-239512298D02*
G75*
G02X251529547Y-239443999I252258J-431701D01*
G01*
X253118452Y-239443999D02*
X251529547Y-239443999D01*
X253118453Y-239444000D02*
G75*
G02X253370711Y-239512299I-1J-499999D01*
G01*
X254073484Y-238863720D02*
G75*
G02X253370711Y-239512299I-450515J-216878D01*
G01*
X254073484Y-238863720D02*
G75*
G02X254023999Y-238646842I450515J216878D01*
G01*
X254023999Y-237241158D02*
X254023999Y-238646842D01*
X254023999Y-237241157D02*
G75*
G02X254073484Y-237024280I500000J-1D01*
G01*
X253370711Y-236375703D02*
G75*
G02X254073484Y-237024280I252258J-431700D01*
G01*
X248544710Y-217325701D02*
G75*
G02X248292452Y-217394000I-252258J431701D01*
G01*
X246703548Y-217394000D02*
X248292452Y-217394000D01*
X246703548Y-217394000D02*
G75*
G02X246451289Y-217325701I0J500000D01*
G01*
X245748516Y-217974281D02*
G75*
G02X246451289Y-217325701I450515J216879D01*
G01*
X245748516Y-217974280D02*
G75*
G02X245798001Y-218191158I-450515J-216878D01*
G01*
X245798001Y-219596842D02*
X245798001Y-218191158D01*
X245798001Y-219596843D02*
G75*
G02X245748516Y-219813720I-500000J1D01*
G01*
X246451289Y-220462297D02*
G75*
G02X245748516Y-219813720I-252258J431700D01*
G01*
X246451289Y-220462298D02*
G75*
G02X246703547Y-220393999I252258J-431701D01*
G01*
X248292452Y-220393999D02*
X246703547Y-220393999D01*
X248292453Y-220394000D02*
G75*
G02X248544711Y-220462299I-1J-499999D01*
G01*
X249247484Y-219813720D02*
G75*
G02X248544711Y-220462299I-450515J-216878D01*
G01*
X249247484Y-219813720D02*
G75*
G02X249197999Y-219596842I450515J216878D01*
G01*
X249197999Y-218191158D02*
X249197999Y-219596842D01*
X249197999Y-218191157D02*
G75*
G02X249247484Y-217974280I500000J-1D01*
G01*
X248544711Y-217325703D02*
G75*
G02X249247484Y-217974280I252258J-431700D01*
G01*
X287406710Y-169065701D02*
G75*
G02X287154452Y-169134000I-252258J431701D01*
G01*
X285565548Y-169134000D02*
X287154452Y-169134000D01*
X285565548Y-169134000D02*
G75*
G02X285313289Y-169065701I0J500000D01*
G01*
X284610516Y-169714281D02*
G75*
G02X285313289Y-169065701I450515J216879D01*
G01*
X284610516Y-169714280D02*
G75*
G02X284660001Y-169931158I-450515J-216878D01*
G01*
X284660001Y-171336842D02*
X284660001Y-169931158D01*
X284660001Y-171336843D02*
G75*
G02X284610516Y-171553720I-500000J1D01*
G01*
X285313289Y-172202297D02*
G75*
G02X284610516Y-171553720I-252258J431700D01*
G01*
X285313289Y-172202298D02*
G75*
G02X285565547Y-172133999I252258J-431701D01*
G01*
X287154452Y-172133999D02*
X285565547Y-172133999D01*
X287154453Y-172134000D02*
G75*
G02X287406711Y-172202299I-1J-499999D01*
G01*
X288109484Y-171553720D02*
G75*
G02X287406711Y-172202299I-450515J-216878D01*
G01*
X288109484Y-171553720D02*
G75*
G02X288059999Y-171336842I450515J216878D01*
G01*
X288059999Y-169931158D02*
X288059999Y-171336842D01*
X288059999Y-169931157D02*
G75*
G02X288109484Y-169714280I500000J-1D01*
G01*
X287406711Y-169065703D02*
G75*
G02X288109484Y-169714280I252258J-431700D01*
G01*
X219842710Y-198275701D02*
G75*
G02X219590452Y-198344000I-252258J431701D01*
G01*
X218001548Y-198344000D02*
X219590452Y-198344000D01*
X218001548Y-198344000D02*
G75*
G02X217749289Y-198275701I0J500000D01*
G01*
X217046516Y-198924281D02*
G75*
G02X217749289Y-198275701I450515J216879D01*
G01*
X217046516Y-198924280D02*
G75*
G02X217096001Y-199141158I-450515J-216878D01*
G01*
X217096001Y-200546842D02*
X217096001Y-199141158D01*
X217096001Y-200546843D02*
G75*
G02X217046516Y-200763720I-500000J1D01*
G01*
X217749289Y-201412297D02*
G75*
G02X217046516Y-200763720I-252258J431700D01*
G01*
X217749289Y-201412298D02*
G75*
G02X218001547Y-201343999I252258J-431701D01*
G01*
X219590452Y-201343999D02*
X218001547Y-201343999D01*
X219590453Y-201344000D02*
G75*
G02X219842711Y-201412299I-1J-499999D01*
G01*
X220545484Y-200763720D02*
G75*
G02X219842711Y-201412299I-450515J-216878D01*
G01*
X220545484Y-200763720D02*
G75*
G02X220495999Y-200546842I450515J216878D01*
G01*
X220495999Y-199141158D02*
X220495999Y-200546842D01*
X220495999Y-199141157D02*
G75*
G02X220545484Y-198924280I500000J-1D01*
G01*
X219842711Y-198275703D02*
G75*
G02X220545484Y-198924280I252258J-431700D01*
G01*
X336592710Y-274399701D02*
G75*
G02X336340452Y-274468000I-252258J431701D01*
G01*
X334751548Y-274468000D02*
X336340452Y-274468000D01*
X334751548Y-274468000D02*
G75*
G02X334499289Y-274399701I0J500000D01*
G01*
X333796516Y-275048281D02*
G75*
G02X334499289Y-274399701I450515J216879D01*
G01*
X333796516Y-275048280D02*
G75*
G02X333846001Y-275265158I-450515J-216878D01*
G01*
X333846001Y-276670842D02*
X333846001Y-275265158D01*
X333846001Y-276670843D02*
G75*
G02X333796516Y-276887720I-500000J1D01*
G01*
X334499289Y-277536297D02*
G75*
G02X333796516Y-276887720I-252258J431700D01*
G01*
X334499289Y-277536298D02*
G75*
G02X334751547Y-277467999I252258J-431701D01*
G01*
X336340452Y-277467999D02*
X334751547Y-277467999D01*
X336340453Y-277468000D02*
G75*
G02X336592711Y-277536299I-1J-499999D01*
G01*
X337295484Y-276887720D02*
G75*
G02X336592711Y-277536299I-450515J-216878D01*
G01*
X337295484Y-276887720D02*
G75*
G02X337245999Y-276670842I450515J216878D01*
G01*
X337245999Y-275265158D02*
X337245999Y-276670842D01*
X337245999Y-275265157D02*
G75*
G02X337295484Y-275048280I500000J-1D01*
G01*
X336592711Y-274399703D02*
G75*
G02X337295484Y-275048280I252258J-431700D01*
G01*
X243464710Y-255425701D02*
G75*
G02X243212452Y-255494000I-252258J431701D01*
G01*
X241623548Y-255494000D02*
X243212452Y-255494000D01*
X241623548Y-255494000D02*
G75*
G02X241371289Y-255425701I0J500000D01*
G01*
X240668516Y-256074281D02*
G75*
G02X241371289Y-255425701I450515J216879D01*
G01*
X240668516Y-256074280D02*
G75*
G02X240718001Y-256291158I-450515J-216878D01*
G01*
X240718001Y-257696842D02*
X240718001Y-256291158D01*
X240718001Y-257696843D02*
G75*
G02X240668516Y-257913720I-500000J1D01*
G01*
X241371289Y-258562297D02*
G75*
G02X240668516Y-257913720I-252258J431700D01*
G01*
X241371289Y-258562298D02*
G75*
G02X241623547Y-258493999I252258J-431701D01*
G01*
X243212452Y-258493999D02*
X241623547Y-258493999D01*
X243212453Y-258494000D02*
G75*
G02X243464711Y-258562299I-1J-499999D01*
G01*
X244167484Y-257913720D02*
G75*
G02X243464711Y-258562299I-450515J-216878D01*
G01*
X244167484Y-257913720D02*
G75*
G02X244117999Y-257696842I450515J216878D01*
G01*
X244117999Y-256291158D02*
X244117999Y-257696842D01*
X244117999Y-256291157D02*
G75*
G02X244167484Y-256074280I500000J-1D01*
G01*
X243464711Y-255425703D02*
G75*
G02X244167484Y-256074280I252258J-431700D01*
G01*
X234574710Y-236375701D02*
G75*
G02X234322452Y-236444000I-252258J431701D01*
G01*
X232733548Y-236444000D02*
X234322452Y-236444000D01*
X232733548Y-236444000D02*
G75*
G02X232481289Y-236375701I0J500000D01*
G01*
X231778516Y-237024281D02*
G75*
G02X232481289Y-236375701I450515J216879D01*
G01*
X231778516Y-237024280D02*
G75*
G02X231828001Y-237241158I-450515J-216878D01*
G01*
X231828001Y-238646842D02*
X231828001Y-237241158D01*
X231828001Y-238646843D02*
G75*
G02X231778516Y-238863720I-500000J1D01*
G01*
X232481289Y-239512297D02*
G75*
G02X231778516Y-238863720I-252258J431700D01*
G01*
X232481289Y-239512298D02*
G75*
G02X232733547Y-239443999I252258J-431701D01*
G01*
X234322452Y-239443999D02*
X232733547Y-239443999D01*
X234322453Y-239444000D02*
G75*
G02X234574711Y-239512299I-1J-499999D01*
G01*
X235277484Y-238863720D02*
G75*
G02X234574711Y-239512299I-450515J-216878D01*
G01*
X235277484Y-238863720D02*
G75*
G02X235227999Y-238646842I450515J216878D01*
G01*
X235227999Y-237241158D02*
X235227999Y-238646842D01*
X235227999Y-237241157D02*
G75*
G02X235277484Y-237024280I500000J-1D01*
G01*
X234574711Y-236375703D02*
G75*
G02X235277484Y-237024280I252258J-431700D01*
G01*
X229494710Y-217325701D02*
G75*
G02X229242452Y-217394000I-252258J431701D01*
G01*
X227653548Y-217394000D02*
X229242452Y-217394000D01*
X227653548Y-217394000D02*
G75*
G02X227401289Y-217325701I0J500000D01*
G01*
X226698516Y-217974281D02*
G75*
G02X227401289Y-217325701I450515J216879D01*
G01*
X226698516Y-217974280D02*
G75*
G02X226748001Y-218191158I-450515J-216878D01*
G01*
X226748001Y-219596842D02*
X226748001Y-218191158D01*
X226748001Y-219596843D02*
G75*
G02X226698516Y-219813720I-500000J1D01*
G01*
X227401289Y-220462297D02*
G75*
G02X226698516Y-219813720I-252258J431700D01*
G01*
X227401289Y-220462298D02*
G75*
G02X227653547Y-220393999I252258J-431701D01*
G01*
X229242452Y-220393999D02*
X227653547Y-220393999D01*
X229242453Y-220394000D02*
G75*
G02X229494711Y-220462299I-1J-499999D01*
G01*
X230197484Y-219813720D02*
G75*
G02X229494711Y-220462299I-450515J-216878D01*
G01*
X230197484Y-219813720D02*
G75*
G02X230147999Y-219596842I450515J216878D01*
G01*
X230147999Y-218191158D02*
X230147999Y-219596842D01*
X230147999Y-218191157D02*
G75*
G02X230197484Y-217974280I500000J-1D01*
G01*
X229494711Y-217325703D02*
G75*
G02X230197484Y-217974280I252258J-431700D01*
G01*
X268356710Y-169065701D02*
G75*
G02X268104452Y-169134000I-252258J431701D01*
G01*
X266515548Y-169134000D02*
X268104452Y-169134000D01*
X266515548Y-169134000D02*
G75*
G02X266263289Y-169065701I0J500000D01*
G01*
X265560516Y-169714281D02*
G75*
G02X266263289Y-169065701I450515J216879D01*
G01*
X265560516Y-169714280D02*
G75*
G02X265610001Y-169931158I-450515J-216878D01*
G01*
X265610001Y-171336842D02*
X265610001Y-169931158D01*
X265610001Y-171336843D02*
G75*
G02X265560516Y-171553720I-500000J1D01*
G01*
X266263289Y-172202297D02*
G75*
G02X265560516Y-171553720I-252258J431700D01*
G01*
X266263289Y-172202298D02*
G75*
G02X266515547Y-172133999I252258J-431701D01*
G01*
X268104452Y-172133999D02*
X266515547Y-172133999D01*
X268104453Y-172134000D02*
G75*
G02X268356711Y-172202299I-1J-499999D01*
G01*
X269059484Y-171553720D02*
G75*
G02X268356711Y-172202299I-450515J-216878D01*
G01*
X269059484Y-171553720D02*
G75*
G02X269009999Y-171336842I450515J216878D01*
G01*
X269009999Y-169931158D02*
X269009999Y-171336842D01*
X269009999Y-169931157D02*
G75*
G02X269059484Y-169714280I500000J-1D01*
G01*
X268356711Y-169065703D02*
G75*
G02X269059484Y-169714280I252258J-431700D01*
G01*
X200792710Y-198275701D02*
G75*
G02X200540452Y-198344000I-252258J431701D01*
G01*
X198951548Y-198344000D02*
X200540452Y-198344000D01*
X198951548Y-198344000D02*
G75*
G02X198699289Y-198275701I0J500000D01*
G01*
X197996516Y-198924281D02*
G75*
G02X198699289Y-198275701I450515J216879D01*
G01*
X197996516Y-198924280D02*
G75*
G02X198046001Y-199141158I-450515J-216878D01*
G01*
X198046001Y-200546842D02*
X198046001Y-199141158D01*
X198046001Y-200546843D02*
G75*
G02X197996516Y-200763720I-500000J1D01*
G01*
X198699289Y-201412297D02*
G75*
G02X197996516Y-200763720I-252258J431700D01*
G01*
X198699289Y-201412298D02*
G75*
G02X198951547Y-201343999I252258J-431701D01*
G01*
X200540452Y-201343999D02*
X198951547Y-201343999D01*
X200540453Y-201344000D02*
G75*
G02X200792711Y-201412299I-1J-499999D01*
G01*
X201495484Y-200763720D02*
G75*
G02X200792711Y-201412299I-450515J-216878D01*
G01*
X201495484Y-200763720D02*
G75*
G02X201445999Y-200546842I450515J216878D01*
G01*
X201445999Y-199141158D02*
X201445999Y-200546842D01*
X201445999Y-199141157D02*
G75*
G02X201495484Y-198924280I500000J-1D01*
G01*
X200792711Y-198275703D02*
G75*
G02X201495484Y-198924280I252258J-431700D01*
G01*
X265054710Y-274475701D02*
G75*
G02X264802452Y-274544000I-252258J431701D01*
G01*
X263213548Y-274544000D02*
X264802452Y-274544000D01*
X263213548Y-274544000D02*
G75*
G02X262961289Y-274475701I0J500000D01*
G01*
X262258516Y-275124281D02*
G75*
G02X262961289Y-274475701I450515J216879D01*
G01*
X262258516Y-275124280D02*
G75*
G02X262308001Y-275341158I-450515J-216878D01*
G01*
X262308001Y-276746842D02*
X262308001Y-275341158D01*
X262308001Y-276746843D02*
G75*
G02X262258516Y-276963720I-500000J1D01*
G01*
X262961289Y-277612297D02*
G75*
G02X262258516Y-276963720I-252258J431700D01*
G01*
X262961289Y-277612298D02*
G75*
G02X263213547Y-277543999I252258J-431701D01*
G01*
X264802452Y-277543999D02*
X263213547Y-277543999D01*
X264802453Y-277544000D02*
G75*
G02X265054711Y-277612299I-1J-499999D01*
G01*
X265757484Y-276963720D02*
G75*
G02X265054711Y-277612299I-450515J-216878D01*
G01*
X265757484Y-276963720D02*
G75*
G02X265707999Y-276746842I450515J216878D01*
G01*
X265707999Y-275341158D02*
X265707999Y-276746842D01*
X265707999Y-275341157D02*
G75*
G02X265757484Y-275124280I500000J-1D01*
G01*
X265054711Y-274475703D02*
G75*
G02X265757484Y-275124280I252258J-431700D01*
G01*
X224414710Y-255425701D02*
G75*
G02X224162452Y-255494000I-252258J431701D01*
G01*
X222573548Y-255494000D02*
X224162452Y-255494000D01*
X222573548Y-255494000D02*
G75*
G02X222321289Y-255425701I0J500000D01*
G01*
X221618516Y-256074281D02*
G75*
G02X222321289Y-255425701I450515J216879D01*
G01*
X221618516Y-256074280D02*
G75*
G02X221668001Y-256291158I-450515J-216878D01*
G01*
X221668001Y-257696842D02*
X221668001Y-256291158D01*
X221668001Y-257696843D02*
G75*
G02X221618516Y-257913720I-500000J1D01*
G01*
X222321289Y-258562297D02*
G75*
G02X221618516Y-257913720I-252258J431700D01*
G01*
X222321289Y-258562298D02*
G75*
G02X222573547Y-258493999I252258J-431701D01*
G01*
X224162452Y-258493999D02*
X222573547Y-258493999D01*
X224162453Y-258494000D02*
G75*
G02X224414711Y-258562299I-1J-499999D01*
G01*
X225117484Y-257913720D02*
G75*
G02X224414711Y-258562299I-450515J-216878D01*
G01*
X225117484Y-257913720D02*
G75*
G02X225067999Y-257696842I450515J216878D01*
G01*
X225067999Y-256291158D02*
X225067999Y-257696842D01*
X225067999Y-256291157D02*
G75*
G02X225117484Y-256074280I500000J-1D01*
G01*
X224414711Y-255425703D02*
G75*
G02X225117484Y-256074280I252258J-431700D01*
G01*
X215180710Y-236299701D02*
G75*
G02X214928452Y-236368000I-252258J431701D01*
G01*
X213339548Y-236368000D02*
X214928452Y-236368000D01*
X213339548Y-236368000D02*
G75*
G02X213087289Y-236299701I0J500000D01*
G01*
X212384516Y-236948281D02*
G75*
G02X213087289Y-236299701I450515J216879D01*
G01*
X212384516Y-236948280D02*
G75*
G02X212434001Y-237165158I-450515J-216878D01*
G01*
X212434001Y-238570842D02*
X212434001Y-237165158D01*
X212434001Y-238570843D02*
G75*
G02X212384516Y-238787720I-500000J1D01*
G01*
X213087289Y-239436297D02*
G75*
G02X212384516Y-238787720I-252258J431700D01*
G01*
X213087289Y-239436298D02*
G75*
G02X213339547Y-239367999I252258J-431701D01*
G01*
X214928452Y-239367999D02*
X213339547Y-239367999D01*
X214928453Y-239368000D02*
G75*
G02X215180711Y-239436299I-1J-499999D01*
G01*
X215883484Y-238787720D02*
G75*
G02X215180711Y-239436299I-450515J-216878D01*
G01*
X215883484Y-238787720D02*
G75*
G02X215833999Y-238570842I450515J216878D01*
G01*
X215833999Y-237165158D02*
X215833999Y-238570842D01*
X215833999Y-237165157D02*
G75*
G02X215883484Y-236948280I500000J-1D01*
G01*
X215180711Y-236299703D02*
G75*
G02X215883484Y-236948280I252258J-431700D01*
G01*
X210444710Y-217325701D02*
G75*
G02X210192452Y-217394000I-252258J431701D01*
G01*
X208603548Y-217394000D02*
X210192452Y-217394000D01*
X208603548Y-217394000D02*
G75*
G02X208351289Y-217325701I0J500000D01*
G01*
X207648516Y-217974281D02*
G75*
G02X208351289Y-217325701I450515J216879D01*
G01*
X207648516Y-217974280D02*
G75*
G02X207698001Y-218191158I-450515J-216878D01*
G01*
X207698001Y-219596842D02*
X207698001Y-218191158D01*
X207698001Y-219596843D02*
G75*
G02X207648516Y-219813720I-500000J1D01*
G01*
X208351289Y-220462297D02*
G75*
G02X207648516Y-219813720I-252258J431700D01*
G01*
X208351289Y-220462298D02*
G75*
G02X208603547Y-220393999I252258J-431701D01*
G01*
X210192452Y-220393999D02*
X208603547Y-220393999D01*
X210192453Y-220394000D02*
G75*
G02X210444711Y-220462299I-1J-499999D01*
G01*
X211147484Y-219813720D02*
G75*
G02X210444711Y-220462299I-450515J-216878D01*
G01*
X211147484Y-219813720D02*
G75*
G02X211097999Y-219596842I450515J216878D01*
G01*
X211097999Y-218191158D02*
X211097999Y-219596842D01*
X211097999Y-218191157D02*
G75*
G02X211147484Y-217974280I500000J-1D01*
G01*
X210444711Y-217325703D02*
G75*
G02X211147484Y-217974280I252258J-431700D01*
G01*
X240670710Y-169065701D02*
G75*
G02X240418452Y-169134000I-252258J431701D01*
G01*
X238829548Y-169134000D02*
X240418452Y-169134000D01*
X238829548Y-169134000D02*
G75*
G02X238577289Y-169065701I0J500000D01*
G01*
X237874516Y-169714281D02*
G75*
G02X238577289Y-169065701I450515J216879D01*
G01*
X237874516Y-169714280D02*
G75*
G02X237924001Y-169931158I-450515J-216878D01*
G01*
X237924001Y-171336842D02*
X237924001Y-169931158D01*
X237924001Y-171336843D02*
G75*
G02X237874516Y-171553720I-500000J1D01*
G01*
X238577289Y-172202297D02*
G75*
G02X237874516Y-171553720I-252258J431700D01*
G01*
X238577289Y-172202298D02*
G75*
G02X238829547Y-172133999I252258J-431701D01*
G01*
X240418452Y-172133999D02*
X238829547Y-172133999D01*
X240418453Y-172134000D02*
G75*
G02X240670711Y-172202299I-1J-499999D01*
G01*
X241373484Y-171553720D02*
G75*
G02X240670711Y-172202299I-450515J-216878D01*
G01*
X241373484Y-171553720D02*
G75*
G02X241323999Y-171336842I450515J216878D01*
G01*
X241323999Y-169931158D02*
X241323999Y-171336842D01*
X241323999Y-169931157D02*
G75*
G02X241373484Y-169714280I500000J-1D01*
G01*
X240670711Y-169065703D02*
G75*
G02X241373484Y-169714280I252258J-431700D01*
G01*
X181742710Y-198275701D02*
G75*
G02X181490452Y-198344000I-252258J431701D01*
G01*
X179901548Y-198344000D02*
X181490452Y-198344000D01*
X179901548Y-198344000D02*
G75*
G02X179649289Y-198275701I0J500000D01*
G01*
X178946516Y-198924281D02*
G75*
G02X179649289Y-198275701I450515J216879D01*
G01*
X178946516Y-198924280D02*
G75*
G02X178996001Y-199141158I-450515J-216878D01*
G01*
X178996001Y-200546842D02*
X178996001Y-199141158D01*
X178996001Y-200546843D02*
G75*
G02X178946516Y-200763720I-500000J1D01*
G01*
X179649289Y-201412297D02*
G75*
G02X178946516Y-200763720I-252258J431700D01*
G01*
X179649289Y-201412298D02*
G75*
G02X179901547Y-201343999I252258J-431701D01*
G01*
X181490452Y-201343999D02*
X179901547Y-201343999D01*
X181490453Y-201344000D02*
G75*
G02X181742711Y-201412299I-1J-499999D01*
G01*
X182445484Y-200763720D02*
G75*
G02X181742711Y-201412299I-450515J-216878D01*
G01*
X182445484Y-200763720D02*
G75*
G02X182395999Y-200546842I450515J216878D01*
G01*
X182395999Y-199141158D02*
X182395999Y-200546842D01*
X182395999Y-199141157D02*
G75*
G02X182445484Y-198924280I500000J-1D01*
G01*
X181742711Y-198275703D02*
G75*
G02X182445484Y-198924280I252258J-431700D01*
G01*
X193934710Y-274475701D02*
G75*
G02X193682452Y-274544000I-252258J431701D01*
G01*
X192093548Y-274544000D02*
X193682452Y-274544000D01*
X192093548Y-274544000D02*
G75*
G02X191841289Y-274475701I0J500000D01*
G01*
X191138516Y-275124281D02*
G75*
G02X191841289Y-274475701I450515J216879D01*
G01*
X191138516Y-275124280D02*
G75*
G02X191188001Y-275341158I-450515J-216878D01*
G01*
X191188001Y-276746842D02*
X191188001Y-275341158D01*
X191188001Y-276746843D02*
G75*
G02X191138516Y-276963720I-500000J1D01*
G01*
X191841289Y-277612297D02*
G75*
G02X191138516Y-276963720I-252258J431700D01*
G01*
X191841289Y-277612298D02*
G75*
G02X192093547Y-277543999I252258J-431701D01*
G01*
X193682452Y-277543999D02*
X192093547Y-277543999D01*
X193682453Y-277544000D02*
G75*
G02X193934711Y-277612299I-1J-499999D01*
G01*
X194637484Y-276963720D02*
G75*
G02X193934711Y-277612299I-450515J-216878D01*
G01*
X194637484Y-276963720D02*
G75*
G02X194587999Y-276746842I450515J216878D01*
G01*
X194587999Y-275341158D02*
X194587999Y-276746842D01*
X194587999Y-275341157D02*
G75*
G02X194637484Y-275124280I500000J-1D01*
G01*
X193934711Y-274475703D02*
G75*
G02X194637484Y-275124280I252258J-431700D01*
G01*
X205618710Y-255425701D02*
G75*
G02X205366452Y-255494000I-252258J431701D01*
G01*
X203777548Y-255494000D02*
X205366452Y-255494000D01*
X203777548Y-255494000D02*
G75*
G02X203525289Y-255425701I0J500000D01*
G01*
X202822516Y-256074281D02*
G75*
G02X203525289Y-255425701I450515J216879D01*
G01*
X202822516Y-256074280D02*
G75*
G02X202872001Y-256291158I-450515J-216878D01*
G01*
X202872001Y-257696842D02*
X202872001Y-256291158D01*
X202872001Y-257696843D02*
G75*
G02X202822516Y-257913720I-500000J1D01*
G01*
X203525289Y-258562297D02*
G75*
G02X202822516Y-257913720I-252258J431700D01*
G01*
X203525289Y-258562298D02*
G75*
G02X203777547Y-258493999I252258J-431701D01*
G01*
X205366452Y-258493999D02*
X203777547Y-258493999D01*
X205366453Y-258494000D02*
G75*
G02X205618711Y-258562299I-1J-499999D01*
G01*
X206321484Y-257913720D02*
G75*
G02X205618711Y-258562299I-450515J-216878D01*
G01*
X206321484Y-257913720D02*
G75*
G02X206271999Y-257696842I450515J216878D01*
G01*
X206271999Y-256291158D02*
X206271999Y-257696842D01*
X206271999Y-256291157D02*
G75*
G02X206321484Y-256074280I500000J-1D01*
G01*
X205618711Y-255425703D02*
G75*
G02X206321484Y-256074280I252258J-431700D01*
G01*
X195966710Y-236375701D02*
G75*
G02X195714452Y-236444000I-252258J431701D01*
G01*
X194125548Y-236444000D02*
X195714452Y-236444000D01*
X194125548Y-236444000D02*
G75*
G02X193873289Y-236375701I0J500000D01*
G01*
X193170516Y-237024281D02*
G75*
G02X193873289Y-236375701I450515J216879D01*
G01*
X193170516Y-237024280D02*
G75*
G02X193220001Y-237241158I-450515J-216878D01*
G01*
X193220001Y-238646842D02*
X193220001Y-237241158D01*
X193220001Y-238646843D02*
G75*
G02X193170516Y-238863720I-500000J1D01*
G01*
X193873289Y-239512297D02*
G75*
G02X193170516Y-238863720I-252258J431700D01*
G01*
X193873289Y-239512298D02*
G75*
G02X194125547Y-239443999I252258J-431701D01*
G01*
X195714452Y-239443999D02*
X194125547Y-239443999D01*
X195714453Y-239444000D02*
G75*
G02X195966711Y-239512299I-1J-499999D01*
G01*
X196669484Y-238863720D02*
G75*
G02X195966711Y-239512299I-450515J-216878D01*
G01*
X196669484Y-238863720D02*
G75*
G02X196619999Y-238646842I450515J216878D01*
G01*
X196619999Y-237241158D02*
X196619999Y-238646842D01*
X196619999Y-237241157D02*
G75*
G02X196669484Y-237024280I500000J-1D01*
G01*
X195966711Y-236375703D02*
G75*
G02X196669484Y-237024280I252258J-431700D01*
G01*
X191394710Y-217325701D02*
G75*
G02X191142452Y-217394000I-252258J431701D01*
G01*
X189553548Y-217394000D02*
X191142452Y-217394000D01*
X189553548Y-217394000D02*
G75*
G02X189301289Y-217325701I0J500000D01*
G01*
X188598516Y-217974281D02*
G75*
G02X189301289Y-217325701I450515J216879D01*
G01*
X188598516Y-217974280D02*
G75*
G02X188648001Y-218191158I-450515J-216878D01*
G01*
X188648001Y-219596842D02*
X188648001Y-218191158D01*
X188648001Y-219596843D02*
G75*
G02X188598516Y-219813720I-500000J1D01*
G01*
X189301289Y-220462297D02*
G75*
G02X188598516Y-219813720I-252258J431700D01*
G01*
X189301289Y-220462298D02*
G75*
G02X189553547Y-220393999I252258J-431701D01*
G01*
X191142452Y-220393999D02*
X189553547Y-220393999D01*
X191142453Y-220394000D02*
G75*
G02X191394711Y-220462299I-1J-499999D01*
G01*
X192097484Y-219813720D02*
G75*
G02X191394711Y-220462299I-450515J-216878D01*
G01*
X192097484Y-219813720D02*
G75*
G02X192047999Y-219596842I450515J216878D01*
G01*
X192047999Y-218191158D02*
X192047999Y-219596842D01*
X192047999Y-218191157D02*
G75*
G02X192097484Y-217974280I500000J-1D01*
G01*
X191394711Y-217325703D02*
G75*
G02X192097484Y-217974280I252258J-431700D01*
G01*
X221874710Y-169065701D02*
G75*
G02X221622452Y-169134000I-252258J431701D01*
G01*
X220033548Y-169134000D02*
X221622452Y-169134000D01*
X220033548Y-169134000D02*
G75*
G02X219781289Y-169065701I0J500000D01*
G01*
X219078516Y-169714281D02*
G75*
G02X219781289Y-169065701I450515J216879D01*
G01*
X219078516Y-169714280D02*
G75*
G02X219128001Y-169931158I-450515J-216878D01*
G01*
X219128001Y-171336842D02*
X219128001Y-169931158D01*
X219128001Y-171336843D02*
G75*
G02X219078516Y-171553720I-500000J1D01*
G01*
X219781289Y-172202297D02*
G75*
G02X219078516Y-171553720I-252258J431700D01*
G01*
X219781289Y-172202298D02*
G75*
G02X220033547Y-172133999I252258J-431701D01*
G01*
X221622452Y-172133999D02*
X220033547Y-172133999D01*
X221622453Y-172134000D02*
G75*
G02X221874711Y-172202299I-1J-499999D01*
G01*
X222577484Y-171553720D02*
G75*
G02X221874711Y-172202299I-450515J-216878D01*
G01*
X222577484Y-171553720D02*
G75*
G02X222527999Y-171336842I450515J216878D01*
G01*
X222527999Y-169931158D02*
X222527999Y-171336842D01*
X222527999Y-169931157D02*
G75*
G02X222577484Y-169714280I500000J-1D01*
G01*
X221874711Y-169065703D02*
G75*
G02X222577484Y-169714280I252258J-431700D01*
G01*
X162692710Y-198275701D02*
G75*
G02X162440452Y-198344000I-252258J431701D01*
G01*
X160851548Y-198344000D02*
X162440452Y-198344000D01*
X160851548Y-198344000D02*
G75*
G02X160599289Y-198275701I0J500000D01*
G01*
X159896516Y-198924281D02*
G75*
G02X160599289Y-198275701I450515J216879D01*
G01*
X159896516Y-198924280D02*
G75*
G02X159946001Y-199141158I-450515J-216878D01*
G01*
X159946001Y-200546842D02*
X159946001Y-199141158D01*
X159946001Y-200546843D02*
G75*
G02X159896516Y-200763720I-500000J1D01*
G01*
X160599289Y-201412297D02*
G75*
G02X159896516Y-200763720I-252258J431700D01*
G01*
X160599289Y-201412298D02*
G75*
G02X160851547Y-201343999I252258J-431701D01*
G01*
X162440452Y-201343999D02*
X160851547Y-201343999D01*
X162440453Y-201344000D02*
G75*
G02X162692711Y-201412299I-1J-499999D01*
G01*
X163395484Y-200763720D02*
G75*
G02X162692711Y-201412299I-450515J-216878D01*
G01*
X163395484Y-200763720D02*
G75*
G02X163345999Y-200546842I450515J216878D01*
G01*
X163345999Y-199141158D02*
X163345999Y-200546842D01*
X163345999Y-199141157D02*
G75*
G02X163395484Y-198924280I500000J-1D01*
G01*
X162692711Y-198275703D02*
G75*
G02X163395484Y-198924280I252258J-431700D01*
G01*
X169714710Y-274399701D02*
G75*
G02X169462452Y-274468000I-252258J431701D01*
G01*
X167873548Y-274468000D02*
X169462452Y-274468000D01*
X167873548Y-274468000D02*
G75*
G02X167621289Y-274399701I0J500000D01*
G01*
X166918516Y-275048281D02*
G75*
G02X167621289Y-274399701I450515J216879D01*
G01*
X166918516Y-275048280D02*
G75*
G02X166968001Y-275265158I-450515J-216878D01*
G01*
X166968001Y-276670842D02*
X166968001Y-275265158D01*
X166968001Y-276670843D02*
G75*
G02X166918516Y-276887720I-500000J1D01*
G01*
X167621289Y-277536297D02*
G75*
G02X166918516Y-276887720I-252258J431700D01*
G01*
X167621289Y-277536298D02*
G75*
G02X167873547Y-277467999I252258J-431701D01*
G01*
X169462452Y-277467999D02*
X167873547Y-277467999D01*
X169462453Y-277468000D02*
G75*
G02X169714711Y-277536299I-1J-499999D01*
G01*
X170417484Y-276887720D02*
G75*
G02X169714711Y-277536299I-450515J-216878D01*
G01*
X170417484Y-276887720D02*
G75*
G02X170367999Y-276670842I450515J216878D01*
G01*
X170367999Y-275265158D02*
X170367999Y-276670842D01*
X170367999Y-275265157D02*
G75*
G02X170417484Y-275048280I500000J-1D01*
G01*
X169714711Y-274399703D02*
G75*
G02X170417484Y-275048280I252258J-431700D01*
G01*
X186568710Y-255425701D02*
G75*
G02X186316452Y-255494000I-252258J431701D01*
G01*
X184727548Y-255494000D02*
X186316452Y-255494000D01*
X184727548Y-255494000D02*
G75*
G02X184475289Y-255425701I0J500000D01*
G01*
X183772516Y-256074281D02*
G75*
G02X184475289Y-255425701I450515J216879D01*
G01*
X183772516Y-256074280D02*
G75*
G02X183822001Y-256291158I-450515J-216878D01*
G01*
X183822001Y-257696842D02*
X183822001Y-256291158D01*
X183822001Y-257696843D02*
G75*
G02X183772516Y-257913720I-500000J1D01*
G01*
X184475289Y-258562297D02*
G75*
G02X183772516Y-257913720I-252258J431700D01*
G01*
X184475289Y-258562298D02*
G75*
G02X184727547Y-258493999I252258J-431701D01*
G01*
X186316452Y-258493999D02*
X184727547Y-258493999D01*
X186316453Y-258494000D02*
G75*
G02X186568711Y-258562299I-1J-499999D01*
G01*
X187271484Y-257913720D02*
G75*
G02X186568711Y-258562299I-450515J-216878D01*
G01*
X187271484Y-257913720D02*
G75*
G02X187221999Y-257696842I450515J216878D01*
G01*
X187221999Y-256291158D02*
X187221999Y-257696842D01*
X187221999Y-256291157D02*
G75*
G02X187271484Y-256074280I500000J-1D01*
G01*
X186568711Y-255425703D02*
G75*
G02X187271484Y-256074280I252258J-431700D01*
G01*
X177170710Y-236375701D02*
G75*
G02X176918452Y-236444000I-252258J431701D01*
G01*
X175329548Y-236444000D02*
X176918452Y-236444000D01*
X175329548Y-236444000D02*
G75*
G02X175077289Y-236375701I0J500000D01*
G01*
X174374516Y-237024281D02*
G75*
G02X175077289Y-236375701I450515J216879D01*
G01*
X174374516Y-237024280D02*
G75*
G02X174424001Y-237241158I-450515J-216878D01*
G01*
X174424001Y-238646842D02*
X174424001Y-237241158D01*
X174424001Y-238646843D02*
G75*
G02X174374516Y-238863720I-500000J1D01*
G01*
X175077289Y-239512297D02*
G75*
G02X174374516Y-238863720I-252258J431700D01*
G01*
X175077289Y-239512298D02*
G75*
G02X175329547Y-239443999I252258J-431701D01*
G01*
X176918452Y-239443999D02*
X175329547Y-239443999D01*
X176918453Y-239444000D02*
G75*
G02X177170711Y-239512299I-1J-499999D01*
G01*
X177873484Y-238863720D02*
G75*
G02X177170711Y-239512299I-450515J-216878D01*
G01*
X177873484Y-238863720D02*
G75*
G02X177823999Y-238646842I450515J216878D01*
G01*
X177823999Y-237241158D02*
X177823999Y-238646842D01*
X177823999Y-237241157D02*
G75*
G02X177873484Y-237024280I500000J-1D01*
G01*
X177170711Y-236375703D02*
G75*
G02X177873484Y-237024280I252258J-431700D01*
G01*
X172090710Y-217325701D02*
G75*
G02X171838452Y-217394000I-252258J431701D01*
G01*
X170249548Y-217394000D02*
X171838452Y-217394000D01*
X170249548Y-217394000D02*
G75*
G02X169997289Y-217325701I0J500000D01*
G01*
X169294516Y-217974281D02*
G75*
G02X169997289Y-217325701I450515J216879D01*
G01*
X169294516Y-217974280D02*
G75*
G02X169344001Y-218191158I-450515J-216878D01*
G01*
X169344001Y-219596842D02*
X169344001Y-218191158D01*
X169344001Y-219596843D02*
G75*
G02X169294516Y-219813720I-500000J1D01*
G01*
X169997289Y-220462297D02*
G75*
G02X169294516Y-219813720I-252258J431700D01*
G01*
X169997289Y-220462298D02*
G75*
G02X170249547Y-220393999I252258J-431701D01*
G01*
X171838452Y-220393999D02*
X170249547Y-220393999D01*
X171838453Y-220394000D02*
G75*
G02X172090711Y-220462299I-1J-499999D01*
G01*
X172793484Y-219813720D02*
G75*
G02X172090711Y-220462299I-450515J-216878D01*
G01*
X172793484Y-219813720D02*
G75*
G02X172743999Y-219596842I450515J216878D01*
G01*
X172743999Y-218191158D02*
X172743999Y-219596842D01*
X172743999Y-218191157D02*
G75*
G02X172793484Y-217974280I500000J-1D01*
G01*
X172090711Y-217325703D02*
G75*
G02X172793484Y-217974280I252258J-431700D01*
G01*
X202824710Y-169065701D02*
G75*
G02X202572452Y-169134000I-252258J431701D01*
G01*
X200983548Y-169134000D02*
X202572452Y-169134000D01*
X200983548Y-169134000D02*
G75*
G02X200731289Y-169065701I0J500000D01*
G01*
X200028516Y-169714281D02*
G75*
G02X200731289Y-169065701I450515J216879D01*
G01*
X200028516Y-169714280D02*
G75*
G02X200078001Y-169931158I-450515J-216878D01*
G01*
X200078001Y-171336842D02*
X200078001Y-169931158D01*
X200078001Y-171336843D02*
G75*
G02X200028516Y-171553720I-500000J1D01*
G01*
X200731289Y-172202297D02*
G75*
G02X200028516Y-171553720I-252258J431700D01*
G01*
X200731289Y-172202298D02*
G75*
G02X200983547Y-172133999I252258J-431701D01*
G01*
X202572452Y-172133999D02*
X200983547Y-172133999D01*
X202572453Y-172134000D02*
G75*
G02X202824711Y-172202299I-1J-499999D01*
G01*
X203527484Y-171553720D02*
G75*
G02X202824711Y-172202299I-450515J-216878D01*
G01*
X203527484Y-171553720D02*
G75*
G02X203477999Y-171336842I450515J216878D01*
G01*
X203477999Y-169931158D02*
X203477999Y-171336842D01*
X203477999Y-169931157D02*
G75*
G02X203527484Y-169714280I500000J-1D01*
G01*
X202824711Y-169065703D02*
G75*
G02X203527484Y-169714280I252258J-431700D01*
G01*
X143642710Y-198275701D02*
G75*
G02X143390452Y-198344000I-252258J431701D01*
G01*
X141801548Y-198344000D02*
X143390452Y-198344000D01*
X141801548Y-198344000D02*
G75*
G02X141549289Y-198275701I0J500000D01*
G01*
X140846516Y-198924281D02*
G75*
G02X141549289Y-198275701I450515J216879D01*
G01*
X140846516Y-198924280D02*
G75*
G02X140896001Y-199141158I-450515J-216878D01*
G01*
X140896001Y-200546842D02*
X140896001Y-199141158D01*
X140896001Y-200546843D02*
G75*
G02X140846516Y-200763720I-500000J1D01*
G01*
X141549289Y-201412297D02*
G75*
G02X140846516Y-200763720I-252258J431700D01*
G01*
X141549289Y-201412298D02*
G75*
G02X141801547Y-201343999I252258J-431701D01*
G01*
X143390452Y-201343999D02*
X141801547Y-201343999D01*
X143390453Y-201344000D02*
G75*
G02X143642711Y-201412299I-1J-499999D01*
G01*
X144345484Y-200763720D02*
G75*
G02X143642711Y-201412299I-450515J-216878D01*
G01*
X144345484Y-200763720D02*
G75*
G02X144295999Y-200546842I450515J216878D01*
G01*
X144295999Y-199141158D02*
X144295999Y-200546842D01*
X144295999Y-199141157D02*
G75*
G02X144345484Y-198924280I500000J-1D01*
G01*
X143642711Y-198275703D02*
G75*
G02X144345484Y-198924280I252258J-431700D01*
G01*
X145928710Y-274475701D02*
G75*
G02X145676452Y-274544000I-252258J431701D01*
G01*
X144087548Y-274544000D02*
X145676452Y-274544000D01*
X144087548Y-274544000D02*
G75*
G02X143835289Y-274475701I0J500000D01*
G01*
X143132516Y-275124281D02*
G75*
G02X143835289Y-274475701I450515J216879D01*
G01*
X143132516Y-275124280D02*
G75*
G02X143182001Y-275341158I-450515J-216878D01*
G01*
X143182001Y-276746842D02*
X143182001Y-275341158D01*
X143182001Y-276746843D02*
G75*
G02X143132516Y-276963720I-500000J1D01*
G01*
X143835289Y-277612297D02*
G75*
G02X143132516Y-276963720I-252258J431700D01*
G01*
X143835289Y-277612298D02*
G75*
G02X144087547Y-277543999I252258J-431701D01*
G01*
X145676452Y-277543999D02*
X144087547Y-277543999D01*
X145676453Y-277544000D02*
G75*
G02X145928711Y-277612299I-1J-499999D01*
G01*
X146631484Y-276963720D02*
G75*
G02X145928711Y-277612299I-450515J-216878D01*
G01*
X146631484Y-276963720D02*
G75*
G02X146581999Y-276746842I450515J216878D01*
G01*
X146581999Y-275341158D02*
X146581999Y-276746842D01*
X146581999Y-275341157D02*
G75*
G02X146631484Y-275124280I500000J-1D01*
G01*
X145928711Y-274475703D02*
G75*
G02X146631484Y-275124280I252258J-431700D01*
G01*
X155580710Y-255425701D02*
G75*
G02X155328452Y-255494000I-252258J431701D01*
G01*
X153739548Y-255494000D02*
X155328452Y-255494000D01*
X153739548Y-255494000D02*
G75*
G02X153487289Y-255425701I0J500000D01*
G01*
X152784516Y-256074281D02*
G75*
G02X153487289Y-255425701I450515J216879D01*
G01*
X152784516Y-256074280D02*
G75*
G02X152834001Y-256291158I-450515J-216878D01*
G01*
X152834001Y-257696842D02*
X152834001Y-256291158D01*
X152834001Y-257696843D02*
G75*
G02X152784516Y-257913720I-500000J1D01*
G01*
X153487289Y-258562297D02*
G75*
G02X152784516Y-257913720I-252258J431700D01*
G01*
X153487289Y-258562298D02*
G75*
G02X153739547Y-258493999I252258J-431701D01*
G01*
X155328452Y-258493999D02*
X153739547Y-258493999D01*
X155328453Y-258494000D02*
G75*
G02X155580711Y-258562299I-1J-499999D01*
G01*
X156283484Y-257913720D02*
G75*
G02X155580711Y-258562299I-450515J-216878D01*
G01*
X156283484Y-257913720D02*
G75*
G02X156233999Y-257696842I450515J216878D01*
G01*
X156233999Y-256291158D02*
X156233999Y-257696842D01*
X156233999Y-256291157D02*
G75*
G02X156283484Y-256074280I500000J-1D01*
G01*
X155580711Y-255425703D02*
G75*
G02X156283484Y-256074280I252258J-431700D01*
G01*
X150918710Y-236451701D02*
G75*
G02X150666452Y-236520000I-252258J431701D01*
G01*
X149077548Y-236520000D02*
X150666452Y-236520000D01*
X149077548Y-236520000D02*
G75*
G02X148825289Y-236451701I0J500000D01*
G01*
X148122516Y-237100281D02*
G75*
G02X148825289Y-236451701I450515J216879D01*
G01*
X148122516Y-237100280D02*
G75*
G02X148172001Y-237317158I-450515J-216878D01*
G01*
X148172001Y-238722842D02*
X148172001Y-237317158D01*
X148172001Y-238722843D02*
G75*
G02X148122516Y-238939720I-500000J1D01*
G01*
X148825289Y-239588297D02*
G75*
G02X148122516Y-238939720I-252258J431700D01*
G01*
X148825289Y-239588298D02*
G75*
G02X149077547Y-239519999I252258J-431701D01*
G01*
X150666452Y-239519999D02*
X149077547Y-239519999D01*
X150666453Y-239520000D02*
G75*
G02X150918711Y-239588299I-1J-499999D01*
G01*
X151621484Y-238939720D02*
G75*
G02X150918711Y-239588299I-450515J-216878D01*
G01*
X151621484Y-238939720D02*
G75*
G02X151571999Y-238722842I450515J216878D01*
G01*
X151571999Y-237317158D02*
X151571999Y-238722842D01*
X151571999Y-237317157D02*
G75*
G02X151621484Y-237100280I500000J-1D01*
G01*
X150918711Y-236451703D02*
G75*
G02X151621484Y-237100280I252258J-431700D01*
G01*
X148468710Y-217325701D02*
G75*
G02X148216452Y-217394000I-252258J431701D01*
G01*
X146627548Y-217394000D02*
X148216452Y-217394000D01*
X146627548Y-217394000D02*
G75*
G02X146375289Y-217325701I0J500000D01*
G01*
X145672516Y-217974281D02*
G75*
G02X146375289Y-217325701I450515J216879D01*
G01*
X145672516Y-217974280D02*
G75*
G02X145722001Y-218191158I-450515J-216878D01*
G01*
X145722001Y-219596842D02*
X145722001Y-218191158D01*
X145722001Y-219596843D02*
G75*
G02X145672516Y-219813720I-500000J1D01*
G01*
X146375289Y-220462297D02*
G75*
G02X145672516Y-219813720I-252258J431700D01*
G01*
X146375289Y-220462298D02*
G75*
G02X146627547Y-220393999I252258J-431701D01*
G01*
X148216452Y-220393999D02*
X146627547Y-220393999D01*
X148216453Y-220394000D02*
G75*
G02X148468711Y-220462299I-1J-499999D01*
G01*
X149171484Y-219813720D02*
G75*
G02X148468711Y-220462299I-450515J-216878D01*
G01*
X149171484Y-219813720D02*
G75*
G02X149121999Y-219596842I450515J216878D01*
G01*
X149121999Y-218191158D02*
X149121999Y-219596842D01*
X149121999Y-218191157D02*
G75*
G02X149171484Y-217974280I500000J-1D01*
G01*
X148468711Y-217325703D02*
G75*
G02X149171484Y-217974280I252258J-431700D01*
G01*
X183774710Y-169065701D02*
G75*
G02X183522452Y-169134000I-252258J431701D01*
G01*
X181933548Y-169134000D02*
X183522452Y-169134000D01*
X181933548Y-169134000D02*
G75*
G02X181681289Y-169065701I0J500000D01*
G01*
X180978516Y-169714281D02*
G75*
G02X181681289Y-169065701I450515J216879D01*
G01*
X180978516Y-169714280D02*
G75*
G02X181028001Y-169931158I-450515J-216878D01*
G01*
X181028001Y-171336842D02*
X181028001Y-169931158D01*
X181028001Y-171336843D02*
G75*
G02X180978516Y-171553720I-500000J1D01*
G01*
X181681289Y-172202297D02*
G75*
G02X180978516Y-171553720I-252258J431700D01*
G01*
X181681289Y-172202298D02*
G75*
G02X181933547Y-172133999I252258J-431701D01*
G01*
X183522452Y-172133999D02*
X181933547Y-172133999D01*
X183522453Y-172134000D02*
G75*
G02X183774711Y-172202299I-1J-499999D01*
G01*
X184477484Y-171553720D02*
G75*
G02X183774711Y-172202299I-450515J-216878D01*
G01*
X184477484Y-171553720D02*
G75*
G02X184427999Y-171336842I450515J216878D01*
G01*
X184427999Y-169931158D02*
X184427999Y-171336842D01*
X184427999Y-169931157D02*
G75*
G02X184477484Y-169714280I500000J-1D01*
G01*
X183774711Y-169065703D02*
G75*
G02X184477484Y-169714280I252258J-431700D01*
G01*
X114686710Y-198199701D02*
G75*
G02X114434452Y-198268000I-252258J431701D01*
G01*
X112845548Y-198268000D02*
X114434452Y-198268000D01*
X112845548Y-198268000D02*
G75*
G02X112593289Y-198199701I0J500000D01*
G01*
X111890516Y-198848281D02*
G75*
G02X112593289Y-198199701I450515J216879D01*
G01*
X111890516Y-198848280D02*
G75*
G02X111940001Y-199065158I-450515J-216878D01*
G01*
X111940001Y-200470842D02*
X111940001Y-199065158D01*
X111940001Y-200470843D02*
G75*
G02X111890516Y-200687720I-500000J1D01*
G01*
X112593289Y-201336297D02*
G75*
G02X111890516Y-200687720I-252258J431700D01*
G01*
X112593289Y-201336298D02*
G75*
G02X112845547Y-201267999I252258J-431701D01*
G01*
X114434452Y-201267999D02*
X112845547Y-201267999D01*
X114434453Y-201268000D02*
G75*
G02X114686711Y-201336299I-1J-499999D01*
G01*
X115389484Y-200687720D02*
G75*
G02X114686711Y-201336299I-450515J-216878D01*
G01*
X115389484Y-200687720D02*
G75*
G02X115339999Y-200470842I450515J216878D01*
G01*
X115339999Y-199065158D02*
X115339999Y-200470842D01*
X115339999Y-199065157D02*
G75*
G02X115389484Y-198848280I500000J-1D01*
G01*
X114686711Y-198199703D02*
G75*
G02X115389484Y-198848280I252258J-431700D01*
G01*
X114686710Y-274475701D02*
G75*
G02X114434452Y-274544000I-252258J431701D01*
G01*
X112845548Y-274544000D02*
X114434452Y-274544000D01*
X112845548Y-274544000D02*
G75*
G02X112593289Y-274475701I0J500000D01*
G01*
X111890516Y-275124281D02*
G75*
G02X112593289Y-274475701I450515J216879D01*
G01*
X111890516Y-275124280D02*
G75*
G02X111940001Y-275341158I-450515J-216878D01*
G01*
X111940001Y-276746842D02*
X111940001Y-275341158D01*
X111940001Y-276746843D02*
G75*
G02X111890516Y-276963720I-500000J1D01*
G01*
X112593289Y-277612297D02*
G75*
G02X111890516Y-276963720I-252258J431700D01*
G01*
X112593289Y-277612298D02*
G75*
G02X112845547Y-277543999I252258J-431701D01*
G01*
X114434452Y-277543999D02*
X112845547Y-277543999D01*
X114434453Y-277544000D02*
G75*
G02X114686711Y-277612299I-1J-499999D01*
G01*
X115389484Y-276963720D02*
G75*
G02X114686711Y-277612299I-450515J-216878D01*
G01*
X115389484Y-276963720D02*
G75*
G02X115339999Y-276746842I450515J216878D01*
G01*
X115339999Y-275341158D02*
X115339999Y-276746842D01*
X115339999Y-275341157D02*
G75*
G02X115389484Y-275124280I500000J-1D01*
G01*
X114686711Y-274475703D02*
G75*
G02X115389484Y-275124280I252258J-431700D01*
G01*
X114686710Y-255425701D02*
G75*
G02X114434452Y-255494000I-252258J431701D01*
G01*
X112845548Y-255494000D02*
X114434452Y-255494000D01*
X112845548Y-255494000D02*
G75*
G02X112593289Y-255425701I0J500000D01*
G01*
X111890516Y-256074281D02*
G75*
G02X112593289Y-255425701I450515J216879D01*
G01*
X111890516Y-256074280D02*
G75*
G02X111940001Y-256291158I-450515J-216878D01*
G01*
X111940001Y-257696842D02*
X111940001Y-256291158D01*
X111940001Y-257696843D02*
G75*
G02X111890516Y-257913720I-500000J1D01*
G01*
X112593289Y-258562297D02*
G75*
G02X111890516Y-257913720I-252258J431700D01*
G01*
X112593289Y-258562298D02*
G75*
G02X112845547Y-258493999I252258J-431701D01*
G01*
X114434452Y-258493999D02*
X112845547Y-258493999D01*
X114434453Y-258494000D02*
G75*
G02X114686711Y-258562299I-1J-499999D01*
G01*
X115389484Y-257913720D02*
G75*
G02X114686711Y-258562299I-450515J-216878D01*
G01*
X115389484Y-257913720D02*
G75*
G02X115339999Y-257696842I450515J216878D01*
G01*
X115339999Y-256291158D02*
X115339999Y-257696842D01*
X115339999Y-256291157D02*
G75*
G02X115389484Y-256074280I500000J-1D01*
G01*
X114686711Y-255425703D02*
G75*
G02X115389484Y-256074280I252258J-431700D01*
G01*
X114432710Y-236375701D02*
G75*
G02X114180452Y-236444000I-252258J431701D01*
G01*
X112591548Y-236444000D02*
X114180452Y-236444000D01*
X112591548Y-236444000D02*
G75*
G02X112339289Y-236375701I0J500000D01*
G01*
X111636516Y-237024281D02*
G75*
G02X112339289Y-236375701I450515J216879D01*
G01*
X111636516Y-237024280D02*
G75*
G02X111686001Y-237241158I-450515J-216878D01*
G01*
X111686001Y-238646842D02*
X111686001Y-237241158D01*
X111686001Y-238646843D02*
G75*
G02X111636516Y-238863720I-500000J1D01*
G01*
X112339289Y-239512297D02*
G75*
G02X111636516Y-238863720I-252258J431700D01*
G01*
X112339289Y-239512298D02*
G75*
G02X112591547Y-239443999I252258J-431701D01*
G01*
X114180452Y-239443999D02*
X112591547Y-239443999D01*
X114180453Y-239444000D02*
G75*
G02X114432711Y-239512299I-1J-499999D01*
G01*
X115135484Y-238863720D02*
G75*
G02X114432711Y-239512299I-450515J-216878D01*
G01*
X115135484Y-238863720D02*
G75*
G02X115085999Y-238646842I450515J216878D01*
G01*
X115085999Y-237241158D02*
X115085999Y-238646842D01*
X115085999Y-237241157D02*
G75*
G02X115135484Y-237024280I500000J-1D01*
G01*
X114432711Y-236375703D02*
G75*
G02X115135484Y-237024280I252258J-431700D01*
G01*
X114686710Y-217325701D02*
G75*
G02X114434452Y-217394000I-252258J431701D01*
G01*
X112845548Y-217394000D02*
X114434452Y-217394000D01*
X112845548Y-217394000D02*
G75*
G02X112593289Y-217325701I0J500000D01*
G01*
X111890516Y-217974281D02*
G75*
G02X112593289Y-217325701I450515J216879D01*
G01*
X111890516Y-217974280D02*
G75*
G02X111940001Y-218191158I-450515J-216878D01*
G01*
X111940001Y-219596842D02*
X111940001Y-218191158D01*
X111940001Y-219596843D02*
G75*
G02X111890516Y-219813720I-500000J1D01*
G01*
X112593289Y-220462297D02*
G75*
G02X111890516Y-219813720I-252258J431700D01*
G01*
X112593289Y-220462298D02*
G75*
G02X112845547Y-220393999I252258J-431701D01*
G01*
X114434452Y-220393999D02*
X112845547Y-220393999D01*
X114434453Y-220394000D02*
G75*
G02X114686711Y-220462299I-1J-499999D01*
G01*
X115389484Y-219813720D02*
G75*
G02X114686711Y-220462299I-450515J-216878D01*
G01*
X115389484Y-219813720D02*
G75*
G02X115339999Y-219596842I450515J216878D01*
G01*
X115339999Y-218191158D02*
X115339999Y-219596842D01*
X115339999Y-218191157D02*
G75*
G02X115389484Y-217974280I500000J-1D01*
G01*
X114686711Y-217325703D02*
G75*
G02X115389484Y-217974280I252258J-431700D01*
G01*
X143642710Y-169065701D02*
G75*
G02X143390452Y-169134000I-252258J431701D01*
G01*
X141801548Y-169134000D02*
X143390452Y-169134000D01*
X141801548Y-169134000D02*
G75*
G02X141549289Y-169065701I0J500000D01*
G01*
X140846516Y-169714281D02*
G75*
G02X141549289Y-169065701I450515J216879D01*
G01*
X140846516Y-169714280D02*
G75*
G02X140896001Y-169931158I-450515J-216878D01*
G01*
X140896001Y-171336842D02*
X140896001Y-169931158D01*
X140896001Y-171336843D02*
G75*
G02X140846516Y-171553720I-500000J1D01*
G01*
X141549289Y-172202297D02*
G75*
G02X140846516Y-171553720I-252258J431700D01*
G01*
X141549289Y-172202298D02*
G75*
G02X141801547Y-172133999I252258J-431701D01*
G01*
X143390452Y-172133999D02*
X141801547Y-172133999D01*
X143390453Y-172134000D02*
G75*
G02X143642711Y-172202299I-1J-499999D01*
G01*
X144345484Y-171553720D02*
G75*
G02X143642711Y-172202299I-450515J-216878D01*
G01*
X144345484Y-171553720D02*
G75*
G02X144295999Y-171336842I450515J216878D01*
G01*
X144295999Y-169931158D02*
X144295999Y-171336842D01*
X144295999Y-169931157D02*
G75*
G02X144345484Y-169714280I500000J-1D01*
G01*
X143642711Y-169065703D02*
G75*
G02X144345484Y-169714280I252258J-431700D01*
G01*
M02*
